<svg width="24" height="24" viewBox="0 0 24 24" fill="none" xmlns="http://www.w3.org/2000/svg">
<path d="M20.8062 17.3665V17.808C20.8062 18.5927 20.1706 19.2283 19.3859 19.2283H18.9669C18.9669 18.4069 18.3005 17.7417 17.4802 17.7417C16.66 17.7417 15.9936 18.4069 15.9936 19.2283H8.00783C8.00783 18.4069 7.34146 17.7417 6.52122 17.7417C5.70097 17.7417 5.0346 18.4069 5.0346 19.2283H4.61442C3.82969 19.2283 3.19409 18.5927 3.19409 17.808V15.6656C3.19409 15.2892 3.34323 14.9282 3.60954 14.6619L5.91876 12.3527C6.18507 12.0864 6.54607 11.9373 6.92364 11.9373H13.7341C14.1105 11.9373 14.4715 12.0864 14.7378 12.3527L17.1595 14.7744C17.3406 14.9555 17.569 15.0845 17.8176 15.1472L19.7315 15.6277C20.3623 15.7864 20.805 16.3545 20.805 17.0055V17.3665H20.8062ZM15.59 15.6171C15.8007 15.6171 15.906 15.3626 15.7569 15.2135L13.9223 13.3777C13.8335 13.2889 13.7128 13.2392 13.5874 13.2392H7.07041C6.94495 13.2392 6.82422 13.2889 6.73545 13.3777L4.89967 15.2135C4.75054 15.3626 4.85588 15.6171 5.06656 15.6171H10.6473H15.59Z" fill="#FFE04E"/>
<path d="M20.6441 7.86687C20.6441 8.02429 20.6133 8.17816 20.5541 8.32137C20.495 8.46341 20.4086 8.59479 20.2961 8.70605L20.2511 8.75102C20.0286 8.97354 19.7268 9.099 19.4108 9.099H16.4162C16.7974 8.65515 16.9524 8.26219 16.9524 8.26219H14.758L14.3059 9.10019H10.9054C9.37969 9.10019 8.14282 7.86332 8.14282 6.33765V3.28394L8.91572 3.7195C9.36076 3.97043 9.68033 4.39534 9.79514 4.89364L9.96558 5.62511H16.402C16.4304 6.45364 17.1122 7.11646 17.9478 7.11646H20.3766C20.5494 7.32714 20.6441 7.59227 20.6441 7.86687Z" fill="#F4F5F1"/>
<path d="M20.3767 7.11635H17.9479C17.1123 7.11635 16.4305 6.45353 16.4021 5.625H18.4012C18.7161 5.625 19.0179 5.75046 19.2416 5.97298L20.2962 7.02758C20.3246 7.05598 20.3518 7.08557 20.3767 7.11635Z" fill="#9DE4E6"/>
<path d="M18.9669 19.2283C18.9669 20.0497 18.3005 20.7149 17.4803 20.7149C16.66 20.7149 15.9937 20.0497 15.9937 19.2283C15.9937 18.4069 16.66 17.7417 17.4803 17.7417C18.3005 17.7417 18.9669 18.4081 18.9669 19.2283ZM17.9774 19.2295C17.9774 18.9549 17.7549 18.7324 17.4803 18.7324C17.2057 18.7324 16.9831 18.9549 16.9831 19.2295C16.9831 19.5041 17.2057 19.7266 17.4803 19.7266C17.7549 19.7266 17.9774 19.5029 17.9774 19.2295Z" fill="#698899"/>
<path d="M17.4805 19.7267C17.7551 19.7267 17.9776 19.5041 17.9776 19.2295C17.9776 18.955 17.7551 18.7324 17.4805 18.7324C17.206 18.7324 16.9834 18.955 16.9834 19.2295C16.9834 19.5041 17.206 19.7267 17.4805 19.7267Z" fill="#121212"/>
<path d="M14.7579 8.26343H16.9535C16.9535 8.26343 16.7985 8.65639 16.4173 9.10024C15.9238 9.67429 15.0491 10.3347 13.6394 10.3347L14.3058 9.10024L14.7579 8.26343Z" fill="#E5E6E2"/>
<path d="M15.7583 15.2123C15.9074 15.3614 15.8021 15.6159 15.5914 15.6159H10.6475V13.238H13.5875C13.713 13.238 13.8337 13.2877 13.9225 13.3765L15.7583 15.2123Z" fill="#9ECBE6"/>
<path d="M11.3128 11.1147L11.5649 11.9362H9.09351L9.34561 11.1147C9.40716 10.9159 9.59062 10.7798 9.79775 10.7798H10.8594C11.0678 10.781 11.2512 10.9171 11.3128 11.1147Z" fill="#E6CA46"/>
<path d="M8.11681 13.238H10.6485V15.6159H8.11681V13.238ZM8.11681 13.238V15.6159H5.06783C4.85715 15.6159 4.75181 15.3614 4.90094 15.2123L6.73672 13.3765C6.82549 13.2877 6.94622 13.238 7.07168 13.238H8.11681Z" fill="#9ECBE6"/>
<path d="M8.00789 19.2283C8.00789 20.0497 7.34152 20.7149 6.52128 20.7149C5.70104 20.7149 5.03467 20.0497 5.03467 19.2283C5.03467 18.4069 5.70104 17.7417 6.52128 17.7417C7.34152 17.7417 8.00789 18.4081 8.00789 19.2283ZM7.01721 19.2295C7.01721 18.9549 6.79469 18.7324 6.5201 18.7324C6.2455 18.7324 6.02298 18.9549 6.02298 19.2295C6.02298 19.5041 6.2455 19.7266 6.5201 19.7266C6.79469 19.7266 7.01721 19.5029 7.01721 19.2295Z" fill="#698899"/>
<path d="M6.52006 19.7267C6.79461 19.7267 7.01718 19.5041 7.01718 19.2295C7.01718 18.955 6.79461 18.7324 6.52006 18.7324C6.24552 18.7324 6.02295 18.955 6.02295 19.2295C6.02295 19.5041 6.24552 19.7267 6.52006 19.7267Z" fill="#121212"/>
<path d="M15.9926 19.5125H8.00794C7.85052 19.5125 7.72388 19.3846 7.72388 19.2284C7.72388 19.0722 7.85171 18.9443 8.00794 18.9443H15.9937C16.1512 18.9443 16.2778 19.0722 16.2778 19.2284C16.2778 19.3846 16.15 19.5125 15.9926 19.5125Z" fill="#333333"/>
<path d="M19.386 19.5124H18.967C18.8096 19.5124 18.6829 19.3846 18.6829 19.2283C18.6829 19.0721 18.8108 18.9443 18.967 18.9443H19.386C20.0121 18.9443 20.5222 18.4341 20.5222 17.808V17.0055C20.5222 16.4836 20.1695 16.0302 19.663 15.9036L17.7491 15.423C17.4508 15.3485 17.1774 15.1934 16.9596 14.9756L14.5379 12.554C14.3261 12.3421 14.0337 12.2214 13.7343 12.2214H6.92377C6.62077 12.2214 6.33434 12.3397 6.1201 12.554L3.81088 14.862C3.59665 15.0774 3.47829 15.3627 3.47829 15.6657V17.808C3.47829 18.4341 3.98842 18.9443 4.61455 18.9443H5.03355C5.19097 18.9443 5.31762 19.0721 5.31762 19.2283C5.31762 19.3846 5.18979 19.5124 5.03355 19.5124H4.61455C3.67477 19.5124 2.91016 18.7478 2.91016 17.808V15.6645C2.91016 15.2088 3.0877 14.7815 3.40964 14.4596L5.71886 12.1504C6.0408 11.8284 6.46808 11.6509 6.92377 11.6509H13.7354C14.1911 11.6509 14.6184 11.8284 14.9404 12.1504L17.362 14.572C17.5076 14.7176 17.6899 14.8206 17.8887 14.8703L19.8026 15.3508C20.5613 15.5414 21.0916 16.2208 21.0916 17.0043V17.8068C21.0904 18.7478 20.3258 19.5124 19.386 19.5124Z" fill="#333333"/>
<path d="M15.5902 15.9013H5.06791C4.85605 15.9013 4.66785 15.7746 4.58737 15.5793C4.50688 15.3841 4.55068 15.1615 4.69981 15.0124L6.53559 13.1766C6.6788 13.0334 6.86937 12.9541 7.07176 12.9541H13.5887C13.7911 12.9541 13.9817 13.0334 14.1249 13.1766L15.9607 15.0124C16.1098 15.1615 16.1548 15.3841 16.0731 15.5793C15.9914 15.7746 15.8021 15.9013 15.5902 15.9013ZM5.18154 15.3332H15.4754L13.7213 13.5779C13.6858 13.5424 13.6384 13.5222 13.5875 13.5222H7.07058C7.01968 13.5222 6.97234 13.5424 6.93683 13.5779L5.18154 15.3332Z" fill="#333333"/>
<path d="M8.11688 15.9013C7.95946 15.9013 7.83281 15.7735 7.83281 15.6172V13.2382C7.83281 13.0807 7.96064 12.9541 8.11688 12.9541C8.27311 12.9541 8.40094 13.0819 8.40094 13.2382V15.616C8.40094 15.7735 8.27311 15.9013 8.11688 15.9013ZM10.6474 15.9013C10.49 15.9013 10.3634 15.7735 10.3634 15.6172V13.2382C10.3634 13.0807 10.4912 12.9541 10.6474 12.9541C10.8037 12.9541 10.9315 13.0819 10.9315 13.2382V15.616C10.9315 15.7735 10.8049 15.9013 10.6474 15.9013ZM6.52019 21.0003C5.54371 21.0003 4.74951 20.2061 4.74951 19.2296C4.74951 18.2531 5.54371 17.4589 6.52019 17.4589C7.49667 17.4589 8.29087 18.2531 8.29087 19.2296C8.29087 20.2061 7.49667 21.0003 6.52019 21.0003ZM6.52019 18.0259C5.85737 18.0259 5.31764 18.5656 5.31764 19.2284C5.31764 19.8912 5.85737 20.4321 6.52019 20.4321C7.18301 20.4321 7.72274 19.8924 7.72274 19.2296C7.72274 18.5668 7.18419 18.0259 6.52019 18.0259Z" fill="#333333"/>
<path d="M6.5202 20.0106C6.08936 20.0106 5.73901 19.6603 5.73901 19.2294C5.73901 18.7986 6.08936 18.4482 6.5202 18.4482C6.95103 18.4482 7.30138 18.7986 7.30138 19.2294C7.30138 19.6603 6.95103 20.0106 6.5202 20.0106ZM6.5202 19.0164C6.40302 19.0164 6.30715 19.1122 6.30715 19.2294C6.30715 19.3466 6.40302 19.4425 6.5202 19.4425C6.63737 19.4425 6.73324 19.3466 6.73324 19.2294C6.73324 19.1122 6.63856 19.0164 6.5202 19.0164ZM17.4804 21.0001C16.5039 21.0001 15.7097 20.2059 15.7097 19.2294C15.7097 18.2529 16.5039 17.4587 17.4804 17.4587C18.4569 17.4587 19.2511 18.2529 19.2511 19.2294C19.2511 20.2059 18.4569 21.0001 17.4804 21.0001ZM17.4804 18.0257C16.8176 18.0257 16.2779 18.5654 16.2779 19.2282C16.2779 19.8911 16.8176 20.4308 17.4804 20.4308C18.1432 20.4308 18.683 19.8911 18.683 19.2282C18.683 18.5654 18.1432 18.0257 17.4804 18.0257Z" fill="#333333"/>
<path d="M17.4804 20.0107C17.0496 20.0107 16.6993 19.6603 16.6993 19.2295C16.6993 18.7987 17.0496 18.4483 17.4804 18.4483C17.9113 18.4483 18.2616 18.7987 18.2616 19.2295C18.2616 19.6603 17.9101 20.0107 17.4804 20.0107ZM17.4804 19.0165C17.3633 19.0165 17.2674 19.1123 17.2674 19.2295C17.2674 19.3467 17.3633 19.4426 17.4804 19.4426C17.5976 19.4426 17.6935 19.3467 17.6935 19.2295C17.6935 19.1123 17.5976 19.0165 17.4804 19.0165ZM20.8064 17.6506H19.9222C19.7648 17.6506 19.6382 17.5227 19.6382 17.3665C19.6382 17.2103 19.766 17.0824 19.9222 17.0824H20.8064C20.9638 17.0824 21.0904 17.2103 21.0904 17.3665C21.0904 17.5227 20.9638 17.6506 20.8064 17.6506ZM8.77855 17.4079H9.49463V18.124H8.77855V17.4079ZM9.49463 16.6918H10.2107V17.4079H9.49463V16.6918ZM10.2107 17.4079H10.9268V18.124H10.2107V17.4079ZM10.9268 16.6918H11.6429V17.4079H10.9268V16.6918ZM11.6429 17.4079H12.359V18.124H11.6429V17.4079ZM12.3578 16.6918H13.0739V17.4079H12.3578V16.6918ZM13.0739 17.4079H13.7899V18.124H13.0739V17.4079ZM13.7899 16.6918H14.506V17.4079H13.7899V16.6918ZM14.506 17.4079H15.2221V18.124H14.506V17.4079ZM11.5648 12.2202H9.09339C9.00344 12.2202 8.91822 12.1776 8.86495 12.1054C8.81169 12.0332 8.79512 11.9397 8.82234 11.8533L9.07445 11.0318C9.17269 10.7123 9.46386 10.4968 9.79882 10.4968H10.8605C11.1955 10.4968 11.4866 10.7123 11.5849 11.0318L11.837 11.8533C11.863 11.9397 11.8476 12.0332 11.7944 12.1054C11.7399 12.1776 11.6547 12.2202 11.5648 12.2202ZM9.47806 11.652H11.1801L11.0404 11.1987C11.0156 11.1182 10.9434 11.065 10.8593 11.065H9.79882C9.71478 11.065 9.64258 11.1182 9.61773 11.1987L9.47806 11.652ZM19.4121 9.38425H16.4176C16.2601 9.38425 16.1335 9.25642 16.1335 9.10018C16.1335 8.94395 16.2613 8.81612 16.4176 8.81612H19.4121C19.6535 8.81612 19.8808 8.72261 20.0512 8.55099L20.0962 8.50601C20.1803 8.42197 20.2465 8.32255 20.2915 8.21248C20.3377 8.1024 20.3602 7.98522 20.3602 7.86686C20.3602 7.65973 20.288 7.45615 20.1566 7.29518C20.1376 7.27151 20.1163 7.24902 20.095 7.22771L19.0404 6.17312C18.87 6.00268 18.6427 5.90799 18.4013 5.90799H9.96571C9.83315 5.90799 9.71952 5.81685 9.68875 5.68784L9.51949 4.95755C9.42243 4.53855 9.15139 4.17755 8.77737 3.96687L8.4282 3.77039V6.33764C8.4282 7.70471 9.54079 8.81612 10.9067 8.81612H14.3072C14.4646 8.81612 14.5913 8.94395 14.5913 9.10018C14.5913 9.25642 14.4634 9.38425 14.3072 9.38425H10.9055C10.0912 9.38425 9.32656 9.06704 8.75133 8.49181C8.17609 7.91657 7.85889 7.15078 7.85889 6.33764V3.28393C7.85889 3.18332 7.91215 3.08982 7.99974 3.03892C8.08732 2.98803 8.19503 2.98684 8.28262 3.03656L9.05552 3.47212C9.56802 3.76092 9.93967 4.25567 10.0722 4.82854L10.1918 5.34104H18.4025C18.7954 5.34104 19.1647 5.49373 19.4429 5.77187L20.4975 6.82647C20.5318 6.86198 20.5661 6.89867 20.5969 6.93655C20.8111 7.19812 20.9283 7.52835 20.9283 7.86686C20.9283 8.06097 20.8904 8.25035 20.8159 8.43026C20.7413 8.61017 20.6348 8.76996 20.4975 8.90725L20.4525 8.95223C20.1743 9.23038 19.805 9.38425 19.4121 9.38425Z" fill="#333333"/>
<path d="M13.6395 10.6187C13.5401 10.6187 13.4466 10.5655 13.3957 10.4803C13.3448 10.395 13.3424 10.2873 13.3898 10.1997L14.5083 8.12842C14.558 8.0361 14.6539 7.97929 14.758 7.97929H16.9536C17.0471 7.97929 17.1359 8.02545 17.188 8.10357C17.2401 8.18169 17.2519 8.27993 17.2176 8.36751C17.2081 8.39118 16.9856 8.9463 16.434 9.50023C16.1097 9.82572 15.7381 10.0849 15.3285 10.2708C14.8184 10.5004 14.2503 10.6187 13.6395 10.6187ZM14.9273 8.54742L14.1319 10.021C14.8764 9.92869 15.5144 9.61859 16.0328 9.09898C16.2281 8.90369 16.3737 8.70839 16.4778 8.54742H14.9273ZM20.3766 7.4005H17.9479C17.4709 7.4005 17.0187 7.21704 16.6755 6.88563C16.3334 6.55422 16.1358 6.11037 16.1192 5.63456C16.1133 5.47714 16.2364 5.34576 16.3926 5.34103C16.5488 5.33511 16.6814 5.4582 16.6861 5.61444C16.7098 6.29738 17.2637 6.83119 17.9479 6.83119H20.3766C20.534 6.83119 20.6607 6.95902 20.6607 7.11525C20.6607 7.27149 20.534 7.4005 20.3766 7.4005ZM15.5025 6.94245H14.9095C14.7521 6.94245 14.6255 6.81462 14.6255 6.65838C14.6255 6.50215 14.7533 6.37432 14.9095 6.37432H15.5025C15.6599 6.37432 15.7866 6.50215 15.7866 6.65838C15.7866 6.81462 15.6599 6.94245 15.5025 6.94245ZM13.9153 6.94245H13.3223C13.1649 6.94245 13.0382 6.81462 13.0382 6.65838C13.0382 6.50215 13.1661 6.37432 13.3223 6.37432H13.9153C14.0727 6.37432 14.1994 6.50215 14.1994 6.65838C14.1994 6.81462 14.0727 6.94245 13.9153 6.94245ZM12.3281 6.94245H11.7351C11.5777 6.94245 11.451 6.81462 11.451 6.65838C11.451 6.50215 11.5789 6.37432 11.7351 6.37432H12.3281C12.4855 6.37432 12.6122 6.50215 12.6122 6.65838C12.6122 6.81462 12.4843 6.94245 12.3281 6.94245ZM10.7409 6.94245H10.1479C9.99046 6.94245 9.86381 6.81462 9.86381 6.65838C9.86381 6.50215 9.99164 6.37432 10.1479 6.37432H10.7409C10.8983 6.37432 11.0249 6.50215 11.0249 6.65838C11.0249 6.81462 10.8971 6.94245 10.7409 6.94245ZM6.86691 5.96834H3.35633C3.19891 5.96834 3.07227 5.84051 3.07227 5.68427C3.07227 5.52804 3.2001 5.40021 3.35633 5.40021H6.86691C7.02433 5.40021 7.15098 5.52804 7.15098 5.68427C7.15098 5.84051 7.02433 5.96834 6.86691 5.96834ZM6.86691 7.09395H4.54941C4.39199 7.09395 4.26534 6.96612 4.26534 6.80988C4.26534 6.65365 4.39317 6.52582 4.54941 6.52582H6.86691C7.02433 6.52582 7.15098 6.65365 7.15098 6.80988C7.15098 6.96612 7.02433 7.09395 6.86691 7.09395ZM6.86691 8.21838H3.35633C3.19891 8.21838 3.07227 8.09055 3.07227 7.93431C3.07227 7.77808 3.2001 7.65025 3.35633 7.65025H6.86691C7.02433 7.65025 7.15098 7.77808 7.15098 7.93431C7.15098 8.09055 7.02433 8.21838 6.86691 8.21838Z" fill="#333333"/>
</svg>
