<?xml version="1.0" standalone="no"?>
<!DOCTYPE svg PUBLIC "-//W3C//DTD SVG 20010904//EN"
 "http://www.w3.org/TR/2001/REC-SVG-20010904/DTD/svg10.dtd">
<svg version="1.0" xmlns="http://www.w3.org/2000/svg"
 width="96.000000pt" height="96.000000pt" viewBox="0 0 96.000000 96.000000"
 preserveAspectRatio="xMidYMid meet">

<g transform="translate(0.000000,96.000000) scale(0.100000,-0.100000)"
fill="#000000" stroke="none">
<path d="M102 887 c-60 -61 -59 -96 7 -161 33 -32 51 -44 56 -36 4 6 2 17 -4
23 -16 16 -13 88 5 108 13 14 21 16 46 7 21 -7 26 -14 19 -21 -8 -8 -5 -18 11
-34 l21 -23 -73 -75 -73 -76 6 -78 6 -79 -49 -45 c-55 -49 -62 -75 -30 -107
25 -25 55 -26 75 -2 8 9 40 45 71 79 l56 62 -7 53 -7 53 31 -29 c30 -29 31
-32 31 -119 l0 -88 42 -37 c83 -74 98 -92 98 -116 0 -39 19 -41 57 -5 33 32
35 32 28 9 -9 -28 -55 -77 -76 -80 -53 -8 -82 29 -60 77 10 21 9 28 -1 34 -19
13 -38 -19 -38 -63 0 -64 60 -103 119 -78 16 6 83 66 148 133 129 132 147 165
136 251 -5 36 -4 38 17 31 29 -9 72 2 65 18 -4 7 5 -1 19 -17 59 -70 53 -223
-11 -247 -13 -5 -28 -20 -33 -33 -16 -43 -129 -97 -232 -111 -37 -5 -46 -9
-41 -22 12 -31 168 8 248 62 24 17 44 23 59 19 31 -7 56 19 55 59 -1 18 6 52
16 77 31 82 9 174 -56 239 -47 47 -86 64 -165 69 -80 5 -104 -8 -104 -57 0
-41 31 -65 74 -57 29 6 37 3 45 -13 6 -11 11 -26 11 -35 0 -13 -3 -13 -27 0
-38 19 -62 18 -101 -6 -48 -29 -58 -16 -65 85 -7 99 -13 113 -79 181 l-49 51
43 16 c24 8 64 18 91 22 42 6 47 4 47 -14 0 -39 11 -51 49 -51 30 0 47 9 93
50 l56 50 76 0 c69 0 76 2 76 20 0 18 -7 20 -76 20 l-76 0 -56 50 c-46 41 -63
50 -93 50 -37 0 -49 -12 -49 -49 0 -16 -13 -19 -87 -25 -96 -8 -145 -24 -184
-62 -22 -21 -28 -23 -38 -10 -8 10 -9 16 -1 21 22 13 8 35 -30 46 -27 8 -40
18 -40 30 0 16 -34 49 -50 49 -3 0 -25 -19 -48 -43z m623 -47 c28 -29 28 -30
9 -51 -10 -11 -28 -25 -39 -31 -16 -9 -18 -8 -7 3 14 16 16 65 2 74 -12 7 -13
35 -2 35 5 0 21 -13 37 -30z m-57 -36 c-2 -13 -21 -16 -98 -18 -77 -3 -106 -8
-152 -29 -59 -26 -66 -35 -47 -54 8 -8 8 -17 0 -31 -14 -27 7 -43 24 -19 11
15 14 15 30 -3 18 -20 18 -22 -40 -80 -33 -33 -64 -60 -71 -60 -6 0 -19 9 -29
20 -12 13 -14 20 -6 20 7 0 11 6 8 13 -2 6 -13 12 -24 12 -11 1 -28 7 -36 14
-29 24 -35 3 -19 -74 l15 -75 -63 -67 c-72 -77 -70 -76 -89 -64 -15 10 -6 51
12 51 7 0 29 20 49 45 33 41 35 49 27 78 -5 17 -9 49 -9 71 0 35 8 47 93 134
121 124 138 132 300 132 112 0 128 -2 125 -16z m-178 -295 c0 -41 -25 -61 -35
-28 -4 10 -11 19 -18 19 -22 0 -67 -54 -67 -79 0 -15 -8 -31 -20 -39 -19 -12
-20 -10 -20 35 0 45 3 51 68 116 l67 68 12 -28 c7 -15 12 -44 13 -64z m295 5
c31 -14 34 -19 20 -26 -10 -6 -21 -5 -31 3 -13 10 -20 10 -36 0 -15 -9 -23
-10 -34 0 -11 9 -21 9 -40 0 -14 -6 -30 -9 -35 -6 -11 7 -12 39 -1 49 12 13
116 0 157 -20z m-355 -114 c0 -18 11 -42 30 -63 21 -24 26 -37 19 -44 -8 -8
-20 -2 -40 22 -23 26 -29 42 -29 79 0 29 4 45 10 41 6 -3 10 -19 10 -35z m121
-67 c22 -24 37 -48 34 -53 -9 -14 -115 80 -122 108 -9 36 17 47 34 15 8 -15
32 -46 54 -70z m-112 -66 c33 -38 59 -73 56 -78 -6 -8 -147 100 -161 123 -8
13 27 42 37 31 3 -5 34 -39 68 -76z m101 -35 l0 -25 -21 27 c-11 14 -17 31
-14 36 11 17 35 -9 35 -38z m324 -73 c-3 -5 -10 -7 -15 -3 -5 3 -7 10 -3 15 3
5 10 7 15 3 5 -3 7 -10 3 -15z"/>
<path d="M714 686 c-3 -8 -4 -25 -2 -38 2 -19 9 -23 38 -23 33 0 35 2 35 35 0
32 -3 35 -33 38 -21 2 -34 -2 -38 -12z m46 -26 c0 -5 -4 -10 -10 -10 -5 0 -10
5 -10 10 0 6 5 10 10 10 6 0 10 -4 10 -10z"/>
<path d="M830 671 c0 -15 6 -21 21 -21 25 0 22 33 -4 38 -12 2 -17 -3 -17 -17z"/>
<path d="M590 611 c0 -15 6 -21 21 -21 14 0 19 5 17 17 -5 26 -38 29 -38 4z"/>
<path d="M847 593 c-14 -13 -6 -33 13 -33 13 0 20 7 20 20 0 19 -20 27 -33 13z"/>
<path d="M825 420 c-3 -5 -1 -27 5 -49 20 -74 -12 -135 -99 -190 -30 -20 -48
-38 -45 -46 7 -19 34 -9 90 34 83 63 113 144 83 230 -11 31 -23 39 -34 21z"/>
<path d="M780 362 c0 -10 -11 -40 -25 -67 -23 -46 -24 -65 -5 -65 5 0 21 20
35 43 28 49 34 107 10 107 -8 0 -15 -8 -15 -18z"/>
<path d="M623 132 c-7 -4 -9 -13 -4 -21 11 -18 52 -5 44 15 -6 15 -21 18 -40
6z"/>
</g>
</svg>
