<?xml version="1.0" encoding="UTF-8"?>
<svg version="1.1" xmlns="http://www.w3.org/2000/svg" width="96" height="96">
<path d="M0 0 C1.31653564 0.01135986 1.31653564 0.01135986 2.65966797 0.02294922 C9.45144448 0.1952272 15.06562583 1.23369297 21.125 4.4375 C21.98222656 4.87320312 22.83945313 5.30890625 23.72265625 5.7578125 C36.08766834 12.58374678 43.23004062 22.68856753 47.52075195 36.01293945 C48.54203578 40.11086661 48.61362209 44.10669413 48.5625 48.3125 C48.55492676 49.19019043 48.54735352 50.06788086 48.53955078 50.97216797 C48.3672728 57.76394448 47.32880703 63.37812583 44.125 69.4375 C43.47144531 70.72333984 43.47144531 70.72333984 42.8046875 72.03515625 C35.97875322 84.40016834 25.87393247 91.54254062 12.54956055 95.83325195 C8.45163339 96.85453578 4.45580587 96.92612209 0.25 96.875 C-0.62769043 96.86742676 -1.50538086 96.85985352 -2.40966797 96.85205078 C-9.20144448 96.6797728 -14.81562583 95.64130703 -20.875 92.4375 C-22.16083984 91.78394531 -22.16083984 91.78394531 -23.47265625 91.1171875 C-35.83766834 84.29125322 -42.98004062 74.18643247 -47.27075195 60.86206055 C-48.29203578 56.76413339 -48.36362209 52.76830587 -48.3125 48.5625 C-48.30492676 47.68480957 -48.29735352 46.80711914 -48.28955078 45.90283203 C-48.1172728 39.11105552 -47.07880703 33.49687417 -43.875 27.4375 C-43.43929687 26.58027344 -43.00359375 25.72304688 -42.5546875 24.83984375 C-35.72875322 12.47483166 -25.62393247 5.33245938 -12.29956055 1.04174805 C-8.20163339 0.02046422 -4.20580587 -0.05112209 0 0 Z " fill="#FDFEFE" transform="translate(47.875,-0.4375)"/>
<path d="M0 0 C1.12085999 0.00007553 2.24171997 0.00015106 3.39654541 0.00022888 C4.60083191 0.00539017 5.80511841 0.01055145 7.04589844 0.01586914 C8.28321716 0.01728409 9.52053589 0.01869904 10.79534912 0.02015686 C14.07672285 0.0248043 17.35804717 0.03378192 20.6394043 0.04486084 C23.99104355 0.05511019 27.34268492 0.0595768 30.69433594 0.06469727 C37.26467024 0.07572515 43.83496225 0.09298922 50.40527344 0.11352539 C50.40527344 5.39352539 50.40527344 10.67352539 50.40527344 16.11352539 C36.54527344 16.11352539 22.68527344 16.11352539 8.40527344 16.11352539 C8.40527344 19.08352539 8.40527344 22.05352539 8.40527344 25.11352539 C22.26527344 25.44352539 36.12527344 25.77352539 50.40527344 26.11352539 C50.40527344 27.10352539 50.40527344 28.09352539 50.40527344 29.11352539 C44.73105115 29.16326235 39.05695805 29.19940359 33.38256836 29.22338867 C31.45546251 29.23339626 29.52837166 29.24700649 27.60131836 29.2644043 C24.81848431 29.2888846 22.03585243 29.30006117 19.25292969 29.30883789 C18.4025563 29.31916046 17.55218292 29.32948303 16.67604065 29.34011841 C11.11790316 29.34114213 5.69839416 28.93611655 0.40527344 27.11352539 C-1.84283602 24.86541594 -2.18755941 23.62951207 -3.03222656 20.61352539 C-3.28488281 19.72922852 -3.53753906 18.84493164 -3.79785156 17.93383789 C-4.19230469 16.5377832 -4.19230469 16.5377832 -4.59472656 15.11352539 C-5.15396079 13.23754876 -5.71629883 11.36249365 -6.28222656 9.48852539 C-6.71972656 8.03019206 -7.15722656 6.57185872 -7.59472656 5.11352539 C-8.25472656 5.11352539 -8.91472656 5.11352539 -9.59472656 5.11352539 C-9.59472656 3.79352539 -9.59472656 2.47352539 -9.59472656 1.11352539 C-6.3336979 0.13955253 -3.39650786 -0.00764979 0 0 Z " fill="#CCD5D8" transform="translate(29.5947265625,49.886474609375)"/>
<path d="M0 0 C2.64 0 5.28 0 8 0 C8 0.99 8 1.98 8 3 C10.31 3 12.62 3 15 3 C14.6875 4.875 14.6875 4.875 14 7 C13.01 7.66 12.02 8.32 11 9 C11 9.99 11 10.98 11 12 C26.84 12 42.68 12 59 12 C59 12.66 59 13.32 59 14 C45.14 14 31.28 14 17 14 C17 16.97 17 19.94 17 23 C30.86 23.33 44.72 23.66 59 24 C59 24.99 59 25.98 59 27 C53.32577771 27.04973696 47.65168462 27.0858782 41.97729492 27.10986328 C40.05018908 27.11987087 38.12309822 27.1334811 36.19604492 27.15087891 C33.41321087 27.17535921 30.63057899 27.18653578 27.84765625 27.1953125 C26.99728287 27.20563507 26.14690948 27.21595764 25.27076721 27.22659302 C19.71262972 27.22761674 14.29312072 26.82259116 9 25 C6.74068906 22.74068906 6.4417458 21.5363726 5.625 18.5 C4.31867026 13.88430158 2.65802303 9.53538708 0.76953125 5.12890625 C0 3 0 3 0 0 Z " fill="#A4A2A9" transform="translate(21,52)"/>
<path d="M0 0 C0.99 0 1.98 0 3 0 C2.01 2.97 1.02 5.94 0 9 C0.66 9 1.32 9 2 9 C2 9.66 2 10.32 2 11 C3.32 10.67 4.64 10.34 6 10 C6 11.32 6 12.64 6 14 C7.65 13.34 9.3 12.68 11 12 C11.33 9.03 11.66 6.06 12 3 C16.67201205 1.79431947 21.21496292 1.90617574 26 2 C24.125 5.875 24.125 5.875 23 7 C22.76924918 8.34747084 22.58846937 9.70377565 22.4375 11.0625 C22.293125 12.361875 22.14875 13.66125 22 15 C22.66 15 23.32 15 24 15 C24 15.66 24 16.32 24 17 C24.99 17 25.98 17 27 17 C27 17.99 27 18.98 27 20 C14.46 20 1.92 20 -11 20 C-11 19.01 -11 18.02 -11 17 C-10.34 17 -9.68 17 -9 17 C-9 15.68 -9 14.36 -9 13 C-8.34 13 -7.68 13 -7 13 C-6.71125 12.278125 -6.4225 11.55625 -6.125 10.8125 C-5.08333333 8.20833333 -4.04166667 5.60416667 -3 3 C-2.34 3 -1.68 3 -1 3 C-0.67 2.01 -0.34 1.02 0 0 Z " fill="#BCB8B9" transform="translate(53,22)"/>
<path d="M0 0 C13.86 0 27.72 0 42 0 C42 3.3 42 6.6 42 10 C37.94727542 10.0250883 33.89458214 10.04303967 29.84179688 10.05493164 C28.46874197 10.05989951 27.09569218 10.0666761 25.72265625 10.07543945 C17.08981994 10.12907915 8.58897059 9.89797465 0 9 C0 6.03 0 3.06 0 0 Z " fill="#C8D2D5" transform="translate(38,66)"/>
<path d="M0 0 C14.85 0 29.7 0 45 0 C45 0.99 45 1.98 45 3 C29.82 3 14.64 3 -1 3 C-0.67 2.01 -0.34 1.02 0 0 Z " fill="#787B7D" transform="translate(35,45)"/>
<path d="M0 0 C0.33 0.66 0.66 1.32 1 2 C13.54 2 26.08 2 39 2 C39 2.99 39 3.98 39 5 C24.48 5 9.96 5 -5 5 C-4.01 4.67 -3.02 4.34 -2 4 C-2 3.34 -2 2.68 -2 2 C-1.34 2 -0.68 2 0 2 C0 1.34 0 0.68 0 0 Z " fill="#EBECED" transform="translate(41,40)"/>
<path d="M0 0 C0.79019531 0.00902344 1.58039063 0.01804687 2.39453125 0.02734375 C3.28205078 0.04474609 3.28205078 0.04474609 4.1875 0.0625 C4.1875 0.7225 4.1875 1.3825 4.1875 2.0625 C2.5375 2.3925 0.8875 2.7225 -0.8125 3.0625 C-0.8125 6.3625 -0.8125 9.6625 -0.8125 13.0625 C-4.1125 13.0625 -7.4125 13.0625 -10.8125 13.0625 C-10.4825 9.1025 -10.1525 5.1425 -9.8125 1.0625 C-6.19060828 0.33812166 -3.57484736 -0.05335593 0 0 Z " fill="#EB1718" transform="translate(74.8125,23.9375)"/>
<path d="M0 0 C0.886875 0.309375 1.77375 0.61875 2.6875 0.9375 C13.35859486 3.96062329 25.27353163 3.24614168 36.3125 3.5625 C37.74675315 3.60584415 39.18099804 3.64946251 40.61523438 3.69335938 C44.07673386 3.79872057 47.53832884 3.90041812 51 4 C51 4.66 51 5.32 51 6 C45.32577771 6.04973696 39.65168462 6.0858782 33.97729492 6.10986328 C32.05018908 6.11987087 30.12309822 6.1334811 28.19604492 6.15087891 C25.41321087 6.17535921 22.63057899 6.18653578 19.84765625 6.1953125 C18.99728287 6.20563507 18.14690948 6.21595764 17.27076721 6.22659302 C11.60476412 6.2276366 6.47499043 5.45309804 1 4 C0.67 2.68 0.34 1.36 0 0 Z " fill="#255C7E" transform="translate(29,73)"/>
<path d="M0 0 C0.99 0 1.98 0 3 0 C2.01 2.97 1.02 5.94 0 9 C0.66 9 1.32 9 2 9 C2 9.66 2 10.32 2 11 C2.99 11 3.98 11 5 11 C5 11.99 5 12.98 5 14 C4.34 14 3.68 14 3 14 C3 14.66 3 15.32 3 16 C-0.96 16 -4.92 16 -9 16 C-9 15.01 -9 14.02 -9 13 C-8.34 13 -7.68 13 -7 13 C-6.71125 12.278125 -6.4225 11.55625 -6.125 10.8125 C-5.08333333 8.20833333 -4.04166667 5.60416667 -3 3 C-2.34 3 -1.68 3 -1 3 C-0.67 2.01 -0.34 1.02 0 0 Z " fill="#C9CCCD" transform="translate(53,22)"/>
<path d="M0 0 C0.94082428 0.02009628 1.88164856 0.04019257 2.85098267 0.06089783 C3.86872772 0.08793289 4.88647278 0.11496796 5.93505859 0.14282227 C6.97544281 0.16643326 8.01582703 0.19004425 9.08773804 0.21437073 C12.41979253 0.29111427 15.75162084 0.37509267 19.08349609 0.45922852 C21.33869326 0.51243849 23.59390155 0.56517895 25.84912109 0.61743164 C31.38572023 0.74674384 36.92215056 0.88200084 42.45849609 1.02172852 C42.45849609 1.68172852 42.45849609 2.34172852 42.45849609 3.02172852 C22.65849609 3.35172852 2.85849609 3.68172852 -17.54150391 4.02172852 C-15.15378655 1.63401116 -14.31295876 1.70883627 -11.04150391 1.45922852 C-7.09558572 1.14534866 -3.97769204 -0.09571986 0 0 Z " fill="#E6EAEB" transform="translate(37.54150390625,46.978271484375)"/>
<path d="M0 0 C2.97 0.495 2.97 0.495 6 1 C5.896875 2.051875 5.79375 3.10375 5.6875 4.1875 C5.63016506 10.55167801 8.54456378 16.24726371 11 22 C9.68 22.33 8.36 22.66 7 23 C6.82984375 22.39414063 6.6596875 21.78828125 6.484375 21.1640625 C4.89197605 15.65842782 3.02749724 10.39749356 0.76953125 5.12890625 C0 3 0 3 0 0 Z " fill="#608B96" transform="translate(21,52)"/>
<path d="M0 0 C3.63 0 7.26 0 11 0 C11 1.32 11 2.64 11 4 C7.37 4 3.74 4 0 4 C0 2.68 0 1.36 0 0 Z " fill="#45494A" transform="translate(64,54)"/>
<path d="M0 0 C3.3 0 6.6 0 10 0 C10 1.32 10 2.64 10 4 C6.7 4 3.4 4 0 4 C0 2.68 0 1.36 0 0 Z " fill="#3B3F40" transform="translate(48,54)"/>
<path d="M0 0 C0.886875 0.309375 1.77375 0.61875 2.6875 0.9375 C8.30877947 2.57510414 14.18552198 2.66774411 20 3 C20 3.33 20 3.66 20 4 C17.60472566 4.22295635 15.20998659 4.42874063 12.8125 4.625 C11.80219727 4.72167969 11.80219727 4.72167969 10.77148438 4.8203125 C6.62909282 5.14362111 3.71694891 4.89095265 0 3 C0 2.01 0 1.02 0 0 Z " fill="#35617A" transform="translate(29,73)"/>
<path d="M0 0 C1.4384798 0.06423833 2.87666999 0.14163547 4.3125 0.25 C4.3125 0.91 4.3125 1.57 4.3125 2.25 C3.06829353 2.7845256 1.81679064 3.30208611 0.5625 3.8125 C-0.13359375 4.10253906 -0.8296875 4.39257812 -1.546875 4.69140625 C-3.98762784 5.32831803 -5.3278655 5.05248831 -7.6875 4.25 C-5.84004374 0.30875998 -4.09551026 -0.02575793 0 0 Z " fill="#A51313" transform="translate(74.6875,23.75)"/>
<path d="M0 0 C1.98 0 3.96 0 6 0 C6 2.97 6 5.94 6 9 C3 8 3 8 2.05078125 6.15234375 C1.80714844 5.42144531 1.56351563 4.69054687 1.3125 3.9375 C1.06113281 3.20402344 0.80976562 2.47054687 0.55078125 1.71484375 C0.36902344 1.14894531 0.18726563 0.58304687 0 0 Z " fill="#9DB6BD" transform="translate(32,66)"/>
<path d="M0 0 C3.41703059 2.2780204 3.79651189 3.38372165 5.1875 7.125 C5.53167969 8.03507812 5.87585938 8.94515625 6.23046875 9.8828125 C6.48441406 10.58148438 6.73835938 11.28015625 7 12 C5.68 12.33 4.36 12.66 3 13 C2.49487756 11.39743892 1.99608373 9.79288208 1.5 8.1875 C1.2215625 7.29417969 0.943125 6.40085937 0.65625 5.48046875 C0 3 0 3 0 0 Z " fill="#5E848E" transform="translate(25,62)"/>
<path d="M0 0 C0.99 0 1.98 0 3 0 C1.125 5.75 1.125 5.75 0 8 C-0.99 8 -1.98 8 -3 8 C-3 6.35 -3 4.7 -3 3 C-2.34 3 -1.68 3 -1 3 C-0.67 2.01 -0.34 1.02 0 0 Z " fill="#D9DBDC" transform="translate(53,22)"/>
<path d="M0 0 C1.32 0 2.64 0 4 0 C4 0.99 4 1.98 4 3 C3.34 3 2.68 3 2 3 C1.67 3.66 1.34 4.32 1 5 C1 4.34 1 3.68 1 3 C-1.64 3 -4.28 3 -7 3 C-7 2.67 -7 2.34 -7 2 C-4.69 2 -2.38 2 0 2 C0 1.34 0 0.68 0 0 Z " fill="#CBCDCE" transform="translate(54,33)"/>
<path d="M0 0 C1.65 0 3.3 0 5 0 C5 1.32 5 2.64 5 4 C3.35 4 1.7 4 0 4 C0 2.68 0 1.36 0 0 Z " fill="#394244" transform="translate(38,54)"/>
<path d="M0 0 C1.65 0 3.3 0 5 0 C5 0.99 5 1.98 5 3 C3.02 3 1.04 3 -1 3 C-0.67 2.01 -0.34 1.02 0 0 Z " fill="#646B6E" transform="translate(31,55)"/>
</svg>
