<?xml version="1.0" encoding="UTF-8"?>
<svg version="1.1" xmlns="http://www.w3.org/2000/svg" width="96" height="96">
<path d="M0 0 C1.31653564 0.01135986 1.31653564 0.01135986 2.65966797 0.02294922 C9.45144448 0.1952272 15.06562583 1.23369297 21.125 4.4375 C21.98222656 4.87320312 22.83945313 5.30890625 23.72265625 5.7578125 C36.08766834 12.58374678 43.23004062 22.68856753 47.52075195 36.01293945 C48.54203578 40.11086661 48.61362209 44.10669413 48.5625 48.3125 C48.55492676 49.19019043 48.54735352 50.06788086 48.53955078 50.97216797 C48.3672728 57.76394448 47.32880703 63.37812583 44.125 69.4375 C43.47144531 70.72333984 43.47144531 70.72333984 42.8046875 72.03515625 C35.97875322 84.40016834 25.87393247 91.54254062 12.54956055 95.83325195 C8.45163339 96.85453578 4.45580587 96.92612209 0.25 96.875 C-0.62769043 96.86742676 -1.50538086 96.85985352 -2.40966797 96.85205078 C-9.20144448 96.6797728 -14.81562583 95.64130703 -20.875 92.4375 C-22.16083984 91.78394531 -22.16083984 91.78394531 -23.47265625 91.1171875 C-35.83766834 84.29125322 -42.98004062 74.18643247 -47.27075195 60.86206055 C-48.29203578 56.76413339 -48.36362209 52.76830587 -48.3125 48.5625 C-48.30492676 47.68480957 -48.29735352 46.80711914 -48.28955078 45.90283203 C-48.1172728 39.11105552 -47.07880703 33.49687417 -43.875 27.4375 C-43.43929687 26.58027344 -43.00359375 25.72304688 -42.5546875 24.83984375 C-35.72875322 12.47483166 -25.62393247 5.33245938 -12.29956055 1.04174805 C-8.20163339 0.02046422 -4.20580587 -0.05112209 0 0 Z " fill="#FE7341" transform="translate(47.875,-0.4375)"/>
<path d="M0 0 C7.92 0 15.84 0 24 0 C24.020625 3.939375 24.04125 7.87875 24.0625 11.9375 C24.071604 13.18136475 24.08070801 14.42522949 24.09008789 15.70678711 C24.09258545 16.6788208 24.09508301 17.65085449 24.09765625 18.65234375 C24.10289307 19.65257568 24.10812988 20.65280762 24.11352539 21.68334961 C24 24 24 24 23 25 C19.97022196 25.08871273 16.96332978 25.1151935 13.93359375 25.09765625 C13.02497086 25.0962413 12.11634796 25.09482635 11.18019104 25.09336853 C8.26592779 25.08775193 5.35174019 25.07519665 2.4375 25.0625 C0.46679798 25.05748714 -1.50390524 25.05292386 -3.47460938 25.04882812 C-8.31643559 25.03777711 -13.15820495 25.02050138 -18 25 C-16.68 24.67 -15.36 24.34 -14 24 C-14.02320313 23.08476563 -14.04640625 22.16953125 -14.0703125 21.2265625 C-14.08835938 20.03804687 -14.10640625 18.84953125 -14.125 17.625 C-14.14820313 16.44164063 -14.17140625 15.25828125 -14.1953125 14.0390625 C-14 11 -14 11 -12 9 C-8.46428571 9.53571429 -8.46428571 9.53571429 -7 11 C-6.92794489 12.68608966 -6.91613932 14.37500659 -6.9375 16.0625 C-6.94652344 16.98160156 -6.95554687 17.90070313 -6.96484375 18.84765625 C-6.97644531 19.55792969 -6.98804688 20.26820312 -7 21 C-6.34 21 -5.68 21 -5 21 C-4.99742188 20.10796875 -4.99484375 19.2159375 -4.9921875 18.296875 C-4.68163615 8.89752092 -4.68163615 8.89752092 -2.66796875 6.24609375 C-0.49219001 4.81145619 1.37564993 4 4 4 C4 4.66 4 5.32 4 6 C4.61875 6.103125 5.2375 6.20625 5.875 6.3125 C8 7 8 7 10 10 C10.1953125 12.69921875 10.1953125 12.69921875 10.125 15.6875 C10.10695313 16.68136719 10.08890625 17.67523438 10.0703125 18.69921875 C10.04710938 19.45847656 10.02390625 20.21773437 10 21 C10.66 21 11.32 21 12 21 C12 17.7 12 14.4 12 11 C12.99 10.67 13.98 10.34 15 10 C15 9.34 15 8.68 15 8 C16.8125 8.25 16.8125 8.25 19 9 C19.99 10.32 20.98 11.64 22 13 C22.33 9.04 22.66 5.08 23 1 C15.41 1 7.82 1 0 1 C0 0.67 0 0.34 0 0 Z " fill="#CF8864" transform="translate(53,57)"/>
<path d="M0 0 C5.08809209 7.63213814 7.04750484 17.81634237 5.515625 26.859375 C5.34546875 27.56578125 5.1753125 28.2721875 5 29 C6.65 29 8.3 29 10 29 C10.33 27.68 10.66 26.36 11 25 C11.70382813 25.48339844 12.40765625 25.96679688 13.1328125 26.46484375 C17.92174324 29.02894427 22.71160067 28.90255349 28 28 C30.1041378 26.65591197 31.61468665 25.20449549 33.33203125 23.40234375 C36.26083222 20.93995605 39.27600912 21.13066635 43 21 C43 19.35 43 17.7 43 16 C41.68 15.67 40.36 15.34 39 15 C39 13.02 39 11.04 39 9 C43.94260995 10.0591307 46.76480537 12.00302233 49.87109375 15.85546875 C51.90903367 19.72684942 51.61289649 23.75627369 51 28 C50.67 28.66 50.34 29.32 50 30 C50.99 30 51.98 30 53 30 C53 30.99 53 31.98 53 33 C37.49 33.33 21.98 33.66 6 34 C6 42.58 6 51.16 6 60 C4.35 59.67 2.7 59.34 1 59 C1.0407666 57.68394775 1.0815332 56.36789551 1.12353516 55.01196289 C1.27276445 50.09769867 1.40710601 45.18311783 1.53710938 40.26831055 C1.59526449 38.14710279 1.65737812 36.02599952 1.72363281 33.9050293 C1.81853505 30.84443202 1.89887535 27.7837332 1.9765625 24.72265625 C2.00875885 23.78478775 2.0409552 22.84691925 2.0741272 21.88063049 C2.19178251 16.62975575 1.78498256 11.97884675 0.45053101 6.89085388 C-0.10412235 4.56300421 -0.15370429 2.38241655 0 0 Z " fill="#B88A6C" transform="translate(26,21)"/>
<path d="M0 0 C0.66 0 1.32 0 2 0 C5.34066653 13.27793908 5.09816829 25.78026622 4.5 39.375 C4.3676724 42.45654881 4.24078687 45.53776218 4.13293457 48.62026978 C4.06633648 50.5216932 3.9857242 52.4226896 3.88952637 54.32284546 C3.85959595 55.17198517 3.82966553 56.02112488 3.79882812 56.89599609 C3.76535278 57.64271576 3.73187744 58.38943542 3.6973877 59.15878296 C3.79724976 59.76638458 3.89711182 60.37398621 4 61 C4.99 61.66 5.98 62.32 7 63 C3.04 63 -0.92 63 -5 63 C-5.0499526 57.25660425 -5.08597755 51.51333881 -5.10986328 45.76977539 C-5.11983541 43.82151075 -5.13341797 41.87326074 -5.15087891 39.92504883 C-5.3903133 12.49572629 -5.3903133 12.49572629 0 0 Z " fill="#F7C191" transform="translate(24,19)"/>
<path d="M0 0 C13.70226216 -0.11324184 27.31536554 0.31941427 41 1 C41 6.61 41 12.22 41 18 C40.67 18 40.34 18 40 18 C39.566875 16.6078125 39.566875 16.6078125 39.125 15.1875 C38.1125 11.90208333 38.1125 11.90208333 36 9 C35.01 8.67 34.02 8.34 33 8 C33 8.66 33 9.32 33 10 C32.34 10.33 31.68 10.66 31 11 C30.53248212 13.35599235 30.53248212 13.35599235 30.375 16.0625 C30.30023438 16.98160156 30.22546875 17.90070313 30.1484375 18.84765625 C30.09945312 19.55792969 30.05046875 20.26820312 30 21 C29.34 21 28.68 21 28 21 C27.95101562 20.24074219 27.90203125 19.48148438 27.8515625 18.69921875 C27.77679688 17.70535156 27.70203125 16.71148437 27.625 15.6875 C27.55539063 14.70136719 27.48578125 13.71523437 27.4140625 12.69921875 C27.16134528 9.78471567 27.16134528 9.78471567 25 7 C24.01 6.67 23.02 6.34 22 6 C22 5.34 22 4.68 22 4 C18.06042279 5.37763121 18.06042279 5.37763121 15 8 C13.76410483 12.29115535 13.314807 16.55415419 13 21 C12.34 21 11.68 21 11 21 C10.67 17.7 10.34 14.4 10 11 C8.68 10.67 7.36 10.34 6 10 C4.12175109 11.87824891 4.60897603 15.03935276 4.4375 17.5625 C4.31181641 19.35880859 4.31181641 19.35880859 4.18359375 21.19140625 C4.12300781 22.11824219 4.06242187 23.04507813 4 24 C2.68 24 1.36 24 0 24 C0 16.08 0 8.16 0 0 Z " fill="#F5D3B4" transform="translate(35,57)"/>
<path d="M0 0 C0 1.32 0 2.64 0 4 C0.66 3.67 1.32 3.34 2 3 C3.27858761 5.63238625 3.98521883 7.68959537 4.125 10.625 C2.75457702 13.51811519 2.0431894 13.62000057 -0.875 14.6875 C-1.57367188 14.89761719 -2.27234375 15.10773437 -2.9921875 15.32421875 C-5.27574985 15.9958362 -5.27574985 15.9958362 -8 18 C-10.04296875 18.1953125 -10.04296875 18.1953125 -12.1875 18.125 C-13.445625 18.08375 -14.70375 18.0425 -16 18 C-19.47764555 9.22064973 -19.47764555 9.22064973 -17.875 5.125 C-12.92852164 1.4689073 -6.16549357 -2.2393538 0 0 Z " fill="#FEC38E" transform="translate(57,28)"/>
<path d="M0 0 C0.66 0 1.32 0 2 0 C2 0.99 2 1.98 2 3 C4.97 3.66 7.94 4.32 11 5 C10.67 7.31 10.34 9.62 10 12 C11.32 12.33 12.64 12.66 14 13 C14 14.65 14 16.3 14 18 C13.41992188 18.15855469 12.83984375 18.31710938 12.2421875 18.48046875 C8.03241579 19.73784281 5.42807519 20.59095038 2.1875 23.6875 C-2.01451068 26.73601755 -5.02715254 26.52095596 -10.09765625 26.46875 C-13.33618243 25.94570405 -15.31891199 24.84970475 -18 23 C-18.66 23.66 -19.32 24.32 -20 25 C-20.05416188 23.39620659 -20.09286638 21.79188594 -20.125 20.1875 C-20.14820313 19.29417969 -20.17140625 18.40085937 -20.1953125 17.48046875 C-20 15 -20 15 -18 12 C-17.34 12 -16.68 12 -16 12 C-15.34 15.3 -14.68 18.6 -14 22 C-11.586875 21.566875 -11.586875 21.566875 -9.125 21.125 C-7.76761719 20.88136719 -7.76761719 20.88136719 -6.3828125 20.6328125 C-3.83494012 20.16955297 -3.83494012 20.16955297 -2 18 C0.31765729 17.28072705 2.65095874 16.6090107 5 16 C4.67 13.69 4.34 11.38 4 9 C3.01 9 2.02 9 1 9 C1.04125 8.21625 1.0825 7.4325 1.125 6.625 C1.28728734 3.83883881 1.28728734 3.83883881 -1 2 C-0.67 1.34 -0.34 0.68 0 0 Z " fill="#FDAF71" transform="translate(55,24)"/>
<path d="M0 0 C0 0.66 0 1.32 0 2 C0.639375 2.144375 1.27875 2.28875 1.9375 2.4375 C4 3 4 3 5 4 C5.07313567 6.53049402 5.09247527 9.03304837 5.0625 11.5625 C5.05798828 12.27341797 5.05347656 12.98433594 5.04882812 13.71679688 C5.03700864 15.47790013 5.01907263 17.23896036 5 19 C-1.435 19.495 -1.435 19.495 -8 20 C-8.16236745 17.41414795 -8.28095486 14.83848046 -8.375 12.25 C-8.42527344 11.52039063 -8.47554687 10.79078125 -8.52734375 10.0390625 C-8.5859375 7.890625 -8.5859375 7.890625 -8 4 C-3.39130435 0 -3.39130435 0 0 0 Z " fill="#93603A" transform="translate(57,61)"/>
<path d="M0 0 C1.9375 0.375 1.9375 0.375 4 1 C5.24377393 3.48754786 5.13306235 5.22655301 5.125 8 C5.12886719 9.3303125 5.12886719 9.3303125 5.1328125 10.6875 C5 13 5 13 4 15 C4.99 15 5.98 15 7 15 C7 15.99 7 16.98 7 18 C-2.9 18 -12.8 18 -23 18 C-23 17.67 -23 17.34 -23 17 C-19.7 16.67 -16.4 16.34 -13 16 C-13 15.34 -13 14.68 -13 14 C-9.91051727 12.45525864 -6.94403544 10.97993723 -3.6875 9.8125 C-0.87263829 8.32523089 -0.87263829 8.32523089 -0.40234375 6.03125 C-0.05835602 3.55412062 -0.05835602 3.55412062 0 0 Z " fill="#85523D" transform="translate(72,36)"/>
<path d="M0 0 C0.66 0 1.32 0 2 0 C5.34066653 13.27793908 5.09816829 25.78026622 4.5 39.375 C4.3676724 42.45654881 4.24078687 45.53776218 4.13293457 48.62026978 C4.06633648 50.5216932 3.9857242 52.4226896 3.88952637 54.32284546 C3.85959595 55.17198517 3.82966553 56.02112488 3.79882812 56.89599609 C3.76535278 57.64271576 3.73187744 58.38943542 3.6973877 59.15878296 C3.79724976 59.76638458 3.89711182 60.37398621 4 61 C4.99 61.66 5.98 62.32 7 63 C3.04 63 -0.92 63 -5 63 C-5 62.67 -5 62.34 -5 62 C-3.35 62 -1.7 62 0 62 C0 61.01 0 60.02 0 59 C0.99 58.505 0.99 58.505 2 58 C2.02894547 54.54168414 2.04678 51.08339928 2.0625 47.625 C2.07087891 46.64015625 2.07925781 45.6553125 2.08789062 44.640625 C2.09272461 43.22910156 2.09272461 43.22910156 2.09765625 41.7890625 C2.10289307 40.91975098 2.10812988 40.05043945 2.11352539 39.15478516 C2.14122351 36.94950006 2.14122351 36.94950006 1 35 C1.66 35 2.32 35 3 35 C3 32.03 3 29.06 3 26 C2.34 25.67 1.68 25.34 1 25 C1.495 20.545 1.495 20.545 2 16 C0.02 16 -1.96 16 -4 16 C-3.47606294 10.13190493 -2.23891142 5.45126259 0 0 Z " fill="#E5A475" transform="translate(24,19)"/>
<path d="M0 0 C4.35535069 1.16142685 6.64619703 2.07699505 9 6 C8.34 6 7.68 6 7 6 C7.20625 7.19625 7.4125 8.3925 7.625 9.625 C7.65234375 11.82421875 7.65234375 11.82421875 7 14 C1.91974955 18.38791429 -3.94386412 21.14048494 -10.66796875 21.09765625 C-11.56064453 21.09443359 -12.45332031 21.09121094 -13.37304688 21.08789062 C-14.76620117 21.07532227 -14.76620117 21.07532227 -16.1875 21.0625 C-17.12787109 21.05798828 -18.06824219 21.05347656 -19.03710938 21.04882812 C-21.35813712 21.03704626 -23.67903644 21.02059558 -26 21 C-26.33 20.01 -26.66 19.02 -27 18 C-26.45988281 18.15597656 -25.91976562 18.31195313 -25.36328125 18.47265625 C-20.17282963 19.6308562 -13.6002086 20.64795004 -8.94140625 17.6953125 C-7.82788298 16.62036394 -6.73569347 15.52279562 -5.66796875 14.40234375 C-2.73916778 11.93995605 0.27600912 12.13066635 4 12 C4 10.35 4 8.7 4 7 C2.68 6.67 1.36 6.34 0 6 C0 4.02 0 2.04 0 0 Z " fill="#B27A62" transform="translate(65,30)"/>
<path d="M0 0 C1.98 0 3.96 0 6 0 C5.98259766 0.95712891 5.98259766 0.95712891 5.96484375 1.93359375 C5.95582031 2.75988281 5.94679688 3.58617187 5.9375 4.4375 C5.92589844 5.26121094 5.91429687 6.08492187 5.90234375 6.93359375 C5.76732652 8.99163938 5.76732652 8.99163938 7 10 C7.07179964 11.51928038 7.08392007 13.04167482 7.0625 14.5625 C7.05347656 15.38878906 7.04445313 16.21507813 7.03515625 17.06640625 C7.02355469 17.70449219 7.01195312 18.34257813 7 19 C4.69 19 2.38 19 0 19 C-0.19600577 16.77156512 -0.38146569 14.54220107 -0.5625 12.3125 C-0.66691406 11.07113281 -0.77132813 9.82976563 -0.87890625 8.55078125 C-0.98493841 5.44164467 -0.77228525 2.99189028 0 0 Z " fill="#F5D0AB" transform="translate(20,35)"/>
<path d="M0 0 C0.66 0 1.32 0 2 0 C2 0.99 2 1.98 2 3 C6.455 3.99 6.455 3.99 11 5 C10.67 7.31 10.34 9.62 10 12 C11.32 12.33 12.64 12.66 14 13 C14 14.65 14 16.3 14 18 C11.29120665 19.35439668 8.99066732 19.06501451 6 19 C5.34 15.7 4.68 12.4 4 9 C3.01 9 2.02 9 1 9 C1.04125 8.21625 1.0825 7.4325 1.125 6.625 C1.28728734 3.83883881 1.28728734 3.83883881 -1 2 C-0.67 1.34 -0.34 0.68 0 0 Z " fill="#EB9F7B" transform="translate(55,24)"/>
<path d="M0 0 C1.32 0.33 2.64 0.66 4 1 C4 5.62 4 10.24 4 15 C2.02 15 0.04 15 -2 15 C-2.05386629 12.87527424 -2.09273071 10.75016348 -2.125 8.625 C-2.14820313 7.44164063 -2.17140625 6.25828125 -2.1953125 5.0390625 C-2 2 -2 2 0 0 Z " fill="#8C5C3A" transform="translate(41,66)"/>
<path d="M0 0 C1.32 0.66 2.64 1.32 4 2 C4 6.29 4 10.58 4 15 C2.02 15 0.04 15 -2 15 C-2 10.38 -2 5.76 -2 1 C-1.34 0.67 -0.68 0.34 0 0 Z " fill="#764D2C" transform="translate(68,66)"/>
<path d="M0 0 C6.6 0 13.2 0 20 0 C20 0.99 20 1.98 20 3 C5.81 3 -8.38 3 -23 3 C-23 2.67 -23 2.34 -23 2 C-15.41 2 -7.82 2 0 2 C0 1.34 0 0.68 0 0 Z " fill="#B67821" transform="translate(58,54)"/>
<path d="M0 0 C0.66 0 1.32 0 2 0 C2.66 5.28 3.32 10.56 4 16 C1.36 16 -1.28 16 -4 16 C-3.47606294 10.13190493 -2.23891142 5.45126259 0 0 Z " fill="#E29779" transform="translate(24,19)"/>
<path d="M0 0 C7.92 0 15.84 0 24 0 C24 7.92 24 15.84 24 24 C22.68 24 21.36 24 20 24 C20 20.04 20 16.08 20 12 C20.66 12.33 21.32 12.66 22 13 C22.33 9.04 22.66 5.08 23 1 C15.41 1 7.82 1 0 1 C0 0.67 0 0.34 0 0 Z " fill="#E4AF8D" transform="translate(53,57)"/>
<path d="M0 0 C1.9375 0.80859375 1.9375 0.80859375 3.9375 2.80859375 C-0.36557056 6.41386909 -3.11306017 7.94202967 -8.73046875 7.90625 C-9.62314453 7.90302734 -10.51582031 7.89980469 -11.43554688 7.89648438 C-12.82870117 7.88391602 -12.82870117 7.88391602 -14.25 7.87109375 C-15.66055664 7.86432617 -15.66055664 7.86432617 -17.09960938 7.85742188 C-19.42063712 7.84564001 -21.74153644 7.82918933 -24.0625 7.80859375 C-24.3925 6.81859375 -24.7225 5.82859375 -25.0625 4.80859375 C-24.52238281 4.96457031 -23.98226562 5.12054688 -23.42578125 5.28125 C-18.11816972 6.46559307 -11.63237441 7.41533583 -6.86328125 4.43359375 C-5.05481429 2.79597661 -5.05481429 2.79597661 -3.5625 1.0234375 C-2.0625 -0.19140625 -2.0625 -0.19140625 0 0 Z " fill="#C26933" transform="translate(63.0625,43.19140625)"/>
<path d="M0 0 C0 0.99 0 1.98 0 3 C-9.9 3 -19.8 3 -30 3 C-30 2.67 -30 2.34 -30 2 C-26.7 1.67 -23.4 1.34 -20 1 C-20 0.67 -20 0.34 -20 0 C-17.41703983 -0.19522373 -14.83395921 -0.38144403 -12.25 -0.5625 C-11.52039063 -0.61857422 -10.79078125 -0.67464844 -10.0390625 -0.73242188 C-6.45046349 -0.97709908 -3.44972775 -0.99666259 0 0 Z " fill="#89644B" transform="translate(79,51)"/>
<path d="M0 0 C1.32 0 2.64 0 4 0 C4 6.93 4 13.86 4 21 C2.68 21.33 1.36 21.66 0 22 C0 14.74 0 7.48 0 0 Z " fill="#FFD7AE" transform="translate(21,56)"/>
<path d="M0 0 C0.66 0.33 1.32 0.66 2 1 C2.33 1.99 2.66 2.98 3 4 C9.6 4.33 16.2 4.66 23 5 C23.33 5.66 23.66 6.32 24 7 C15.30019136 8.01286753 6.74507107 8.10621544 -2 8 C-1.01 7.34 -0.02 6.68 1 6 C0.67 4.02 0.34 2.04 0 0 Z " fill="#A7724D" transform="translate(36,46)"/>
<path d="M0 0 C1.01085428 3.34386398 1.11543463 6.3748118 1.09765625 9.859375 C1.09443359 10.97441406 1.09121094 12.08945312 1.08789062 13.23828125 C1.07951172 14.39714844 1.07113281 15.55601563 1.0625 16.75 C1.05798828 17.92433594 1.05347656 19.09867188 1.04882812 20.30859375 C1.03705094 23.20578072 1.02060326 26.10286454 1 29 C0.01 29 -0.98 29 -2 29 C-2.05794812 24.72922344 -2.09357874 20.45854764 -2.125 16.1875 C-2.14175781 14.97255859 -2.15851562 13.75761719 -2.17578125 12.50585938 C-2.18222656 11.34248047 -2.18867188 10.17910156 -2.1953125 8.98046875 C-2.20578613 7.90692139 -2.21625977 6.83337402 -2.22705078 5.72729492 C-2 3 -2 3 0 0 Z " fill="#976F54" transform="translate(31,51)"/>
<path d="M0 0 C0.66 0 1.32 0 2 0 C2.99 4.29 3.98 8.58 5 13 C2.525 12.01 2.525 12.01 0 11 C-0.66 11.66 -1.32 12.32 -2 13 C-2.05416188 11.39620659 -2.09286638 9.79188594 -2.125 8.1875 C-2.14820313 7.29417969 -2.17140625 6.40085937 -2.1953125 5.48046875 C-2 3 -2 3 0 0 Z " fill="#F39754" transform="translate(37,36)"/>
<path d="M0 0 C8.25 0 16.5 0 25 0 C25 0.66 25 1.32 25 2 C17.08 2.33 9.16 2.66 1 3 C0.67 2.01 0.34 1.02 0 0 Z " fill="#DE9226" transform="translate(33,54)"/>
<path d="M0 0 C1.98 0 3.96 0 6 0 C6 2.64 6 5.28 6 8 C4.02 8 2.04 8 0 8 C0 5.36 0 2.72 0 0 Z " fill="#FDE7CA" transform="translate(20,35)"/>
<path d="M0 0 C3.125 0.375 3.125 0.375 6 1 C5.125 5.875 5.125 5.875 4 7 C2.33382885 7.04063832 0.66611905 7.042721 -1 7 C-1.625 4.625 -1.625 4.625 -2 2 C-1.34 1.34 -0.68 0.68 0 0 Z " fill="#FFE7A6" transform="translate(45,36)"/>
<path d="M0 0 C2.97 0.495 2.97 0.495 6 1 C5.67 3.31 5.34 5.62 5 8 C6.32 8.33 7.64 8.66 9 9 C9 10.65 9 12.3 9 14 C7.68 14.33 6.36 14.66 5 15 C5.33 13.35 5.66 11.7 6 10 C5.34 10 4.68 10 4 10 C3.34 7.36 2.68 4.72 2 2 C1.34 2 0.68 2 0 2 C0 1.34 0 0.68 0 0 Z " fill="#CA8A6F" transform="translate(60,28)"/>
<path d="M0 0 C0.66 0 1.32 0 2 0 C3.10370043 3.3111013 2.92673641 5.24748949 2.5625 8.6875 C2.40974609 10.17830078 2.40974609 10.17830078 2.25390625 11.69921875 C2.12822266 12.83810547 2.12822266 12.83810547 2 14 C1.01 14 0.02 14 -1 14 C-1.02685938 11.85423363 -1.04633088 9.70837355 -1.0625 7.5625 C-1.07410156 6.36753906 -1.08570313 5.17257813 -1.09765625 3.94140625 C-1 1 -1 1 0 0 Z " fill="#7F4D25" transform="translate(41,66)"/>
<path d="M0 0 C0.33 0 0.66 0 1 0 C1.09765625 6.15234375 1.09765625 6.15234375 1 8 C0 9 0 9 -2.72265625 9.09765625 C-4.37587891 9.08025391 -4.37587891 9.08025391 -6.0625 9.0625 C-7.16722656 9.05347656 -8.27195312 9.04445313 -9.41015625 9.03515625 C-10.69212891 9.01775391 -10.69212891 9.01775391 -12 9 C-8.32740617 6.55160412 -5.45351799 5 -1 5 C-0.67 3.35 -0.34 1.7 0 0 Z " fill="#6C3F2A" transform="translate(75,42)"/>
<path d="M0 0 C-1.98 0.66 -3.96 1.32 -6 2 C-6 6.29 -6 10.58 -6 15 C-6.66 15 -7.32 15 -8 15 C-8 10.05 -8 5.1 -8 0 C-4.29847322 -0.92538169 -3.36541838 -1.08174162 0 0 Z " fill="#6D3D1A" transform="translate(58,65)"/>
<path d="M0 0 C0.99 0 1.98 0 3 0 C3.10349817 6.41688675 2.74507544 12.62694402 2 19 C1.67 19 1.34 19 1 19 C1 16.03 1 13.06 1 10 C0.34 9.67 -0.32 9.34 -1 9 C-0.67 6.03 -0.34 3.06 0 0 Z " fill="#D7B79B" transform="translate(26,35)"/>
<path d="M0 0 C0.33 0 0.66 0 1 0 C1.125 7.625 1.125 7.625 0 11 C-1.32 11 -2.64 11 -4 11 C-3.56534471 6.47958496 -3.21201178 3.3458456 0 0 Z " fill="#F89D74" transform="translate(24,23)"/>
<path d="M0 0 C0.33 0 0.66 0 1 0 C1 6.93 1 13.86 1 21 C0.01 21 -0.98 21 -2 21 C-1.855625 19.7625 -1.71125 18.525 -1.5625 17.25 C-0.92166738 11.50997069 -0.4578378 5.75706682 0 0 Z " fill="#F3BB87" transform="translate(26,56)"/>
<path d="M0 0 C0.99 0 1.98 0 3 0 C3 2.64 3 5.28 3 8 C4.98 8.66 6.96 9.32 9 10 C9 10.33 9 10.66 9 11 C6.36 11 3.72 11 1 11 C-0.59555725 7.50971852 -1.32049797 4.84597567 -1 1 C-0.67 0.67 -0.34 0.34 0 0 Z " fill="#FEC677" transform="translate(40,35)"/>
<path d="M0 0 C0.99 0.33 1.98 0.66 3 1 C2.525625 1.37125 2.05125 1.7425 1.5625 2.125 C-0.54955362 4.65946434 -0.72392563 6.75612612 -1 10 C-0.67 10.66 -0.34 11.32 0 12 C-0.33 12.99 -0.66 13.98 -1 15 C-1.66 15 -2.32 15 -3 15 C-3.08078641 12.87561661 -3.13909141 10.7503677 -3.1875 8.625 C-3.22230469 7.44164063 -3.25710937 6.25828125 -3.29296875 5.0390625 C-3.19628906 4.03617187 -3.09960938 3.03328125 -3 2 C-2.01 1.34 -1.02 0.68 0 0 Z " fill="#87542C" transform="translate(55,65)"/>
<path d="M0 0 C0.33 0 0.66 0 1 0 C1 3.63 1 7.26 1 11 C1.66 11 2.32 11 3 11 C3 7.7 3 4.4 3 1 C3.33 1 3.66 1 4 1 C4 5.29 4 9.58 4 14 C2.68 14 1.36 14 0 14 C0 9.38 0 4.76 0 0 Z " fill="#D2A783" transform="translate(62,67)"/>
<path d="M0 0 C0.99 0.33 1.98 0.66 3 1 C3.43200679 5.75207471 1.98489083 8.78210698 0 13 C-0.33 13 -0.66 13 -1 13 C-1.02686553 11.02090602 -1.04633375 9.04171029 -1.0625 7.0625 C-1.07410156 5.96035156 -1.08570312 4.85820313 -1.09765625 3.72265625 C-1 1 -1 1 0 0 Z " fill="#5C2F12" transform="translate(68,66)"/>
<path d="M0 0 C1.875 0.3125 1.875 0.3125 4 1 C4.66 1.99 5.32 2.98 6 4 C5.34 4 4.68 4 4 4 C4 6.64 4 9.28 4 12 C2.35 12.66 0.7 13.32 -1 14 C-0.484375 13.649375 0.03125 13.29875 0.5625 12.9375 C2.37143803 10.9397061 2.37143803 10.9397061 1.75 7.5625 C0.95748065 3.76073634 0.95748065 3.76073634 0 0 Z " fill="#996955" transform="translate(68,32)"/>
<path d="M0 0 C0 0.66 0 1.32 0 2 C-1.75 3.0625 -1.75 3.0625 -4 4 C-4.9590625 3.7525 -4.9590625 3.7525 -5.9375 3.5 C-8.78944884 2.80861846 -10.40816439 3.77607763 -13 5 C-12 2 -12 2 -10.29296875 1.015625 C-9.59816406 0.76296875 -8.90335938 0.5103125 -8.1875 0.25 C-7.15689453 -0.14445312 -7.15689453 -0.14445312 -6.10546875 -0.546875 C-3.71856031 -1.06056958 -2.29362227 -0.76282269 0 0 Z " fill="#FCBF9C" transform="translate(57,28)"/>
<path d="M0 0 C1.32 0 2.64 0 4 0 C4 2.64 4 5.28 4 8 C2.68 8 1.36 8 0 8 C0 5.36 0 2.72 0 0 Z " fill="#FDE1BF" transform="translate(20,46)"/>
<path d="M0 0 C0.66 0.33 1.32 0.66 2 1 C-0.98353043 4.52981065 -3.43730247 6.80150044 -8.13671875 7.3984375 C-11.11134924 7.37731586 -14.03742374 7.26269149 -17 7 C-17 6.67 -17 6.34 -17 6 C-13.37 6 -9.74 6 -6 6 C-5.34 4.68 -4.68 3.36 -4 2 C-2 0.6875 -2 0.6875 0 0 Z " fill="#F99553" transform="translate(59,43)"/>
<path d="M0 0 C0.33 0 0.66 0 1 0 C1 3.96 1 7.92 1 12 C-0.32 12 -1.64 12 -3 12 C-3 10.02 -3 8.04 -3 6 C-2.01 6 -1.02 6 0 6 C0 4.02 0 2.04 0 0 Z " fill="#F3C298" transform="translate(38,69)"/>
<path d="M0 0 C0.33 0 0.66 0 1 0 C1 3.3 1 6.6 1 10 C1.66 10 2.32 10 3 10 C3 8.02 3 6.04 3 4 C3.33 4 3.66 4 4 4 C4 6.97 4 9.94 4 13 C2.68 13 1.36 13 0 13 C0 8.71 0 4.42 0 0 Z " fill="#DEB28B" transform="translate(45,68)"/>
<path d="M0 0 C0.58265625 0.22558594 1.1653125 0.45117188 1.765625 0.68359375 C0.69669282 1.71949713 -0.39015988 2.73693317 -1.484375 3.74609375 C-2.38929687 4.59880859 -2.38929687 4.59880859 -3.3125 5.46875 C-5.234375 6.68359375 -5.234375 6.68359375 -7.46875 6.3671875 C-8.05140625 6.14160156 -8.6340625 5.91601562 -9.234375 5.68359375 C-8.16544282 4.64769037 -7.07859012 3.63025433 -5.984375 2.62109375 C-5.38109375 2.05261719 -4.7778125 1.48414063 -4.15625 0.8984375 C-2.234375 -0.31640625 -2.234375 -0.31640625 0 0 Z " fill="#E27F45" transform="translate(63.234375,43.31640625)"/>
<path d="M0 0 C2.00993705 3.01490557 2.72623341 5.2149927 3.625 8.6875 C3.88539062 9.68136719 4.14578125 10.67523438 4.4140625 11.69921875 C4.60742188 12.45847656 4.80078125 13.21773437 5 14 C4.01 14 3.02 14 2 14 C-0.29612756 4.58997722 -0.29612756 4.58997722 0 0 Z " fill="#B3755E" transform="translate(26,21)"/>
<path d="M0 0 C0 0.99 0 1.98 0 3 C-4.19513682 6.47889394 -7.60713425 7.56857074 -13 8 C-10.2919671 6.19464473 -7.55270911 4.59099459 -4.71875 3 C-3.1077042 2.06266426 -1.55084596 1.03389731 0 0 Z " fill="#995834" transform="translate(72,43)"/>
<path d="M0 0 C7.425 0.99 7.425 0.99 15 2 C15 2.33 15 2.66 15 3 C10.38 3 5.76 3 1 3 C0.67 2.01 0.34 1.02 0 0 Z " fill="#EA7A2B" transform="translate(38,48)"/>
<path d="M0 0 C0.66 0 1.32 0 2 0 C2 2.64 2 5.28 2 8 C1.01 8 0.02 8 -1 8 C-0.67 5.36 -0.34 2.72 0 0 Z " fill="#FBDBBC" transform="translate(24,35)"/>
<path d="M0 0 C0.66 0 1.32 0 2 0 C1.34 4.62 0.68 9.24 0 14 C-0.33 14 -0.66 14 -1 14 C-1.02685938 11.85423363 -1.04633088 9.70837355 -1.0625 7.5625 C-1.07410156 6.36753906 -1.08570313 5.17257813 -1.09765625 3.94140625 C-1 1 -1 1 0 0 Z " fill="#643617" transform="translate(41,66)"/>
<path d="M0 0 C1.32 0.33 2.64 0.66 4 1 C4 1.66 4 2.32 4 3 C3.34 3 2.68 3 2 3 C2 4.32 2 5.64 2 7 C1.34 7 0.68 7 0 7 C0 4.69 0 2.38 0 0 Z " fill="#8A5C4A" transform="translate(72,36)"/>
<path d="M0 0 C0.33 0.99 0.66 1.98 1 3 C-1.64 3.33 -4.28 3.66 -7 4 C-3.17391304 0 -3.17391304 0 0 0 Z " fill="#764E33" transform="translate(57,61)"/>
<path d="M0 0 C3.96 0 7.92 0 12 0 C12 0.33 12 0.66 12 1 C8.37 1.66 4.74 2.32 1 3 C0.67 2.01 0.34 1.02 0 0 Z " fill="#E99E3F" transform="translate(33,54)"/>
<path d="M0 0 C0.33 0.99 0.66 1.98 1 3 C2.98 3 4.96 3 7 3 C6.67 3.66 6.34 4.32 6 5 C3.5 5.6875 3.5 5.6875 1 6 C0 5 0 5 -0.0625 2.4375 C-0.041875 1.633125 -0.02125 0.82875 0 0 Z " fill="#EBC7A5" transform="translate(19,40)"/>
</svg>
