<svg width="24" height="24" viewBox="0 0 24 24" fill="none" xmlns="http://www.w3.org/2000/svg">
<path d="M22.9688 12.5156C22.9688 18.8582 17.827 24 11.4844 24C5.14177 24 0 18.8582 0 12.5156C0 6.17302 5.14177 1.03125 11.4844 1.03125C17.827 1.03125 22.9688 6.17302 22.9688 12.5156Z" fill="#ACECEF"/>
<path d="M17.968 3.89062V0.234375C17.968 0.105469 17.8625 0 17.7336 0H17.1711C17.0422 0 16.9368 0.105469 16.9368 0.234375V3.89062H17.968Z" fill="#EA2A3D"/>
<path d="M17.4372 3.89062V0.234375C17.4372 0.105469 17.5427 0 17.6716 0H17.1711C17.0422 0 16.9368 0.105469 16.9368 0.234375V3.89062H17.4372Z" fill="#B7092B"/>
<path d="M22.0126 5.25L21.3618 4.04977C21.3003 3.93656 21.1447 3.84375 21.0158 3.84375H13.8889C13.76 3.84375 13.6042 3.93656 13.5429 4.04977L12.8921 5.25H22.0126Z" fill="#EEF6FF"/>
<path d="M14.3701 5.25L15.0209 4.04977C15.0822 3.93656 15.238 3.84375 15.3669 3.84375H13.8889C13.76 3.84375 13.6042 3.93656 13.5429 4.04977L12.8921 5.25H14.3701Z" fill="#D9EAFC"/>
<path d="M13.4002 7.79006C13.417 7.77819 13.4362 7.76994 13.4564 7.76584C13.4767 7.76174 13.4975 7.76188 13.5177 7.76625C13.5582 7.77502 13.5939 7.80047 13.6151 7.83619C13.7034 7.98443 13.7782 8.14032 13.8385 8.30198C13.9427 8.34221 14.0422 8.39354 14.1353 8.45508C14.4061 8.63298 14.6137 8.89197 14.7284 9.195L14.7995 9.21642C15.0631 9.02892 15.374 8.92969 15.6989 8.92969C16.0013 8.92962 16.297 9.01864 16.5492 9.18563C16.6781 9.27103 16.7936 9.37514 16.892 9.49453C17.3929 9.76694 17.7823 10.2064 17.9926 10.7364C18.1091 10.7084 18.2284 10.6942 18.3482 10.6941C19.187 10.6941 19.8697 11.3767 19.8697 12.2157C19.8697 12.2977 19.8627 12.3818 19.8489 12.4649L19.8872 12.5187C20.6517 12.6533 21.2067 13.3153 21.2067 14.0925C21.2067 14.4677 21.0765 14.8127 20.8595 15.0857H21.2215C21.3608 15.0857 21.4889 15.1337 21.591 15.2135L22.2127 6.46875H12.6926L12.8155 8.1982L13.4002 7.79006Z" fill="#52BBEF"/>
<path d="M13.4002 7.79006C13.417 7.77819 13.4362 7.76994 13.4564 7.76584C13.4767 7.76174 13.4975 7.76188 13.5177 7.76625C13.5582 7.77502 13.5939 7.80047 13.6151 7.83619C13.7034 7.98443 13.7782 8.14032 13.8385 8.30198C13.9427 8.34221 14.0422 8.39354 14.1353 8.45508C14.1935 8.49383 14.2491 8.53641 14.3016 8.58253L14.1513 6.46875H12.6926L12.8155 8.1982L13.4002 7.79006Z" fill="#2DA1DC"/>
<path d="M19.2915 11.0229C19.6435 11.3018 19.8698 11.7326 19.8698 12.2155C19.8698 12.2977 19.8628 12.3816 19.8491 12.4647L19.8874 12.5186C20.0201 12.542 20.1466 12.5817 20.2651 12.6348L21.89 11.0098L22.0879 8.22656L19.2915 11.0229Z" fill="#121212"/>
<path d="M22.8899 6.28125C22.8899 6.41016 22.7844 6.51562 22.6555 6.51562H12.2493C12.1204 6.51562 12.0149 6.41016 12.0149 6.28125V5.4375C12.0149 5.30859 12.1204 5.20312 12.2493 5.20312H22.6555C22.7844 5.20312 22.8899 5.30859 22.8899 5.4375V6.28125Z" fill="#D9EAFC"/>
<path d="M13.9216 6.28125V5.4375C13.9216 5.30859 14.027 5.20312 14.156 5.20312H12.2493C12.1204 5.20312 12.0149 5.30859 12.0149 5.4375V6.28125C12.0149 6.41016 12.1204 6.51562 12.2493 6.51562H14.156C14.027 6.51562 13.9216 6.41016 13.9216 6.28125Z" fill="#C3DDF4"/>
<path d="M5.71582 22.4478C7.41082 23.4343 9.38126 23.9999 11.484 23.9999C13.5866 23.9999 15.5572 23.4343 17.2522 22.4478H5.71582Z" fill="#994334"/>
<path d="M3.23113 7.80582C1.91914 7.32394 1.1946 5.89552 1.5815 4.55354C1.58829 4.52982 1.59989 4.50776 1.61559 4.48873C1.6313 4.46971 1.65076 4.45413 1.67276 4.44297C1.69476 4.43181 1.71882 4.42532 1.74345 4.42389C1.76808 4.42246 1.79273 4.42612 1.81588 4.43466L6.49166 6.15183C6.53853 6.16904 6.57608 6.20494 6.59549 6.25093C6.61471 6.29686 6.614 6.3489 6.59347 6.39427C6.02 7.66758 4.54288 8.28755 3.23113 7.80582Z" fill="#EA2A3D"/>
<path d="M2.17064 4.56494C2.05781 5.54308 2.62837 6.50603 3.57998 6.85539C4.53141 7.20494 5.58956 6.84021 6.13669 6.02149L2.17064 4.56494Z" fill="#FE3745"/>
<path d="M2.69224 5.71557C2.69127 5.79155 2.66041 5.86408 2.60634 5.91746C2.55227 5.97085 2.47935 6.00078 2.40337 6.00078C2.32739 6.00078 2.25447 5.97085 2.2004 5.91746C2.14633 5.86408 2.11547 5.79155 2.1145 5.71557C2.11587 5.63987 2.1469 5.56772 2.20092 5.51467C2.25494 5.46161 2.32763 5.43188 2.40335 5.43188C2.47906 5.43188 2.55175 5.46161 2.60577 5.51467C2.65979 5.56772 2.69087 5.63987 2.69224 5.71557ZM3.17069 6.58037C3.14426 6.65224 3.09037 6.71068 3.02086 6.74282C2.95135 6.77495 2.87192 6.77817 2.80005 6.75174C2.76445 6.73868 2.73177 6.71873 2.70388 6.69303C2.67599 6.66733 2.65344 6.63639 2.63751 6.60198C2.62158 6.56757 2.61258 6.53035 2.61103 6.49246C2.60948 6.45457 2.61542 6.41675 2.62849 6.38115C2.65557 6.31015 2.70954 6.25268 2.77871 6.2212C2.84787 6.18972 2.92665 6.18676 2.99798 6.21297C3.06931 6.23918 3.12743 6.29244 3.15976 6.36121C3.19209 6.42998 3.19602 6.50872 3.17069 6.58037ZM4.99239 7.08737C4.96598 7.15928 4.91207 7.21775 4.84254 7.24992C4.80811 7.26585 4.77088 7.27485 4.73298 7.27639C4.69508 7.27793 4.65724 7.27199 4.62164 7.25891C4.58603 7.24583 4.55334 7.22586 4.52545 7.20015C4.49756 7.17444 4.47501 7.14348 4.45908 7.10906C4.42691 7.03952 4.42368 6.96006 4.4501 6.88815C4.47651 6.81624 4.53042 6.75776 4.59995 6.72559C4.66948 6.69342 4.74894 6.69019 4.82085 6.71661C4.89277 6.74303 4.95124 6.79693 4.98341 6.86646C5.01558 6.93599 5.01881 7.01546 4.99239 7.08737ZM5.9178 6.57634C5.9178 6.61426 5.91033 6.6518 5.89582 6.68684C5.88131 6.72187 5.86004 6.7537 5.83323 6.78051C5.80641 6.80733 5.77458 6.8286 5.73955 6.84311C5.70452 6.85762 5.66697 6.86509 5.62905 6.86509C5.59113 6.86509 5.55358 6.85762 5.51855 6.84311C5.48352 6.8286 5.45169 6.80733 5.42487 6.78051C5.39806 6.7537 5.37679 6.72187 5.36228 6.68684C5.34777 6.6518 5.3403 6.61426 5.3403 6.57634C5.3403 6.49976 5.37072 6.42631 5.42487 6.37216C5.47902 6.31801 5.55247 6.28759 5.62905 6.28759C5.70563 6.28759 5.77908 6.31801 5.83323 6.37216C5.88738 6.42631 5.9178 6.49976 5.9178 6.57634ZM4.04922 6.95884C4.05018 6.99738 4.04342 7.03573 4.02933 7.07162C4.01524 7.10751 3.99411 7.14022 3.96718 7.16781C3.94026 7.19541 3.90808 7.21734 3.87254 7.2323C3.83701 7.24726 3.79884 7.25496 3.76028 7.25495C3.72172 7.25493 3.68356 7.24719 3.64804 7.23219C3.61252 7.21719 3.58036 7.19523 3.55346 7.16761C3.52656 7.13999 3.50546 7.10726 3.49141 7.07136C3.47735 7.03545 3.47063 6.9971 3.47163 6.95856C3.47358 6.88324 3.50489 6.81166 3.55886 6.75909C3.61284 6.70653 3.68522 6.67713 3.76056 6.67716C3.83591 6.6772 3.90825 6.70667 3.96218 6.75929C4.0161 6.81191 4.04734 6.88352 4.04922 6.95884Z" fill="#B7092B"/>
<path d="M18.1083 11.1178L18.1487 11.1302C18.1885 11.1425 18.2216 11.1709 18.2397 11.2082C18.2578 11.2455 18.2597 11.2892 18.2447 11.328C18.2188 11.3946 18.1903 11.4603 18.1595 11.5249C18.1608 11.5578 18.1619 11.591 18.1619 11.6242C18.1621 11.9279 18.1048 12.2288 17.9931 12.5112L18.3106 12.1935C18.3664 12.1374 18.4328 12.093 18.5059 12.0627C18.579 12.0324 18.6574 12.017 18.7365 12.0172C18.8973 12.0172 19.0485 12.0798 19.1622 12.1935C19.2183 12.2493 19.2628 12.3157 19.2931 12.3888C19.3233 12.4619 19.3388 12.5403 19.3386 12.6194C19.3386 12.7802 19.276 12.9314 19.1622 13.0452L18.7074 13.5H19.3927C19.6286 13.5 19.8326 13.6366 19.9313 13.8347C20.0354 13.7556 20.1626 13.7128 20.2933 13.7129C20.4541 13.7129 20.6053 13.7756 20.719 13.8893C20.7751 13.9451 20.8195 14.0115 20.8498 14.0846C20.8801 14.1577 20.8956 14.2361 20.8953 14.3152C20.8953 14.476 20.8327 14.6272 20.719 14.7409L20.3744 15.0857H20.92C21.137 14.8001 21.2542 14.4512 21.2537 14.0925C21.2537 13.2817 20.6672 12.6085 19.8954 12.4724C19.9091 12.3889 19.9166 12.3032 19.9166 12.2157C19.9166 11.3495 19.2145 10.6472 18.3483 10.6472C18.2194 10.6472 18.0944 10.6632 17.9746 10.6924C18.0323 10.8297 18.0771 10.9721 18.1083 11.1178Z" fill="#02AF8E"/>
<path d="M15.7402 9.84936C15.4233 9.84917 15.1123 9.93431 14.8397 10.0958C14.8457 10.1035 14.8519 10.111 14.8578 10.1189L17.3533 10.8859C17.0727 10.2749 16.4554 9.84936 15.7402 9.84936ZM14.0179 9.41413C14.1403 9.47638 14.2573 9.54884 14.3676 9.63074C14.7708 9.35151 15.2497 9.20214 15.7402 9.20263C16.1836 9.20223 16.6186 9.3244 16.997 9.55565C16.8829 9.39417 16.7396 9.25539 16.5746 9.14643C16.009 8.77288 15.293 8.80752 14.7719 9.1783C14.6536 8.86616 14.4397 8.59933 14.1609 8.41583C14.0533 8.34477 13.9374 8.28703 13.8159 8.2439C13.9639 8.61567 14.0327 9.01425 14.0179 9.41413Z" fill="#A9D326"/>
<path d="M21.2212 15.0386H20.4206L19.7842 15.675C19.8779 15.7728 19.9354 15.8963 19.949 16.0296H20.9652C21.1706 16.0296 21.3521 16.133 21.4609 16.2905C21.7006 16.1951 21.8703 15.9614 21.8703 15.6877C21.8703 15.3292 21.5797 15.0386 21.2212 15.0386Z" fill="#FF9518"/>
<path d="M19.9526 16.0917C19.9526 16.2524 19.89 16.4036 19.7764 16.5173C19.7081 16.5857 19.6244 16.6366 19.5322 16.6656L21.4898 17.0132C21.571 16.9025 21.6147 16.7688 21.6147 16.6316C21.6147 16.2732 21.3241 15.9827 20.9656 15.9827H19.9425C19.9489 16.0184 19.9526 16.0546 19.9526 16.0916L19.9526 16.0917Z" fill="#FFD00D"/>
<path d="M20.752 13.8561C20.5219 13.6261 20.1625 13.6056 19.9085 13.7933C19.9629 13.8838 19.9948 13.9892 19.9948 14.1022C19.9948 14.4342 19.7245 14.7042 19.3925 14.7042H18.813L19.7761 15.6659C19.7902 15.68 19.8036 15.6946 19.816 15.7099L20.7521 14.774C21.0055 14.5206 21.0055 14.1097 20.7521 13.8561H20.752Z" fill="#FFAF10"/>
<path d="M18.881 14.7043H18.262V14.7733C18.559 15.3348 18.795 15.9265 18.966 16.5383L19.003 16.5718L19.62 16.6813C19.6905 16.6494 19.7546 16.6052 19.8094 16.5506C20.0628 16.2972 20.0628 15.8863 19.8094 15.6329L18.881 14.7043Z" fill="#FFE98D"/>
<path d="M17.9604 14.2463C18.0624 14.4114 18.159 14.5798 18.2499 14.7512H19.3922C19.7507 14.7512 20.0413 14.4607 20.0413 14.1022C20.0413 13.7437 19.7507 13.4531 19.3922 13.4531H18.7539L17.9604 14.2463Z" fill="#FFD00D"/>
<path d="M17.3743 13.4094C17.5955 13.6896 17.7997 13.9828 17.9859 14.2874L19.1953 13.0782C19.4487 12.8248 19.4487 12.4137 19.1953 12.1603C18.9419 11.9069 18.5308 11.9069 18.2774 12.1603L18.0319 12.4058C17.9001 12.7901 17.674 13.1352 17.3743 13.4094H17.3743Z" fill="#FFE98D"/>
<path d="M4.08695 12.5318L4.13307 12.5206C4.18897 12.4665 4.24549 12.4131 4.30262 12.3604L4.30792 12.297C4.12023 12.0561 4.0082 11.7742 3.97886 11.4744C3.70239 11.5712 3.45151 11.7433 3.2604 11.9833C3.47261 12.2379 3.75695 12.4329 4.0869 12.5318H4.08695ZM1.43462 18.2696C1.57974 16.3523 2.33947 14.5329 3.60095 13.0818L3.58539 13.0086C3.35589 12.9007 3.1454 12.7564 2.96209 12.5812C2.9399 12.6677 2.92502 12.7559 2.91761 12.8449C2.33682 12.8108 1.75839 13.0965 1.44545 13.6331C1.10397 14.2187 1.17812 14.9317 1.57726 15.4314C1.27225 15.567 1.01775 15.7953 0.849996 16.0838C0.406699 16.8445 0.663574 17.8204 1.42422 18.2639C1.42768 18.2659 1.43115 18.2677 1.43462 18.2695V18.2696Z" fill="#A9D326"/>
<path d="M1.4347 18.2698C1.4371 18.2386 1.43949 18.2075 1.44206 18.1764C1.02253 17.6371 0.947861 16.876 1.31316 16.2494C1.4977 15.9326 1.76817 15.6979 2.07722 15.5547C2.08092 15.546 2.08458 15.5373 2.08824 15.5285C1.66692 14.9891 1.59108 14.2266 1.95675 13.5993C2.16145 13.2474 2.4846 12.9797 2.86847 12.8441C2.30447 12.8284 1.74966 13.1119 1.44535 13.6335C1.10405 14.2191 1.17816 14.9321 1.57735 15.4318C1.27233 15.5674 1.01784 15.7957 0.85008 16.0842C0.406595 16.8448 0.663658 17.8208 1.4243 18.2643C1.42777 18.2661 1.43124 18.2678 1.4347 18.2698Z" fill="#9BBA19"/>
<path d="M3.92383 11.3158C3.9233 11.6982 4.05648 12.0687 4.30033 12.3633C4.90019 11.8111 5.57496 11.339 6.30808 10.9658C6.30972 10.9365 6.31047 10.9072 6.31047 10.8778C6.31047 10.4191 6.13028 10.0018 5.83731 9.6922C5.74876 9.67761 5.65917 9.67024 5.56942 9.67017C4.66052 9.67017 3.92383 10.4069 3.92383 11.3158Z" fill="#37C47A"/>
<path d="M5.56962 9.67017C4.66071 9.67017 3.92407 10.4068 3.92407 11.3157C3.92353 11.6981 4.0567 12.0687 4.30053 12.3633C4.46384 12.2129 4.63259 12.0686 4.80645 11.9306C4.72774 11.7352 4.6874 11.5264 4.68762 11.3157C4.68762 10.5654 5.19007 9.93271 5.8767 9.73481C5.86407 9.72054 5.85119 9.70649 5.83807 9.69267C5.74936 9.67782 5.65957 9.67029 5.56962 9.67017Z" fill="#2BB381"/>
<path d="M10.3519 9.99796C10.8355 9.99796 11.3149 10.0371 11.7856 10.1135C11.4943 9.5308 10.8921 9.12965 10.1975 9.12965C9.47925 9.12965 8.85961 9.55902 8.58057 10.1744C9.16369 10.0569 9.75707 9.99779 10.3519 9.99796ZM6.92785 10.6798C7.22555 10.5561 7.52977 10.4486 7.83914 10.3579C7.98343 9.73518 8.3685 9.20399 8.89055 8.86761C8.59796 8.59991 8.20866 8.43604 7.78074 8.43604C7.15341 8.43604 6.60835 8.78704 6.33057 9.30341C6.66525 9.67475 6.88369 10.1528 6.92785 10.6798Z" fill="#37C47A"/>
<path d="M6.92785 10.6798C7.0148 10.6437 7.10269 10.6093 7.19114 10.5758C7.1408 10.4158 7.11519 10.2491 7.11521 10.0814C7.11521 9.3433 7.6013 8.71874 8.27072 8.51015C8.11207 8.46086 7.94687 8.43588 7.78074 8.43604C7.15341 8.43604 6.60835 8.78704 6.33057 9.30341C6.66525 9.67476 6.88369 10.1528 6.92785 10.6798Z" fill="#2BB381"/>
<path d="M3.60959 13.0717C3.78198 12.8739 3.96293 12.6838 4.15193 12.5019C3.43287 12.3116 2.9028 11.6566 2.9028 10.8777C2.9028 9.94993 3.65496 9.19754 4.58294 9.19754C5.51093 9.19754 6.26313 9.94988 6.26313 10.8777C6.26313 10.9158 6.26149 10.9533 6.25891 10.9907C6.49203 10.8704 6.73031 10.7605 6.97305 10.6611C6.86355 9.43702 5.83559 8.47754 4.58294 8.47754C3.25732 8.47754 2.18262 9.5522 2.18262 10.8777C2.18262 11.8568 2.76912 12.6984 3.60959 13.0717Z" fill="#121212"/>
<path d="M19.2508 18.0579C19.251 18.0605 19.2541 18.1471 19.2761 18.2753H21.5828C21.8 17.976 21.958 17.638 22.0483 17.2794C22.055 17.2531 22.0561 17.2258 22.0517 17.1991C22.0473 17.1723 22.0374 17.1468 22.0227 17.1241C22.008 17.1014 21.9888 17.0819 21.9663 17.067C21.9438 17.052 21.9184 17.0418 21.8917 17.0371L18.9597 16.5164C19.102 17.0206 19.1994 17.5365 19.2508 18.0579Z" fill="#EA2A3D"/>
<path d="M20.196 17.9684C20.2401 17.9762 20.2819 17.9933 20.3188 18.0185C20.3557 18.0437 20.3868 18.0765 20.4101 18.1147C20.5467 18.0427 20.676 17.9578 20.7963 17.8611C20.7675 17.8258 20.7467 17.7848 20.7352 17.7408C20.7238 17.6968 20.722 17.6508 20.73 17.606C20.7373 17.565 20.7525 17.5259 20.7749 17.4908C20.7973 17.4557 20.8264 17.4254 20.8605 17.4016C20.8946 17.3777 20.9331 17.3608 20.9737 17.3519C21.0143 17.3429 21.0563 17.342 21.0973 17.3493C21.1452 17.3579 21.1906 17.3774 21.2297 17.4064C21.33 17.2687 21.4151 17.1206 21.4835 16.9646L18.9597 16.5164C19.102 17.0206 19.1994 17.5365 19.2509 18.0579C19.2509 18.0605 19.254 18.1471 19.2762 18.2752H19.8241C19.8246 18.2586 19.8256 18.2417 19.8288 18.2249C19.8435 18.1422 19.8904 18.0687 19.9593 18.0206C20.0282 17.9725 20.1133 17.9537 20.196 17.9684Z" fill="#FE3745"/>
<path d="M20.4577 18.2754C20.4564 18.1967 20.4258 18.1213 20.3719 18.0639C20.3181 18.0065 20.2447 17.9713 20.1663 17.965C20.0878 17.9587 20.0098 17.9818 19.9475 18.0299C19.8851 18.078 19.8429 18.1476 19.8291 18.2251C19.8263 18.2417 19.8248 18.2586 19.8247 18.2754H20.4577ZM21.3542 17.7168C21.347 17.7578 21.3317 17.7969 21.3093 17.832C21.2869 17.8671 21.2579 17.8974 21.2237 17.9212C21.1896 17.9451 21.1511 17.9619 21.1105 17.9709C21.0699 17.9798 21.0278 17.9807 20.9869 17.9733C20.9459 17.9661 20.9068 17.9508 20.8718 17.9284C20.8367 17.9061 20.8064 17.877 20.7826 17.8429C20.7587 17.8088 20.7419 17.7704 20.7329 17.7298C20.7239 17.6891 20.7231 17.6472 20.7303 17.6062C20.7376 17.5652 20.7529 17.5261 20.7752 17.4911C20.7976 17.456 20.8267 17.4257 20.8608 17.4018C20.8949 17.378 20.9334 17.3611 20.974 17.3522C21.0146 17.3432 21.0566 17.3423 21.0976 17.3496C21.1385 17.3569 21.1777 17.3721 21.2127 17.3945C21.2478 17.4169 21.2781 17.446 21.3019 17.4801C21.3258 17.5142 21.3427 17.5526 21.3516 17.5933C21.3606 17.6339 21.3615 17.6759 21.3542 17.7168V17.7168Z" fill="#B7092B"/>
<path d="M16.9236 12.8829C17.0917 13.0652 17.2519 13.2537 17.4037 13.448C17.8984 12.9966 18.2088 12.3467 18.2088 11.6242C18.2088 11.56 18.2057 11.4966 18.2007 11.4336C17.9619 11.9829 17.5569 12.4346 17.0593 12.7401C17.0167 12.7901 16.9714 12.8378 16.9236 12.8829ZM14.8582 10.1189L14.8807 10.1257C15.1422 9.97511 15.4388 9.89598 15.7405 9.89625C16.4235 9.89625 17.0137 10.2925 17.2942 10.8676L18.1487 11.1302C18.1528 11.1313 18.1564 11.1335 18.1603 11.1352C17.9332 10.0061 16.9364 9.15576 15.7405 9.15576C15.2345 9.15509 14.7406 9.31082 14.3264 9.60164C14.5289 9.74605 14.7082 9.92047 14.8582 10.1189Z" fill="#121212"/>
<path d="M10.3518 9.99803C10.5895 9.99803 10.8259 10.0081 11.061 10.0265C11.1771 9.88716 11.3084 9.76115 11.4525 9.65083C11.3388 9.53715 11.2102 9.43935 11.0703 9.36007L10.1533 10.0004C10.2194 9.99907 10.2855 9.99803 10.3518 9.99803ZM12.0291 9.32304C12.3134 9.20948 12.6168 9.1512 12.923 9.15133C13.3351 9.15133 13.7237 9.25493 14.0637 9.4375C14.0881 8.88325 13.9573 8.31799 13.6554 7.81225C13.6416 7.78898 13.6231 7.76881 13.6011 7.75303C13.5791 7.73724 13.5541 7.72617 13.5276 7.72052C13.5012 7.71478 13.4738 7.71458 13.4472 7.71994C13.4207 7.7253 13.3956 7.73609 13.3734 7.75165L11.6401 8.96196C11.7825 9.06788 11.9129 9.18897 12.0291 9.32308V9.32304Z" fill="#EA2A3D"/>
<path d="M10.3518 9.99789C10.5895 9.99789 10.8259 10.0079 11.061 10.0264C11.1771 9.88702 11.3084 9.76101 11.4525 9.65069C11.3388 9.53701 11.2102 9.4392 11.0703 9.35992L10.1533 10.0002C10.2194 9.99892 10.2855 9.99789 10.3518 9.99789ZM12.6159 10.2402C12.6178 10.1005 12.6293 9.95978 12.652 9.81878C12.5635 9.83244 12.4763 9.85281 12.3909 9.87972C12.4416 9.98826 12.484 10.1005 12.5179 10.2153C12.5506 10.2235 12.5833 10.2316 12.6159 10.2402ZM12.9541 8.97522C12.906 8.90635 12.8872 8.8212 12.9019 8.73848C12.9165 8.65577 12.9634 8.58226 13.0323 8.53412C13.0719 8.50642 13.1174 8.48825 13.1652 8.48101C13.1392 8.31274 13.095 8.14778 13.0334 7.98901L11.6401 8.96186C11.7824 9.06777 11.9128 9.18884 12.0289 9.32294C12.3924 9.17774 12.7857 9.12335 13.175 9.1645C13.1773 9.14584 13.1784 9.12719 13.1805 9.10848C13.1354 9.10385 13.0918 9.08954 13.0527 9.06655C13.0137 9.04355 12.98 9.0124 12.9541 8.97522Z" fill="#FE3745"/>
<path d="M13.5309 8.79386C13.5309 8.83546 13.5227 8.87666 13.5067 8.9151C13.4908 8.95354 13.4674 8.98846 13.438 9.01787C13.4086 9.04729 13.3737 9.07061 13.3352 9.08652C13.2968 9.10243 13.2556 9.11061 13.2139 9.11059C13.172 9.1111 13.1304 9.10328 13.0915 9.08759C13.0527 9.0719 13.0173 9.04865 12.9875 9.01919C12.9576 8.98972 12.934 8.95463 12.9178 8.91595C12.9016 8.87726 12.8933 8.83576 12.8933 8.79383C12.8933 8.75191 12.9016 8.7104 12.9178 8.67172C12.934 8.63303 12.9576 8.59794 12.9875 8.56848C13.0173 8.53901 13.0527 8.51576 13.0915 8.50007C13.1304 8.48438 13.172 8.47656 13.2139 8.47707C13.2556 8.47706 13.2968 8.48524 13.3352 8.50115C13.3737 8.51706 13.4086 8.54039 13.438 8.56981C13.4675 8.59923 13.4908 8.63415 13.5067 8.6726C13.5227 8.71104 13.5309 8.75224 13.5309 8.79386Z" fill="#B7092B"/>
<path d="M12.9227 9.7981C12.8319 9.79803 12.7413 9.80495 12.6516 9.81882C12.6265 9.97472 12.6142 10.1324 12.6148 10.2903C13.3167 10.4737 13.9935 10.7424 14.6302 11.0903C14.4194 10.3456 13.7341 9.7981 12.9227 9.7981ZM15.3428 11.5244C15.7051 11.7687 16.049 12.0392 16.3719 12.3336C16.5616 12.5068 16.7438 12.688 16.9181 12.8767C17.5259 12.5568 18.0241 12.0263 18.2879 11.3448C18.2977 11.3196 18.3021 11.2926 18.301 11.2656C18.2999 11.2385 18.2932 11.212 18.2814 11.1877C18.2696 11.1634 18.2529 11.1417 18.2324 11.1241C18.2119 11.1065 18.1879 11.0933 18.1621 11.0853L14.806 10.0539C15.1323 10.458 15.3321 10.9683 15.3428 11.5244Z" fill="#EA2A3D"/>
<path d="M14.6302 11.0903C14.4563 10.4754 13.9584 9.99508 13.3335 9.84644C13.344 10.0915 13.3924 10.3334 13.4769 10.5636C13.8733 10.7116 14.2587 10.8876 14.6302 11.0903ZM16.3656 11.8026C16.4083 11.8157 16.4478 11.8378 16.4814 11.8674C16.515 11.897 16.5419 11.9334 16.5604 11.9741C16.7045 11.9191 16.8431 11.8504 16.9742 11.769C16.95 11.7306 16.9344 11.6874 16.9284 11.6423C16.9224 11.5973 16.9263 11.5515 16.9396 11.5081C16.9518 11.4683 16.9717 11.4313 16.9983 11.3992C17.0248 11.3672 17.0574 11.3406 17.0941 11.3211C17.1309 11.3016 17.1712 11.2896 17.2126 11.2857C17.254 11.2817 17.2959 11.286 17.3356 11.2982C17.3821 11.3126 17.4246 11.3375 17.4598 11.371C17.5762 11.2465 17.6788 11.11 17.7659 10.9636L14.806 10.0539C15.1323 10.458 15.3321 10.9683 15.3431 11.5244C15.5608 11.6718 15.772 11.8287 15.9761 11.9946C16.0043 11.919 16.0603 11.857 16.1327 11.8213C16.2051 11.7856 16.2884 11.7789 16.3656 11.8026Z" fill="#FE3745"/>
<path d="M16.3719 12.3336C16.3897 12.3499 16.407 12.3666 16.4248 12.3831C16.497 12.3435 16.5509 12.2774 16.5751 12.1987C16.5998 12.1183 16.5915 12.0315 16.5522 11.9572C16.5128 11.883 16.4456 11.8274 16.3653 11.8026C16.2881 11.7789 16.2048 11.7856 16.1324 11.8214C16.06 11.8571 16.004 11.9192 15.9758 11.9949C16.1104 12.104 16.243 12.2161 16.3719 12.3336ZM17.5592 11.6012C17.5592 11.7763 17.4174 11.918 17.2424 11.918C17.0674 11.918 16.9256 11.7763 16.9256 11.6012C16.9256 11.4262 17.0673 11.2844 17.2424 11.2844C17.4175 11.2844 17.5592 11.4262 17.5592 11.6012Z" fill="#B7092B"/>
<path d="M11.785 10.1133C11.6924 9.92777 11.568 9.75984 11.4175 9.61711C11.2644 9.73543 11.1256 9.87124 11.0039 10.0218C11.2655 10.0408 11.5261 10.0714 11.785 10.1133ZM12.923 9.84487C13.6985 9.84487 14.3546 10.3556 14.5732 11.0591C14.8545 11.21 15.1275 11.376 15.3909 11.5562C15.3821 10.2005 14.2808 9.10425 12.923 9.10425C12.6053 9.10401 12.2906 9.16531 11.9962 9.28476C12.1668 9.47425 12.3065 9.68941 12.4102 9.92236C12.5762 9.87084 12.7491 9.84472 12.923 9.84487Z" fill="#FFE2B8"/>
<path d="M8.63616 10.1636C8.91356 9.58001 9.50831 9.17646 10.1975 9.17646C10.8633 9.17646 11.4408 9.5531 11.7292 10.1048C12.0183 10.1498 12.3045 10.2086 12.5865 10.2815C12.3105 9.21963 11.3456 8.43579 10.1975 8.43579C9.01664 8.43579 8.03011 9.26524 7.78711 10.3732C8.0665 10.2894 8.34986 10.2194 8.63616 10.1636Z" fill="#121212"/>
<path d="M19.3232 18.2753C19.3003 18.1431 19.2979 18.0534 19.2979 18.0534C18.8508 13.5114 15.0094 9.95093 10.3519 9.95093C5.61864 9.95093 1.72839 13.6278 1.38672 18.2753H19.3232Z" fill="#FFAF10"/>
<path d="M21.2581 19.1611C21.2613 19.1481 21.2652 19.1353 21.2679 19.1223C21.2551 19.1282 21.2427 19.1333 21.2298 19.139C21.239 19.1467 21.2486 19.1538 21.2581 19.1611ZM2.85302 18.2753C3.17692 13.8705 6.68856 10.3382 11.0842 9.98116C10.8406 9.9612 10.5963 9.95112 10.3519 9.95093C5.61864 9.95093 1.72839 13.6279 1.38672 18.2753H2.85302ZM16.1628 14.401C16.1628 14.8838 15.7713 15.2751 15.2884 15.2751C14.8058 15.2751 14.4143 14.8838 14.4143 14.401C14.4143 13.9181 14.8058 13.5268 15.2884 13.5268C15.7713 13.5268 16.1628 13.9181 16.1628 14.401Z" fill="#FF9518"/>
<path d="M17.7329 17.0612C17.7329 17.438 17.4273 17.7434 17.0504 17.7434C16.6736 17.7434 16.3682 17.438 16.3682 17.0612C16.3682 16.6843 16.6736 16.3789 17.0504 16.3789C17.4273 16.3789 17.7329 16.6843 17.7329 17.0612Z" fill="#FFD00D"/>
<path d="M14.9286 16.7741C14.9286 17.0622 14.6949 17.2957 14.4067 17.2957C14.1185 17.2957 13.885 17.0623 13.885 16.774C13.885 16.4858 14.1185 16.2522 14.4067 16.2522C14.695 16.2522 14.9286 16.4858 14.9286 16.7741Z" fill="#FF9518"/>
<path d="M13.694 12.6011C13.694 12.9705 13.3948 13.2698 13.0255 13.2698C12.6563 13.2698 12.3569 12.9704 12.3569 12.6011C12.3569 12.232 12.6563 11.9326 13.0255 11.9326C13.3948 11.9326 13.694 12.232 13.694 12.6011Z" fill="#FFD00D"/>
<path d="M8.45544 6.56249C8.18099 6.56256 7.91267 6.48133 7.68434 6.32906C7.32055 6.08718 7.09475 5.69789 7.06512 5.26078C6.74961 5.28922 6.43386 5.20892 6.17028 5.0332C5.58997 4.64756 5.38311 3.88513 5.68906 3.26001L4.93705 1.27476C4.92387 1.23993 4.91918 1.20246 4.92336 1.16546C4.92754 1.12845 4.94047 1.09298 4.96108 1.06196C4.9817 1.03095 5.0094 1.00529 5.0419 0.98711C5.0744 0.96893 5.11077 0.958752 5.14798 0.957417L7.26945 0.882417C7.4005 0.732736 7.56205 0.612827 7.74327 0.530741C7.92449 0.448654 8.12117 0.406291 8.32011 0.406495C8.5948 0.406495 8.86119 0.48726 9.09078 0.639745C9.3574 0.817026 9.54969 1.07193 9.6469 1.37676C9.79318 1.32665 9.94674 1.30111 10.1014 1.30115C10.3759 1.30115 10.6423 1.38173 10.8717 1.53421C11.5124 1.96012 11.687 2.82768 11.2611 3.46818C11.2439 3.49384 11.2258 3.51901 11.2071 3.54365C11.7848 3.98803 11.9209 4.81237 11.5171 5.41973C11.258 5.80973 10.8234 6.04246 10.3544 6.04246C10.1134 6.04236 9.87643 5.97964 9.66687 5.86045C9.65145 5.88717 9.63594 5.91356 9.6185 5.93938C9.49122 6.13127 9.31837 6.28862 9.11541 6.39735C8.91244 6.50609 8.68569 6.56283 8.45544 6.56249Z" fill="#60D882"/>
<path d="M10.0777 3.16688C9.74671 3.08813 9.39018 3.19398 9.11901 3.43548L8.56091 3.0647C8.79801 2.85742 9.09669 2.76095 9.35816 2.8232C9.39969 2.83309 9.44276 2.8347 9.48491 2.82794C9.52706 2.82118 9.56746 2.80618 9.60381 2.7838C9.64016 2.76142 9.67175 2.7321 9.69677 2.69751C9.72178 2.66292 9.73974 2.62374 9.74962 2.58221C9.79119 2.40737 9.68333 2.23192 9.50868 2.19053C8.99999 2.06949 8.44719 2.2539 8.04383 2.65731C8.03118 2.66992 8.01908 2.68309 8.0068 2.69631L7.35697 2.26435C7.59412 2.05707 7.89276 1.9606 8.15422 2.02299C8.19576 2.03288 8.23884 2.03449 8.281 2.02772C8.32316 2.02095 8.36358 2.00594 8.39993 1.98355C8.43629 1.96116 8.46788 1.93182 8.49289 1.89721C8.51791 1.86261 8.53586 1.82341 8.54572 1.78187C8.5657 1.69797 8.55153 1.60958 8.50634 1.53612C8.46115 1.46267 8.38863 1.41017 8.30474 1.39018C7.79605 1.26934 7.24326 1.45374 6.8399 1.85692C6.82724 1.86976 6.81519 1.88293 6.80287 1.89592L5.3789 0.949463L5.14761 0.957713C5.11045 0.959069 5.07415 0.969257 5.0417 0.987435C5.00926 1.00561 4.98161 1.03126 4.96105 1.06224C4.94045 1.09327 4.92753 1.12875 4.92335 1.16575C4.91918 1.20276 4.92388 1.24023 4.93705 1.27506L5.01908 1.49124L6.44329 2.43793C6.20413 2.97863 6.23985 3.5829 6.55813 4.01809C6.5833 4.05257 6.61502 4.08175 6.65147 4.10397C6.68793 4.12619 6.7284 4.14101 6.77058 4.14757C6.81277 4.15414 6.85583 4.15234 6.89731 4.14225C6.9388 4.13217 6.97789 4.11402 7.01235 4.08882C7.04688 4.06365 7.0761 4.03192 7.09835 3.99544C7.12059 3.95897 7.13542 3.91846 7.14199 3.87624C7.14855 3.83402 7.14673 3.79092 7.13661 3.74941C7.12649 3.7079 7.10829 3.66879 7.08304 3.63432C6.92451 3.41734 6.89774 3.10478 6.99702 2.80595L7.64718 3.23828C7.40811 3.77898 7.44374 4.38324 7.76202 4.81848C7.78719 4.85296 7.81892 4.88215 7.85538 4.90437C7.89184 4.92658 7.93232 4.9414 7.9745 4.94796C8.01669 4.95453 8.05976 4.95271 8.10125 4.94262C8.14273 4.93254 8.18182 4.91437 8.21629 4.88917C8.25079 4.86398 8.27999 4.83224 8.30222 4.79576C8.32444 4.75928 8.33926 4.71878 8.34583 4.67657C8.35239 4.63436 8.35057 4.59127 8.34048 4.54976C8.33038 4.50825 8.3122 4.46914 8.28697 4.43467C8.1284 4.21773 8.10168 3.90517 8.20091 3.60634L8.75957 3.97763C8.64201 4.32099 8.68176 4.69046 8.88224 4.96529C8.98808 5.11037 9.19152 5.14201 9.33674 5.03621C9.48196 4.93042 9.51346 4.72693 9.40757 4.5819C9.36913 4.52917 9.34588 4.45318 9.34513 4.36674L9.7108 4.60993C9.74637 4.63357 9.78624 4.64997 9.82814 4.6582C9.87005 4.66643 9.91316 4.66632 9.95502 4.65789C9.99688 4.64946 10.0367 4.63286 10.0721 4.60905C10.1076 4.58524 10.138 4.55468 10.1616 4.51911C10.1853 4.48355 10.2017 4.44367 10.2099 4.40177C10.2181 4.35987 10.218 4.31675 10.2096 4.27489C10.2011 4.23303 10.1846 4.19324 10.1607 4.15779C10.1369 4.12234 10.1064 4.09193 10.0708 4.06829L9.70513 3.82515C9.78496 3.79253 9.8639 3.78446 9.92741 3.7997C9.96907 3.80989 10.0123 3.81174 10.0547 3.80514C10.0971 3.79854 10.1378 3.78362 10.1743 3.76125C10.2109 3.73887 10.2427 3.70948 10.2679 3.67476C10.2931 3.64004 10.3112 3.60069 10.3211 3.55896C10.331 3.51723 10.3326 3.47395 10.3257 3.43162C10.3188 3.38928 10.3036 3.34872 10.281 3.31228C10.2584 3.27584 10.2288 3.24423 10.1939 3.21928C10.159 3.19433 10.1195 3.17652 10.0777 3.16688Z" fill="#2BB381"/>
<path d="M1.42376 20.2031H21.5449L22.4866 18.572C22.5066 18.5372 22.5172 18.4977 22.5172 18.4575C22.5172 18.4173 22.5066 18.3778 22.4866 18.3429C22.4664 18.3081 22.4375 18.2792 22.4026 18.2591C22.3678 18.2391 22.3283 18.2285 22.2881 18.2285H0.680557C0.598667 18.2285 0.523057 18.2721 0.482042 18.3429C0.461977 18.3778 0.451416 18.4173 0.451416 18.4575C0.451416 18.4977 0.461977 18.5372 0.482042 18.572L1.42376 20.2031Z" fill="#52BBEF"/>
<path d="M1.42376 20.2031H3.37531L2.43359 18.572C2.41349 18.5372 2.4029 18.4977 2.4029 18.4575C2.40289 18.4173 2.41347 18.3778 2.43357 18.343C2.45366 18.3082 2.48257 18.2793 2.51738 18.2592C2.55219 18.2391 2.59167 18.2285 2.63187 18.2285H0.680557C0.598667 18.2285 0.523057 18.2721 0.482042 18.3429C0.461977 18.3778 0.451416 18.4173 0.451416 18.4575C0.451416 18.4977 0.461977 18.5372 0.482042 18.572L1.42376 20.2031Z" fill="#2DA1DC"/>
<path d="M22.9688 22.2603C22.9688 22.3892 22.8633 22.4947 22.7344 22.4947H0.234375C0.105469 22.4947 0 22.3892 0 22.2603V20.3906C0 20.2617 0.105469 20.1562 0.234375 20.1562H22.7344C22.8633 20.1562 22.9688 20.2617 22.9688 20.3906V22.2603Z" fill="#BF7E52"/>
<path d="M2.39062 22.2603V20.3906C2.39062 20.2617 2.49609 20.1562 2.625 20.1562H0.234375C0.105469 20.1562 0 20.2617 0 20.3906V22.2603C0 22.3892 0.105469 22.4947 0.234375 22.4947H2.625C2.49609 22.4947 2.39062 22.3892 2.39062 22.2603Z" fill="#A86639"/>
</svg>
