<svg width="24" height="24" viewBox="0 0 24 24" fill="none" xmlns="http://www.w3.org/2000/svg">
<path d="M8.02871 7.68409C8.22788 7.12622 8.7752 7.4018 9.14221 7.67962L9.13645 9.42611C9.13644 9.53291 9.14231 9.63964 9.15404 9.7458C9.04445 9.71963 8.93635 9.68762 8.83019 9.64989C8.15659 9.42003 7.74546 8.47821 8.02871 7.68409ZM15.9872 7.68409C15.788 7.12622 15.2461 7.40116 14.8791 7.67866L14.8622 9.40725C14.8618 9.51886 14.8555 9.63038 14.8433 9.74133C14.959 9.7179 15.0732 9.68791 15.1854 9.65149C15.8593 9.42003 16.2704 8.47821 15.9872 7.68409Z" fill="#FFBBB7"/>
<path d="M18.9755 10.2734H5.02464C4.67152 10.2734 4.38525 10.5597 4.38525 10.9128V13.6568C4.38525 14.0099 4.67152 14.2962 5.02464 14.2962H18.9755C19.3286 14.2962 19.6149 14.0099 19.6149 13.6568V10.9128C19.6149 10.5597 19.3286 10.2734 18.9755 10.2734Z" fill="#C27E72"/>
<path d="M18.9756 10.2737H18.8848C18.8915 10.3095 18.8952 10.3459 18.8957 10.3824V13.1263C18.8957 13.2959 18.8283 13.4585 18.7084 13.5784C18.5885 13.6983 18.4259 13.7657 18.2563 13.7657H4.39624C4.42182 13.914 4.49887 14.0485 4.61383 14.1455C4.72879 14.2426 4.8743 14.296 5.02476 14.2964H18.9756C19.1452 14.2964 19.3078 14.229 19.4277 14.1091C19.5476 13.9892 19.615 13.8266 19.615 13.657V10.9131C19.615 10.7435 19.5476 10.5809 19.4277 10.461C19.3078 10.341 19.1452 10.2737 18.9756 10.2737Z" fill="#BB765C"/>
<path d="M18.9756 10.2737H18.8848C18.8915 10.3095 18.8952 10.3459 18.8957 10.3824V13.1263C18.8957 13.2959 18.8283 13.4585 18.7084 13.5784C18.5885 13.6983 18.4259 13.7657 18.2563 13.7657H4.39624C4.42182 13.914 4.49887 14.0485 4.61383 14.1455C4.72879 14.2426 4.8743 14.296 5.02476 14.2964H18.9756C19.1452 14.2964 19.3078 14.229 19.4277 14.1091C19.5476 13.9892 19.615 13.8266 19.615 13.657V10.9131C19.615 10.7435 19.5476 10.5809 19.4277 10.461C19.3078 10.341 19.1452 10.2737 18.9756 10.2737Z" fill="#BB765C"/>
<path d="M15.3998 8.84428C15.6028 8.45094 15.556 8.02297 15.2952 7.88838C15.0345 7.75379 14.6585 7.96355 14.4555 8.35689C14.2525 8.75023 14.2993 9.1782 14.56 9.31279C14.8208 9.44738 15.1968 9.23762 15.3998 8.84428Z" fill="#FFB2AD"/>
<path d="M9.45539 9.32012C9.71615 9.18553 9.76296 8.75756 9.55995 8.36422C9.35693 7.97088 8.98096 7.76112 8.7202 7.89571C8.45944 8.0303 8.41263 8.45827 8.61564 8.85161C8.81866 9.24495 9.19463 9.45471 9.45539 9.32012Z" fill="#FFB2AD"/>
<path d="M16.6718 14.3786L14.5683 13.6321C14.2475 14.0009 13.8508 14.296 13.4053 14.4973C12.9599 14.6986 12.4762 14.8012 11.9874 14.7981C11.4986 14.7951 11.0162 14.6865 10.5733 14.4797C10.1304 14.2729 9.73735 13.9729 9.42117 13.6001L7.32141 14.3674C6.7918 14.5608 6.33445 14.9123 6.01135 15.3744C5.68825 15.8364 5.51502 16.3867 5.51514 16.9505V20.9998H18.5021V16.9716C18.5025 16.4032 18.3267 15.8487 17.9989 15.3843C17.6712 14.9199 17.2075 14.5686 16.6718 14.3786Z" fill="#FFE17F"/>
<path d="M8.63045 20.9999L8.82578 13.5986C8.82642 13.5751 8.82171 13.5518 8.812 13.5305C8.8023 13.5091 8.78786 13.4902 8.76978 13.4752C8.7517 13.4603 8.73045 13.4496 8.70764 13.4441C8.68483 13.4385 8.66105 13.4382 8.63812 13.4432L7.80691 13.6235C7.68676 13.6495 7.57945 13.7166 7.50355 13.8132C7.42766 13.9099 7.38795 14.0301 7.39131 14.153L7.57801 21.0008L8.63045 20.9999ZM16.4316 20.9999L16.6183 14.152C16.6217 14.0291 16.582 13.909 16.5061 13.8123C16.4302 13.7156 16.3229 13.6485 16.2027 13.6226L15.3715 13.4423C15.3486 13.4373 15.3248 13.4376 15.302 13.4431C15.2792 13.4486 15.258 13.4593 15.2399 13.4743C15.2218 13.4892 15.2073 13.5081 15.1976 13.5295C15.1879 13.5509 15.1832 13.5742 15.1839 13.5976L15.3792 20.9999H16.4316Z" fill="#46B3CC"/>
<path d="M12.008 14.7989C12.4934 14.7991 12.9731 14.695 13.4147 14.4937C13.8564 14.2923 14.2496 13.9985 14.5678 13.632C14.3684 13.5614 14.1957 13.4307 14.0736 13.2578C13.9515 13.0849 13.8861 12.8785 13.8862 12.6669V11.3027C13.5013 11.7039 13.0353 12.0184 12.5192 12.2254C12.396 12.2663 12.2676 12.29 12.1378 12.2957C11.9222 12.3119 11.7055 12.2881 11.4984 12.2257C10.9821 12.0188 10.5159 11.7041 10.1308 11.3027V12.5866C10.1307 12.808 10.0627 13.0241 9.93579 13.2055C9.8089 13.3869 9.62933 13.525 9.42139 13.601C9.73974 13.9765 10.136 14.2781 10.5827 14.485C11.0294 14.6919 11.5158 14.799 12.008 14.7989Z" fill="#FFB09E"/>
<path d="M12.1377 12.2957C11.922 12.3119 11.7053 12.2881 11.4983 12.2257C10.9819 12.0188 10.5157 11.7041 10.1306 11.3027V11.9421C10.5816 12.4284 11.1367 12.8064 11.7543 13.0479C12.1859 13.179 12.6466 13.179 13.0782 13.0479C13.3656 12.946 13.6374 12.8047 13.8861 12.6282V11.3027C13.5011 11.7039 13.0351 12.0184 12.5191 12.2254C12.3958 12.2663 12.2674 12.29 12.1377 12.2957Z" fill="#FFA691"/>
<path d="M14.874 9.743C14.8066 10.3667 14.5358 10.9508 14.1035 11.4054C13.6692 11.9021 13.1267 12.2925 12.5179 12.5467C12.185 12.6448 11.8309 12.6448 11.498 12.5467C10.8892 12.2925 10.3467 11.9021 9.91234 11.4054C9.48006 10.9508 9.20933 10.3667 9.14188 9.743C9.0757 9.41052 9.11534 7.66818 9.11215 7.66818C8.68695 6.61639 8.37142 5.344 9.05237 4.88044C9.05237 4.88044 8.96924 2.90153 12.0671 3.00383C13.429 3.04859 14.1131 3.37788 14.6662 4.16433C14.9256 4.5628 15.0897 5.0157 15.1457 5.48786C15.2309 6.22253 15.1433 6.96694 14.89 7.66179L14.8932 7.67138C14.9409 8.36136 14.9345 9.05402 14.874 9.743Z" fill="#FFC6B7"/>
<path d="M14.8901 7.66178C15.1434 6.96693 15.231 6.22252 15.1458 5.48785C15.0898 5.01569 14.9257 4.56279 14.6663 4.16432C14.516 3.94695 14.3344 3.75303 14.1273 3.58887C14.1593 3.63139 14.1947 3.67039 14.2267 3.71675C14.4861 4.11522 14.6502 4.56812 14.7063 5.04028C14.7184 5.77606 14.6335 6.51023 14.4537 7.2238C14.5014 7.91378 14.495 8.60644 14.4345 9.29542C14.3671 9.91909 14.0964 10.5033 13.664 10.9578C13.2297 11.4545 12.6872 11.8449 12.0784 12.0991C11.7455 12.1972 11.3914 12.1972 11.0585 12.0991C10.5935 11.9176 10.1701 11.6436 9.81396 11.2938C9.84593 11.3316 9.8779 11.3699 9.91243 11.406C10.3468 11.9027 10.8893 12.2931 11.4981 12.5474C11.831 12.6454 12.1851 12.6454 12.5179 12.5474C13.1268 12.2931 13.6693 11.9027 14.1036 11.406C14.5359 10.9515 14.8067 10.3673 14.8741 9.74363C14.9345 9.05465 14.941 8.36199 14.8933 7.67201L14.8901 7.66178Z" fill="#FFB8A6"/>
<path d="M18.4538 8.62012C17.9839 8.14058 17.1827 7.1767 17.1466 6.15016C17.1347 5.71214 17.2953 5.28695 17.5938 4.96615C17.8923 4.64536 18.3048 4.45462 18.7425 4.435C18.9623 4.42871 19.1812 4.46658 19.3861 4.54634C19.591 4.62611 19.7778 4.74616 19.9355 4.89939C20.0932 5.05263 20.2186 5.23594 20.3042 5.43847C20.3899 5.64101 20.434 5.85866 20.434 6.07855C20.434 7.13354 19.6028 8.13419 19.1233 8.62364C19.0795 8.66805 19.0272 8.70325 18.9696 8.72717C18.912 8.75109 18.8502 8.76325 18.7878 8.76292C18.7254 8.76259 18.6638 8.74979 18.6064 8.72527C18.5491 8.70074 18.4972 8.66499 18.4538 8.62012Z" fill="#FF4A4A"/>
<path d="M19.4088 4.55591C19.5717 4.70901 19.7015 4.89386 19.7903 5.09905C19.879 5.30425 19.9248 5.52545 19.9248 5.74901C19.9248 6.804 19.0936 7.80465 18.614 8.2941C18.5705 8.33859 18.5184 8.3738 18.4608 8.39759C18.4033 8.42138 18.3415 8.43327 18.2793 8.43253C18.3413 8.50062 18.4011 8.56456 18.4558 8.62019C18.4991 8.66482 18.5509 8.70036 18.6081 8.72474C18.6653 8.74912 18.7268 8.76184 18.789 8.76217C18.8511 8.7625 18.9128 8.75042 18.9702 8.72664C19.0277 8.70287 19.0798 8.66787 19.1236 8.6237C19.6032 8.13425 20.4344 7.13425 20.4344 6.07861C20.4342 5.75159 20.3366 5.43203 20.1539 5.16079C19.9712 4.88955 19.7118 4.67895 19.4088 4.55591Z" fill="#E7343F"/>
<path d="M18.7901 6.8194C19.1935 6.8194 19.5206 6.49235 19.5206 6.0889C19.5206 5.68546 19.1935 5.3584 18.7901 5.3584C18.3866 5.3584 18.0596 5.68546 18.0596 6.0889C18.0596 6.49235 18.3866 6.8194 18.7901 6.8194Z" fill="#121212"/>
<path d="M9.12272 7.67098L9.49228 6.94368C9.37751 5.46541 9.89766 5.20294 10.4459 4.95262C10.9942 4.7023 12.0076 5.17928 12.0076 5.17928C12.0076 5.17928 13.0211 4.7023 13.5694 4.95262C14.1176 5.20294 14.6381 5.46413 14.523 6.94368L14.8884 7.66267C15.1418 6.96783 15.2293 6.22342 15.1442 5.48875C15.0883 5.01654 14.9242 4.5636 14.6646 4.16521C14.1141 3.37652 13.429 3.04852 12.0677 3.00408C8.9667 2.90178 9.05142 4.88005 9.05142 4.88005C8.36824 5.34584 8.69337 6.62494 9.12303 7.68026L9.12272 7.67098Z" fill="#83718C"/>
<path d="M4.40161 20.3603V15.7346L7.84472 17.0134L12.0084 15.7346L16.1721 17.0134L19.6152 15.7346V20.3603C19.6152 20.5299 19.5479 20.6925 19.428 20.8124C19.3081 20.9323 19.1454 20.9997 18.9759 20.9997H5.041C4.87142 20.9997 4.70879 20.9323 4.58888 20.8124C4.46898 20.6925 4.40161 20.5299 4.40161 20.3603Z" fill="#BBEC6A"/>
<path d="M18.448 20.9997H18.9755C19.1451 20.9997 19.3077 20.9323 19.4276 20.8124C19.5475 20.6925 19.6149 20.5299 19.6149 20.3603V15.7346L18.448 16.1681V20.9997Z" fill="#66B373"/>
<path d="M11.9944 20.9997H16.1734V17.0128L16.1718 17.0134L12.0084 15.7346L11.9944 15.7391V20.9997ZM7.82682 17.007L4.40161 15.7346V20.3603C4.40161 20.5299 4.46898 20.6925 4.58888 20.8124C4.70879 20.9323 4.87142 20.9997 5.041 20.9997H7.82682V17.007Z" fill="#4CE166"/>
<path d="M17.4656 10.2734H18.5139V14.2962H17.4656V10.2734ZM5.49561 10.2734H6.54388V14.2962H5.49561V10.2734Z" fill="#FFE7CC"/>
<path d="M20.5058 19.9042H19.5867C19.2847 19.9042 18.995 19.7842 18.7815 19.5707C18.5679 19.3571 18.4479 19.0675 18.4479 18.7655C18.4479 18.4634 18.5679 18.1738 18.7815 17.9602C18.995 17.7467 19.2847 17.6267 19.5867 17.6267H20.5058C20.7149 18.3716 20.7149 19.1593 20.5058 19.9042ZM3.49422 19.9042H4.41334C4.71536 19.9042 5.005 19.7842 5.21856 19.5707C5.43212 19.3571 5.55209 19.0675 5.55209 18.7655C5.55209 18.4634 5.43212 18.1738 5.21856 17.9602C5.005 17.7467 4.71536 17.6267 4.41334 17.6267H3.49422C3.28513 18.3716 3.28513 19.1593 3.49422 19.9042Z" fill="#FFCEBF"/>
<path d="M20.5058 17.6267H20.1072C20.1336 17.8473 20.1427 18.0697 20.1343 18.2917C20.1231 18.554 20.0109 18.8018 19.8211 18.9833C19.6313 19.1647 19.3787 19.2657 19.1161 19.2651H19.0627C18.868 19.2639 18.6769 19.2123 18.5081 19.1152C18.5812 19.3439 18.725 19.5435 18.9188 19.6853C19.1125 19.8272 19.3463 19.9039 19.5864 19.9045H20.5055C20.7147 19.1597 20.7148 18.3716 20.5058 17.6267ZM3.49423 17.6267H3.89289C3.86649 17.8473 3.85741 18.0697 3.86572 18.2917C3.87694 18.554 3.98919 18.8018 4.17898 18.9833C4.36877 19.1647 4.62138 19.2657 4.88394 19.2651H4.93733C5.13207 19.2639 5.32318 19.2123 5.492 19.1152C5.41884 19.3439 5.27504 19.5435 5.08129 19.6853C4.88753 19.8272 4.65379 19.9039 4.41367 19.9045H3.49423C3.28513 19.1597 3.28513 18.3716 3.49423 17.6267Z" fill="#FFB8A6"/>
<path d="M9.12285 7.67141V7.681C9.11965 7.6778 9.11965 7.67141 9.11646 7.66821C9.11965 7.66821 9.11965 7.67141 9.12285 7.67141Z" fill="#FFBAA8"/>
<path d="M9.12285 7.67141V7.681C9.11965 7.6778 9.11965 7.67141 9.11646 7.66821C9.11965 7.66821 9.11965 7.67141 9.12285 7.67141Z" fill="#FFBAA8"/>
<path d="M18.2562 13.7654H17.4669V14.2961H18.5152V13.7104C18.4337 13.7468 18.3454 13.7655 18.2562 13.7654ZM5.49561 13.7654H6.54388V14.2961H5.49561V13.7654Z" fill="#FFD9AD"/>
<path d="M5.68652 11.2237V12.3836C5.68652 12.4684 5.72021 12.5497 5.78016 12.6097C5.84011 12.6696 5.92143 12.7033 6.00622 12.7033C6.09101 12.7033 6.17232 12.6696 6.23228 12.6097C6.29223 12.5497 6.32591 12.4684 6.32591 12.3836V11.2237C6.32591 11.139 6.29223 11.0576 6.23228 10.9977C6.17232 10.9377 6.09101 10.9041 6.00622 10.9041C5.92143 10.9041 5.84011 10.9377 5.78016 10.9977C5.72021 11.0576 5.68652 11.139 5.68652 11.2237Z" fill="#FFFDFA"/>
<path d="M6.01996 13.6652C6.20412 13.6652 6.35341 13.5159 6.35341 13.3317C6.35341 13.1476 6.20412 12.9983 6.01996 12.9983C5.83581 12.9983 5.68652 13.1476 5.68652 13.3317C5.68652 13.5159 5.83581 13.6652 6.01996 13.6652Z" fill="#FFFDFA"/>
</svg>
