<svg width="24" height="24" viewBox="0 0 24 24" fill="none" xmlns="http://www.w3.org/2000/svg">
<g clip-path="url(#clip0_3359_1857)">
<path d="M0.75 10.8745V17.668L7.5 21.3749H19.875L23.25 17.2499V10.8745H0.75Z" fill="#6AC2E6"/>
<path d="M23.25 10.875H2.25V12.2963C2.25004 13.9229 2.68709 15.5196 3.51546 16.9196C4.34383 18.3195 5.53308 19.4711 6.95887 20.2541C8.29798 20.9895 9.80102 21.375 11.3287 21.375H19.875L23.25 17.25V10.875Z" fill="#8CDDF6"/>
<path d="M8.25 14.0314V7.875C8.25 6.88044 8.64509 5.92661 9.34835 5.22335C10.0516 4.52009 11.0054 4.125 12 4.125C12.9946 4.125 13.9484 4.52009 14.6517 5.22335C15.3549 5.92661 15.75 6.88044 15.75 7.875V14.0317" fill="#383838"/>
<path d="M12.375 4.1438C11.45 4.23676 10.5925 4.66999 9.96891 5.35944C9.34529 6.04889 8.99999 6.9454 9 7.87505V14.0314H15.75V7.87505C15.75 6.9454 15.4047 6.04889 14.7811 5.35944C14.1575 4.66999 13.3 4.23676 12.375 4.1438Z" fill="#4C4C4C"/>
<path d="M16.125 15V15.8138C14.7608 16.0304 13.3812 16.1345 12 16.125C10.6188 16.1345 9.23915 16.0304 7.875 15.8138V15C7.87529 14.6787 7.98278 14.3666 8.18044 14.1133C8.3781 13.8599 8.65463 13.6797 8.96625 13.6013L10.875 13.125V12.1238H13.125V13.125L15.0338 13.6013C15.3454 13.6796 15.622 13.8598 15.8197 14.1131C16.0174 14.3665 16.1248 14.6787 16.125 15Z" fill="#CE8C7A"/>
<path d="M15.8212 14.1149C15.6231 13.8609 15.346 13.6801 15.0338 13.6011L13.125 13.1249V12.4941C12.7739 12.6627 12.3895 12.7503 12 12.7503C11.6105 12.7503 11.2261 12.6627 10.875 12.4941V13.1249L8.96625 13.6011C8.65463 13.6796 8.3781 13.8598 8.18044 14.1131C7.98278 14.3665 7.87529 14.6785 7.875 14.9999V15.8136C9.23915 16.0302 10.6188 16.1343 12 16.1249C13.3812 16.1343 14.7608 16.0302 16.125 15.8136V14.9999C16.1248 14.6794 16.0179 14.368 15.8212 14.1149Z" fill="#F0B8A2"/>
<path d="M9.375 9L9.81375 8.85413C10.3642 8.67009 10.8563 8.3439 11.2403 7.90856C11.6242 7.47322 11.8863 6.94418 12 6.375C12.1139 6.94466 12.3764 7.47409 12.7608 7.9096C13.1453 8.34511 13.6381 8.67122 14.1893 8.85488L14.625 9V9.75C14.625 10.0947 14.5571 10.4361 14.4252 10.7545C14.2933 11.073 14.0999 11.3624 13.8562 11.6062C13.6124 11.8499 13.323 12.0433 13.0045 12.1752C12.6861 12.3071 12.3447 12.375 12 12.375C11.3038 12.375 10.6361 12.0984 10.1438 11.6062C9.65156 11.1139 9.375 10.4462 9.375 9.75V9Z" fill="#CE8C7A"/>
<path d="M12.1875 6.9751C12.0095 7.41405 11.7387 7.80935 11.3937 8.13394C11.0488 8.45853 10.6377 8.70475 10.1888 8.85572L9.75 9.0001V9.7501C9.75067 10.4134 10.0024 11.0518 10.4546 11.537C10.9068 12.0223 11.5259 12.3183 12.1875 12.3657C12.8491 12.3183 13.4682 12.0223 13.9204 11.537C14.3726 11.0518 14.6243 10.4134 14.625 9.7501V9.0001L14.1893 8.85497C13.7399 8.70427 13.3284 8.45828 12.9829 8.13382C12.6374 7.80937 12.3661 7.41411 12.1875 6.9751Z" fill="#F0B8A2"/>
<path d="M8.00175 22.3328L7.71263 22.4291C6.82668 22.7245 5.89889 22.8751 4.965 22.875C4.39261 22.8752 3.83467 22.6953 3.37025 22.3607C2.90584 22.0262 2.55851 21.5539 2.3775 21.0109C2.29272 20.7552 2.24967 20.4875 2.25 20.2181C2.25003 19.7704 2.36599 19.3303 2.5866 18.9406C2.80721 18.551 3.12495 18.2251 3.50888 17.9948C3.9119 17.7529 4.37309 17.6251 4.84313 17.625C6.27002 17.6249 7.64453 18.1626 8.6925 19.131L8.00175 22.3328Z" fill="#8F6659"/>
<path d="M16.125 21.8741L16.4134 22.0661C17.2039 22.5934 18.1328 22.8748 19.083 22.875C19.5641 22.8751 20.0391 22.7668 20.4727 22.5584C20.9064 22.35 21.2875 22.0466 21.588 21.6709C21.9357 21.2366 22.1251 20.6968 22.125 20.1405C22.1253 19.6262 21.9636 19.1248 21.6629 18.7075C21.3623 18.2902 20.9379 17.9781 20.4499 17.8155C20.069 17.689 19.6703 17.6247 19.269 17.625C18.5364 17.625 17.8159 17.8113 17.1752 18.1665C16.5344 18.5217 15.9946 19.034 15.6064 19.6553L15.2336 20.25L16.125 21.8741Z" fill="#77534A"/>
<path d="M7.88625 22.2577C7.65211 22.1015 7.46013 21.8899 7.32734 21.6418C7.19455 21.3936 7.12505 21.1165 7.125 20.835C7.1251 20.3815 7.30529 19.9466 7.62596 19.626C7.94662 19.3053 8.38151 19.1251 8.835 19.125H12.3566C13.0541 19.1252 13.7408 19.2975 14.3557 19.6268C14.9706 19.956 15.4948 20.432 15.8816 21.0124C16.0399 21.2486 16.1246 21.5264 16.125 21.8107C16.125 22.1925 15.9734 22.5585 15.7035 22.8285C15.4335 23.0984 15.0675 23.25 14.6857 23.25H11.1634C9.99701 23.2499 8.85676 22.9047 7.88625 22.2577ZM18.9611 17.6359L19.0211 17.4263C19.1653 16.9213 19.4458 16.4659 19.8318 16.1099C20.2178 15.7539 20.6944 15.511 21.2092 15.408C21.3194 15.3862 21.4314 15.3751 21.5438 15.375C21.9963 15.375 22.4303 15.5548 22.7503 15.8747C23.0702 16.1947 23.25 16.6287 23.25 17.0812V17.145C23.2501 17.6414 23.1481 18.1325 22.9502 18.5878C22.7523 19.0431 22.4629 19.4528 22.0999 19.7914L18.9611 17.6359ZM4.245 17.6951L3.72263 16.3016C3.62037 16.0292 3.43739 15.7945 3.19816 15.629C2.95892 15.4634 2.67483 15.3748 2.38387 15.375C2.11829 15.375 1.85794 15.4489 1.63201 15.5885C1.40608 15.7282 1.22351 15.9279 1.10475 16.1655C0.871466 16.632 0.75001 17.1465 0.75 17.6681C0.749946 18.1059 0.871837 18.535 1.10201 18.9074C1.33218 19.2798 1.66153 19.5807 2.05312 19.7764L2.27138 19.8859L4.245 17.6951ZM19.35 9.4245L17.8459 9.92625C17.6724 9.98415 17.5215 10.0952 17.4145 10.2436C17.3076 10.3919 17.25 10.5702 17.25 10.7531C17.25 10.8676 17.2726 10.981 17.3164 11.0868C17.3602 11.1926 17.4244 11.2887 17.5054 11.3696C17.5863 11.4506 17.6824 11.5148 17.7882 11.5586C17.894 11.6024 18.0074 11.625 18.1219 11.625H19.3429C19.6829 11.625 20.009 11.4899 20.2495 11.2495C20.4899 11.009 20.625 10.6829 20.625 10.3429C20.6249 10.0862 20.5229 9.84008 20.3414 9.65859C20.1599 9.4771 19.9138 9.3751 19.6571 9.375C19.5528 9.37496 19.4491 9.39167 19.35 9.4245Z" fill="#77534A"/>
<path d="M3.6705 11.625H5.10862C5.44449 11.625 5.7666 11.4916 6.00409 11.2541C6.24158 11.0166 6.375 10.6945 6.375 10.3586C6.37502 10.1687 6.33233 9.98124 6.25008 9.81007C6.16784 9.63889 6.04815 9.48841 5.89987 9.36975L5.03212 8.676C4.68772 8.40009 4.25955 8.24982 3.81825 8.25C3.30287 8.25 2.8086 8.45473 2.44416 8.81916C2.07973 9.18359 1.875 9.67787 1.875 10.1932C1.87489 10.3935 1.93413 10.5892 2.04525 10.7557C2.22362 11.0233 2.46531 11.2426 2.74884 11.3942C3.03237 11.5459 3.34896 11.6252 3.6705 11.625Z" fill="#8F6659"/>
<path d="M12.2864 14.2576L13.786 13.8818L13.9679 14.6093L12.4687 14.9843L12.2864 14.2576ZM10.0349 14.6165L10.2172 13.8893L11.7164 14.2651L11.5342 14.9926L10.0349 14.6165Z" fill="#CE8C7A"/>
<path d="M7.39013 5.14011L6.85988 4.60986L7.18951 4.28024C7.28829 4.18197 7.3666 4.06509 7.4199 3.93635C7.4732 3.80761 7.50043 3.66957 7.50001 3.53024C7.50025 3.41129 7.47691 3.29347 7.43134 3.1836C7.38577 3.07372 7.31887 2.97397 7.23451 2.89011C7.08042 2.73672 6.95826 2.55431 6.8751 2.35343C6.79194 2.15254 6.74942 1.93716 6.75001 1.71974C6.74942 1.48189 6.79598 1.24629 6.887 1.02654C6.97801 0.806798 7.11167 0.607269 7.28026 0.439488L7.60988 0.109863L8.14013 0.640113L7.81051 0.969738C7.71172 1.068 7.63341 1.18489 7.58011 1.31363C7.52681 1.44237 7.49959 1.5804 7.50001 1.71974C7.49976 1.83869 7.5231 1.95651 7.56867 2.06638C7.61425 2.17625 7.68115 2.276 7.76551 2.35986C7.9196 2.51325 8.04175 2.69566 8.12492 2.89655C8.20808 3.09744 8.25059 3.31282 8.25001 3.53024C8.25059 3.76808 8.20403 4.00369 8.11302 4.22343C8.022 4.44318 7.88834 4.64271 7.71976 4.81049L7.39013 5.14011ZM3.64013 7.39011L3.10988 6.85986L3.43951 6.53024C3.53829 6.43197 3.6166 6.31509 3.6699 6.18635C3.7232 6.05761 3.75043 5.91957 3.75001 5.78024C3.75025 5.66129 3.72691 5.54347 3.68134 5.4336C3.63577 5.32372 3.56887 5.22397 3.48451 5.14011C3.33042 4.98672 3.20826 4.80431 3.1251 4.60343C3.04194 4.40254 2.99942 4.18716 3.00001 3.96974C2.99942 3.73189 3.04598 3.49629 3.137 3.27654C3.22801 3.0568 3.36167 2.85727 3.53026 2.68949L3.85988 2.35986L4.39013 2.89011L4.06051 3.21974C3.96172 3.318 3.88341 3.43489 3.83011 3.56363C3.77681 3.69237 3.74959 3.8304 3.75001 3.96974C3.74976 4.08869 3.7731 4.20651 3.81867 4.31638C3.86425 4.42625 3.93115 4.526 4.01551 4.60986C4.1696 4.76325 4.29175 4.94566 4.37492 5.14655C4.45808 5.34744 4.50059 5.56282 4.50001 5.78024C4.50059 6.01808 4.45403 6.25369 4.36302 6.47343C4.272 6.69318 4.13834 6.89271 3.96976 7.06049L3.64013 7.39011ZM19.9849 7.39011L19.6553 7.06049C19.4867 6.89271 19.353 6.69318 19.262 6.47343C19.171 6.25369 19.1244 6.01808 19.125 5.78024C19.1244 5.56282 19.1669 5.34744 19.2501 5.14655C19.3333 4.94566 19.4554 4.76325 19.6095 4.60986C19.6939 4.526 19.7608 4.42625 19.8063 4.31638C19.8519 4.20651 19.8752 4.08869 19.875 3.96974C19.8754 3.8304 19.8482 3.69237 19.7949 3.56363C19.7416 3.43489 19.6633 3.318 19.5645 3.21974L19.2349 2.89011L19.7651 2.35986L20.0948 2.68949C20.2633 2.85727 20.397 3.0568 20.488 3.27654C20.579 3.49629 20.6256 3.73189 20.625 3.96974C20.6256 4.18716 20.5831 4.40254 20.4999 4.60343C20.4168 4.80431 20.2946 4.98672 20.1405 5.14011C20.0561 5.22397 19.9892 5.32372 19.9437 5.4336C19.8981 5.54347 19.8748 5.66129 19.875 5.78024C19.8746 5.91957 19.9018 6.05761 19.9551 6.18635C20.0084 6.31509 20.0867 6.43197 20.1855 6.53024L20.5151 6.85986L19.9849 7.39011ZM21.8599 9.64011L21.5303 9.31049C21.3617 9.14271 21.228 8.94318 21.137 8.72343C21.046 8.50369 20.9994 8.26808 21 8.03024C20.9994 7.81282 21.0419 7.59744 21.1251 7.39655C21.2083 7.19566 21.3304 7.01325 21.4845 6.85986C21.5689 6.776 21.6358 6.67625 21.6813 6.56638C21.7269 6.45651 21.7502 6.33869 21.75 6.21974C21.7504 6.0804 21.7232 5.94237 21.6699 5.81363C21.6166 5.68489 21.5383 5.568 21.4395 5.46974L21.1099 5.14011L21.6401 4.60986L21.9698 4.93949C22.1383 5.10727 22.272 5.3068 22.363 5.52654C22.454 5.74629 22.5006 5.98189 22.5 6.21974C22.5006 6.43716 22.4581 6.65254 22.3749 6.85343C22.2918 7.05431 22.1696 7.23673 22.0155 7.39011C21.9311 7.47397 21.8642 7.57372 21.8187 7.6836C21.7731 7.79347 21.7498 7.91129 21.75 8.03024C21.7496 8.16957 21.7768 8.30761 21.8301 8.43635C21.8834 8.56509 21.9617 8.68197 22.0605 8.78024L22.3901 9.10986L21.8599 9.64011Z" fill="#A5BAD9"/>
<path d="M12.3567 19.125H8.83506C8.56711 19.1268 8.3034 19.1921 8.06556 19.3155C7.87259 19.6868 7.82413 20.1164 7.92955 20.5213C8.03497 20.9263 8.28679 21.2777 8.63631 21.5078C9.60683 22.1547 10.7471 22.4999 11.9134 22.5H15.4358C15.6321 22.4999 15.8262 22.4594 16.0062 22.3811C16.1019 22.1609 16.1408 21.9202 16.1193 21.6811C16.0978 21.4419 16.0166 21.212 15.8832 21.0124C15.4962 20.4318 14.9718 19.9557 14.3566 19.6264C13.7414 19.2972 13.0545 19.1249 12.3567 19.125ZM20.4499 17.8166C20.0691 17.6898 19.6704 17.6251 19.2691 17.625C18.5365 17.625 17.8159 17.8113 17.1752 18.1665C16.5345 18.5217 15.9946 19.034 15.6064 19.6553L15.4354 19.9282C15.7246 20.1872 15.9799 20.4817 16.1952 20.8046C16.3943 21.1024 16.5004 21.4526 16.5001 21.8107C16.4982 21.9085 16.4881 22.006 16.4701 22.1021C17.2485 22.6059 18.1558 22.8742 19.0831 22.875C19.5642 22.8751 20.0392 22.7668 20.4728 22.5584C20.9064 22.35 21.2876 22.0466 21.5881 21.6709C21.8346 21.3627 22.0031 20.9996 22.0791 20.6124C22.1551 20.2251 22.1365 19.8253 22.0247 19.4468C21.9129 19.0683 21.7114 18.7224 21.4372 18.4386C21.163 18.1548 20.8243 17.9414 20.4499 17.8166Z" fill="#8F6659"/>
<path d="M23.25 17.0809C23.25 16.6284 23.0703 16.1946 22.7504 15.8746C22.4305 15.5547 21.9966 15.375 21.5441 15.375C21.4317 15.3751 21.3195 15.3861 21.2093 15.408C20.7943 15.4919 20.4031 15.6671 20.0642 15.9208C19.7252 16.1745 19.4469 16.5005 19.2495 16.875H19.269C19.7509 16.8749 20.2297 16.9525 20.6869 17.1049C21.1483 17.2591 21.5685 17.5167 21.9152 17.858C22.2619 18.1994 22.5261 18.6154 22.6875 19.0744C23.054 18.4975 23.249 17.8284 23.25 17.145V17.0809Z" fill="#8F6659"/>
<path d="M6.75 20.835C6.75085 20.3723 6.90547 19.9229 7.18956 19.5576C7.47365 19.1924 7.87108 18.9319 8.31938 18.8171C7.32503 18.045 6.10206 17.6256 4.84312 17.625C4.50258 17.625 4.16536 17.692 3.85072 17.8223C3.53609 17.9526 3.2502 18.1436 3.0094 18.3844C2.7686 18.6252 2.57759 18.9111 2.44729 19.2257C2.31699 19.5404 2.24995 19.8776 2.25 20.2181C2.25003 20.4876 2.29346 20.7552 2.37863 21.0109C2.55957 21.5537 2.90673 22.0258 3.37092 22.3604C3.83511 22.695 4.3928 22.875 4.965 22.875C5.84278 22.8733 6.71521 22.7384 7.5525 22.4749C7.30265 22.2807 7.10046 22.0321 6.96138 21.7479C6.8223 21.4636 6.75 21.1514 6.75 20.835Z" fill="#A17767"/>
<path d="M3.123 17.3517C3.39067 17.1919 3.67933 17.0702 3.98062 16.9902L3.72263 16.3017C3.62466 16.0412 3.45286 15.8151 3.22828 15.6508C3.0037 15.4866 2.73609 15.3914 2.45823 15.3769C2.18037 15.3625 1.90433 15.4294 1.66393 15.5695C1.42353 15.7095 1.2292 15.9167 1.10475 16.1655C0.871466 16.6321 0.75001 17.1465 0.75 17.6682C0.750514 18.0114 0.826142 18.3505 0.971576 18.6614C1.11701 18.9724 1.32873 19.2477 1.59187 19.4682C1.69276 19.031 1.88022 18.6185 2.1432 18.2549C2.40618 17.8914 2.73934 17.5843 3.123 17.3517Z" fill="#8F6659"/>
<path d="M12 16.4999C9.35362 16.4999 4.875 16.105 4.875 14.6249H5.625V14.6182C5.73525 15.013 8.025 15.7499 12 15.7499C15.975 15.7499 18.2647 15.013 18.375 14.6182L19.125 14.6249C19.125 16.105 14.6464 16.4999 12 16.4999Z" fill="#6AC2E6"/>
<path d="M19.7178 11.2499C19.966 11.2498 20.2087 11.1772 20.4161 11.041C20.5523 10.8336 20.6249 10.5909 20.625 10.3428C20.625 10.1893 20.5885 10.038 20.5185 9.90142C20.4486 9.76482 20.3471 9.6468 20.2226 9.5571C20.0981 9.46741 19.954 9.40859 19.8023 9.38552C19.6506 9.36244 19.4955 9.37577 19.35 9.42439L17.8458 9.92614C17.8033 9.94053 17.762 9.95808 17.7221 9.97864C17.6535 10.1115 17.6203 10.2598 17.6255 10.4092C17.6308 10.5587 17.6745 10.7042 17.7523 10.8319C17.8301 10.9596 17.9395 11.0651 18.0699 11.1383C18.2003 11.2115 18.3473 11.2499 18.4968 11.2499H19.7178Z" fill="#8F6659"/>
<path d="M5.03212 8.67602C4.69559 8.40489 4.27762 8.25488 3.84549 8.25012C3.41335 8.24536 2.99218 8.38613 2.64975 8.64977C2.39173 8.98477 2.25124 9.39543 2.25 9.81827C2.24989 10.0185 2.30913 10.2142 2.42025 10.3808C2.59862 10.6483 2.84031 10.8676 3.12384 11.0193C3.40737 11.1709 3.72396 11.2502 4.0455 11.25H5.48362C5.72753 11.2499 5.96611 11.1787 6.17025 11.0453C6.34166 10.7824 6.40894 10.4651 6.35895 10.1553C6.30895 9.84544 6.14527 9.56538 5.89987 9.36977L5.03212 8.67602Z" fill="#A17767"/>
</g>
<defs>
<clipPath id="clip0_3359_1857">
<rect width="24" height="24" fill="white"/>
</clipPath>
</defs>
</svg>
