<svg id="svg" version="1.1" xmlns="http://www.w3.org/2000/svg" xmlns:xlink="http://www.w3.org/1999/xlink" width="400" height="400" viewBox="0, 0, 400,400"><g id="svgg"><path id="path0" d="M148.555 169.573 C 136.758 171.453,136.145 172.816,137.099 195.000 C 137.373 201.380,137.778 212.090,137.998 218.800 C 138.219 225.510,138.593 236.310,138.830 242.800 C 139.067 249.290,139.382 261.500,139.531 269.933 C 139.762 283.052,139.890 285.333,140.417 285.733 C 140.755 285.990,141.559 286.920,142.202 287.800 C 142.845 288.680,144.008 290.145,144.786 291.055 C 145.564 291.966,146.498 293.146,146.861 293.679 C 148.755 296.453,156.547 295.938,157.793 292.956 C 158.093 292.236,158.820 291.232,159.408 290.724 C 159.995 290.216,160.717 289.338,161.011 288.772 C 161.305 288.207,162.320 286.993,163.267 286.075 L 164.987 284.404 165.266 260.502 C 165.578 233.815,166.148 210.496,166.894 194.000 C 167.610 178.151,167.359 176.185,164.215 173.041 C 161.469 170.296,154.168 168.679,148.555 169.573 M198.751 169.575 C 195.896 170.132,190.464 172.875,190.036 173.975 C 188.671 177.484,188.481 180.189,189.137 186.800 C 189.388 189.330,189.776 197.250,190.000 204.400 C 190.224 211.550,190.586 222.530,190.804 228.800 C 191.645 252.927,191.990 266.549,191.995 275.716 C 192.001 286.213,192.219 287.290,194.784 289.448 C 195.394 289.961,196.280 291.279,196.752 292.377 C 198.378 296.156,208.400 296.943,208.400 293.291 C 208.400 293.100,208.954 292.327,209.632 291.572 C 210.309 290.817,211.097 289.647,211.382 288.970 C 211.667 288.294,212.595 287.168,213.444 286.468 L 214.987 285.196 215.266 261.147 C 215.420 247.920,215.871 225.556,216.269 211.449 C 217.251 176.626,217.285 178.759,215.703 175.547 C 213.171 170.406,206.512 168.060,198.751 169.575 M248.400 169.809 C 239.642 171.967,237.460 175.242,238.408 184.806 C 238.780 188.559,239.636 205.824,240.391 224.800 C 240.606 230.190,240.978 238.830,241.218 244.000 C 241.459 249.170,241.791 260.510,241.956 269.200 C 242.287 286.630,242.189 285.992,244.998 288.970 C 245.812 289.834,246.911 291.225,247.439 292.062 C 250.061 296.216,260.107 296.464,261.001 292.397 C 261.153 291.701,262.072 290.304,263.042 289.292 C 266.244 285.949,266.130 286.378,266.467 276.400 C 267.403 248.639,267.650 241.859,267.994 234.600 C 268.202 230.200,268.650 219.310,268.989 210.400 C 269.328 201.490,269.799 191.134,270.036 187.386 C 270.508 179.926,270.106 177.486,267.830 173.995 C 265.292 170.101,255.646 168.023,248.400 169.809 " stroke="none" fill="#2f2a21" fill-rule="evenodd"></path><path id="path1" d="M156.400 0.948 L 156.400 1.895 148.900 2.097 C 140.091 2.333,140.164 2.313,139.817 4.627 L 139.551 6.400 134.175 6.400 C 128.155 6.400,127.200 6.783,127.200 9.200 L 127.200 10.400 123.633 10.400 C 118.999 10.400,118.800 10.490,118.800 12.585 L 118.800 14.284 116.100 14.539 C 114.615 14.680,112.108 14.796,110.529 14.797 C 107.202 14.800,106.400 15.312,106.400 17.429 L 106.400 18.800 104.443 18.800 C 102.283 18.800,102.000 19.105,102.000 21.433 L 102.000 22.800 99.250 22.800 C 94.508 22.800,94.134 22.969,93.832 25.241 L 93.572 27.200 90.219 27.200 C 85.796 27.200,85.600 27.295,85.600 29.443 L 85.600 31.200 83.880 31.200 C 81.719 31.200,81.200 31.719,81.200 33.880 L 81.200 35.600 77.974 35.600 C 73.878 35.600,73.200 35.943,73.200 38.014 C 73.200 39.579,73.180 39.600,71.700 39.606 C 69.622 39.615,69.099 40.063,68.831 42.066 L 68.600 43.800 66.700 43.922 L 64.800 44.044 64.800 46.001 L 64.800 47.958 62.700 48.079 L 60.600 48.200 60.479 50.079 L 60.358 51.958 58.479 52.079 L 56.600 52.200 56.480 54.280 L 56.360 56.360 54.280 56.480 L 52.200 56.600 52.079 58.479 L 51.958 60.358 50.079 60.479 L 48.200 60.600 48.079 62.700 L 47.958 64.800 46.001 64.800 L 44.044 64.800 43.922 66.700 L 43.800 68.600 42.066 68.831 C 40.063 69.099,39.615 69.622,39.606 71.700 C 39.600 73.180,39.579 73.200,38.014 73.200 C 35.943 73.200,35.600 73.878,35.600 77.974 L 35.600 81.200 33.880 81.200 C 31.719 81.200,31.200 81.719,31.200 83.880 L 31.200 85.600 29.443 85.600 C 27.297 85.600,27.200 85.799,27.200 90.181 L 27.200 93.497 25.240 93.757 C 22.883 94.070,22.800 94.236,22.800 98.633 L 22.800 102.000 21.433 102.000 C 18.852 102.000,18.800 102.087,18.800 106.421 L 18.800 110.356 16.904 110.478 C 15.585 110.563,14.983 110.783,14.927 111.200 C 14.883 111.530,14.731 113.366,14.589 115.279 L 14.332 118.759 12.466 118.879 L 10.600 119.000 10.486 123.100 L 10.372 127.200 8.866 127.200 C 6.513 127.200,6.400 127.505,6.400 133.880 L 6.400 139.600 4.900 139.606 C 2.177 139.617,2.215 139.499,2.064 148.385 L 1.928 156.400 0.964 156.400 L 0.000 156.400 0.000 200.000 L 0.000 243.600 0.948 243.600 L 1.895 243.600 2.097 251.100 C 2.333 259.909,2.313 259.836,4.627 260.183 L 6.400 260.449 6.400 265.825 C 6.400 271.845,6.783 272.800,9.200 272.800 L 10.400 272.800 10.400 276.367 C 10.400 281.001,10.490 281.200,12.585 281.200 L 14.284 281.200 14.539 283.900 C 14.680 285.385,14.796 287.892,14.797 289.471 C 14.800 292.798,15.312 293.600,17.429 293.600 L 18.800 293.600 18.800 295.557 C 18.800 297.717,19.105 298.000,21.433 298.000 L 22.800 298.000 22.800 300.750 C 22.800 305.492,22.969 305.866,25.241 306.168 L 27.200 306.428 27.200 309.781 C 27.200 314.204,27.295 314.400,29.443 314.400 L 31.200 314.400 31.200 316.120 C 31.200 318.281,31.719 318.800,33.880 318.800 L 35.600 318.800 35.600 322.026 C 35.600 326.122,35.943 326.800,38.014 326.800 C 39.579 326.800,39.600 326.820,39.606 328.300 C 39.615 330.378,40.063 330.901,42.066 331.169 L 43.800 331.400 43.922 333.300 L 44.044 335.200 46.001 335.200 L 47.958 335.200 48.079 337.300 L 48.200 339.400 50.079 339.521 L 51.958 339.642 52.079 341.521 L 52.200 343.400 54.280 343.520 L 56.360 343.640 56.480 345.720 L 56.600 347.800 58.479 347.921 L 60.358 348.042 60.479 349.921 L 60.600 351.800 62.700 351.921 L 64.800 352.042 64.800 353.999 L 64.800 355.956 66.700 356.078 L 68.600 356.200 68.831 357.934 C 69.099 359.937,69.622 360.385,71.700 360.394 C 73.180 360.400,73.200 360.421,73.200 361.986 C 73.200 364.057,73.878 364.400,77.974 364.400 L 81.200 364.400 81.200 366.120 C 81.200 368.281,81.719 368.800,83.880 368.800 L 85.600 368.800 85.600 370.557 C 85.600 372.703,85.799 372.800,90.181 372.800 L 93.497 372.800 93.757 374.760 C 94.070 377.117,94.236 377.200,98.633 377.200 L 102.000 377.200 102.000 378.567 C 102.000 381.148,102.087 381.200,106.421 381.200 L 110.356 381.200 110.478 383.096 C 110.563 384.415,110.783 385.017,111.200 385.073 C 111.530 385.117,113.366 385.269,115.279 385.411 L 118.759 385.668 118.879 387.534 L 119.000 389.400 123.100 389.514 L 127.200 389.628 127.200 391.134 C 127.200 393.487,127.505 393.600,133.880 393.600 L 139.600 393.600 139.606 395.100 C 139.617 397.823,139.499 397.785,148.385 397.936 L 156.400 398.072 156.400 399.036 L 156.400 400.000 200.000 400.000 L 243.600 400.000 243.600 399.052 L 243.600 398.105 251.100 397.903 C 259.909 397.667,259.836 397.687,260.183 395.373 L 260.449 393.600 265.825 393.600 C 271.845 393.600,272.800 393.217,272.800 390.800 L 272.800 389.600 276.367 389.600 C 281.001 389.600,281.200 389.510,281.200 387.415 L 281.200 385.716 283.900 385.461 C 285.385 385.320,287.892 385.204,289.471 385.203 C 292.798 385.200,293.600 384.688,293.600 382.571 L 293.600 381.200 295.557 381.200 C 297.717 381.200,298.000 380.895,298.000 378.567 L 298.000 377.200 300.750 377.200 C 305.492 377.200,305.866 377.031,306.168 374.759 L 306.428 372.800 309.781 372.800 C 314.204 372.800,314.400 372.705,314.400 370.557 L 314.400 368.800 316.120 368.800 C 318.281 368.800,318.800 368.281,318.800 366.120 L 318.800 364.400 322.026 364.400 C 326.122 364.400,326.800 364.057,326.800 361.986 C 326.800 360.421,326.820 360.400,328.300 360.394 C 330.378 360.385,330.901 359.937,331.169 357.934 L 331.400 356.200 333.300 356.078 L 335.200 355.956 335.200 353.999 L 335.200 352.042 337.300 351.921 L 339.400 351.800 339.521 349.921 L 339.642 348.042 341.521 347.921 L 343.400 347.800 343.520 345.720 L 343.640 343.640 345.720 343.520 L 347.800 343.400 347.921 341.521 L 348.042 339.642 349.921 339.521 L 351.800 339.400 351.921 337.300 L 352.042 335.200 353.999 335.200 L 355.956 335.200 356.078 333.300 L 356.200 331.400 357.934 331.169 C 359.937 330.901,360.385 330.378,360.394 328.300 C 360.400 326.820,360.421 326.800,361.986 326.800 C 364.057 326.800,364.400 326.122,364.400 322.026 L 364.400 318.800 366.120 318.800 C 368.281 318.800,368.800 318.281,368.800 316.120 L 368.800 314.400 370.557 314.400 C 372.703 314.400,372.800 314.201,372.800 309.819 L 372.800 306.503 374.760 306.243 C 377.117 305.930,377.200 305.764,377.200 301.367 L 377.200 298.000 378.567 298.000 C 381.148 298.000,381.200 297.913,381.200 293.579 L 381.200 289.644 383.096 289.522 C 384.415 289.437,385.017 289.217,385.073 288.800 C 385.117 288.470,385.269 286.634,385.411 284.721 L 385.668 281.241 387.534 281.121 L 389.400 281.000 389.514 276.900 L 389.628 272.800 391.134 272.800 C 393.487 272.800,393.600 272.495,393.600 266.120 L 393.600 260.400 395.100 260.394 C 397.823 260.383,397.785 260.501,397.936 251.615 L 398.072 243.600 399.036 243.600 L 400.000 243.600 400.000 200.000 L 400.000 156.400 399.052 156.400 L 398.105 156.400 397.903 148.900 C 397.667 140.091,397.687 140.164,395.373 139.817 L 393.600 139.551 393.600 134.175 C 393.600 128.155,393.217 127.200,390.800 127.200 L 389.600 127.200 389.600 123.633 C 389.600 118.999,389.510 118.800,387.415 118.800 L 385.716 118.800 385.461 116.100 C 385.320 114.615,385.204 112.108,385.203 110.529 C 385.200 107.202,384.688 106.400,382.571 106.400 L 381.200 106.400 381.200 104.443 C 381.200 102.283,380.895 102.000,378.567 102.000 L 377.200 102.000 377.200 99.250 C 377.200 94.508,377.031 94.134,374.759 93.832 L 372.800 93.572 372.800 90.219 C 372.800 85.796,372.705 85.600,370.557 85.600 L 368.800 85.600 368.800 83.880 C 368.800 81.719,368.281 81.200,366.120 81.200 L 364.400 81.200 364.400 77.974 C 364.400 73.878,364.057 73.200,361.986 73.200 C 360.421 73.200,360.400 73.180,360.394 71.700 C 360.385 69.622,359.937 69.099,357.934 68.831 L 356.200 68.600 356.078 66.700 L 355.956 64.800 353.999 64.800 L 352.042 64.800 351.921 62.700 L 351.800 60.600 349.921 60.479 L 348.042 60.358 347.921 58.479 L 347.800 56.600 345.720 56.480 L 343.640 56.360 343.520 54.280 L 343.400 52.200 341.521 52.079 L 339.642 51.958 339.521 50.079 L 339.400 48.200 337.300 48.079 L 335.200 47.958 335.200 46.001 L 335.200 44.044 333.300 43.922 L 331.400 43.800 331.169 42.066 C 330.901 40.063,330.378 39.615,328.300 39.606 C 326.820 39.600,326.800 39.579,326.800 38.014 C 326.800 35.943,326.122 35.600,322.026 35.600 L 318.800 35.600 318.800 33.880 C 318.800 31.719,318.281 31.200,316.120 31.200 L 314.400 31.200 314.400 29.443 C 314.400 27.297,314.201 27.200,309.819 27.200 L 306.503 27.200 306.243 25.240 C 305.930 22.883,305.764 22.800,301.367 22.800 L 298.000 22.800 298.000 21.433 C 298.000 18.852,297.913 18.800,293.579 18.800 L 289.644 18.800 289.522 16.904 C 289.437 15.585,289.217 14.983,288.800 14.927 C 288.470 14.883,286.634 14.731,284.721 14.589 L 281.241 14.332 281.121 12.466 L 281.000 10.600 276.900 10.486 L 272.800 10.372 272.800 8.866 C 272.800 6.513,272.495 6.400,266.120 6.400 L 260.400 6.400 260.394 4.900 C 260.383 2.177,260.501 2.215,251.615 2.064 L 243.600 1.928 243.600 0.964 L 243.600 0.000 200.000 0.000 L 156.400 0.000 156.400 0.948 M210.008 83.217 C 211.654 83.667,213.900 84.588,215.000 85.265 C 216.100 85.942,218.322 86.928,219.937 87.456 C 221.553 87.984,223.472 88.872,224.201 89.428 C 224.930 89.984,226.906 90.865,228.591 91.385 C 230.276 91.905,232.336 92.781,233.169 93.332 C 234.001 93.883,236.164 94.789,237.974 95.345 C 239.785 95.901,241.869 96.815,242.605 97.377 C 243.341 97.938,245.375 98.859,247.123 99.423 C 248.872 99.987,251.270 101.074,252.451 101.838 C 253.633 102.603,255.534 103.501,256.676 103.835 C 257.817 104.169,259.397 104.881,260.187 105.417 C 262.301 106.851,263.568 107.427,265.800 107.967 C 267.906 108.476,277.957 113.206,279.507 114.418 C 280.006 114.807,281.629 115.495,283.113 115.946 C 284.597 116.397,286.620 117.302,287.609 117.957 C 288.598 118.612,290.755 119.629,292.404 120.218 C 294.052 120.806,295.940 121.685,296.600 122.170 C 297.260 122.655,299.240 123.551,301.000 124.162 C 302.760 124.773,305.100 125.875,306.200 126.611 C 307.300 127.347,309.280 128.303,310.600 128.734 C 312.789 129.449,316.585 131.063,319.893 132.684 C 322.806 134.112,323.170 138.176,320.602 140.600 C 317.382 143.639,315.024 145.227,312.858 145.815 C 307.762 147.199,307.121 147.602,306.315 149.935 L 305.579 152.065 306.831 154.255 C 310.198 160.139,309.342 163.677,303.070 169.802 C 300.456 172.355,299.318 173.748,294.943 179.757 L 293.518 181.715 293.179 190.157 C 291.691 227.258,291.506 238.039,291.969 260.600 C 292.539 288.344,292.260 286.548,296.858 292.061 C 297.711 293.085,298.873 294.975,299.438 296.261 C 300.784 299.321,301.686 300.234,304.157 301.038 C 308.238 302.366,309.420 304.685,309.059 310.655 C 308.779 315.280,308.705 315.184,312.520 315.195 C 317.183 315.208,319.565 318.394,319.590 324.653 L 319.600 327.105 321.377 327.553 C 322.355 327.799,324.083 328.000,325.217 328.000 C 330.176 328.000,332.407 334.763,328.362 337.533 L 327.000 338.466 206.600 338.299 C 95.406 338.144,86.042 338.080,84.140 337.462 C 80.807 336.379,80.307 335.783,80.752 333.422 C 81.262 330.721,82.208 330.202,89.600 328.571 C 93.481 327.714,94.936 327.024,93.693 326.630 C 92.050 326.108,91.077 323.848,91.393 321.282 C 91.742 318.444,92.355 317.743,95.170 316.966 C 100.034 315.623,102.443 314.656,101.811 314.302 C 100.564 313.604,99.866 311.499,99.940 308.654 C 100.033 305.044,100.774 303.998,104.090 302.792 C 107.439 301.574,109.053 300.573,109.854 299.216 C 110.718 297.753,113.258 297.387,116.369 298.277 C 123.214 300.234,130.473 292.134,125.938 287.599 C 123.538 285.200,123.080 285.041,121.248 285.975 C 117.358 287.960,116.714 285.113,117.897 271.142 C 118.552 263.402,118.761 263.033,121.116 265.457 C 122.671 267.058,123.870 266.153,126.193 261.624 C 127.477 259.122,128.368 240.247,127.564 232.600 C 126.641 223.814,123.872 216.506,122.081 218.127 C 121.672 218.497,121.110 218.800,120.833 218.800 C 120.555 218.800,120.007 219.197,119.614 219.682 L 118.900 220.564 118.653 219.382 C 118.252 217.453,117.248 206.319,116.798 198.800 C 116.263 189.866,115.719 184.132,115.256 182.563 C 114.882 181.292,110.559 175.600,109.968 175.600 C 109.787 175.600,109.056 174.745,108.344 173.700 C 107.633 172.655,105.737 170.378,104.132 168.640 C 99.455 163.578,98.951 161.636,100.808 155.839 L 102.015 152.069 101.185 149.962 C 100.173 147.394,99.730 147.034,96.291 145.986 C 93.682 145.191,92.933 144.686,88.150 140.495 C 83.600 136.510,87.200 132.330,98.392 128.603 C 100.256 127.982,102.494 126.957,103.366 126.325 C 104.238 125.694,106.223 124.792,107.776 124.322 C 109.329 123.852,111.453 122.882,112.496 122.167 C 113.539 121.452,115.339 120.558,116.496 120.181 C 117.653 119.803,119.613 118.876,120.851 118.120 C 122.089 117.365,124.239 116.393,125.627 115.961 C 127.016 115.529,128.953 114.644,129.934 113.995 C 130.914 113.345,132.705 112.444,133.914 111.992 C 135.123 111.539,136.852 110.642,137.756 109.997 C 138.719 109.309,140.559 108.559,142.200 108.184 C 143.927 107.790,146.144 106.866,147.987 105.772 C 149.630 104.798,151.250 103.996,151.587 103.991 C 152.524 103.978,155.695 102.449,156.653 101.549 C 157.123 101.109,159.144 100.239,161.144 99.617 C 163.145 98.995,165.337 98.020,166.015 97.449 C 166.693 96.878,168.766 95.948,170.621 95.382 C 172.476 94.816,174.543 93.891,175.215 93.326 C 175.903 92.747,177.693 91.970,179.318 91.545 C 180.949 91.117,183.068 90.196,184.200 89.421 C 185.300 88.669,187.100 87.834,188.200 87.567 C 190.162 87.091,191.765 86.352,194.243 84.781 C 197.750 82.558,204.972 81.842,210.008 83.217 M196.200 121.604 C 194.880 121.762,193.053 121.804,192.140 121.697 C 191.226 121.590,189.081 121.813,187.373 122.193 C 185.664 122.573,182.361 123.025,180.033 123.196 C 175.322 123.543,169.538 124.444,164.400 125.630 C 159.078 126.859,157.954 127.213,155.586 128.408 C 154.368 129.022,152.050 129.926,150.434 130.417 C 146.999 131.460,147.124 131.607,152.400 132.724 C 163.776 135.134,253.351 134.438,262.002 131.873 L 263.800 131.340 261.400 130.643 C 260.080 130.259,258.280 129.626,257.400 129.237 C 253.037 127.305,251.418 126.778,246.800 125.784 C 244.050 125.191,240.900 124.467,239.800 124.174 C 232.261 122.167,204.962 120.557,196.200 121.604 M176.512 220.228 C 176.257 220.684,175.345 221.374,174.485 221.762 L 172.921 222.467 172.662 228.133 C 172.327 235.453,172.323 260.350,172.657 263.538 C 172.898 265.851,173.014 266.069,174.643 267.297 C 175.595 268.014,176.530 269.050,176.722 269.600 C 178.073 273.481,179.108 241.042,178.017 229.000 C 177.226 220.268,177.053 219.262,176.512 220.228 M280.690 224.643 C 280.531 224.803,280.400 225.470,280.400 226.125 C 280.400 226.986,279.900 227.852,278.600 229.241 C 277.001 230.951,276.797 231.380,276.772 233.083 C 276.757 234.137,276.686 236.800,276.614 239.000 C 276.543 241.200,276.584 247.196,276.705 252.325 L 276.926 261.650 278.912 262.657 C 280.004 263.210,281.040 263.514,281.215 263.331 C 282.196 262.309,283.171 237.030,282.405 232.499 C 281.264 225.759,280.961 224.372,280.690 224.643 M222.657 233.259 C 221.863 240.857,222.543 262.530,223.559 261.996 C 223.912 261.810,224.505 261.565,224.877 261.451 C 227.228 260.729,228.018 253.716,227.554 237.664 C 227.381 231.675,226.955 230.800,224.213 230.800 C 222.916 230.800,222.913 230.805,222.657 233.259 M174.174 285.484 C 173.025 285.630,172.893 285.828,172.058 288.667 C 171.477 290.640,170.773 292.088,170.035 292.826 C 168.667 294.195,169.276 295.756,171.622 296.892 L 172.947 297.534 175.198 295.802 C 177.551 293.991,179.209 290.461,178.335 289.126 C 178.146 288.836,177.791 287.835,177.548 286.900 C 177.079 285.100,177.106 285.111,174.174 285.484 M224.816 286.982 C 223.135 287.433,222.990 287.585,222.302 289.630 C 221.900 290.824,221.072 292.262,220.461 292.827 C 219.094 294.091,219.235 294.598,221.239 295.620 C 224.856 297.465,229.417 292.158,227.764 288.028 C 227.406 287.133,226.998 286.424,226.857 286.452 C 226.715 286.481,225.797 286.719,224.816 286.982 M276.393 288.900 C 275.533 291.632,274.862 292.741,273.695 293.361 L 272.600 293.943 274.087 294.571 C 276.796 295.717,279.277 294.783,279.795 292.422 C 279.936 291.780,280.310 291.041,280.626 290.779 C 281.614 289.959,281.259 288.981,279.646 288.074 C 277.453 286.841,277.005 286.955,276.393 288.900 " stroke="none" fill="#faf9f8" fill-rule="evenodd"></path><path id="path2" d="M199.736 85.065 L 198.472 85.245 199.431 86.923 C 201.493 90.528,198.552 92.348,195.256 89.506 C 194.517 88.869,193.685 88.435,193.408 88.542 C 193.130 88.648,192.067 88.861,191.046 89.014 C 188.725 89.362,188.502 89.708,189.896 90.802 C 190.901 91.590,191.950 93.021,191.986 93.651 C 192.058 94.923,187.423 94.951,186.278 93.686 C 185.753 93.106,185.176 93.023,182.855 93.196 C 178.973 93.484,178.551 94.227,181.580 95.439 C 182.411 95.771,183.280 96.458,183.511 96.964 C 184.519 99.176,178.826 99.828,176.591 97.756 C 175.191 96.459,171.056 96.593,169.489 97.986 C 168.872 98.534,170.761 100.289,172.222 100.526 C 174.734 100.934,175.465 101.969,173.781 102.736 C 172.534 103.304,168.400 103.353,168.400 102.800 C 168.400 101.047,165.736 100.417,162.200 101.334 C 158.873 102.196,159.696 103.873,163.814 104.618 C 168.114 105.396,167.533 106.882,162.514 107.944 C 159.953 108.486,159.323 108.271,158.987 106.741 C 158.582 104.895,157.384 104.571,154.018 105.396 C 150.007 106.379,150.286 107.689,154.800 109.074 C 158.396 110.177,158.416 110.736,154.893 111.654 C 153.954 111.898,153.089 112.256,152.970 112.449 C 152.336 113.475,150.299 112.807,150.530 111.649 C 150.947 109.563,150.128 109.036,146.930 109.333 C 143.339 109.667,141.600 110.273,141.600 111.190 C 141.600 112.200,140.911 112.629,138.400 113.180 C 134.403 114.058,134.207 114.151,134.080 115.242 C 133.885 116.909,134.695 117.241,137.954 116.832 C 141.184 116.427,141.897 116.018,142.076 114.471 L 142.200 113.400 146.300 113.286 C 151.601 113.139,152.228 115.176,147.200 116.209 C 145.088 116.643,143.209 117.726,142.671 118.821 C 142.319 119.538,141.452 120.040,139.430 120.696 C 136.146 121.763,135.118 122.577,135.281 123.979 C 135.477 125.664,142.427 124.791,145.356 122.714 C 145.991 122.263,147.977 121.490,149.769 120.997 C 151.561 120.504,153.921 119.654,155.014 119.108 C 156.106 118.562,158.350 117.711,160.000 117.217 C 163.633 116.130,173.150 112.677,175.500 111.594 C 176.435 111.163,179.405 110.281,182.100 109.634 C 184.795 108.988,188.530 107.922,190.400 107.266 C 199.160 104.192,208.244 104.102,217.800 106.993 C 219.560 107.525,223.070 108.444,225.600 109.035 C 228.130 109.626,234.160 111.408,239.000 112.994 C 251.766 117.178,255.200 117.618,255.200 115.072 C 255.200 113.910,254.364 113.144,251.952 112.095 C 248.301 110.507,249.174 109.200,253.886 109.200 C 257.946 109.200,259.211 106.572,255.618 105.605 C 251.149 104.402,249.200 104.696,249.200 106.573 C 249.200 108.545,248.459 108.884,245.502 108.264 C 239.733 107.055,239.206 105.162,244.495 104.643 C 250.805 104.024,250.207 101.605,243.577 100.929 C 241.144 100.681,240.000 101.298,240.000 102.857 C 240.000 103.595,239.819 103.637,237.700 103.401 C 232.819 102.856,231.980 101.755,235.754 100.848 C 238.059 100.294,239.784 98.779,238.959 98.034 C 237.230 96.471,233.445 96.453,232.000 98.000 C 230.526 99.577,224.400 99.391,224.400 97.768 C 224.400 96.984,225.372 96.026,226.396 95.801 C 227.993 95.450,229.130 93.941,228.103 93.534 C 226.577 92.931,223.222 93.200,221.432 94.070 C 219.840 94.843,219.462 94.885,218.021 94.454 C 216.005 93.849,216.003 93.542,218.008 91.497 C 219.898 89.569,219.785 89.380,216.561 89.064 C 214.387 88.851,213.976 88.933,212.783 89.812 C 210.125 91.774,208.049 90.550,208.822 87.477 C 209.086 86.428,209.181 85.447,209.031 85.298 C 208.714 84.981,201.584 84.802,199.736 85.065 M208.781 91.410 C 209.981 92.175,211.098 92.800,211.264 92.800 C 211.429 92.800,212.199 93.230,212.974 93.756 C 213.749 94.282,215.720 95.200,217.355 95.797 C 219.068 96.421,220.794 97.368,221.428 98.029 C 222.131 98.763,223.684 99.562,225.736 100.245 C 228.049 101.016,229.288 101.687,230.173 102.651 C 231.022 103.576,232.254 104.267,234.175 104.894 C 237.243 105.896,237.639 106.361,236.442 107.558 C 235.114 108.886,230.482 108.075,219.337 104.565 C 204.845 100.001,204.378 100.018,187.200 105.750 C 182.910 107.182,178.230 108.649,176.800 109.012 C 175.370 109.374,173.017 110.173,171.570 110.788 C 168.329 112.165,163.768 112.724,162.635 111.883 C 161.511 111.050,162.095 110.117,164.079 109.574 C 168.055 108.488,168.483 108.283,169.185 107.129 C 170.110 105.608,170.900 105.080,173.554 104.207 C 174.739 103.818,176.372 102.900,177.183 102.167 C 178.089 101.349,179.391 100.671,180.559 100.409 C 182.920 99.880,186.223 98.237,186.529 97.440 C 186.655 97.112,187.656 96.577,188.754 96.251 C 189.851 95.925,192.141 94.925,193.841 94.029 C 195.542 93.133,197.180 92.400,197.481 92.400 C 197.782 92.400,198.967 91.862,200.114 91.204 C 203.147 89.464,205.827 89.528,208.781 91.410 M174.000 97.957 C 174.000 98.424,172.832 98.867,172.364 98.578 C 171.659 98.142,172.012 97.600,173.000 97.600 C 173.550 97.600,174.000 97.761,174.000 97.957 M235.923 98.030 C 235.845 98.267,235.609 98.460,235.400 98.460 C 235.191 98.460,234.956 98.267,234.877 98.030 C 234.798 97.794,235.033 97.600,235.400 97.600 C 235.767 97.600,236.002 97.794,235.923 98.030 M165.383 101.972 C 165.731 102.535,164.902 102.886,163.944 102.582 C 163.276 102.370,163.213 102.238,163.647 101.962 C 164.371 101.504,165.096 101.508,165.383 101.972 M244.353 102.429 C 243.746 102.804,243.091 102.500,243.406 101.990 C 243.527 101.795,243.905 101.742,244.246 101.873 C 244.731 102.059,244.754 102.181,244.353 102.429 M156.480 106.480 C 156.107 106.853,155.893 106.853,155.520 106.480 C 155.147 106.107,155.253 106.000,156.000 106.000 C 156.747 106.000,156.853 106.107,156.480 106.480 M257.600 110.136 C 257.600 111.851,259.179 112.573,262.964 112.588 L 266.200 112.600 266.327 111.500 C 266.489 110.090,265.622 109.741,261.037 109.369 L 257.600 109.090 257.600 110.136 M267.500 113.231 C 265.043 114.667,271.212 118.202,274.184 117.061 C 276.432 116.199,274.417 113.843,271.049 113.395 C 269.976 113.252,268.896 113.065,268.649 112.979 C 268.402 112.892,267.885 113.006,267.500 113.231 M160.967 113.857 C 161.355 114.868,156.884 115.881,155.436 115.110 C 154.361 114.538,155.478 113.915,158.200 113.568 C 159.300 113.427,160.316 113.287,160.457 113.256 C 160.599 113.225,160.828 113.496,160.967 113.857 M275.280 117.878 C 274.455 119.479,276.029 120.544,279.835 120.959 C 282.772 121.280,283.600 121.018,283.600 119.767 C 283.600 117.902,276.140 116.208,275.280 117.878 M125.900 118.229 C 123.242 119.671,125.147 121.412,128.939 121.006 C 132.829 120.589,133.983 119.864,133.356 118.229 C 133.026 117.371,127.482 117.370,125.900 118.229 M258.200 117.885 C 256.639 118.261,256.772 118.698,258.585 119.154 C 260.913 119.741,262.699 119.101,261.396 118.147 C 260.647 117.600,259.706 117.523,258.200 117.885 M284.363 121.623 C 282.905 122.524,285.564 124.634,288.675 125.043 C 292.553 125.553,292.800 125.631,292.800 126.356 C 292.800 127.949,296.034 129.600,299.154 129.600 C 301.934 129.600,302.400 129.858,302.400 131.398 C 302.400 133.627,303.489 134.516,306.441 134.698 C 312.688 135.081,309.447 135.955,302.800 135.679 C 299.185 135.529,298.015 135.654,294.400 136.580 C 291.613 137.293,288.248 137.789,284.400 138.053 C 277.351 138.536,162.845 139.093,138.000 138.765 C 118.218 138.504,117.935 138.468,115.938 135.983 L 114.666 134.400 111.233 134.394 C 107.235 134.387,106.992 134.279,106.269 132.181 C 105.739 130.644,105.666 130.597,103.680 130.480 C 101.419 130.347,98.400 131.006,98.400 131.634 C 98.400 132.617,100.402 134.001,101.882 134.040 C 107.395 134.185,105.876 136.400,100.264 136.400 C 98.186 136.400,97.976 136.313,97.413 135.224 C 96.636 133.723,94.736 133.501,91.504 134.534 C 88.646 135.448,88.818 136.061,92.478 138.004 C 95.327 139.517,95.726 139.914,96.804 142.300 C 97.637 144.145,98.222 144.339,100.754 143.613 C 103.270 142.892,104.152 143.946,104.805 148.453 C 105.039 150.074,105.422 152.255,105.656 153.300 L 106.080 155.200 110.599 155.200 C 114.886 155.200,115.240 155.136,117.459 153.958 C 119.742 152.747,119.894 152.722,123.600 152.968 C 126.686 153.173,127.566 153.103,128.285 152.598 C 129.829 151.512,134.912 149.913,137.400 149.729 L 139.800 149.551 141.800 151.562 C 144.008 153.781,146.716 154.713,149.547 154.227 C 150.346 154.090,153.701 153.843,157.001 153.678 C 162.927 153.382,163.040 153.359,165.972 151.842 C 169.851 149.835,171.646 149.959,175.222 152.480 L 177.661 154.200 185.930 154.200 C 190.913 154.200,194.965 154.013,196.126 153.729 C 197.696 153.346,198.421 153.368,200.048 153.851 L 202.044 154.444 204.048 152.322 L 206.052 150.200 208.346 152.752 L 210.639 155.303 213.420 155.066 C 214.949 154.936,218.573 154.655,221.473 154.441 L 226.747 154.053 228.363 152.437 C 231.013 149.787,232.363 149.884,237.326 153.081 C 241.152 155.546,243.359 156.144,245.726 155.358 C 247.336 154.824,248.631 154.735,252.124 154.919 C 256.733 155.162,259.987 154.462,261.234 152.959 C 264.238 149.339,270.068 149.747,274.523 153.888 L 276.447 155.676 281.523 155.560 C 284.315 155.496,288.323 155.588,290.429 155.764 L 294.258 156.084 295.329 154.812 C 295.918 154.111,296.400 153.322,296.400 153.058 C 296.400 150.029,298.533 150.772,299.173 154.024 C 299.888 157.660,298.268 158.761,294.750 157.029 C 294.016 156.667,293.114 156.608,291.750 156.832 C 290.678 157.008,286.972 157.163,283.515 157.176 C 278.013 157.197,276.966 157.308,275.115 158.069 C 272.568 159.115,264.258 159.248,259.178 158.324 C 257.515 158.022,255.715 157.897,255.178 158.047 C 252.958 158.667,246.618 158.425,245.126 157.664 C 243.898 157.038,243.541 157.005,242.741 157.444 C 242.223 157.728,240.990 158.069,240.000 158.201 C 239.010 158.333,236.452 158.717,234.316 159.054 C 232.179 159.391,230.233 159.544,229.992 159.395 C 229.054 158.815,213.874 158.418,211.200 158.903 C 208.536 159.387,207.587 159.400,198.600 159.082 C 195.740 158.981,192.628 159.059,191.684 159.255 C 190.640 159.471,187.447 159.443,183.532 159.183 C 178.730 158.865,176.576 158.874,175.048 159.221 C 173.677 159.533,164.799 159.764,148.200 159.921 C 117.879 160.206,117.157 160.202,115.740 159.713 C 114.400 159.251,111.452 160.014,112.374 160.584 C 112.824 160.862,126.772 161.232,136.200 161.216 C 160.714 161.176,169.524 161.277,172.149 161.629 C 175.914 162.134,176.552 162.137,183.972 161.672 C 188.310 161.400,190.216 161.435,191.645 161.812 C 193.171 162.215,194.754 162.213,199.678 161.804 C 204.182 161.430,206.765 161.405,209.405 161.709 C 212.557 162.073,227.769 162.488,236.400 162.446 C 259.715 162.332,265.957 162.386,274.354 162.774 C 279.769 163.023,286.270 163.447,288.800 163.714 C 293.919 164.255,293.934 164.255,296.258 163.875 C 297.998 163.591,298.642 164.104,298.150 165.385 C 297.960 165.882,297.796 165.889,297.063 165.433 C 296.142 164.861,226.881 164.831,153.000 165.372 C 134.520 165.507,118.371 165.603,117.112 165.585 C 112.287 165.515,110.098 167.279,110.873 170.612 C 111.420 172.965,111.687 173.278,116.790 177.546 C 117.676 178.287,118.400 179.167,118.400 179.501 C 118.400 180.005,118.786 180.065,120.639 179.847 C 127.980 178.984,130.758 184.023,131.619 199.763 C 132.010 206.923,132.521 212.479,133.204 217.000 C 134.759 227.303,135.485 256.638,134.441 267.000 C 134.198 269.420,133.882 274.469,133.739 278.220 L 133.480 285.040 135.386 290.758 C 138.135 299.005,139.056 299.807,146.952 300.829 C 156.884 302.115,160.600 301.020,163.034 296.091 C 163.933 294.270,165.138 292.290,165.712 291.691 C 166.285 291.091,167.258 289.520,167.874 288.200 C 169.175 285.411,169.103 288.313,168.637 257.200 C 168.316 235.760,168.538 227.114,169.778 212.800 C 170.112 208.950,170.742 201.620,171.179 196.511 C 172.218 184.355,172.603 182.147,173.735 181.843 C 178.141 180.661,179.029 182.123,180.757 193.408 C 181.274 196.788,182.242 200.719,183.516 204.608 C 185.295 210.041,185.521 211.160,185.939 216.600 C 187.278 234.035,187.437 256.040,186.364 275.546 C 185.840 285.076,186.084 287.461,188.255 294.060 C 190.326 300.354,191.996 301.223,202.059 301.242 C 210.899 301.259,211.800 300.828,213.457 295.800 C 213.820 294.700,214.627 293.213,215.251 292.495 C 218.656 288.576,218.828 287.250,218.360 268.499 C 217.794 245.809,218.405 219.354,219.775 207.200 C 220.333 202.250,220.981 196.490,221.215 194.400 C 221.450 192.310,221.921 189.160,222.264 187.400 L 222.886 184.200 225.015 182.951 L 227.145 181.701 227.934 183.551 C 229.402 186.992,231.130 193.774,231.974 199.400 C 232.981 206.121,234.232 212.683,235.015 215.352 C 236.333 219.844,236.727 253.174,235.759 278.200 C 235.485 285.283,235.829 287.442,238.336 294.400 C 240.455 300.280,241.613 300.819,252.730 301.094 C 263.147 301.353,264.518 300.728,266.773 294.692 C 267.000 294.082,267.889 292.642,268.748 291.492 C 272.302 286.732,272.220 287.135,271.997 275.400 C 271.450 246.561,272.138 216.208,273.594 205.000 C 274.022 201.700,274.652 196.660,274.992 193.800 C 276.159 183.993,277.601 180.800,280.865 180.800 C 282.749 180.800,286.227 189.004,287.628 196.750 C 288.616 202.213,289.290 205.243,289.477 205.056 C 289.558 204.975,289.798 200.969,290.009 196.154 C 290.642 181.726,290.995 180.097,294.337 176.200 C 295.469 174.880,296.589 173.170,296.827 172.400 C 297.990 168.637,298.929 167.210,300.394 166.979 C 302.452 166.654,302.893 166.327,304.005 164.303 C 304.557 163.297,305.322 162.128,305.705 161.705 C 306.740 160.561,306.569 159.925,304.756 158.181 L 303.112 156.600 303.340 152.126 C 303.687 145.317,304.337 144.212,307.911 144.357 C 311.108 144.486,312.073 144.137,313.264 142.422 C 313.849 141.580,315.319 140.233,316.531 139.429 C 320.521 136.780,320.435 134.816,316.296 134.038 C 311.006 133.044,311.006 133.044,310.874 132.112 C 310.723 131.053,309.063 130.454,305.200 130.063 L 302.600 129.800 302.482 128.397 C 302.351 126.854,299.531 125.600,296.191 125.600 C 294.335 125.600,293.200 124.982,293.200 123.972 C 293.200 122.504,286.024 120.597,284.363 121.623 M117.477 122.273 C 116.442 122.702,116.026 123.090,116.177 123.485 C 116.300 123.804,116.400 124.321,116.400 124.633 C 116.400 125.990,123.237 125.026,124.023 123.557 C 125.040 121.656,120.916 120.847,117.477 122.273 M129.000 125.943 C 126.423 126.857,126.390 127.682,128.912 128.169 C 131.680 128.704,135.200 127.590,135.200 126.180 C 135.200 124.936,132.165 124.820,129.000 125.943 M111.190 125.990 C 107.278 126.495,106.439 127.396,108.471 128.913 C 110.931 130.750,116.572 128.832,115.806 126.420 C 115.524 125.531,115.074 125.489,111.190 125.990 M119.676 130.691 C 117.585 130.949,118.384 131.787,120.832 131.904 C 123.107 132.013,124.291 131.594,123.828 130.845 C 123.559 130.409,122.331 130.364,119.676 130.691 M316.333 135.214 C 316.820 135.225,316.682 135.489,315.818 136.195 C 314.941 136.912,314.502 137.050,314.118 136.732 C 313.073 135.864,313.818 134.616,315.133 135.032 C 315.426 135.124,315.966 135.206,316.333 135.214 M311.142 138.931 C 312.338 140.372,310.410 142.462,308.720 141.557 C 308.265 141.313,306.536 141.134,304.879 141.159 C 301.761 141.206,299.452 140.388,300.303 139.537 C 301.327 138.513,310.375 138.006,311.142 138.931 M222.449 144.548 C 227.477 144.645,227.733 144.724,228.619 146.437 C 229.726 148.578,227.881 149.528,222.094 149.797 C 219.952 149.896,217.112 150.090,215.783 150.227 C 211.196 150.699,208.227 149.150,209.202 146.795 C 209.990 144.894,212.690 143.892,216.043 144.258 C 217.057 144.369,219.940 144.499,222.449 144.548 M259.773 144.696 C 261.371 145.169,262.722 146.994,262.155 147.914 C 261.286 149.323,257.757 150.110,252.663 150.031 C 250.058 149.991,246.964 150.158,245.788 150.402 C 243.463 150.885,242.589 150.618,240.269 148.714 L 239.138 147.786 240.034 146.648 C 242.045 144.091,242.612 143.963,251.000 144.166 C 255.180 144.267,259.128 144.506,259.773 144.696 M294.809 144.405 C 297.019 145.588,295.755 150.836,293.342 150.495 C 292.934 150.437,289.090 150.383,284.801 150.375 C 273.879 150.354,270.251 148.118,275.726 144.780 C 277.175 143.896,293.267 143.579,294.809 144.405 M196.009 145.050 C 202.196 147.526,198.791 149.622,188.240 149.833 C 184.698 149.903,181.391 149.971,180.891 149.984 C 178.861 150.036,176.210 148.160,176.659 146.990 C 177.542 144.690,191.590 143.282,196.009 145.050 M122.631 145.375 C 128.233 145.400,128.270 145.406,129.809 146.580 L 131.356 147.759 129.978 148.365 C 129.059 148.768,126.935 149.013,123.604 149.100 C 119.304 149.211,118.305 149.368,116.442 150.221 L 114.277 151.212 112.639 150.411 C 111.737 149.970,110.486 149.195,109.857 148.689 L 108.714 147.767 111.657 146.253 C 114.032 145.031,114.830 144.799,115.800 145.045 C 116.460 145.212,119.534 145.361,122.631 145.375 M164.076 145.552 C 165.436 146.070,166.235 147.435,165.616 148.181 C 164.429 149.611,148.580 150.348,145.300 149.125 C 142.413 148.049,142.501 147.052,145.611 145.612 C 147.585 144.698,161.712 144.652,164.076 145.552 M302.400 149.200 C 302.400 150.274,302.237 151.254,302.038 151.377 C 301.606 151.644,301.014 147.824,301.393 147.212 C 301.922 146.355,302.400 147.298,302.400 149.200 M105.520 159.200 C 105.023 160.074,104.933 160.692,105.187 161.498 C 105.378 162.104,105.642 163.095,105.775 163.700 C 106.074 165.070,107.029 165.135,107.362 163.807 C 107.499 163.261,108.146 162.206,108.799 161.463 C 110.090 159.992,109.951 159.601,107.726 158.451 C 106.472 157.803,106.277 157.869,105.520 159.200 M302.658 160.094 C 303.303 161.137,302.339 165.734,301.637 164.965 C 301.064 164.338,300.808 160.552,301.305 160.055 C 301.892 159.468,302.278 159.480,302.658 160.094 M165.600 167.387 C 172.924 168.349,184.563 168.291,189.200 167.270 C 196.028 165.766,206.779 165.742,215.791 167.211 C 221.471 168.137,231.796 167.922,244.400 166.614 C 252.281 165.796,258.924 165.866,266.053 166.841 C 272.184 167.679,287.895 167.992,292.249 167.363 C 296.445 166.756,297.057 171.770,293.247 175.522 C 291.169 177.568,290.836 178.118,290.402 180.220 C 289.428 184.945,289.579 184.876,287.505 181.547 C 285.313 178.032,283.958 177.200,280.419 177.200 C 277.374 177.200,276.913 177.405,276.038 179.149 C 273.504 184.199,272.939 187.863,272.204 204.000 C 270.604 239.121,270.272 253.624,270.698 269.800 C 271.143 286.705,271.342 285.948,263.600 296.698 C 260.342 301.222,247.856 301.317,243.069 296.854 C 238.269 292.379,237.008 286.916,237.445 272.484 C 237.895 257.591,237.472 228.145,236.646 216.800 C 236.301 212.070,235.904 204.870,235.762 200.800 C 235.493 193.020,233.555 183.052,231.694 179.864 C 230.203 177.313,224.999 176.000,222.944 177.657 C 220.613 179.536,218.873 190.550,218.412 206.337 C 218.196 213.742,217.921 221.510,217.801 223.600 C 217.681 225.690,217.581 240.506,217.578 256.524 C 217.574 288.942,217.727 287.056,214.791 291.000 C 213.972 292.100,212.740 294.194,212.053 295.654 C 210.356 299.258,209.328 299.755,203.199 299.930 C 195.558 300.150,193.517 298.999,190.339 292.679 C 187.840 287.708,187.519 285.445,187.990 276.105 C 188.807 259.912,188.445 236.748,187.027 214.400 C 186.699 209.230,186.234 201.048,185.993 196.217 C 185.520 186.705,185.687 187.448,182.316 179.906 C 181.368 177.786,181.400 177.802,177.071 177.221 C 172.881 176.657,172.960 176.646,172.447 177.900 C 169.186 185.876,167.398 218.129,167.651 264.400 L 167.768 285.800 166.716 287.824 C 166.137 288.938,165.005 290.637,164.200 291.600 C 163.395 292.563,162.310 294.194,161.788 295.224 C 159.808 299.131,157.369 300.225,151.424 299.875 C 143.923 299.432,141.586 298.234,138.838 293.425 C 135.581 287.724,135.520 287.218,136.033 270.000 C 136.499 254.389,135.980 221.788,135.195 217.301 C 134.993 216.146,134.552 211.376,134.215 206.701 C 132.838 187.590,132.086 181.810,130.727 179.899 C 128.997 177.466,125.903 175.869,121.600 175.188 C 113.913 173.972,113.265 173.623,113.977 171.083 L 114.470 169.322 116.422 169.677 C 117.877 169.941,118.964 169.870,120.687 169.396 C 121.959 169.047,125.455 168.604,128.456 168.413 C 131.456 168.221,135.686 167.772,137.856 167.416 C 147.055 165.903,154.244 165.896,165.600 167.387 M254.336 304.194 C 254.192 304.340,241.592 304.458,226.336 304.454 C 198.373 304.448,125.988 305.693,124.713 306.202 C 124.082 306.453,124.106 306.637,125.000 308.400 L 125.975 310.323 129.687 310.549 C 140.843 311.227,267.104 311.440,291.200 310.822 C 305.443 310.456,306.360 310.294,306.460 308.112 C 306.493 307.391,306.538 306.575,306.560 306.300 C 306.658 305.077,302.094 304.685,286.400 304.570 C 277.930 304.508,267.310 304.338,262.800 304.192 C 258.290 304.046,254.481 304.047,254.336 304.194 M117.800 306.382 C 117.060 306.684,117.080 306.729,118.071 306.990 C 118.660 307.145,119.470 307.081,119.871 306.848 C 120.272 306.615,120.390 306.419,120.133 306.412 C 119.876 306.405,119.426 306.323,119.133 306.228 C 118.840 306.133,118.240 306.203,117.800 306.382 M309.400 319.052 C 308.080 319.361,306.214 319.796,305.253 320.018 C 301.791 320.819,298.604 320.914,292.440 320.403 C 287.330 319.980,285.542 319.978,282.784 320.395 C 280.054 320.808,266.837 321.133,252.000 321.152 C 251.450 321.153,243.080 321.163,233.400 321.174 C 223.720 321.186,215.080 321.313,214.200 321.456 C 213.320 321.600,206.390 321.778,198.800 321.851 C 174.020 322.090,167.012 322.258,166.200 322.632 C 164.965 323.200,188.032 323.400,254.800 323.400 L 315.000 323.400 315.000 321.000 L 315.000 318.600 313.400 318.545 C 312.520 318.515,310.720 318.743,309.400 319.052 M149.200 322.800 C 148.787 323.067,149.659 323.188,152.000 323.188 C 154.341 323.188,155.213 323.067,154.800 322.800 C 154.470 322.587,153.210 322.412,152.000 322.412 C 150.790 322.412,149.530 322.587,149.200 322.800 M325.800 332.089 C 324.084 333.087,306.534 334.161,301.014 333.606 C 298.369 333.340,294.000 333.332,288.200 333.582 C 282.348 333.834,278.060 333.825,275.400 333.553 C 272.533 333.259,269.369 333.280,264.226 333.626 C 260.280 333.891,255.060 333.993,252.626 333.852 C 250.192 333.711,239.020 333.786,227.800 334.019 C 216.580 334.251,205.690 334.396,203.600 334.341 C 199.163 334.223,200.538 334.211,177.000 334.577 C 166.880 334.734,157.070 334.806,155.200 334.736 C 153.330 334.665,149.640 334.636,147.000 334.669 C 144.360 334.703,137.070 334.752,130.800 334.779 C 124.530 334.806,118.050 334.978,116.400 335.160 C 114.664 335.352,136.397 335.533,168.000 335.589 C 256.152 335.747,327.219 335.714,327.418 335.516 C 327.679 335.254,327.143 331.597,326.846 331.612 C 326.711 331.619,326.240 331.834,325.800 332.089 M96.905 335.487 C 97.514 335.579,98.414 335.577,98.905 335.482 C 99.397 335.387,98.900 335.311,97.800 335.314 C 96.700 335.317,96.297 335.395,96.905 335.487 M101.305 335.487 C 101.914 335.579,102.814 335.577,103.305 335.482 C 103.797 335.387,103.300 335.311,102.200 335.314 C 101.100 335.317,100.697 335.395,101.305 335.487 " stroke="none" fill="#ada588" fill-rule="evenodd"></path><path id="path3" d="M200.114 91.204 C 198.967 91.862,197.782 92.400,197.481 92.400 C 197.180 92.400,195.542 93.133,193.841 94.029 C 192.141 94.925,189.851 95.925,188.754 96.251 C 187.656 96.577,186.655 97.112,186.529 97.440 C 186.223 98.237,182.920 99.880,180.559 100.409 C 179.391 100.671,178.089 101.349,177.183 102.167 C 176.372 102.900,174.739 103.818,173.554 104.207 C 170.900 105.080,170.110 105.608,169.185 107.129 C 168.483 108.283,168.055 108.488,164.079 109.574 C 162.095 110.117,161.511 111.050,162.635 111.883 C 163.768 112.724,168.329 112.165,171.570 110.788 C 173.017 110.173,175.370 109.374,176.800 109.012 C 178.230 108.649,182.910 107.182,187.200 105.750 C 204.378 100.018,204.845 100.001,219.337 104.565 C 230.482 108.075,235.114 108.886,236.442 107.558 C 237.639 106.361,237.243 105.896,234.175 104.894 C 232.254 104.267,231.022 103.576,230.173 102.651 C 229.288 101.687,228.049 101.016,225.736 100.245 C 223.684 99.562,222.131 98.763,221.428 98.029 C 220.794 97.368,219.068 96.421,217.355 95.797 C 215.720 95.200,213.749 94.282,212.974 93.756 C 212.199 93.230,211.429 92.800,211.264 92.800 C 211.098 92.800,209.981 92.175,208.781 91.410 C 205.827 89.528,203.147 89.464,200.114 91.204 M172.000 97.976 C 172.000 98.551,172.655 98.831,173.364 98.559 C 174.341 98.184,174.119 97.600,173.000 97.600 C 172.450 97.600,172.000 97.769,172.000 97.976 M234.877 98.030 C 234.956 98.267,235.191 98.460,235.400 98.460 C 235.609 98.460,235.845 98.267,235.923 98.030 C 236.002 97.794,235.767 97.600,235.400 97.600 C 235.033 97.600,234.798 97.794,234.877 98.030 M163.647 101.962 C 163.213 102.238,163.276 102.370,163.944 102.582 C 164.902 102.886,165.731 102.535,165.383 101.972 C 165.096 101.508,164.371 101.504,163.647 101.962 M243.406 101.990 C 243.091 102.500,243.746 102.804,244.353 102.429 C 244.754 102.181,244.731 102.059,244.246 101.873 C 243.905 101.742,243.527 101.795,243.406 101.990 M155.520 106.480 C 155.893 106.853,156.107 106.853,156.480 106.480 C 156.853 106.107,156.747 106.000,156.000 106.000 C 155.253 106.000,155.147 106.107,155.520 106.480 M158.200 113.568 C 155.478 113.915,154.361 114.538,155.436 115.110 C 156.073 115.449,160.595 115.049,161.109 114.608 C 161.312 114.434,160.717 113.199,160.457 113.256 C 160.316 113.287,159.300 113.427,158.200 113.568 M314.100 135.065 C 313.451 135.327,313.460 136.186,314.118 136.732 C 314.502 137.050,314.941 136.912,315.818 136.195 C 316.682 135.489,316.820 135.225,316.333 135.214 C 315.966 135.206,315.426 135.124,315.133 135.032 C 314.840 134.939,314.375 134.954,314.100 135.065 M302.645 138.822 C 298.362 139.540,299.981 141.233,304.879 141.159 C 306.536 141.134,308.265 141.313,308.720 141.557 C 310.410 142.462,312.338 140.372,311.142 138.931 C 310.646 138.332,305.926 138.272,302.645 138.822 M212.676 144.427 C 206.031 146.042,208.665 150.960,215.783 150.227 C 217.112 150.090,219.952 149.896,222.094 149.797 C 227.881 149.528,229.726 148.578,228.619 146.437 C 227.733 144.724,227.477 144.645,222.449 144.548 C 219.940 144.499,217.057 144.369,216.043 144.258 C 215.029 144.148,213.514 144.224,212.676 144.427 M242.165 144.746 C 241.485 145.166,240.526 146.022,240.034 146.648 L 239.138 147.786 240.269 148.714 C 242.589 150.618,243.463 150.885,245.788 150.402 C 246.964 150.158,250.058 149.991,252.663 150.031 C 259.991 150.144,263.601 148.599,261.762 146.136 C 260.594 144.572,259.497 144.371,251.000 144.166 C 244.029 143.997,243.298 144.045,242.165 144.746 M275.726 144.780 C 270.251 148.118,273.879 150.354,284.801 150.375 C 289.090 150.383,292.934 150.437,293.342 150.495 C 295.755 150.836,297.019 145.588,294.809 144.405 C 293.267 143.579,277.175 143.896,275.726 144.780 M178.802 145.436 C 176.984 146.278,176.152 147.275,176.626 148.042 C 177.019 148.679,179.940 150.009,180.891 149.984 C 181.391 149.971,184.698 149.903,188.240 149.833 C 198.791 149.622,202.196 147.526,196.009 145.050 C 193.368 143.994,181.333 144.263,178.802 145.436 M111.657 146.253 L 108.714 147.767 109.857 148.689 C 110.486 149.195,111.737 149.970,112.639 150.411 L 114.277 151.212 116.442 150.221 C 118.305 149.368,119.304 149.211,123.604 149.100 C 126.935 149.013,129.059 148.768,129.978 148.365 L 131.356 147.759 129.809 146.580 C 128.270 145.406,128.233 145.400,122.631 145.375 C 119.534 145.361,116.460 145.212,115.800 145.045 C 114.830 144.799,114.032 145.031,111.657 146.253 M145.611 145.612 C 142.501 147.052,142.413 148.049,145.300 149.125 C 148.580 150.348,164.429 149.611,165.616 148.181 C 166.235 147.435,165.436 146.070,164.076 145.552 C 161.712 144.652,147.585 144.698,145.611 145.612 M301.393 147.212 C 301.014 147.824,301.606 151.644,302.038 151.377 C 302.515 151.081,302.507 147.313,302.028 147.017 C 301.823 146.891,301.537 146.978,301.393 147.212 M301.305 160.055 C 300.808 160.552,301.064 164.338,301.637 164.965 C 302.339 165.734,303.303 161.137,302.658 160.094 C 302.278 159.480,301.892 159.468,301.305 160.055 M146.800 166.444 C 144.050 166.622,140.025 167.059,137.856 167.416 C 135.686 167.772,131.456 168.221,128.456 168.413 C 125.455 168.604,121.959 169.047,120.687 169.396 C 118.964 169.870,117.877 169.941,116.422 169.677 L 114.470 169.322 113.977 171.083 C 113.265 173.623,113.913 173.972,121.600 175.188 C 125.903 175.869,128.997 177.466,130.727 179.899 C 132.086 181.810,132.838 187.590,134.215 206.701 C 134.552 211.376,134.993 216.146,135.195 217.301 C 135.980 221.788,136.499 254.389,136.033 270.000 C 135.520 287.218,135.581 287.724,138.838 293.425 C 141.586 298.234,143.923 299.432,151.424 299.875 C 157.369 300.225,159.808 299.131,161.788 295.224 C 162.310 294.194,163.395 292.563,164.200 291.600 C 165.005 290.637,166.137 288.938,166.716 287.824 L 167.768 285.800 167.651 264.400 C 167.398 218.129,169.186 185.876,172.447 177.900 C 172.960 176.646,172.881 176.657,177.071 177.221 C 181.400 177.802,181.368 177.786,182.316 179.906 C 185.687 187.448,185.520 186.705,185.993 196.217 C 186.234 201.048,186.699 209.230,187.027 214.400 C 188.445 236.748,188.807 259.912,187.990 276.105 C 187.519 285.445,187.840 287.708,190.339 292.679 C 193.517 298.999,195.558 300.150,203.199 299.930 C 209.328 299.755,210.356 299.258,212.053 295.654 C 212.740 294.194,213.972 292.100,214.791 291.000 C 217.727 287.056,217.574 288.942,217.578 256.524 C 217.581 240.506,217.681 225.690,217.801 223.600 C 217.921 221.510,218.196 213.742,218.412 206.337 C 218.873 190.550,220.613 179.536,222.944 177.657 C 224.999 176.000,230.203 177.313,231.694 179.864 C 233.555 183.052,235.493 193.020,235.762 200.800 C 235.904 204.870,236.301 212.070,236.646 216.800 C 237.472 228.145,237.895 257.591,237.445 272.484 C 237.032 286.125,237.145 286.947,240.206 292.600 C 243.560 298.795,247.245 300.418,256.723 299.875 C 261.909 299.578,261.718 299.738,267.667 290.661 C 271.164 285.327,271.115 285.661,270.698 269.800 C 270.272 253.624,270.604 239.121,272.204 204.000 C 272.939 187.863,273.504 184.199,276.038 179.149 C 276.913 177.405,277.374 177.200,280.419 177.200 C 283.958 177.200,285.313 178.032,287.505 181.547 C 289.579 184.876,289.428 184.945,290.402 180.220 C 290.836 178.118,291.169 177.568,293.247 175.522 C 297.057 171.770,296.445 166.756,292.249 167.363 C 287.895 167.992,272.184 167.679,266.053 166.841 C 258.924 165.866,252.281 165.796,244.400 166.614 C 231.796 167.922,221.471 168.137,215.791 167.211 C 206.779 165.742,196.028 165.766,189.200 167.270 C 184.563 168.291,172.924 168.349,165.600 167.387 C 156.753 166.225,153.051 166.040,146.800 166.444 M159.959 170.640 C 167.093 173.284,167.733 175.438,166.894 194.000 C 166.148 210.496,165.578 233.815,165.266 260.502 L 164.987 284.404 163.267 286.075 C 162.320 286.993,161.305 288.207,161.011 288.772 C 160.717 289.338,159.995 290.216,159.408 290.724 C 158.820 291.232,158.093 292.236,157.793 292.956 C 156.547 295.938,148.755 296.453,146.861 293.679 C 146.498 293.146,145.564 291.966,144.786 291.055 C 144.008 290.145,142.845 288.680,142.202 287.800 C 141.559 286.920,140.755 285.990,140.417 285.733 C 139.890 285.333,139.762 283.052,139.531 269.933 C 139.382 261.500,139.067 249.290,138.830 242.800 C 138.593 236.310,138.219 225.510,137.998 218.800 C 137.778 212.090,137.373 201.380,137.099 195.000 C 136.188 173.813,136.363 173.222,144.355 170.605 C 149.577 168.895,155.286 168.907,159.959 170.640 M209.032 170.011 C 212.686 171.268,214.224 172.544,215.703 175.547 C 217.285 178.759,217.251 176.626,216.269 211.449 C 215.871 225.556,215.420 247.920,215.266 261.147 L 214.987 285.196 213.444 286.468 C 212.595 287.168,211.667 288.294,211.382 288.970 C 211.097 289.647,210.309 290.817,209.632 291.572 C 208.954 292.327,208.400 293.100,208.400 293.291 C 208.400 296.943,198.378 296.156,196.752 292.377 C 196.280 291.279,195.394 289.961,194.784 289.448 C 192.219 287.290,192.001 286.213,191.995 275.716 C 191.990 266.549,191.645 252.927,190.804 228.800 C 190.586 222.530,190.224 211.550,190.000 204.400 C 189.776 197.250,189.388 189.330,189.137 186.800 C 188.481 180.189,188.671 177.484,190.036 173.975 C 191.372 170.542,203.324 168.047,209.032 170.011 M260.586 169.813 C 268.589 171.898,270.760 175.935,270.036 187.386 C 269.799 191.134,269.328 201.490,268.989 210.400 C 268.650 219.310,268.202 230.200,267.994 234.600 C 267.650 241.859,267.403 248.639,266.467 276.400 C 266.130 286.378,266.244 285.949,263.042 289.292 C 262.072 290.304,261.153 291.701,261.001 292.397 C 260.107 296.464,250.061 296.216,247.439 292.062 C 246.911 291.225,245.812 289.834,244.998 288.970 C 242.189 285.992,242.287 286.630,241.956 269.200 C 241.791 260.510,241.459 249.170,241.218 244.000 C 240.978 238.830,240.606 230.190,240.391 224.800 C 239.636 205.824,238.780 188.559,238.408 184.806 C 237.995 180.642,238.628 176.097,239.935 173.829 C 241.886 170.446,253.984 168.094,260.586 169.813 " stroke="none" fill="#958b6c" fill-rule="evenodd"></path><path id="path4" d="M198.443 83.218 C 196.817 83.644,194.927 84.347,194.243 84.781 C 191.765 86.352,190.162 87.091,188.200 87.567 C 187.100 87.834,185.300 88.669,184.200 89.421 C 183.068 90.196,180.949 91.117,179.318 91.545 C 177.693 91.970,175.903 92.747,175.215 93.326 C 174.543 93.891,172.476 94.816,170.621 95.382 C 168.766 95.948,166.693 96.878,166.015 97.449 C 165.337 98.020,163.145 98.995,161.144 99.617 C 159.144 100.239,157.123 101.109,156.653 101.549 C 155.695 102.449,152.524 103.978,151.587 103.991 C 151.250 103.996,149.630 104.798,147.987 105.772 C 146.144 106.866,143.927 107.790,142.200 108.184 C 140.559 108.559,138.719 109.309,137.756 109.997 C 136.852 110.642,135.123 111.539,133.914 111.992 C 132.705 112.444,130.914 113.345,129.934 113.995 C 128.953 114.644,127.016 115.529,125.627 115.961 C 124.239 116.393,122.089 117.365,120.851 118.120 C 119.613 118.876,117.653 119.803,116.496 120.181 C 115.339 120.558,113.539 121.452,112.496 122.167 C 111.453 122.882,109.329 123.852,107.776 124.322 C 106.223 124.792,104.238 125.694,103.366 126.325 C 102.494 126.957,100.256 127.982,98.392 128.603 C 87.200 132.330,83.600 136.510,88.150 140.495 C 92.933 144.686,93.682 145.191,96.291 145.986 C 99.730 147.034,100.173 147.394,101.185 149.962 L 102.015 152.069 100.808 155.839 C 98.951 161.636,99.455 163.578,104.132 168.640 C 105.737 170.378,107.633 172.655,108.344 173.700 C 109.056 174.745,109.787 175.600,109.968 175.600 C 110.559 175.600,114.882 181.292,115.256 182.563 C 115.719 184.132,116.263 189.866,116.798 198.800 C 117.248 206.319,118.252 217.453,118.653 219.382 L 118.900 220.564 119.614 219.682 C 120.007 219.197,120.555 218.800,120.833 218.800 C 121.110 218.800,121.672 218.497,122.081 218.127 C 123.872 216.506,126.641 223.814,127.564 232.600 C 128.368 240.247,127.477 259.122,126.193 261.624 C 123.870 266.153,122.671 267.058,121.116 265.457 C 118.761 263.033,118.552 263.402,117.897 271.142 C 116.714 285.113,117.358 287.960,121.248 285.975 C 123.080 285.041,123.538 285.200,125.938 287.599 C 130.473 292.134,123.214 300.234,116.369 298.277 C 113.258 297.387,110.718 297.753,109.854 299.216 C 109.053 300.573,107.439 301.574,104.090 302.792 C 100.774 303.998,100.033 305.044,99.940 308.654 C 99.866 311.499,100.564 313.604,101.811 314.302 C 102.443 314.656,100.034 315.623,95.170 316.966 C 92.355 317.743,91.742 318.444,91.393 321.282 C 91.077 323.848,92.050 326.108,93.693 326.630 C 94.936 327.024,93.481 327.714,89.600 328.571 C 82.208 330.202,81.262 330.721,80.752 333.422 C 80.307 335.783,80.807 336.379,84.140 337.462 C 86.042 338.080,95.406 338.144,206.600 338.299 L 327.000 338.466 328.362 337.533 C 332.407 334.763,330.176 328.000,325.217 328.000 C 324.083 328.000,322.355 327.799,321.377 327.553 L 319.600 327.105 319.590 324.653 C 319.565 318.394,317.183 315.208,312.520 315.195 C 308.705 315.184,308.779 315.280,309.059 310.655 C 309.420 304.685,308.238 302.366,304.157 301.038 C 301.686 300.234,300.784 299.321,299.438 296.261 C 298.873 294.975,297.711 293.085,296.858 292.061 C 292.260 286.548,292.539 288.344,291.969 260.600 C 291.506 238.039,291.691 227.258,293.179 190.157 L 293.518 181.715 294.943 179.757 C 299.318 173.748,300.456 172.355,303.070 169.802 C 309.342 163.677,310.198 160.139,306.831 154.255 L 305.579 152.065 306.315 149.935 C 307.121 147.602,307.762 147.199,312.858 145.815 C 315.024 145.227,317.382 143.639,320.602 140.600 C 323.170 138.176,322.806 134.112,319.893 132.684 C 316.585 131.063,312.789 129.449,310.600 128.734 C 309.280 128.303,307.300 127.347,306.200 126.611 C 305.100 125.875,302.760 124.773,301.000 124.162 C 299.240 123.551,297.260 122.655,296.600 122.170 C 295.940 121.685,294.052 120.806,292.404 120.218 C 290.755 119.629,288.598 118.612,287.609 117.957 C 286.620 117.302,284.597 116.397,283.113 115.946 C 281.629 115.495,280.006 114.807,279.507 114.418 C 277.957 113.206,267.906 108.476,265.800 107.967 C 263.568 107.427,262.301 106.851,260.187 105.417 C 259.397 104.881,257.817 104.169,256.676 103.835 C 255.534 103.501,253.633 102.603,252.451 101.838 C 251.270 101.074,248.872 99.987,247.123 99.423 C 245.375 98.859,243.341 97.938,242.605 97.377 C 241.869 96.815,239.785 95.901,237.974 95.345 C 236.164 94.789,234.001 93.883,233.169 93.332 C 232.336 92.781,230.276 91.905,228.591 91.385 C 226.906 90.865,224.930 89.984,224.201 89.428 C 223.472 88.872,221.553 87.984,219.937 87.456 C 218.322 86.928,216.100 85.942,215.000 85.265 C 210.570 82.540,204.091 81.739,198.443 83.218 M209.031 85.298 C 209.181 85.447,209.086 86.428,208.822 87.477 C 208.049 90.550,210.125 91.774,212.783 89.812 C 213.976 88.933,214.387 88.851,216.561 89.064 C 219.785 89.380,219.898 89.569,218.008 91.497 C 216.003 93.542,216.005 93.849,218.021 94.454 C 219.462 94.885,219.840 94.843,221.432 94.070 C 223.222 93.200,226.577 92.931,228.103 93.534 C 229.130 93.941,227.993 95.450,226.396 95.801 C 225.372 96.026,224.400 96.984,224.400 97.768 C 224.400 99.391,230.526 99.577,232.000 98.000 C 233.445 96.453,237.230 96.471,238.959 98.034 C 239.784 98.779,238.059 100.294,235.754 100.848 C 231.980 101.755,232.819 102.856,237.700 103.401 C 239.819 103.637,240.000 103.595,240.000 102.857 C 240.000 101.298,241.144 100.681,243.577 100.929 C 250.207 101.605,250.805 104.024,244.495 104.643 C 239.206 105.162,239.733 107.055,245.502 108.264 C 248.459 108.884,249.200 108.545,249.200 106.573 C 249.200 104.696,251.149 104.402,255.618 105.605 C 259.211 106.572,257.946 109.200,253.886 109.200 C 249.174 109.200,248.301 110.507,251.952 112.095 C 254.364 113.144,255.200 113.910,255.200 115.072 C 255.200 117.618,251.766 117.178,239.000 112.994 C 234.160 111.408,228.130 109.626,225.600 109.035 C 223.070 108.444,219.560 107.525,217.800 106.993 C 208.244 104.102,199.160 104.192,190.400 107.266 C 188.530 107.922,184.795 108.988,182.100 109.634 C 179.405 110.281,176.435 111.163,175.500 111.594 C 173.150 112.677,163.633 116.130,160.000 117.217 C 158.350 117.711,156.106 118.562,155.014 119.108 C 153.921 119.654,151.561 120.504,149.769 120.997 C 147.977 121.490,145.991 122.263,145.356 122.714 C 142.427 124.791,135.477 125.664,135.281 123.979 C 135.118 122.577,136.146 121.763,139.430 120.696 C 141.452 120.040,142.319 119.538,142.671 118.821 C 143.209 117.726,145.088 116.643,147.200 116.209 C 152.228 115.176,151.601 113.139,146.300 113.286 L 142.200 113.400 142.076 114.471 C 141.897 116.018,141.184 116.427,137.954 116.832 C 134.695 117.241,133.885 116.909,134.080 115.242 C 134.207 114.151,134.403 114.058,138.400 113.180 C 140.911 112.629,141.600 112.200,141.600 111.190 C 141.600 110.273,143.339 109.667,146.930 109.333 C 150.128 109.036,150.947 109.563,150.530 111.649 C 150.299 112.807,152.336 113.475,152.970 112.449 C 153.089 112.256,153.954 111.898,154.893 111.654 C 158.416 110.736,158.396 110.177,154.800 109.074 C 150.286 107.689,150.007 106.379,154.018 105.396 C 157.384 104.571,158.582 104.895,158.987 106.741 C 159.323 108.271,159.953 108.486,162.514 107.944 C 167.533 106.882,168.114 105.396,163.814 104.618 C 159.696 103.873,158.873 102.196,162.200 101.334 C 165.736 100.417,168.400 101.047,168.400 102.800 C 168.400 103.353,172.534 103.304,173.781 102.736 C 175.465 101.969,174.734 100.934,172.222 100.526 C 170.761 100.289,168.872 98.534,169.489 97.986 C 171.056 96.593,175.191 96.459,176.591 97.756 C 178.826 99.828,184.519 99.176,183.511 96.964 C 183.280 96.458,182.411 95.771,181.580 95.439 C 178.551 94.227,178.973 93.484,182.855 93.196 C 185.176 93.023,185.753 93.106,186.278 93.686 C 187.423 94.951,192.058 94.923,191.986 93.651 C 191.950 93.021,190.901 91.590,189.896 90.802 C 188.502 89.708,188.725 89.362,191.046 89.014 C 192.067 88.861,193.130 88.648,193.408 88.542 C 193.685 88.435,194.517 88.869,195.256 89.506 C 197.123 91.116,197.711 91.247,199.148 90.373 C 200.648 89.461,200.677 89.102,199.431 86.923 L 198.472 85.245 199.736 85.065 C 201.584 84.802,208.714 84.981,209.031 85.298 M265.463 110.024 C 266.240 110.319,266.426 110.638,266.327 111.500 L 266.200 112.600 262.964 112.588 C 259.179 112.573,257.600 111.851,257.600 110.136 L 257.600 109.090 261.037 109.369 C 262.927 109.522,264.919 109.817,265.463 110.024 M271.049 113.395 C 274.417 113.843,276.432 116.199,274.184 117.061 C 273.345 117.383,268.811 116.473,267.700 115.760 C 266.215 114.806,267.031 112.413,268.649 112.979 C 268.896 113.065,269.976 113.252,271.049 113.395 M282.500 118.263 C 283.753 118.898,284.019 120.554,282.935 120.970 C 281.162 121.650,275.521 120.312,275.090 119.108 C 274.407 117.202,279.305 116.643,282.500 118.263 M133.356 118.229 C 133.983 119.864,132.829 120.589,128.939 121.006 C 125.147 121.412,123.242 119.671,125.900 118.229 C 127.482 117.370,133.026 117.371,133.356 118.229 M261.396 118.147 C 262.120 118.677,262.116 118.710,261.283 119.156 C 260.327 119.667,256.464 118.960,257.074 118.385 C 257.932 117.577,260.428 117.439,261.396 118.147 M213.699 121.600 C 226.238 121.977,234.671 122.808,239.800 124.174 C 240.900 124.467,244.050 125.191,246.800 125.784 C 251.418 126.778,253.037 127.305,257.400 129.237 C 258.280 129.626,260.080 130.259,261.400 130.643 L 263.800 131.340 262.002 131.873 C 253.351 134.438,163.776 135.134,152.400 132.724 C 147.124 131.607,146.999 131.460,150.434 130.417 C 152.050 129.926,154.368 129.022,155.586 128.408 C 157.954 127.213,159.078 126.859,164.400 125.630 C 169.538 124.444,175.322 123.543,180.033 123.196 C 182.361 123.025,185.664 122.573,187.373 122.193 C 189.081 121.813,191.226 121.590,192.140 121.697 C 193.053 121.804,194.880 121.762,196.200 121.604 C 199.712 121.185,199.870 121.185,213.699 121.600 M291.495 122.441 C 292.690 122.953,293.200 123.411,293.200 123.972 C 293.200 124.982,294.335 125.600,296.191 125.600 C 299.531 125.600,302.351 126.854,302.482 128.397 L 302.600 129.800 305.200 130.063 C 309.063 130.454,310.723 131.053,310.874 132.112 C 311.006 133.044,311.006 133.044,316.296 134.038 C 320.435 134.816,320.521 136.780,316.531 139.429 C 315.319 140.233,313.849 141.580,313.264 142.422 C 312.073 144.137,311.108 144.486,307.911 144.357 C 304.337 144.212,303.687 145.317,303.340 152.126 L 303.112 156.600 304.756 158.181 C 306.569 159.925,306.740 160.561,305.705 161.705 C 305.322 162.128,304.557 163.297,304.005 164.303 C 302.893 166.327,302.452 166.654,300.394 166.979 C 298.929 167.210,297.990 168.637,296.827 172.400 C 296.589 173.170,295.469 174.880,294.337 176.200 C 290.995 180.097,290.642 181.726,290.009 196.154 C 289.798 200.969,289.558 204.975,289.477 205.056 C 289.290 205.243,288.616 202.213,287.628 196.750 C 286.227 189.004,282.749 180.800,280.865 180.800 C 277.601 180.800,276.159 183.993,274.992 193.800 C 274.652 196.660,274.022 201.700,273.594 205.000 C 272.138 216.208,271.450 246.561,271.997 275.400 C 272.220 287.135,272.302 286.732,268.748 291.492 C 267.889 292.642,267.000 294.082,266.773 294.692 C 264.518 300.728,263.147 301.353,252.730 301.094 C 241.613 300.819,240.455 300.280,238.336 294.400 C 235.829 287.442,235.485 285.283,235.759 278.200 C 236.727 253.174,236.333 219.844,235.015 215.352 C 234.232 212.683,232.981 206.121,231.974 199.400 C 231.130 193.774,229.402 186.992,227.934 183.551 L 227.145 181.701 225.015 182.951 L 222.886 184.200 222.264 187.400 C 221.921 189.160,221.450 192.310,221.215 194.400 C 220.981 196.490,220.333 202.250,219.775 207.200 C 218.405 219.354,217.794 245.809,218.360 268.499 C 218.828 287.250,218.656 288.576,215.251 292.495 C 214.627 293.213,213.820 294.700,213.457 295.800 C 211.800 300.828,210.899 301.259,202.059 301.242 C 191.996 301.223,190.326 300.354,188.255 294.060 C 186.084 287.461,185.840 285.076,186.364 275.546 C 187.437 256.040,187.278 234.035,185.939 216.600 C 185.521 211.160,185.295 210.041,183.516 204.608 C 182.242 200.719,181.274 196.788,180.757 193.408 C 179.029 182.123,178.141 180.661,173.735 181.843 C 172.603 182.147,172.218 184.355,171.179 196.511 C 170.742 201.620,170.112 208.950,169.778 212.800 C 168.538 227.114,168.316 235.760,168.637 257.200 C 169.103 288.313,169.175 285.411,167.874 288.200 C 167.258 289.520,166.285 291.091,165.712 291.691 C 165.138 292.290,163.933 294.270,163.034 296.091 C 160.600 301.020,156.884 302.115,146.952 300.829 C 139.056 299.807,138.135 299.005,135.386 290.758 L 133.480 285.040 133.739 278.220 C 133.882 274.469,134.198 269.420,134.441 267.000 C 135.485 256.638,134.759 227.303,133.204 217.000 C 132.521 212.479,132.010 206.923,131.619 199.763 C 130.758 184.023,127.980 178.984,120.639 179.847 C 118.786 180.065,118.400 180.005,118.400 179.501 C 118.400 179.167,117.676 178.287,116.790 177.546 C 111.687 173.278,111.420 172.965,110.873 170.612 C 110.098 167.279,112.287 165.515,117.112 165.585 C 118.371 165.603,134.520 165.507,153.000 165.372 C 226.881 164.831,296.142 164.861,297.063 165.433 C 297.796 165.889,297.960 165.882,298.150 165.385 C 298.642 164.104,297.998 163.591,296.258 163.875 C 293.934 164.255,293.919 164.255,288.800 163.714 C 286.270 163.447,279.769 163.023,274.354 162.774 C 265.957 162.386,259.715 162.332,236.400 162.446 C 227.769 162.488,212.557 162.073,209.405 161.709 C 206.765 161.405,204.182 161.430,199.678 161.804 C 194.754 162.213,193.171 162.215,191.645 161.812 C 190.216 161.435,188.310 161.400,183.972 161.672 C 176.552 162.137,175.914 162.134,172.149 161.629 C 169.524 161.277,160.714 161.176,136.200 161.216 C 126.772 161.232,112.824 160.862,112.374 160.584 C 111.452 160.014,114.400 159.251,115.740 159.713 C 117.157 160.202,117.879 160.206,148.200 159.921 C 164.799 159.764,173.677 159.533,175.048 159.221 C 176.576 158.874,178.730 158.865,183.532 159.183 C 187.447 159.443,190.640 159.471,191.684 159.255 C 192.628 159.059,195.740 158.981,198.600 159.082 C 207.587 159.400,208.536 159.387,211.200 158.903 C 213.874 158.418,229.054 158.815,229.992 159.395 C 230.233 159.544,232.179 159.391,234.316 159.054 C 236.452 158.717,239.010 158.333,240.000 158.201 C 240.990 158.069,242.223 157.728,242.741 157.444 C 243.541 157.005,243.898 157.038,245.126 157.664 C 246.618 158.425,252.958 158.667,255.178 158.047 C 255.715 157.897,257.515 158.022,259.178 158.324 C 264.258 159.248,272.568 159.115,275.115 158.069 C 276.966 157.308,278.013 157.197,283.515 157.176 C 286.972 157.163,290.678 157.008,291.750 156.832 C 293.114 156.608,294.016 156.667,294.750 157.029 C 298.268 158.761,299.888 157.660,299.173 154.024 C 298.533 150.772,296.400 150.029,296.400 153.058 C 296.400 153.322,295.918 154.111,295.329 154.812 L 294.258 156.084 290.429 155.764 C 288.323 155.588,284.315 155.496,281.523 155.560 L 276.447 155.676 274.523 153.888 C 270.068 149.747,264.238 149.339,261.234 152.959 C 259.987 154.462,256.733 155.162,252.124 154.919 C 248.631 154.735,247.336 154.824,245.726 155.358 C 243.359 156.144,241.152 155.546,237.326 153.081 C 232.363 149.884,231.013 149.787,228.363 152.437 L 226.747 154.053 221.473 154.441 C 218.573 154.655,214.949 154.936,213.420 155.066 L 210.639 155.303 208.346 152.752 L 206.052 150.200 204.048 152.322 L 202.044 154.444 200.048 153.851 C 198.421 153.368,197.696 153.346,196.126 153.729 C 194.965 154.013,190.913 154.200,185.930 154.200 L 177.661 154.200 175.222 152.480 C 171.646 149.959,169.851 149.835,165.972 151.842 C 163.040 153.359,162.927 153.382,157.001 153.678 C 153.701 153.843,150.346 154.090,149.547 154.227 C 146.716 154.713,144.008 153.781,141.800 151.562 L 139.800 149.551 137.400 149.729 C 134.912 149.913,129.829 151.512,128.285 152.598 C 127.566 153.103,126.686 153.173,123.600 152.968 C 119.894 152.722,119.742 152.747,117.459 153.958 C 115.240 155.136,114.886 155.200,110.599 155.200 L 106.080 155.200 105.656 153.300 C 105.422 152.255,105.039 150.074,104.805 148.453 C 104.152 143.946,103.270 142.892,100.754 143.613 C 98.222 144.339,97.637 144.145,96.804 142.300 C 95.726 139.914,95.327 139.517,92.478 138.004 C 88.818 136.061,88.646 135.448,91.504 134.534 C 94.736 133.501,96.636 133.723,97.413 135.224 C 97.976 136.313,98.186 136.400,100.264 136.400 C 105.876 136.400,107.395 134.185,101.882 134.040 C 100.402 134.001,98.400 132.617,98.400 131.634 C 98.400 131.006,101.419 130.347,103.680 130.480 C 105.666 130.597,105.739 130.644,106.269 132.181 C 106.992 134.279,107.235 134.387,111.233 134.394 L 114.666 134.400 115.938 135.983 C 117.935 138.468,118.218 138.504,138.000 138.765 C 162.845 139.093,277.351 138.536,284.400 138.053 C 288.248 137.789,291.613 137.293,294.400 136.580 C 298.015 135.654,299.185 135.529,302.800 135.679 C 309.447 135.955,312.688 135.081,306.441 134.698 C 303.489 134.516,302.400 133.627,302.400 131.398 C 302.400 129.858,301.934 129.600,299.154 129.600 C 296.034 129.600,292.800 127.949,292.800 126.356 C 292.800 125.631,292.553 125.553,288.675 125.043 C 285.564 124.634,282.905 122.524,284.363 121.623 C 285.127 121.151,289.714 121.677,291.495 122.441 M123.979 122.174 C 124.719 123.066,123.828 124.299,122.095 124.780 C 119.813 125.414,116.400 125.326,116.400 124.633 C 116.400 124.321,116.300 123.804,116.177 123.485 C 115.629 122.057,122.872 120.841,123.979 122.174 M135.200 126.180 C 135.200 127.590,131.680 128.704,128.912 128.169 C 126.390 127.682,126.423 126.857,129.000 125.943 C 132.165 124.820,135.200 124.936,135.200 126.180 M115.806 126.420 C 116.572 128.832,110.931 130.750,108.471 128.913 C 106.439 127.396,107.278 126.495,111.190 125.990 C 115.074 125.489,115.524 125.531,115.806 126.420 M123.828 130.845 C 124.291 131.594,123.107 132.013,120.832 131.904 C 118.384 131.787,117.585 130.949,119.676 130.691 C 122.331 130.364,123.559 130.409,123.828 130.845 M107.726 158.451 C 109.951 159.601,110.090 159.992,108.799 161.463 C 108.146 162.206,107.499 163.261,107.362 163.807 C 107.029 165.135,106.074 165.070,105.775 163.700 C 105.642 163.095,105.378 162.104,105.187 161.498 C 104.933 160.692,105.023 160.074,105.520 159.200 C 106.277 157.869,106.472 157.803,107.726 158.451 M178.017 229.000 C 179.108 241.042,178.073 273.481,176.722 269.600 C 176.530 269.050,175.595 268.014,174.643 267.297 C 173.014 266.069,172.898 265.851,172.657 263.538 C 172.323 260.350,172.327 235.453,172.662 228.133 L 172.921 222.467 174.485 221.762 C 175.345 221.374,176.257 220.684,176.512 220.228 C 177.053 219.262,177.226 220.268,178.017 229.000 M282.405 232.499 C 283.171 237.030,282.196 262.309,281.215 263.331 C 281.040 263.514,280.004 263.210,278.912 262.657 L 276.926 261.650 276.705 252.325 C 276.584 247.196,276.543 241.200,276.614 239.000 C 276.686 236.800,276.757 234.137,276.772 233.083 C 276.797 231.380,277.001 230.951,278.600 229.241 C 279.900 227.852,280.400 226.986,280.400 226.125 C 280.400 225.470,280.531 224.803,280.690 224.643 C 280.961 224.372,281.264 225.759,282.405 232.499 M226.456 231.564 C 227.346 232.285,227.409 232.632,227.554 237.664 C 228.018 253.716,227.228 260.729,224.877 261.451 C 224.505 261.565,223.912 261.810,223.559 261.996 C 222.543 262.530,221.863 240.857,222.657 233.259 C 222.946 230.490,224.353 229.862,226.456 231.564 M177.548 286.900 C 177.791 287.835,178.146 288.836,178.335 289.126 C 179.209 290.461,177.551 293.991,175.198 295.802 L 172.947 297.534 171.622 296.892 C 169.276 295.756,168.667 294.195,170.035 292.826 C 170.773 292.088,171.477 290.640,172.058 288.667 C 173.237 284.660,176.676 283.553,177.548 286.900 M227.764 288.028 C 229.417 292.158,224.856 297.465,221.239 295.620 C 219.235 294.598,219.094 294.091,220.461 292.827 C 221.072 292.262,221.900 290.824,222.302 289.630 C 223.046 287.419,223.432 287.150,226.857 286.452 C 226.998 286.424,227.406 287.133,227.764 288.028 M279.646 288.074 C 281.259 288.981,281.614 289.959,280.626 290.779 C 280.310 291.041,279.936 291.780,279.795 292.422 C 279.277 294.783,276.796 295.717,274.087 294.571 L 272.600 293.943 273.695 293.361 C 274.862 292.741,275.533 291.632,276.393 288.900 C 277.005 286.955,277.453 286.841,279.646 288.074 M286.400 304.570 C 302.094 304.685,306.658 305.077,306.560 306.300 C 306.538 306.575,306.493 307.391,306.460 308.112 C 306.360 310.294,305.443 310.456,291.200 310.822 C 267.104 311.440,140.843 311.227,129.687 310.549 L 125.975 310.323 125.000 308.400 C 124.106 306.637,124.082 306.453,124.713 306.202 C 125.988 305.693,198.373 304.448,226.336 304.454 C 241.592 304.458,254.192 304.340,254.336 304.194 C 254.481 304.047,258.290 304.046,262.800 304.192 C 267.310 304.338,277.930 304.508,286.400 304.570 M120.133 306.412 C 120.390 306.419,120.272 306.615,119.871 306.848 C 119.470 307.081,118.660 307.145,118.071 306.990 C 117.080 306.729,117.060 306.684,117.800 306.382 C 118.240 306.203,118.840 306.133,119.133 306.228 C 119.426 306.323,119.876 306.405,120.133 306.412 M315.000 321.000 L 315.000 323.400 254.800 323.400 C 188.032 323.400,164.965 323.200,166.200 322.632 C 167.012 322.258,174.020 322.090,198.800 321.851 C 206.390 321.778,213.320 321.600,214.200 321.456 C 215.080 321.313,223.720 321.186,233.400 321.174 C 243.080 321.163,251.450 321.153,252.000 321.152 C 266.837 321.133,280.054 320.808,282.784 320.395 C 285.542 319.978,287.330 319.980,292.440 320.403 C 298.604 320.914,301.791 320.819,305.253 320.018 C 306.214 319.796,308.080 319.361,309.400 319.052 C 310.720 318.743,312.520 318.515,313.400 318.545 L 315.000 318.600 315.000 321.000 M154.800 322.800 C 155.213 323.067,154.341 323.188,152.000 323.188 C 149.659 323.188,148.787 323.067,149.200 322.800 C 149.530 322.587,150.790 322.412,152.000 322.412 C 153.210 322.412,154.470 322.587,154.800 322.800 M327.347 333.465 C 327.488 334.491,327.519 335.414,327.418 335.516 C 327.219 335.714,256.152 335.747,168.000 335.589 C 136.397 335.533,114.664 335.352,116.400 335.160 C 118.050 334.978,124.530 334.806,130.800 334.779 C 137.070 334.752,144.360 334.703,147.000 334.669 C 149.640 334.636,153.330 334.665,155.200 334.736 C 157.070 334.806,166.880 334.734,177.000 334.577 C 200.538 334.211,199.163 334.223,203.600 334.341 C 205.690 334.396,216.580 334.251,227.800 334.019 C 239.020 333.786,250.192 333.711,252.626 333.852 C 255.060 333.993,260.280 333.891,264.226 333.626 C 269.369 333.280,272.533 333.259,275.400 333.553 C 278.060 333.825,282.348 333.834,288.200 333.582 C 294.000 333.332,298.369 333.340,301.014 333.606 C 306.534 334.161,324.084 333.087,325.800 332.089 C 327.003 331.390,327.071 331.451,327.347 333.465 M98.905 335.482 C 98.414 335.577,97.514 335.579,96.905 335.487 C 96.297 335.395,96.700 335.317,97.800 335.314 C 98.900 335.311,99.397 335.387,98.905 335.482 M103.305 335.482 C 102.814 335.577,101.914 335.579,101.305 335.487 C 100.697 335.395,101.100 335.317,102.200 335.314 C 103.300 335.311,103.797 335.387,103.305 335.482 " stroke="none" fill="#bcb395" fill-rule="evenodd"></path></g></svg>