<svg width="24" height="24" viewBox="0 0 24 24" fill="none" xmlns="http://www.w3.org/2000/svg">
<path d="M12 24C18.6274 24 24 18.6274 24 12C24 5.37258 18.6274 0 12 0C5.37258 0 0 5.37258 0 12C0 18.6274 5.37258 24 12 24Z" fill="#9AF4EF"/>
<g opacity="0.3">
<path d="M19.0958 2.32422C13.7841 3.74233 9.87085 8.58508 9.87085 14.3438C9.87085 18.1249 11.5598 21.5095 14.2218 23.7913C19.7872 22.749 24.0001 17.8679 24.0001 12C24.0001 8.02802 22.069 4.50831 19.0958 2.32422Z" fill="#FFFFF4"/>
</g>
<path d="M10.078 10.0328C9.55079 9.59659 8.78898 9.98429 8.37882 9.63273C7.83062 9.16285 7.70612 9.03994 7.20549 8.9116C6.74846 8.79441 6.33465 9.05954 5.89445 8.47257C5.57804 8.0507 5.27959 8.0934 4.89774 8.18715C4.5159 8.2809 4.39857 8.17712 3.88468 7.75187C3.54484 7.47062 3.23429 7.37101 2.53117 7.39445C1.93815 7.41423 1.47174 7.28279 1.03824 7.11816C0.621385 8.05276 0.319182 9.04932 0.152588 10.0918C1.85087 10.2701 2.36134 10.1926 3.02335 10.4062C3.74992 10.6405 10.8124 12.0702 10.9374 11.9999C11.0625 11.9296 11.1454 10.8138 11.1454 10.8138C10.4361 10.6856 10.4265 10.321 10.078 10.0328Z" fill="#36B294"/>
<g opacity="0.4">
<path d="M16.8125 14.3437C16.8125 16.9928 18.6858 19.2033 21.1796 19.7257C22.9385 17.638 24 14.9435 24 12C24 10.9668 23.8692 9.9642 23.6237 9.00762C23.2028 8.90445 22.7653 8.84375 22.3125 8.84375C19.2749 8.84375 16.8125 11.3061 16.8125 14.3437Z" fill="#FFFFF4"/>
</g>
<path d="M19.8048 12.9851C19.7737 12.9851 19.7429 12.979 19.7141 12.9671C19.6854 12.9552 19.6593 12.9378 19.6373 12.9158C19.6153 12.8938 19.5978 12.8677 19.5859 12.839C19.574 12.8102 19.5679 12.7794 19.5679 12.7483V10.1984C19.5679 10.1673 19.574 10.1365 19.5859 10.1078C19.5978 10.0791 19.6153 10.053 19.6373 10.031C19.6593 10.009 19.6854 9.99156 19.7141 9.97966C19.7429 9.96777 19.7737 9.96166 19.8048 9.96167C19.8359 9.96166 19.8667 9.96777 19.8954 9.97966C19.9242 9.99156 19.9503 10.009 19.9723 10.031C19.9943 10.053 20.0117 10.0791 20.0236 10.1078C20.0355 10.1365 20.0417 10.1673 20.0417 10.1984V12.7483C20.0417 12.7794 20.0356 12.8102 20.0236 12.839C20.0117 12.8677 19.9943 12.8938 19.9723 12.9158C19.9503 12.9378 19.9242 12.9552 19.8954 12.9671C19.8667 12.979 19.8359 12.9851 19.8048 12.9851Z" fill="#674447"/>
<path d="M21.2971 9.98145C21.2971 10.8056 20.629 11.4736 19.8049 11.4736C18.9808 11.4736 18.3127 10.8056 18.3127 9.98145C18.3127 9.15734 18.9808 6.62402 19.8049 6.62402C20.629 6.62407 21.2971 9.15734 21.2971 9.98145Z" fill="#43AB5F"/>
<path d="M19.8049 6.62402C19.598 6.62402 19.401 6.78391 19.2219 7.0361C19.9762 7.0361 20.5877 9.35473 20.5877 10.109C20.5877 10.7651 20.1246 11.3121 19.5078 11.4437C19.6038 11.4631 19.7031 11.4736 19.8049 11.4736C20.629 11.4736 21.297 10.8056 21.297 9.98145C21.2971 9.15734 20.629 6.62402 19.8049 6.62402Z" fill="#71BE63"/>
<g opacity="0.6">
<path d="M7.81152 6.63851C7.81152 6.14281 8.21338 5.7409 8.70913 5.7409C8.78395 5.7409 8.85548 5.75272 8.92495 5.76997C9.15918 5.51703 9.49124 5.3562 9.86315 5.3562C10.5713 5.3562 11.1454 5.93028 11.1454 6.63847H7.81152V6.63851Z" fill="#121212"/>
</g>
<g opacity="0.6">
<path d="M7.70142 3.04693C7.70142 2.60433 8.0602 2.24555 8.50279 2.24555C8.56959 2.24555 8.63348 2.2561 8.69549 2.27152C8.9046 2.04568 9.20109 1.9021 9.53315 1.9021C10.1654 1.9021 10.678 2.41468 10.678 3.04693H7.70142Z" fill="#121212"/>
</g>
<g opacity="0.6">
<path d="M18.75 3.96637C18.75 3.61092 18.4618 3.32273 18.1064 3.32273C18.0527 3.32273 18.0014 3.33122 17.9516 3.34359C17.7836 3.16223 17.5455 3.04688 17.2788 3.04688C16.771 3.04692 16.3594 3.45858 16.3594 3.96637H18.75Z" fill="#121212"/>
</g>
<path d="M12.3693 11.625C12.0538 11.625 12.0012 11.313 11.9703 11.25C11.625 10.5469 11.207 10.875 10.5212 10.875C9.98508 10.875 9.87548 10.0937 9.57623 10.125C9.27698 10.1563 8.79488 10.6562 8.37923 10.5C7.7828 10.2758 7.76409 9.9375 7.18219 9.75C6.66872 9.58453 6.23456 9.70312 5.98514 9.375C5.49956 8.73609 5.14973 9.43359 4.38909 9C3.61552 8.559 3.37495 9.375 2.79309 9.375C2.1818 9.375 2.39405 8.625 1.59605 8.625C1.14398 8.625 0.877547 9.17625 0.305766 9.33211C0.107953 10.1905 0 11.0826 0 12C0 12.4731 0.0308437 12.9388 0.0848437 13.3975C0.268359 13.5678 0.466781 13.7175 0.665766 13.803C1.37916 14.1094 16.3594 14.3726 16.3594 14.3726V13.125C15.2621 13.125 15.2621 12.375 14.3643 12.375C13.1548 12.375 13.267 11.625 12.3693 11.625Z" fill="#00A07D"/>
<path d="M5.01562 20.3226L16.125 14.3725L15.8438 13.7656C13.1538 13.7656 8.48597 11.0312 0 11.9999C0 14.989 1.09538 17.7206 2.90334 19.8213C4.03894 20.0926 5.01562 20.3226 5.01562 20.3226Z" fill="#94D75B"/>
<path d="M15.8439 13.7657C13.3772 13.7657 9.24475 11.4684 2.03247 11.8338C8.44474 11.8394 12.3771 14.7098 14.3907 14.7098L14.9532 14.4999L15.8606 13.8019L15.8439 13.7657Z" fill="#B0EB81"/>
<path d="M8.44979 5.6098C8.34184 5.6098 8.23984 5.63103 8.14206 5.66188C7.83236 5.21666 7.31856 4.92392 6.73515 4.92392C6.15175 4.92392 5.63795 5.21666 5.32825 5.66188C5.23046 5.63103 5.12846 5.6098 5.02051 5.6098C4.45234 5.6098 3.9917 6.07039 3.9917 6.63861H9.47861C9.47856 6.07044 9.01796 5.6098 8.44979 5.6098ZM16.5001 4.65627C16.382 4.65627 16.2705 4.67952 16.1635 4.71322C15.8249 4.22637 15.2631 3.90627 14.6251 3.90627C13.987 3.90627 13.4252 4.22637 13.0866 4.71322C12.9797 4.67952 12.8681 4.65627 12.7501 4.65627C12.1287 4.65627 11.6251 5.15994 11.6251 5.78127H17.6251C17.6251 5.15994 17.1214 4.65627 16.5001 4.65627ZM8.65811 3.90627C8.65811 3.24181 9.19675 2.70312 9.86125 2.70312C9.96151 2.70312 10.0574 2.71897 10.1506 2.74213C10.4645 2.40308 10.9096 2.1875 11.4081 2.1875C12.3573 2.1875 13.1269 2.957 13.1269 3.90627H8.65811Z" fill="#121212"/>
<path d="M1.0625 16.9353C2.94481 21.1002 7.13239 24.0001 12 24.0001C18.6274 24.0001 24 18.6275 24 12.0001C24 11.8749 23.9944 11.751 23.9906 11.6267C16.5699 11.6607 13.205 16.8751 1.0625 16.8751V16.9353Z" fill="#71BE63"/>
<path d="M16.3595 14.4997C16.3242 14.4997 16.2892 14.4928 16.2566 14.4793C16.224 14.4658 16.1943 14.446 16.1694 14.4211C16.1444 14.3961 16.1246 14.3665 16.1111 14.3339C16.0976 14.3013 16.0906 14.2664 16.0906 14.2311V11.3375C16.0906 11.1891 16.2109 11.0688 16.3595 11.0688C16.508 11.0688 16.6283 11.1891 16.6283 11.3375V14.2311C16.6283 14.2664 16.6213 14.3013 16.6078 14.3339C16.5943 14.3665 16.5745 14.3961 16.5495 14.4211C16.5246 14.446 16.4949 14.4658 16.4623 14.4793C16.4297 14.4928 16.3947 14.4997 16.3595 14.4997Z" fill="#674447"/>
<path d="M18.0525 11.0912C18.0525 12.0263 17.2944 12.7844 16.3593 12.7844C15.4241 12.7844 14.666 12.0263 14.666 11.0912C14.666 10.156 15.4241 7.28125 16.3593 7.28125C17.2944 7.28125 18.0525 10.156 18.0525 11.0912Z" fill="#43AB5F"/>
<path d="M16.3593 7.28125C16.1246 7.28125 15.901 7.4627 15.6978 7.74888H15.6978C16.5537 7.74888 17.2476 10.38 17.2476 11.2359C17.2476 11.9804 16.7222 12.6012 16.0221 12.7505C16.1311 12.7725 16.2438 12.7845 16.3593 12.7845C17.2944 12.7845 18.0526 12.0264 18.0526 11.0912C18.0526 10.156 17.2945 7.28125 16.3593 7.28125Z" fill="#71BE63"/>
<path d="M23.9716 12.7856C18.6975 12.8115 11.1366 20.1089 3.75635 20.7067C5.90603 22.7444 8.8038 24 12 24C18.3632 24 23.5665 19.0465 23.9716 12.7856Z" fill="#43AB5F"/>
<path d="M9.16603 21.3438C9.33863 21.3438 9.47855 21.2039 9.47855 21.0313C9.47855 20.8587 9.33863 20.7188 9.16603 20.7188C8.99343 20.7188 8.85352 20.8587 8.85352 21.0313C8.85352 21.2039 8.99343 21.3438 9.16603 21.3438Z" fill="#B0EB81"/>
<path d="M10.625 17.6687C10.7976 17.6687 10.9375 17.5288 10.9375 17.3562C10.9375 17.1836 10.7976 17.0437 10.625 17.0437C10.4524 17.0437 10.3125 17.1836 10.3125 17.3562C10.3125 17.5288 10.4524 17.6687 10.625 17.6687Z" fill="#94D75B"/>
<path d="M19.0813 13.5645C19.2539 13.5645 19.3938 13.4246 19.3938 13.252C19.3938 13.0794 19.2539 12.9395 19.0813 12.9395C18.9087 12.9395 18.7688 13.0794 18.7688 13.252C18.7688 13.4246 18.9087 13.5645 19.0813 13.5645Z" fill="#94D75B"/>
<path d="M13.864 21.8438C14.0366 21.8438 14.1765 21.7039 14.1765 21.5313C14.1765 21.3587 14.0366 21.2188 13.864 21.2188C13.6914 21.2188 13.5515 21.3587 13.5515 21.5313C13.5515 21.7039 13.6914 21.8438 13.864 21.8438Z" fill="#71BE63"/>
<path d="M15.5481 19.9063C15.7207 19.9063 15.8606 19.7664 15.8606 19.5938C15.8606 19.4212 15.7207 19.2812 15.5481 19.2812C15.3755 19.2812 15.2356 19.4212 15.2356 19.5938C15.2356 19.7664 15.3755 19.9063 15.5481 19.9063Z" fill="#B0EB81"/>
<path d="M12 20.3506C12.1726 20.3506 12.3125 20.2107 12.3125 20.0381C12.3125 19.8655 12.1726 19.7256 12 19.7256C11.8274 19.7256 11.6875 19.8655 11.6875 20.0381C11.6875 20.2107 11.8274 20.3506 12 20.3506Z" fill="#71BE63"/>
<path d="M6.75002 21.6563C6.92261 21.6563 7.06253 21.5164 7.06253 21.3438C7.06253 21.1712 6.92261 21.0312 6.75002 21.0312C6.57742 21.0312 6.4375 21.1712 6.4375 21.3438C6.4375 21.5164 6.57742 21.6563 6.75002 21.6563Z" fill="#71BE63"/>
<path d="M7.06252 19.0179C7.23511 19.0179 7.37503 18.8779 7.37503 18.7053C7.37503 18.5327 7.23511 18.3928 7.06252 18.3928C6.88992 18.3928 6.75 18.5327 6.75 18.7053C6.75 18.8779 6.88992 19.0179 7.06252 19.0179Z" fill="#B0EB81"/>
<path d="M12.3125 16.5C12.4851 16.5 12.625 16.3601 12.625 16.1875C12.625 16.0149 12.4851 15.875 12.3125 15.875C12.1399 15.875 12 16.0149 12 16.1875C12 16.3601 12.1399 16.5 12.3125 16.5Z" fill="#B0EB81"/>
<path d="M4.49904 18.8616C4.67164 18.8616 4.81155 18.7217 4.81155 18.5491C4.81155 18.3765 4.67164 18.2366 4.49904 18.2366C4.32644 18.2366 4.18652 18.3765 4.18652 18.5491C4.18652 18.7217 4.32644 18.8616 4.49904 18.8616Z" fill="#94D75B"/>
<path d="M17.7402 18.5491C17.9128 18.5491 18.0528 18.4092 18.0528 18.2366C18.0528 18.064 17.9128 17.9241 17.7402 17.9241C17.5677 17.9241 17.4277 18.064 17.4277 18.2366C17.4277 18.4092 17.5677 18.5491 17.7402 18.5491Z" fill="#B0EB81"/>
<path d="M20.7656 17.6687C20.9382 17.6687 21.0782 17.5288 21.0782 17.3562C21.0782 17.1836 20.9382 17.0437 20.7656 17.0437C20.593 17.0437 20.4531 17.1836 20.4531 17.3562C20.4531 17.5288 20.593 17.6687 20.7656 17.6687Z" fill="#B0EB81"/>
<path d="M14.9785 18.2366C15.1511 18.2366 15.291 18.0967 15.291 17.9241C15.291 17.7515 15.1511 17.6116 14.9785 17.6116C14.8059 17.6116 14.666 17.7515 14.666 17.9241C14.666 18.0967 14.8059 18.2366 14.9785 18.2366Z" fill="#71BE63"/>
<path d="M17.7402 20.635C17.9128 20.635 18.0528 20.4951 18.0528 20.3225C18.0528 20.1499 17.9128 20.01 17.7402 20.01C17.5677 20.01 17.4277 20.1499 17.4277 20.3225C17.4277 20.4951 17.5677 20.635 17.7402 20.635Z" fill="#71BE63"/>
<path d="M18.6875 16.8125C18.8601 16.8125 19 16.6726 19 16.5C19 16.3274 18.8601 16.1875 18.6875 16.1875C18.5149 16.1875 18.375 16.3274 18.375 16.5C18.375 16.6726 18.5149 16.8125 18.6875 16.8125Z" fill="#71BE63"/>
<path d="M20.7656 14.9976C20.9382 14.9976 21.0782 14.8577 21.0782 14.6851C21.0782 14.5125 20.9382 14.3726 20.7656 14.3726C20.593 14.3726 20.4531 14.5125 20.4531 14.6851C20.4531 14.8577 20.593 14.9976 20.7656 14.9976Z" fill="#71BE63"/>
</svg>
