<svg width="24" height="24" viewBox="0 0 24 24" fill="none" xmlns="http://www.w3.org/2000/svg">
<path d="M16.7567 12H21L17.7216 5.4448C17.6904 5.38237 17.6423 5.32987 17.5829 5.29318C17.5235 5.25649 17.4551 5.23706 17.3852 5.23706C17.3154 5.23706 17.247 5.25649 17.1876 5.29318C17.1282 5.32987 17.0801 5.38237 17.0489 5.4448L15.2636 9.01382L16.7567 12ZM8.73639 9.01382L8.16394 7.8689L8.02967 7.60038L6.95115 5.4448C6.91988 5.38237 6.87185 5.32987 6.81244 5.29318C6.75303 5.25649 6.68458 5.23706 6.61475 5.23706C6.54493 5.23706 6.47648 5.25649 6.41707 5.29318C6.35766 5.32987 6.30963 5.38237 6.27836 5.4448L4.9859 8.02972L4.78672 8.42661L3 12H7.24328L8.73639 9.01382Z" fill="#2ED03C"/>
<path d="M3 3.90748C3.00096 3.97258 3.01474 4.03686 3.04054 4.09663C3.06635 4.15641 3.10368 4.21052 3.1504 4.25587C3.19712 4.30122 3.25231 4.33692 3.31283 4.36094C3.37335 4.38496 3.43801 4.39681 3.50311 4.39584H4.24082C4.42157 4.3883 4.59255 4.31173 4.71854 4.1819C4.84452 4.05207 4.91592 3.87887 4.91803 3.69797C4.91669 3.60484 4.89699 3.51289 4.86005 3.42738C4.82312 3.34188 4.76968 3.2645 4.7028 3.19967C4.63592 3.13485 4.55691 3.08385 4.4703 3.04961C4.38368 3.01536 4.29116 2.99854 4.19803 3.0001C4.05927 2.99918 3.92321 3.03838 3.8062 3.11298C3.6892 3.18758 3.59624 3.2944 3.53852 3.42059H3.50311C3.37188 3.41862 3.24523 3.46876 3.15091 3.56004C3.0566 3.65131 3.00233 3.77625 3 3.90748ZM9.63935 4.64518C9.63838 4.71029 9.62461 4.77456 9.5988 4.83434C9.573 4.89412 9.53567 4.94823 9.48895 4.99358C9.44223 5.03893 9.38703 5.07463 9.32651 5.09864C9.26599 5.12266 9.20133 5.13452 9.13623 5.13354H8.39853C8.21777 5.126 8.0468 5.04943 7.92081 4.9196C7.79482 4.78977 7.72342 4.61657 7.72131 4.43567C7.72266 4.34267 7.74231 4.25084 7.77915 4.16543C7.81599 4.08002 7.8693 4.00271 7.93602 3.93791C8.00274 3.8731 8.08158 3.82207 8.16802 3.78774C8.25447 3.75341 8.34683 3.73644 8.43984 3.7378C8.5786 3.73689 8.71466 3.77609 8.83167 3.85069C8.94867 3.92529 9.04163 4.03211 9.09935 4.1583H9.13476C9.19986 4.15712 9.26456 4.16879 9.32515 4.19262C9.38575 4.21646 9.44105 4.252 9.48791 4.29721C9.53477 4.34243 9.57226 4.39643 9.59824 4.45613C9.62423 4.51584 9.63819 4.58008 9.63935 4.64518ZM14.2131 4.64518C14.2141 4.71029 14.2279 4.77456 14.2537 4.83434C14.2795 4.89412 14.3168 4.94823 14.3635 4.99358C14.4102 5.03893 14.4654 5.07463 14.526 5.09864C14.5865 5.12266 14.6511 5.13452 14.7162 5.13354H15.4539C15.6347 5.126 15.8057 5.04943 15.9317 4.9196C16.0576 4.78977 16.129 4.61657 16.1312 4.43567C16.1298 4.34254 16.1101 4.25059 16.0732 4.16509C16.0362 4.07958 15.9828 4.0022 15.9159 3.93738C15.849 3.87255 15.77 3.82156 15.6834 3.78731C15.5968 3.75307 15.5043 3.73624 15.4112 3.7378C15.2724 3.73689 15.1363 3.77609 15.0193 3.85069C14.9023 3.92529 14.8094 4.03211 14.7516 4.1583H14.7162C14.585 4.15632 14.4583 4.20647 14.364 4.29774C14.2697 4.38901 14.2154 4.51396 14.2131 4.64518ZM21 4.10666C21 4.26166 20.9391 4.41044 20.8303 4.52087C20.7215 4.63129 20.5737 4.6945 20.4187 4.69682H19.5615C19.3495 4.67969 19.1518 4.58303 19.0082 4.42622C18.8645 4.26942 18.7855 4.06408 18.7869 3.85141C18.7855 3.74097 18.8059 3.63134 18.8469 3.52878C18.8879 3.42623 18.9488 3.33276 19.0259 3.2537C19.103 3.17465 19.195 3.11156 19.2965 3.06805C19.398 3.02454 19.5071 3.00145 19.6175 3.0001C19.7807 3.00124 19.9399 3.0504 20.0753 3.14144C20.2107 3.23249 20.3163 3.36139 20.3789 3.51207H20.4202C20.5757 3.51478 20.7238 3.57877 20.8324 3.69011C20.941 3.80145 21.0012 3.95114 21 4.10666Z" fill="#6ACFEE"/>
<path d="M18.4919 21.0001L13.1804 11.8525H10.6722L5.5083 21.0001H18.4919Z" fill="#6E6458"/>
<path d="M12.0001 12.7378C11.9609 12.7378 11.9234 12.7222 11.8958 12.6946C11.8681 12.6669 11.8525 12.6294 11.8525 12.5902V12.0001C11.8525 11.9609 11.8681 11.9234 11.8958 11.8958C11.9234 11.8681 11.9609 11.8525 12.0001 11.8525C12.0392 11.8525 12.0767 11.8681 12.1044 11.8958C12.1321 11.9234 12.1476 11.9609 12.1476 12.0001V12.5902C12.1476 12.6294 12.1321 12.6669 12.1044 12.6946C12.0767 12.7222 12.0392 12.7378 12.0001 12.7378ZM12.0001 18.9345C11.9609 18.9345 11.9234 18.919 11.8958 18.8913C11.8681 18.8636 11.8525 18.8261 11.8525 18.787V17.7542C11.8525 17.715 11.8681 17.6775 11.8958 17.6499C11.9234 17.6222 11.9609 17.6066 12.0001 17.6066C12.0392 17.6066 12.0767 17.6222 12.1044 17.6499C12.1321 17.6775 12.1476 17.715 12.1476 17.7542V18.787C12.1476 18.8261 12.1321 18.8636 12.1044 18.8913C12.0767 18.919 12.0392 18.9345 12.0001 18.9345ZM12.0001 16.8689C11.9609 16.8689 11.9234 16.8534 11.8958 16.8257C11.8681 16.7981 11.8525 16.7605 11.8525 16.7214V15.6886C11.8525 15.6495 11.8681 15.6119 11.8958 15.5843C11.9234 15.5566 11.9609 15.5411 12.0001 15.5411C12.0392 15.5411 12.0767 15.5566 12.1044 15.5843C12.1321 15.6119 12.1476 15.6495 12.1476 15.6886V16.7214C12.1476 16.7605 12.1321 16.7981 12.1044 16.8257C12.0767 16.8534 12.0392 16.8689 12.0001 16.8689ZM12.0001 14.8034C11.9609 14.8034 11.9234 14.7878 11.8958 14.7601C11.8681 14.7325 11.8525 14.6949 11.8525 14.6558V13.623C11.8525 13.5839 11.8681 13.5464 11.8958 13.5187C11.9234 13.491 11.9609 13.4755 12.0001 13.4755C12.0392 13.4755 12.0767 13.491 12.1044 13.5187C12.1321 13.5464 12.1476 13.5839 12.1476 13.623V14.6558C12.1476 14.6949 12.1321 14.7325 12.1044 14.7601C12.0767 14.7878 12.0392 14.8034 12.0001 14.8034ZM12.0001 20.5575C11.9609 20.5575 11.9234 20.5419 11.8958 20.5142C11.8681 20.4866 11.8525 20.449 11.8525 20.4099V19.8198C11.8525 19.7806 11.8681 19.7431 11.8958 19.7154C11.9234 19.6878 11.9609 19.6722 12.0001 19.6722C12.0392 19.6722 12.0767 19.6878 12.1044 19.7154C12.1321 19.7431 12.1476 19.7806 12.1476 19.8198V20.4099C12.1476 20.449 12.1321 20.4866 12.1044 20.5142C12.0767 20.5419 12.0392 20.5575 12.0001 20.5575Z" fill="#FDF59A"/>
<path d="M16.4262 11.9999H7.57373L8.9016 9.34417L9.77357 7.60024L9.97275 7.20335L11.5868 3.97221C11.6252 3.89546 11.6841 3.83092 11.7571 3.78581C11.8301 3.74069 11.9142 3.7168 12 3.7168C12.0857 3.7168 12.1698 3.74069 12.2428 3.78581C12.3158 3.83092 12.3747 3.89546 12.4131 3.97221L13.7911 6.72975L13.918 6.99827L16.4262 11.9999Z" fill="#2ED03C"/>
<path d="M8.16389 7.86873L7.2329 8.57693C7.20698 8.59715 7.17504 8.60813 7.14217 8.60813C7.10929 8.60813 7.07735 8.59715 7.05143 8.57693L6.16618 7.87464L4.7793 8.42939L4.97848 8.03251L6.14405 7.57365C6.16839 7.5639 6.19489 7.56081 6.22083 7.5647C6.24676 7.56858 6.27118 7.57932 6.29159 7.59578L7.14585 8.2789L8.0311 7.61349L8.16389 7.86873ZM15.5572 8.42792L16.9441 7.86873L17.8219 8.57103C17.8478 8.59125 17.8798 8.60223 17.9127 8.60223C17.9455 8.60223 17.9775 8.59125 18.0034 8.57103L18.9344 7.86873L18.8001 7.60021L17.9149 8.26562L17.0621 7.58841C17.0417 7.57194 17.0173 7.56121 16.9913 7.55732C16.9654 7.55343 16.9389 7.55652 16.9145 7.56628L15.7563 8.02955L15.5572 8.42792ZM9.77356 7.60021L11.4791 6.91857L12.6255 7.83628C12.6515 7.85649 12.6834 7.86748 12.7163 7.86748C12.7491 7.86748 12.7811 7.85649 12.807 7.83628L13.9254 6.99529L13.7911 6.72677L12.7214 7.53087L11.5957 6.63087C11.5753 6.6144 11.5509 6.60367 11.5249 6.59978C11.499 6.59589 11.4725 6.59898 11.4482 6.60873L9.97274 7.1989L9.77356 7.60021Z" fill="#FDF59A"/>
<path d="M8.90165 8.68481L9.62017 7.24629L9.16427 6.33006C9.133 6.26762 9.08497 6.21512 9.02556 6.17844C8.96615 6.14175 8.8977 6.12231 8.82788 6.12231C8.75805 6.12231 8.6896 6.14175 8.63019 6.17844C8.57078 6.21512 8.52276 6.26762 8.49149 6.33006L8.1123 7.10612L8.90165 8.68481Z" fill="#2ED03C"/>
</svg>
