<?xml version="1.0" encoding="UTF-8"?>
<svg version="1.1" xmlns="http://www.w3.org/2000/svg" width="96" height="96">
<path d="M0 0 C1.54300781 -0.02513672 1.54300781 -0.02513672 3.1171875 -0.05078125 C6.53940083 0.36255101 8.38754537 1.2448481 11.125 3.3125 C12.90804312 7.12172847 13.40352804 9.36068606 12.125 13.3125 C11.98955739 14.64481305 11.86569397 15.97832697 11.75 17.3125 C11.34827329 20.73036532 10.68555278 22.85436933 8.125 25.3125 C7.465 25.3125 6.805 25.3125 6.125 25.3125 C6.77597656 26.35664063 7.42695313 27.40078125 8.09765625 28.4765625 C11.0264932 34.35492575 10.6719326 40.24862677 10.5625 46.6875 C10.56958984 47.85539062 10.57667969 49.02328125 10.58398438 50.2265625 C10.53737064 56.62340143 9.85513236 61.94750404 7.79077148 67.98974609 C6.6976352 71.80349697 6.80143344 75.50203655 6.9375 79.4375 C6.95103516 80.20320313 6.96457031 80.96890625 6.97851562 81.7578125 C7.01323839 83.60969322 7.0670127 85.46120171 7.125 87.3125 C8.300625 87.5909375 8.300625 87.5909375 9.5 87.875 C10.36625 88.349375 11.2325 88.82375 12.125 89.3125 C13.115 92.7775 13.115 92.7775 14.125 96.3125 C7.195 96.3125 0.265 96.3125 -6.875 96.3125 C-6.92398437 94.38664062 -6.97296875 92.46078125 -7.0234375 90.4765625 C-7.0984535 87.96352655 -7.17400182 85.45050644 -7.25 82.9375 C-7.2809375 81.66648437 -7.311875 80.39546875 -7.34375 79.0859375 C-7.38242188 77.87421875 -7.42109375 76.6625 -7.4609375 75.4140625 C-7.4923584 74.29338379 -7.5237793 73.17270508 -7.55615234 72.01806641 C-7.60911203 69.16539588 -7.60911203 69.16539588 -9.875 67.3125 C-10.07471533 64.87295839 -10.15488663 62.54953358 -10.140625 60.109375 C-10.14253845 59.39396545 -10.1444519 58.67855591 -10.14642334 57.94146729 C-10.14778554 56.42500457 -10.14408662 54.90853021 -10.13574219 53.39208984 C-10.12510532 51.08534022 -10.13560317 48.77938056 -10.1484375 46.47265625 C-10.14711468 44.99739413 -10.14454977 43.52213249 -10.140625 42.046875 C-10.14467346 41.3622821 -10.14872192 40.67768921 -10.15289307 39.97235107 C-10.11172273 35.70286884 -9.33331672 32.30530864 -7.875 28.3125 C-8.2197992 25.31329423 -9.44344926 23.15432996 -10.9375 20.5625 C-13.17851288 16.14614495 -13.51130149 13.24383651 -12.875 8.3125 C-9.60518737 2.22388338 -6.89817266 0.02580364 0 0 Z " fill="#6ED6A3" transform="translate(13.875,-0.3125)"/>
<path d="M0 0 C2.98100837 1.32063055 3.89231511 2.36539389 6 5 C6.4375 7.75 6.4375 7.75 6 10 C5.67 10.33 5.34 10.66 5 11 C5.03221997 12.41767858 5.10079556 13.83460852 5.1875 15.25 C5.2746949 19.83499843 4.05139263 21.55487929 1 25 C1.18809459 27.25713514 1.39545559 28.39545559 3 30 C3.11337072 32.46252639 3.16417634 34.89592406 3.16796875 37.359375 C3.17129715 38.10076721 3.17462555 38.84215942 3.17805481 39.60601807 C3.18312881 41.17972186 3.18546299 42.75343647 3.18530273 44.32714844 C3.18747832 46.7260948 3.2055982 49.12457327 3.22460938 51.5234375 C3.22754545 53.05208176 3.22952881 54.58072821 3.23046875 56.109375 C3.23765427 56.82414001 3.24483978 57.53890503 3.25224304 58.27532959 C3.23372879 62.34991982 2.63147791 65.2948164 1 69 C0.64384905 71.30861767 0.64384905 71.30861767 0.5859375 73.64453125 C0.54726563 74.48564453 0.50859375 75.32675781 0.46875 76.19335938 C0.42234375 77.48983398 0.42234375 77.48983398 0.375 78.8125 C0.33632813 79.69615234 0.29765625 80.57980469 0.2578125 81.49023438 C0.16399216 83.65982972 0.08092674 85.82988547 0 88 C0.78375 88.103125 1.5675 88.20625 2.375 88.3125 C5 89 5 89 7 92 C7 93.32 7 94.64 7 96 C0.4 96 -6.2 96 -13 96 C-13.03738281 94.08574219 -13.07476562 92.17148438 -13.11328125 90.19921875 C-13.17892726 87.69529245 -13.24537506 85.19138709 -13.3125 82.6875 C-13.33505859 81.42486328 -13.35761719 80.16222656 -13.38085938 78.86132812 C-13.41630859 77.65283203 -13.45175781 76.44433594 -13.48828125 75.19921875 C-13.51446533 74.08377686 -13.54064941 72.96833496 -13.56762695 71.8190918 C-13.70986227 68.98401527 -13.70986227 68.98401527 -15.51147461 67.55029297 C-17.94246374 65.01842796 -17.35321228 62.40601801 -17.328125 58.99609375 C-17.32625183 58.31700455 -17.32437866 57.63791534 -17.32244873 56.93824768 C-17.31573521 55.50508705 -17.30183441 54.07194454 -17.28125 52.63891602 C-17.25006455 50.44204737 -17.24027515 48.2458963 -17.234375 46.04882812 C-17.16378309 35.32756618 -17.16378309 35.32756618 -16 33 C-15.34 33 -14.68 33 -14 33 C-13.42896309 27.79461464 -13.42896309 27.79461464 -15.375 23.3125 C-16.179375 22.6628125 -16.179375 22.6628125 -17 22 C-19.64423314 17.40738454 -19.83040619 12.14687398 -19 7 C-14.73916796 -0.8880831 -8.16169044 -0.9458209 0 0 Z " fill="#FCD0A2" transform="translate(53,0)"/>
<path d="M0 0 C5.48742966 0.05226123 8.4056176 0.4056176 12.3125 4.3125 C13.53850107 7.66356958 13.45014556 8.89956332 12.3125 12.3125 C12.18941396 13.74850375 12.08696461 15.18635685 12 16.625 C11.54793447 21.23606838 10.17145323 23.71575239 7.3125 27.3125 C7.79928223 28.00384033 8.28606445 28.69518066 8.78759766 29.4074707 C10.57260334 32.80801226 10.69944163 34.97059148 10.7109375 38.79296875 C10.71673828 40.6637207 10.71673828 40.6637207 10.72265625 42.57226562 C10.71105469 43.86841797 10.69945313 45.16457031 10.6875 46.5 C10.69910156 47.77681641 10.71070312 49.05363281 10.72265625 50.36914062 C10.70195436 57.08000343 10.17995151 62.72548444 7.98046875 69.06274414 C6.9030759 72.69146311 6.98613641 76.18462237 7.125 79.9375 C7.13853516 80.65550781 7.15207031 81.37351562 7.16601562 82.11328125 C7.2006839 83.84669523 7.25445373 85.57971134 7.3125 87.3125 C8.7665625 87.869375 8.7665625 87.869375 10.25 88.4375 C11.260625 89.05625 12.27125 89.675 13.3125 90.3125 C13.6425 92.2925 13.9725 94.2725 14.3125 96.3125 C7.7125 96.3125 1.1125 96.3125 -5.6875 96.3125 C-5.74357422 93.69248047 -5.74357422 93.69248047 -5.80078125 91.01953125 C-5.86644406 88.72133281 -5.93289129 86.42315668 -6 84.125 C-6.02255859 82.97451172 -6.04511719 81.82402344 -6.06835938 80.63867188 C-6.10380859 79.52685547 -6.13925781 78.41503906 -6.17578125 77.26953125 C-6.20196533 76.24835205 -6.22814941 75.22717285 -6.25512695 74.17504883 C-6.50358004 71.25207725 -6.50358004 71.25207725 -8.19458008 68.890625 C-10.16191839 65.49322637 -10.07546787 63.01487684 -10.0859375 59.10546875 C-10.08880768 58.42124344 -10.09167786 57.73701813 -10.09463501 57.03205872 C-10.09666911 55.58899098 -10.09118506 54.14589526 -10.07861328 52.70288086 C-10.06262269 50.51677261 -10.07844365 48.33253375 -10.09765625 46.14648438 C-10.1055721 38.910411 -9.61241214 33.02896491 -6.6875 26.3125 C-8.33102999 23.65329757 -8.33102999 23.65329757 -10.6875 21.3125 C-12.85957921 15.83058581 -13.05087056 11.94776498 -11.6875 6.3125 C-9.1875 3.375 -9.1875 3.375 -6.6875 1.3125 C-4.90677258 -0.46822742 -2.41106123 0.05634706 0 0 Z " fill="#6ED6A2" transform="translate(80.6875,-0.3125)"/>
<path d="M0 0 C2.97 0 5.94 0 9 0 C9 2.97 9 5.94 9 9 C12.63 9 16.26 9 20 9 C20.25131739 18.42440211 20.25131739 18.42440211 19.03125 21.21875 C17.49954187 25.34972041 17.53155549 29.43873112 17.375 33.8125 C17.33632813 34.69615234 17.29765625 35.57980469 17.2578125 36.49023438 C17.16399216 38.65982972 17.08092674 40.82988547 17 43 C17.78375 43.103125 18.5675 43.20625 19.375 43.3125 C22 44 22 44 24 47 C24 48.32 24 49.64 24 51 C17.4 51 10.8 51 4 51 C3.96261719 49.08574219 3.92523438 47.17148438 3.88671875 45.19921875 C3.82107274 42.69529245 3.75462494 40.19138709 3.6875 37.6875 C3.66494141 36.42486328 3.64238281 35.16222656 3.61914062 33.86132812 C3.58369141 32.65283203 3.54824219 31.44433594 3.51171875 30.19921875 C3.48553467 29.08377686 3.45935059 27.96833496 3.43237305 26.8190918 C2.9398819 23.6080273 2.25072309 23.14720757 0 21 C-0.34057617 18.73168945 -0.34057617 18.73168945 -0.29296875 16.11328125 C-0.28330078 15.17548828 -0.27363281 14.23769531 -0.26367188 13.27148438 C-0.23853516 12.29501953 -0.21339844 11.31855469 -0.1875 10.3125 C-0.17396484 9.32443359 -0.16042969 8.33636719 -0.14648438 7.31835938 C-0.11112661 4.87867383 -0.05731962 2.43926837 0 0 Z " fill="#9BE4F8" transform="translate(36,45)"/>
<path d="M0 0 C1.54300781 -0.02513672 1.54300781 -0.02513672 3.1171875 -0.05078125 C6.53940083 0.36255101 8.38754537 1.2448481 11.125 3.3125 C12.90804312 7.12172847 13.40352804 9.36068606 12.125 13.3125 C12.0425 14.611875 11.96 15.91125 11.875 17.25 C11.47187345 20.42758573 11.02086642 21.4654462 9.125 24.25 C5.14390907 26.98700001 1.91427716 27.57481023 -2.875 27.3125 C-7.18205351 26.09352259 -9.10140612 24.42808604 -11.25 20.625 C-13.16204549 16.2465765 -13.48768571 13.06081421 -12.875 8.3125 C-9.60518737 2.22388338 -6.89817266 0.02580364 0 0 Z " fill="#FCD0A2" transform="translate(13.875,-0.3125)"/>
<path d="M0 0 C2.82687541 0.98648936 3.81340419 1.81340419 6 4 C7.22600107 7.35106958 7.13764556 8.58706332 6 12 C5.87722879 13.45688505 5.7746684 14.915552 5.6875 16.375 C5.34188549 19.40653301 4.90605169 21.19606604 3.5625 24 C-0.33383152 27.04103924 -4.14508495 27.25309984 -9 27 C-13.00909523 25.76082511 -14.47325212 24.78103996 -16.8125 21.3125 C-18.79918424 15.77069659 -19.59014355 11.8946714 -17.8125 6.1875 C-13.60414071 -1.21340772 -7.87312629 -0.94603654 0 0 Z " fill="#FBD0A2" transform="translate(87,0)"/>
<path d="M0 0 C3.63 0 7.26 0 11 0 C10.24444444 10.45185185 10.24444444 10.45185185 8.96875 13.3125 C7.58228014 17.15883574 7.78669254 20.76054633 7.875 24.8125 C7.88853516 25.99489258 7.88853516 25.99489258 7.90234375 27.20117188 C7.92577496 29.13424666 7.96164162 31.0671638 8 33 C8.78375 33.185625 9.5675 33.37125 10.375 33.5625 C11.24125 34.036875 12.1075 34.51125 13 35 C13.66 37.31 14.32 39.62 15 42 C8.07 42 1.14 42 -6 42 C-6.13450006 37.56149803 -6.23390423 33.12703805 -6.3125 28.6875 C-6.35439453 27.42486328 -6.39628906 26.16222656 -6.43945312 24.86132812 C-6.45556641 23.65283203 -6.47167969 22.44433594 -6.48828125 21.19921875 C-6.51446533 20.08377686 -6.54064941 18.96833496 -6.56762695 17.8190918 C-6 15 -6 15 -3.51367188 13.29492188 C-2.68416016 12.86759766 -1.85464844 12.44027344 -1 12 C-0.18071284 9.0522993 -0.18071284 9.0522993 -0.1875 5.8125 C-0.13980469 4.72582031 -0.09210937 3.63914063 -0.04296875 2.51953125 C-0.02878906 1.68808594 -0.01460937 0.85664062 0 0 Z " fill="#945B52" transform="translate(13,54)"/>
<path d="M0 0 C3.63 0 7.26 0 11 0 C11.27984233 4.2909158 10.96000218 7.38650803 9.5 11.4375 C7.18085698 18.46025704 7.75546619 25.70021299 8 33 C8.969375 33.37125 9.93875 33.7425 10.9375 34.125 C11.948125 34.74375 12.95875 35.3625 14 36 C14.33 37.98 14.66 39.96 15 42 C8.4 42 1.8 42 -5 42 C-5.33 33.09 -5.66 24.18 -6 15 C-4.35 14.01 -2.7 13.02 -1 12 C-0.18071284 9.0522993 -0.18071284 9.0522993 -0.1875 5.8125 C-0.13980469 4.72582031 -0.09210938 3.63914063 -0.04296875 2.51953125 C-0.02878906 1.68808594 -0.01460938 0.85664062 0 0 Z " fill="#555057" transform="translate(80,54)"/>
<path d="M0 0 C0.90492187 0.10828125 0.90492187 0.10828125 1.828125 0.21875 C3.02695312 0.35796875 3.02695312 0.35796875 4.25 0.5 C5.03890625 0.5928125 5.8278125 0.685625 6.640625 0.78125 C9.26890397 1.06154619 9.26890397 1.06154619 13 1 C15.27505486 3.16439732 15.94050658 4.53582342 16.34057617 7.65722656 C16.32486572 8.64174805 16.30915527 9.62626953 16.29296875 10.640625 C16.28330078 11.71054687 16.27363281 12.78046875 16.26367188 13.8828125 C16.23853516 14.99398437 16.21339844 16.10515625 16.1875 17.25 C16.16719727 18.93996094 16.16719727 18.93996094 16.14648438 20.6640625 C16.11116001 23.44291281 16.05735401 26.22151707 16 29 C12.37 29 8.74 29 5 29 C5 26.03 5 23.06 5 20 C2.03 20 -0.94 20 -4 20 C-4.02698189 18.37509046 -4.04638757 16.75005367 -4.0625 15.125 C-4.07410156 14.22007813 -4.08570313 13.31515625 -4.09765625 12.3828125 C-4 10 -4 10 -3 8 C-2.34 8 -1.68 8 -1 8 C-1.020625 7.05125 -1.04125 6.1025 -1.0625 5.125 C-1 2 -1 2 0 0 Z " fill="#554E56" transform="translate(40,25)"/>
<path d="M0 0 C1.54300781 -0.02513672 1.54300781 -0.02513672 3.1171875 -0.05078125 C6.5447466 0.36319667 8.39293279 1.22584121 11.125 3.3125 C12.4375 6.5 12.4375 6.5 13.125 9.3125 C12.125 10.3125 12.125 10.3125 8.30859375 10.41015625 C6.72653318 10.40348089 5.14448841 10.39151875 3.5625 10.375 C2.75619141 10.37048828 1.94988281 10.36597656 1.11914062 10.36132812 C-0.87893756 10.34950518 -2.87697783 10.33156914 -4.875 10.3125 C-5.1740625 11.26382812 -5.473125 12.21515625 -5.78125 13.1953125 C-6.81419684 16.139211 -7.42364491 17.47398368 -9.875 19.3125 C-10.535 19.3125 -11.195 19.3125 -11.875 19.3125 C-13.11633624 15.58849129 -13.41611486 12.18074 -12.875 8.3125 C-9.60518737 2.22388338 -6.89817266 0.02580364 0 0 Z " fill="#574F56" transform="translate(13.875,-0.3125)"/>
<path d="M0 0 C5.48742966 0.05226123 8.4056176 0.4056176 12.3125 4.3125 C13.25 7 13.25 7 13.3125 9.3125 C11.52280215 11.10219785 9.11850819 10.38062985 6.73706055 10.40039062 C0.15525626 10.23637086 0.15525626 10.23637086 -5.53125 12.8984375 C-6.66329262 15.02352449 -6.66329262 15.02352449 -7.6875 18.3125 C-8.6775 18.6425 -9.6675 18.9725 -10.6875 19.3125 C-12.73779428 15.45312253 -12.95468461 12.46562541 -12.30859375 8.24609375 C-11.29464991 5.08947614 -9.18659606 3.37425425 -6.6875 1.3125 C-4.90677258 -0.46822742 -2.41106123 0.05634706 0 0 Z " fill="#564F56" transform="translate(80.6875,-0.3125)"/>
<path d="M0 0 C2.98100837 1.32063055 3.89231511 2.36539389 6 5 C6 6.65 6 8.3 6 10 C-2.415 10.495 -2.415 10.495 -11 11 C-11.99 12.98 -12.98 14.96 -14 17 C-16.1875 18.375 -16.1875 18.375 -18 19 C-19.86233425 15.27533151 -19.57130829 11.05504687 -19 7 C-14.77458638 -0.89900084 -8.13562977 -0.94280085 0 0 Z " fill="#564F56" transform="translate(53,0)"/>
<path d="M0 0 C3.63 0 7.26 0 11 0 C11 0.33 11 0.66 11 1 C9.35 1 7.7 1 6 1 C5.87625 2.19625 5.7525 3.3925 5.625 4.625 C5.35946736 7.1918155 4.91500962 9.2257557 4 11.65625 C2.67946403 16.07179214 2.54073431 20.28968401 2.375 24.875 C2.31699219 26.19371094 2.31699219 26.19371094 2.2578125 27.5390625 C2.16418966 29.69238793 2.08103541 31.84616414 2 34 C-0.64 34 -3.28 34 -6 34 C-6.14515677 30.89632503 -6.23400853 27.79351973 -6.3125 24.6875 C-6.3753418 23.36588867 -6.3753418 23.36588867 -6.43945312 22.01757812 C-6.4857416 19.58280411 -6.48760758 17.38744533 -6 15 C-3.53125 13.28125 -3.53125 13.28125 -1 12 C-0.18071284 9.0522993 -0.18071284 9.0522993 -0.1875 5.8125 C-0.13980469 4.72582031 -0.09210937 3.63914063 -0.04296875 2.51953125 C-0.02878906 1.68808594 -0.01460937 0.85664062 0 0 Z " fill="#A86A5D" transform="translate(13,54)"/>
<path d="M0 0 C2.97 0 5.94 0 9 0 C9.05787784 3.62493334 9.0935542 7.24974857 9.125 10.875 C9.14175781 11.90753906 9.15851562 12.94007812 9.17578125 14.00390625 C9.18222656 14.99003906 9.18867187 15.97617187 9.1953125 16.9921875 C9.20578613 17.90339355 9.21625977 18.81459961 9.22705078 19.75341797 C9 22 9 22 7 24 C3.70285207 23.67028521 2.3773161 23.3773161 0 21 C-0.22705078 18.84521484 -0.22705078 18.84521484 -0.1953125 16.2109375 C-0.18886719 15.26992188 -0.18242188 14.32890625 -0.17578125 13.359375 C-0.15902344 12.37453125 -0.14226563 11.3896875 -0.125 10.375 C-0.11597656 9.38242187 -0.10695312 8.38984375 -0.09765625 7.3671875 C-0.07404116 4.91121866 -0.04110799 2.45572832 0 0 Z " fill="#FCD1A4" transform="translate(36,45)"/>
<path d="M0 0 C2.97 0 5.94 0 9 0 C9.08078777 3.43796837 9.14039791 6.87404727 9.1875 10.3125 C9.22520508 11.77719727 9.22520508 11.77719727 9.26367188 13.27148438 C9.27817383 14.67817383 9.27817383 14.67817383 9.29296875 16.11328125 C9.31653442 17.40939331 9.31653442 17.40939331 9.34057617 18.73168945 C9 21 9 21 7.64575195 22.82104492 C6 24 6 24 3.375 23.75 C1 23 1 23 0 22 C-0.08700342 20.36527118 -0.10701063 18.72685945 -0.09765625 17.08984375 C-0.09443359 16.10048828 -0.09121094 15.11113281 -0.08789062 14.09179688 C-0.07951172 13.05087891 -0.07113281 12.00996094 -0.0625 10.9375 C-0.05798828 9.89271484 -0.05347656 8.84792969 -0.04882812 7.77148438 C-0.03699913 5.1809334 -0.02051689 2.59049441 0 0 Z " fill="#FDCFA1" transform="translate(4,45)"/>
<path d="M0 0 C2.97 0 5.94 0 9 0 C9.08078777 3.43796837 9.14039791 6.87404727 9.1875 10.3125 C9.22520508 11.77719727 9.22520508 11.77719727 9.26367188 13.27148438 C9.27817383 14.67817383 9.27817383 14.67817383 9.29296875 16.11328125 C9.31653442 17.40939331 9.31653442 17.40939331 9.34057617 18.73168945 C9 21 9 21 7.64575195 22.81713867 C6 24 6 24 3.375 23.8125 C1 23 1 23 0 21 C-0.08400529 19.40552536 -0.10727467 17.80759455 -0.09765625 16.2109375 C-0.09443359 15.26992188 -0.09121094 14.32890625 -0.08789062 13.359375 C-0.07951172 12.37453125 -0.07113281 11.3896875 -0.0625 10.375 C-0.05798828 9.38242187 -0.05347656 8.38984375 -0.04882812 7.3671875 C-0.03702145 4.9113984 -0.020554 2.45572896 0 0 Z " fill="#FED1A2" transform="translate(71,45)"/>
<path d="M0 0 C3.3 0 6.6 0 10 0 C10.25131739 9.42440211 10.25131739 9.42440211 9.03125 12.21875 C7.49954187 16.34972041 7.53155549 20.43873112 7.375 24.8125 C7.33632813 25.69615234 7.29765625 26.57980469 7.2578125 27.49023438 C7.16399216 29.65982972 7.08092674 31.82988547 7 34 C5.02 34 3.04 34 1 34 C0.91843563 31.14524694 0.85923628 28.29286435 0.8125 25.4375 C0.78736328 24.63763672 0.76222656 23.83777344 0.73632812 23.01367188 C0.6686763 17.4887725 1.61438968 13.96596435 4 9 C4.54448978 6.65119741 4.54448978 6.65119741 4.6875 4.5625 C4.790625 3.386875 4.89375 2.21125 5 1 C3.35 1 1.7 1 0 1 C0 0.67 0 0.34 0 0 Z " fill="#66D8F7" transform="translate(46,54)"/>
<path d="M0 0 C1.65 0 3.3 0 5 0 C4.88416889 1.54238266 4.75683428 3.08390272 4.625 4.625 C4.55539063 5.48351563 4.48578125 6.34203125 4.4140625 7.2265625 C4 10 4 10 3 12.78125 C1.73868009 16.84112345 1.54692121 20.6486036 1.375 24.875 C1.31699219 26.050625 1.31699219 26.050625 1.2578125 27.25 C1.16433378 29.16631367 1.08111505 31.08312319 1 33 C-0.65 33 -2.3 33 -4 33 C-4.0582253 29.91674642 -4.09367134 26.83363495 -4.125 23.75 C-4.14175781 22.87730469 -4.15851563 22.00460938 -4.17578125 21.10546875 C-4.18222656 20.26113281 -4.18867187 19.41679688 -4.1953125 18.546875 C-4.20578613 17.77182617 -4.21625977 16.99677734 -4.22705078 16.19824219 C-3.97138938 13.72299993 -3.18645465 12.16764813 -2 10 C-1.57336714 8.26186612 -1.19923141 6.51011335 -0.875 4.75 C-0.70742187 3.85796875 -0.53984375 2.9659375 -0.3671875 2.046875 C-0.24601562 1.37140625 -0.12484375 0.6959375 0 0 Z " fill="#433F43" transform="translate(86,55)"/>
<path d="M0 0 C2.77141717 -0.08089542 5.54047819 -0.14044062 8.3125 -0.1875 C9.09818359 -0.21263672 9.88386719 -0.23777344 10.69335938 -0.26367188 C11.45068359 -0.27333984 12.20800781 -0.28300781 12.98828125 -0.29296875 C14.03302612 -0.31653442 14.03302612 -0.31653442 15.09887695 -0.34057617 C17.66474648 0.11908583 18.46890835 0.90582682 20 3 C20.33 4.65 20.66 6.3 21 8 C14.07 8 7.14 8 0 8 C0 5.36 0 2.72 0 0 Z " fill="#554E55" transform="translate(7,88)"/>
<path d="M0 0 C0.33 1.98 0.66 3.96 1 6 C-5.6 6 -12.2 6 -19 6 C-19 3.36 -19 0.72 -19 -2 C-5.56182011 -3.83147608 -5.56182011 -3.83147608 0 0 Z " fill="#96E4FA" transform="translate(94,90)"/>
<path d="M0 0 C2.77186988 -0.10787818 5.53955537 -0.18723327 8.3125 -0.25 C9.09818359 -0.28351563 9.88386719 -0.31703125 10.69335938 -0.3515625 C16.47926101 -0.45004593 16.47926101 -0.45004593 19.04296875 1.765625 C20 4 20 4 20 8 C13.4 8 6.8 8 0 8 C0 5.36 0 2.72 0 0 Z " fill="#AA695E" transform="translate(40,88)"/>
<path d="M0 0 C2.76780403 0.18452027 3.78298198 0.75265175 5.62109375 2.84765625 C7.70669821 7.61559619 7.315741 12.17299528 7.1875 17.3125 C7.17396484 18.33923828 7.16042969 19.36597656 7.14648438 20.42382812 C7.11123883 22.94975909 7.061967 25.4746066 7 28 C5.35 28 3.7 28 2 28 C1.98018066 27.35973877 1.96036133 26.71947754 1.93994141 26.05981445 C1.84436399 23.1436472 1.73481786 20.22816428 1.625 17.3125 C1.5940625 16.30509766 1.563125 15.29769531 1.53125 14.25976562 C1.49257812 13.28330078 1.45390625 12.30683594 1.4140625 11.30078125 C1.3826416 10.40528564 1.3512207 9.50979004 1.31884766 8.5871582 C0.97338887 5.78407493 0.15318532 3.56735469 -1 1 C-0.67 0.67 -0.34 0.34 0 0 Z " fill="#3FC3A3" transform="translate(84,26)"/>
<path d="M0 0 C4 0 4 0 5.73168945 1.64746094 C7.28413136 4.52702401 7.34499887 6.38007108 7.29296875 9.640625 C7.28330078 10.71054687 7.27363281 11.78046875 7.26367188 12.8828125 C7.23853516 13.99398437 7.21339844 15.10515625 7.1875 16.25 C7.17396484 17.37664063 7.16042969 18.50328125 7.14648438 19.6640625 C7.11115645 22.44319264 7.0618252 25.22135363 7 28 C5.35 28 3.7 28 2 28 C1.98018066 27.32420898 1.96036133 26.64841797 1.93994141 25.95214844 C1.84456762 22.88437956 1.73493835 19.81728002 1.625 16.75 C1.57859375 15.15478516 1.57859375 15.15478516 1.53125 13.52734375 C1.49257813 12.50253906 1.45390625 11.47773437 1.4140625 10.421875 C1.3826416 9.47924805 1.3512207 8.53662109 1.31884766 7.56542969 C0.99399023 4.95164571 0.32323838 3.25646966 -1 1 C-0.67 0.67 -0.34 0.34 0 0 Z " fill="#444044" transform="translate(49,26)"/>
<path d="M0 0 C3.32568057 1.51167299 3.77295492 3.56064044 5.0625 6.9375 C5.41633965 10.57220144 5.34637368 14.16512698 5.25 17.8125 C5.23646484 18.78703125 5.22292969 19.7615625 5.20898438 20.765625 C5.17381962 23.15682863 5.1246067 25.54686975 5.0625 27.9375 C3.4125 27.9375 1.7625 27.9375 0.0625 27.9375 C0.04791748 27.29723877 0.03333496 26.65697754 0.01831055 25.99731445 C-0.05641382 23.08095169 -0.15299293 20.16570313 -0.25 17.25 C-0.28383789 15.73889648 -0.28383789 15.73889648 -0.31835938 14.19726562 C-0.5236098 7.07724475 -0.5236098 7.07724475 -3.9375 0.9375 C-1.9375 -0.0625 -1.9375 -0.0625 0 0 Z " fill="#3FC3A3" transform="translate(18.9375,26.0625)"/>
<path d="M0 0 C2.4375 0.8125 2.4375 0.8125 4.4375 2.8125 C4.66455078 4.78369141 4.66455078 4.78369141 4.6328125 7.1640625 C4.62314453 8.44023438 4.62314453 8.44023438 4.61328125 9.7421875 C4.59652344 10.63164063 4.57976563 11.52109375 4.5625 12.4375 C4.55347656 13.3346875 4.54445313 14.231875 4.53515625 15.15625 C4.5115497 17.37526586 4.4786231 19.59375077 4.4375 21.8125 C4.1075 21.8125 3.7775 21.8125 3.4375 21.8125 C3.4375 18.8425 3.4375 15.8725 3.4375 12.8125 C0.4675 12.8125 -2.5025 12.8125 -5.5625 12.8125 C-5.64371924 11.20917209 -5.70179134 9.60465974 -5.75 8 C-5.78480469 7.10667969 -5.81960937 6.21335937 -5.85546875 5.29296875 C-5.5625 2.8125 -5.5625 2.8125 -4.2109375 0.9765625 C-2.5625 -0.1875 -2.5625 -0.1875 0 0 Z " fill="#6D6167" transform="translate(41.5625,32.1875)"/>
<path d="M0 0 C0.78375 0.2475 1.5675 0.495 2.375 0.75 C3.63737731 3.27475462 3.47356404 5.06200466 3.4375 7.875 C3.42847656 8.78507812 3.41945313 9.69515625 3.41015625 10.6328125 C3.39855469 11.33148438 3.38695313 12.03015625 3.375 12.75 C0.405 12.75 -2.565 12.75 -5.625 12.75 C-5.70586147 10.95906809 -5.76412702 9.16710372 -5.8125 7.375 C-5.84730469 6.37726562 -5.88210937 5.37953125 -5.91796875 4.3515625 C-5.77294922 3.06378906 -5.77294922 3.06378906 -5.625 1.75 C-2.625 -0.25 -2.625 -0.25 0 0 Z " fill="#6CD5A2" transform="translate(76.625,32.25)"/>
<path d="M0 0 C3.29714793 0.32971479 4.6226839 0.6226839 7 3 C7.1953125 5.3828125 7.1953125 5.3828125 7.125 8.125 C7.10695313 9.03507812 7.08890625 9.94515625 7.0703125 10.8828125 C7.04710937 11.58148438 7.02390625 12.28015625 7 13 C4.03 13 1.06 13 -2 13 C-2.05391993 11.20866022 -2.09275571 9.41686101 -2.125 7.625 C-2.14820313 6.62726562 -2.17140625 5.62953125 -2.1953125 4.6015625 C-2 2 -2 2 0 0 Z " fill="#45C6A3" transform="translate(6,32)"/>
<path d="M0 0 C1.98 0 3.96 0 6 0 C7.75693682 3.51387365 6.80108711 7.25944004 6 11 C4.5625 14 4.5625 14 2 16 C-1.33332204 16.69596834 -4.59996994 16.92862532 -8 17 C-7.37480469 16.53722656 -6.74960938 16.07445313 -6.10546875 15.59765625 C-3.51095334 13.62890522 -1.46473167 11.92946334 0 9 C0.06950541 7.45976004 0.08452357 5.91665012 0.0625 4.375 C0.05347656 3.55773437 0.04445313 2.74046875 0.03515625 1.8984375 C0.02355469 1.27195312 0.01195313 0.64546875 0 0 Z " fill="#FBBE89" transform="translate(86,10)"/>
<path d="M0 0 C1.98 0 3.96 0 6 0 C7.26913049 5.65339947 6.99071302 8.9833201 4 14 C-0.04597968 16.78723044 -3.1390407 17.34721138 -8 17 C-7.236875 16.443125 -6.47375 15.88625 -5.6875 15.3125 C-2.45093603 12.5275496 -0.19784801 10.30966051 0.1796875 5.90234375 C0.18663052 3.93399657 0.09995694 1.96581978 0 0 Z " fill="#FBC088" transform="translate(19,10)"/>
<path d="M0 0 C1.66611905 -0.042721 3.33382885 -0.04063832 5 0 C6.54983261 1.54983261 6.28132961 3.03668378 6.375 5.1875 C6.29879601 9.16915847 5.64259017 11.90763003 2.77734375 14.9140625 C-0.78612213 17.09130099 -4.92048085 16.98415721 -9 17 C-8.01 16.34 -7.02 15.68 -6 15 C-1.62160511 11.24159788 -1.62160511 11.24159788 0.09765625 6.0546875 C0.08605469 5.33539062 0.07445312 4.61609375 0.0625 3.875 C0.041875 2.59625 0.02125 1.3175 0 0 Z " fill="#FABA85" transform="translate(52,10)"/>
<path d="M0 0 C1.32 0 2.64 0 4 0 C4.08703823 3.43734063 4.14040272 6.87439837 4.1875 10.3125 C4.22520508 11.77719727 4.22520508 11.77719727 4.26367188 13.27148438 C4.27817383 14.67817383 4.27817383 14.67817383 4.29296875 16.11328125 C4.3086792 16.97735596 4.32438965 17.84143066 4.34057617 18.73168945 C4 21 4 21 2.66918945 22.80541992 C1 24 1 24 -2 24 C-1.505 22.515 -1.505 22.515 -1 21 C-0.85284801 19.37432921 -0.75278133 17.74413143 -0.68359375 16.11328125 C-0.64169922 15.17548828 -0.59980469 14.23769531 -0.55664062 13.27148438 C-0.51732422 12.29501953 -0.47800781 11.31855469 -0.4375 10.3125 C-0.39431641 9.32443359 -0.35113281 8.33636719 -0.30664062 7.31835938 C-0.20058346 4.87904454 -0.09852286 2.43962887 0 0 Z " fill="#FBBB85" transform="translate(76,45)"/>
<path d="M0 0 C1.32 0 2.64 0 4 0 C4.08703823 3.43734063 4.14040272 6.87439837 4.1875 10.3125 C4.22520508 11.77719727 4.22520508 11.77719727 4.26367188 13.27148438 C4.27817383 14.67817383 4.27817383 14.67817383 4.29296875 16.11328125 C4.3086792 16.97735596 4.32438965 17.84143066 4.34057617 18.73168945 C4 21 4 21 2.66918945 22.80541992 C1 24 1 24 -2 24 C-1.505 22.515 -1.505 22.515 -1 21 C-0.85284801 19.37432921 -0.75278133 17.74413143 -0.68359375 16.11328125 C-0.64169922 15.17548828 -0.59980469 14.23769531 -0.55664062 13.27148438 C-0.51732422 12.29501953 -0.47800781 11.31855469 -0.4375 10.3125 C-0.39431641 9.32443359 -0.35113281 8.33636719 -0.30664062 7.31835938 C-0.20058346 4.87904454 -0.09852286 2.43962887 0 0 Z " fill="#F7B984" transform="translate(9,45)"/>
<path d="M0 0 C1.32 0 2.64 0 4 0 C4 7.26 4 14.52 4 22 C2.35 22.33 0.7 22.66 -1 23 C-0.67 15.41 -0.34 7.82 0 0 Z " fill="#FEBD87" transform="translate(41,45)"/>
<path d="M0 0 C1.98 0.495 1.98 0.495 4 1 C4 4.63 4 8.26 4 12 C2.35 12 0.7 12 -1 12 C-1.02698189 10.37509046 -1.04638757 8.75005367 -1.0625 7.125 C-1.07410156 6.22007813 -1.08570313 5.31515625 -1.09765625 4.3828125 C-1 2 -1 2 0 0 Z " fill="#7A6C79" transform="translate(37,33)"/>
<path d="M0 0 C4.17582188 -0.33406575 6.58871916 -0.20564042 10.375 1.6875 C13 4 13 4 13.875 6.75 C13.936875 7.86375 13.936875 7.86375 14 9 C11 10 11 10 8 9 C7.731875 8.21625 7.46375 7.4325 7.1875 6.625 C5.57959413 3.07068177 3.51391738 2.45140066 0 1 C0 0.67 0 0.34 0 0 Z " fill="#444044" transform="translate(80,0)"/>
<path d="M0 0 C7.76785714 -0.66964286 7.76785714 -0.66964286 11.5 2.1875 C14 5 14 5 14.375 7.8125 C14.25125 8.534375 14.1275 9.25625 14 10 C11.625 9.8125 11.625 9.8125 9 9 C8.71125 8.21625 8.4225 7.4325 8.125 6.625 C6.82179009 3.58417688 6.29879806 3.40964759 3.375 2.1875 C2.26125 1.795625 1.1475 1.40375 0 1 C0 0.67 0 0.34 0 0 Z " fill="#464247" transform="translate(45,0)"/>
<path d="M0 0 C4.93436874 -0.29025698 8.15861604 -0.29261483 12 3 C13.3125 6.1875 13.3125 6.1875 14 9 C10.25 10.125 10.25 10.125 8 9 C7.7525 8.21625 7.505 7.4325 7.25 6.625 C5.5742673 3.10596134 3.51747412 2.45286974 0 1 C0 0.67 0 0.34 0 0 Z " fill="#444044" transform="translate(13,0)"/>
<path d="M0 0 C2.4375 0.375 2.4375 0.375 5 1 C6.26237731 3.52475462 6.09856404 5.31200466 6.0625 8.125 C6.05347656 9.03507812 6.04445313 9.94515625 6.03515625 10.8828125 C6.02355469 11.58148438 6.01195313 12.28015625 6 13 C4.68 13 3.36 13 2 13 C1.93941406 12.31292969 1.87882812 11.62585937 1.81640625 10.91796875 C1.73261719 10.01691406 1.64882812 9.11585937 1.5625 8.1875 C1.48128906 7.29417969 1.40007812 6.40085937 1.31640625 5.48046875 C1.06510233 2.87256441 1.06510233 2.87256441 0 0 Z " fill="#40C4A3" transform="translate(74,32)"/>
<path d="M0 0 C0.99 0.33 1.98 0.66 3 1 C3 4.63 3 8.26 3 12 C1.68 12 0.36 12 -1 12 C-1.02687279 10.18757948 -1.04633715 8.37504767 -1.0625 6.5625 C-1.07410156 5.55316406 -1.08570313 4.54382812 -1.09765625 3.50390625 C-1 1 -1 1 0 0 Z " fill="#6FD6A2" transform="translate(5,33)"/>
<path d="M0 0 C5.44585987 -0.36305732 5.44585987 -0.36305732 7.8125 1.1875 C9.27538036 3.42031739 9.64505955 5.37344067 10 8 C8.02 8 6.04 8 4 8 C3.566875 6.576875 3.566875 6.576875 3.125 5.125 C2.23174891 1.94788422 2.23174891 1.94788422 0 0 Z " fill="#493E49" transform="translate(18,88)"/>
<path d="M0 0 C4.84455959 1.58549223 4.84455959 1.58549223 7 3 C7.9375 6.1875 7.9375 6.1875 8 9 C6.35 9 4.7 9 3 9 C0 3.375 0 3.375 0 0 Z " fill="#65DDFA" transform="translate(87,87)"/>
<path d="M0 0 C2.8125 -0.25 2.8125 -0.25 6 0 C7.875 1.75 7.875 1.75 9 4 C9 5.32 9 6.64 9 8 C7.35 8 5.7 8 4 8 C3.71125 7.236875 3.4225 6.47375 3.125 5.6875 C2.03730987 2.84970692 2.03730987 2.84970692 0 0 Z " fill="#965F54" transform="translate(51,88)"/>
</svg>
