<svg width="24" height="24" viewBox="0 0 24 24" fill="none" xmlns="http://www.w3.org/2000/svg">
<g clip-path="url(#clip0_3359_4654)">
<path d="M12.8362 4.2526C12.5738 4.2526 12.3563 4.46635 12.3563 4.72885V3.40135C10.4025 3.6826 9.16875 1.9126 9.16875 1.9126C8.85 2.86885 7.89375 3.40135 7.89375 3.40135V4.72885C7.89375 4.46635 7.67625 4.2526 7.41375 4.2526C7.15125 4.2526 6.9375 4.46635 6.9375 4.72885V5.8501C6.9375 6.1126 7.15125 6.32635 7.41375 6.32635C7.67625 6.32635 7.89375 6.1126 7.89375 5.8501V5.7601C7.89375 6.3826 8.145 6.94885 8.55 7.36135C8.79375 7.60885 9.09375 7.8001 9.4275 7.9126C9.40875 8.17135 9.36375 8.43385 9.28125 8.6776C9.15375 9.0751 8.82 9.32635 8.4 9.49135C8.6175 9.6526 8.94375 10.1926 9.43875 10.3163C9.43875 10.3163 9.81375 12.1913 10.1888 12.9413C10.5638 12.1913 10.9388 10.3163 10.9388 10.3163C11.4338 10.1926 11.76 9.6526 11.9775 9.49135C11.5575 9.32635 11.2238 9.0751 11.0963 8.6776C11.01 8.41885 10.9613 8.14135 10.9462 7.8676C11.2313 7.75135 11.4863 7.57885 11.7 7.36135C12.1205 6.93449 12.3563 6.35932 12.3563 5.7601V5.8501C12.3563 6.1126 12.5738 6.32635 12.8362 6.32635C13.0987 6.32635 13.3125 6.1126 13.3125 5.8501V4.72885C13.3125 4.46635 13.0987 4.2526 12.8362 4.2526Z" fill="#FFD5C2"/>
<path d="M15.3224 14.31C15.1312 13.4812 14.7487 11.8275 14.5124 10.8112C14.4542 10.5534 14.3184 10.3196 14.1233 10.1412C13.9282 9.96289 13.6832 9.84859 13.4212 9.81371C12.9374 9.74996 12.4124 9.66746 11.9774 9.49121C11.7599 9.65246 11.4337 9.81746 10.9387 9.94121C10.9387 9.94121 10.5637 11.8162 10.1887 12.5662C9.81369 11.8162 9.43869 9.94121 9.43869 9.94121C8.94369 9.81746 8.61744 9.65246 8.39994 9.49121C7.96494 9.66746 7.43994 9.74996 6.95619 9.81371C6.69418 9.84859 6.44914 9.96289 6.25405 10.1412C6.05895 10.3196 5.92316 10.5534 5.86494 10.8112C5.62869 11.8275 5.24619 13.4812 5.05494 14.31C5.04215 14.368 5.04332 14.4282 5.05835 14.4856C5.07337 14.5431 5.10183 14.5961 5.14138 14.6404C5.18092 14.6847 5.23042 14.719 5.28581 14.7405C5.34119 14.7619 5.40087 14.7699 5.45994 14.7637L6.45744 14.6625L6.71244 18.6525V18.6562L6.77769 19.6387C6.98019 19.6537 7.55619 19.8562 7.55619 19.8562C7.78494 19.8112 8.02119 19.7662 8.26119 19.725C8.88369 19.6087 9.52869 19.4925 10.1062 19.3762C10.1212 19.3725 10.1324 19.3725 10.1437 19.3687C10.1662 19.365 10.1849 19.3612 10.2037 19.3575C10.8112 19.23 11.4337 19.1062 12.0487 19.1662C12.0899 19.1662 12.1312 19.1737 12.1724 19.1775C12.6262 19.2337 13.0537 19.395 13.4887 19.5375L13.4999 19.125L13.9199 14.6625L14.9174 14.7637C14.9765 14.7699 15.0362 14.7619 15.0916 14.7405C15.147 14.719 15.1965 14.6847 15.236 14.6404C15.2756 14.5961 15.304 14.5431 15.319 14.4856C15.3341 14.4282 15.3352 14.368 15.3224 14.31ZM15.3749 21.75V23.625H7.12494C7.12494 23.625 7.25244 22.2375 7.29369 21.75H14.0624H15.3749Z" fill="#6871D8"/>
<path d="M22.4862 20.8053L21.2299 19.8866C20.9187 19.6578 20.5924 19.4141 20.4124 19.0691C20.2587 18.7691 20.2287 18.4166 20.0824 18.1128C19.9962 17.9366 19.8687 17.7753 19.6962 17.6891C19.5237 17.5991 19.3024 17.5953 19.1449 17.7116C19.0662 17.7678 19.0137 17.8391 18.9762 17.9253C17.8999 17.8203 16.6688 18.5474 15.975 19.3762C15.5025 19.8299 14.6925 19.4737 14.055 19.3274C13.8638 19.2824 13.6763 19.2224 13.4888 19.1624C13.0538 19.0199 12.6263 18.8587 12.1725 18.8024C12.1313 18.7987 12.09 18.7912 12.0488 18.7912C11.4338 18.7312 10.8113 18.8549 10.2038 18.9824C10.185 18.9862 10.1663 18.9899 10.1438 18.9937C10.1325 18.9974 10.1213 18.9974 10.1063 19.0012C9.5288 19.1174 8.8838 19.2337 8.2613 19.3499C8.0213 19.3912 7.78505 19.4362 7.5563 19.4812H7.55255C7.35417 19.7846 7.3163 20.0486 7.2938 20.2499C7.24055 20.7251 7.18055 21.3472 7.6688 22.1249H15.375L18.2475 21.4087C18.2678 21.5456 18.4725 21.7499 18.5925 21.7499H22.74C22.7625 21.7499 22.7888 21.7499 22.8113 21.7537L22.815 21.2587C22.7697 21.1064 22.6099 20.8991 22.4862 20.8053Z" fill="#FFD5C2"/>
<path d="M12.3787 1.30876C12.0834 1.01186 11.7322 0.776468 11.3453 0.616192C10.9585 0.455916 10.5437 0.373941 10.1249 0.37501C9.17244 0.37501 8.31744 0.79126 7.73244 1.45501C7.52994 1.29751 7.31244 1.17376 7.06119 1.16251C6.61119 1.14751 6.24369 1.50376 5.95494 1.85251C5.64369 2.22376 5.33619 2.68876 5.45994 3.15376C5.54619 3.48001 5.84244 3.73126 6.17244 3.79876C6.43119 3.85126 6.70119 3.80251 6.93744 3.69001V5.10376C6.93744 4.84126 7.15119 4.62751 7.41369 4.62751C7.67619 4.62751 7.89369 4.84126 7.89369 5.10376V3.98139C7.89369 3.85951 7.95144 3.74439 8.05194 3.67539C8.26756 3.52689 8.65944 3.21789 8.94069 2.76714C9.06856 2.56201 9.35169 2.52414 9.52156 2.69626C9.97081 3.15076 10.8277 3.82014 11.9722 3.80626C12.022 3.80506 12.0715 3.8138 12.1179 3.83197C12.1643 3.85014 12.2066 3.87737 12.2424 3.91207C12.2781 3.94678 12.3066 3.98826 12.3262 4.03409C12.3457 4.07992 12.3559 4.12919 12.3562 4.17901V5.10376C12.3562 4.84126 12.5737 4.62751 12.8362 4.62751C13.0987 4.62751 13.3124 4.84126 13.3124 5.10376V3.56251C13.3124 2.68501 12.9562 1.88626 12.3787 1.30876Z" fill="#212647"/>
<path d="M8.70824 4.93954C8.66798 4.93959 8.62877 4.92668 8.59642 4.90271C8.56406 4.87875 8.54028 4.84502 8.52859 4.80649C8.5169 4.76796 8.51792 4.7267 8.53149 4.6888C8.54507 4.6509 8.57049 4.61837 8.60399 4.59604C8.62574 4.58179 9.13911 4.24766 9.66224 4.59604C9.68352 4.60932 9.70191 4.62674 9.71634 4.64727C9.73076 4.66779 9.74092 4.691 9.74622 4.71552C9.75151 4.74004 9.75183 4.76537 9.74716 4.79002C9.74248 4.81467 9.73291 4.83812 9.71901 4.859C9.7051 4.87988 9.68715 4.89776 9.66621 4.91158C9.64528 4.9254 9.62178 4.93487 9.59711 4.93944C9.57245 4.94402 9.54712 4.94359 9.52262 4.9382C9.49812 4.9328 9.47495 4.92255 9.45449 4.90804C9.13686 4.69579 8.81511 4.90579 8.81249 4.90804C8.78157 4.92852 8.74532 4.93947 8.70824 4.93954Z" fill="#212647"/>
<path d="M10.1463 6.87158C9.9166 6.87163 9.68926 6.82507 9.47807 6.73471C9.43301 6.71357 9.3982 6.67541 9.38129 6.62861C9.36437 6.5818 9.36674 6.5302 9.38788 6.48515C9.40901 6.44009 9.44718 6.40528 9.49398 6.38837C9.54078 6.37145 9.59239 6.37382 9.63744 6.39496C9.64232 6.39721 10.1354 6.61958 10.6117 6.39533C10.634 6.38482 10.6581 6.3788 10.6827 6.37761C10.7073 6.37643 10.7319 6.3801 10.7551 6.38842C10.7783 6.39674 10.7996 6.40955 10.8179 6.42612C10.8361 6.44268 10.8509 6.46268 10.8614 6.48496C10.872 6.50724 10.878 6.53138 10.8792 6.55599C10.8803 6.5806 10.8767 6.6052 10.8684 6.6284C10.86 6.65159 10.8472 6.67291 10.8307 6.69115C10.8141 6.70939 10.7941 6.7242 10.7718 6.73471C10.576 6.82606 10.3624 6.87281 10.1463 6.87158Z" fill="#FCAD95"/>
<path d="M11.5417 4.93962C11.5047 4.93959 11.4686 4.92864 11.4378 4.90812C11.1258 4.69962 10.8078 4.90025 10.7947 4.90887C10.7088 4.96437 10.5922 4.94075 10.5356 4.8545C10.479 4.76825 10.5022 4.65312 10.5877 4.59612C10.6095 4.5815 11.1232 4.24775 11.646 4.59612C11.6795 4.61846 11.7049 4.65098 11.7184 4.68888C11.732 4.72679 11.733 4.76805 11.7214 4.80658C11.7097 4.8451 11.6859 4.87884 11.6535 4.9028C11.6212 4.92676 11.582 4.93967 11.5417 4.93962Z" fill="#212647"/>
<path d="M14.9973 21.2573C14.9811 21.4813 14.8848 21.6921 14.7262 21.8513C14.5575 22.02 14.3212 22.125 14.0625 22.125H13.9687C13.9687 22.0725 14.01 22.0312 14.0625 22.0312C14.2875 22.0312 14.5012 21.945 14.6587 21.7838C14.7522 21.6912 14.8226 21.5779 14.8641 21.4531C14.9056 21.3282 14.9171 21.1954 14.8976 21.0652C14.8391 20.6422 14.4472 20.3438 14.0201 20.3438H7.6762C7.6762 20.3137 7.67245 20.28 7.6687 20.25H13.9893C14.5436 20.25 15.0382 20.7049 14.9973 21.2573Z" fill="#FCAD95"/>
<path d="M7.66875 22.1251C7.6275 22.6126 7.56375 23.1113 7.49625 23.6251H0.375C0.375 23.6251 0.42375 20.8538 0.40875 19.4476C0.405 19.1063 0.675 18.8213 1.02 18.8101L5.56125 18.6413C5.94375 18.6301 6.33 18.6263 6.7125 18.6563H6.735C6.9375 18.6713 7.14 18.7126 7.28625 18.8476C7.44 18.9901 7.49625 19.2076 7.54125 19.4138C7.545 19.4363 7.5525 19.4588 7.5525 19.4813C7.60875 19.7401 7.64625 19.9951 7.66875 20.2501C7.73625 20.8801 7.72125 21.4988 7.66875 22.1251Z" fill="#FF9700"/>
<path d="M10.9538 7.96493C10.6988 8.06618 10.4175 8.12243 10.125 8.12243C9.87751 8.12243 9.63751 8.08118 9.41626 8.00993C9.42376 7.97618 9.42376 7.94618 9.42751 7.91243C9.64501 7.98743 9.88126 8.02868 10.125 8.02868C10.4067 8.02957 10.6858 7.97477 10.9463 7.86743C10.9463 7.90118 10.95 7.93118 10.9538 7.96493Z" fill="#FCAD95"/>
<path d="M8.31342 14.4327L8.63067 14.3982L8.2658 12.5739C8.26337 12.5617 8.26587 12.549 8.27277 12.5387C8.27966 12.5284 8.29037 12.5212 8.30255 12.5187C8.32917 12.5146 8.3528 12.5304 8.35767 12.5555L8.73267 14.4305C8.73396 14.4369 8.73389 14.4435 8.73247 14.4499C8.73105 14.4563 8.72831 14.4623 8.72443 14.4676C8.72054 14.4728 8.7156 14.4772 8.70991 14.4805C8.70423 14.4837 8.69793 14.4857 8.69142 14.4864L8.34492 14.5201L8.31342 14.4327ZM12.0334 14.5152L11.6824 14.4867C11.6759 14.4861 11.6696 14.4841 11.6639 14.4808C11.6582 14.4776 11.6533 14.4732 11.6494 14.4679C11.6455 14.4627 11.6428 14.4567 11.6414 14.4503C11.64 14.4439 11.6399 14.4373 11.6412 14.4309L12.0162 12.5559C12.0172 12.5497 12.0195 12.5437 12.0228 12.5384C12.0262 12.5331 12.0306 12.5285 12.0358 12.5249C12.0409 12.5213 12.0468 12.5188 12.0529 12.5176C12.0591 12.5163 12.0654 12.5163 12.0716 12.5175C12.0778 12.5187 12.0836 12.5212 12.0888 12.5248C12.094 12.5283 12.0985 12.5329 12.1019 12.5382C12.1053 12.5434 12.1076 12.5494 12.1086 12.5556C12.1097 12.5618 12.1095 12.5681 12.108 12.5742L11.7432 14.3986L12.0717 14.4271L12.0334 14.5152Z" fill="#212647"/>
<path d="M13.8301 14.655L12.0489 14.4788L10.7251 17.8125C10.4814 17.8238 10.2714 18.0075 10.2301 18.255L10.1439 18.9938C10.1664 18.99 10.1851 18.9863 10.2039 18.9825C10.8114 18.855 11.4339 18.7313 12.0489 18.7913L12.0864 18.5288C12.1014 18.435 12.0901 18.345 12.0564 18.2663L13.8301 14.655ZM9.63761 18.0975V18.0938L8.32886 14.4788L6.54761 14.655L8.27261 18.4238H8.27636C8.19761 18.5288 8.16386 18.6638 8.18261 18.8025L8.26136 19.35C8.88386 19.2338 9.52886 19.1175 10.1064 19.0013L10.0351 18.5288C10.0051 18.3075 9.84011 18.1425 9.63761 18.0975Z" fill="#FFD5C2"/>
<path d="M10.0913 18.9112L10.1063 19.0012C9.52884 19.1175 8.88384 19.2337 8.26134 19.35L8.24634 19.2525L8.70759 19.17C9.18384 19.0837 9.65634 18.9937 10.0913 18.9112ZM12.0601 18.7125L12.0488 18.7912C11.4338 18.7312 10.8113 18.855 10.2038 18.9825C10.1851 18.9862 10.1663 18.99 10.1438 18.9937L10.1551 18.9C10.1663 18.8962 10.1738 18.8962 10.1851 18.8925C10.8601 18.75 11.4226 18.6487 12.0076 18.69C12.0263 18.69 12.0451 18.7012 12.0601 18.7125Z" fill="#FCAD95"/>
<path d="M21.9788 16.5188C21.7426 16.2263 21.4688 15.9488 21.1501 15.7538C21.2401 15.645 21.3113 15.5213 21.3638 15.39C21.4726 15.1125 21.4988 14.8088 21.5138 14.5088C21.5326 14.1788 21.5213 13.8225 21.3113 13.5675C21.0788 13.2825 20.6626 13.2225 20.2913 13.245C19.8826 13.2713 19.4663 13.3763 19.1288 13.6125C18.7913 13.8488 18.5363 14.2275 18.5138 14.6363C18.4988 14.925 18.6113 15.225 18.8138 15.4275C18.6526 15.4538 18.4951 15.5025 18.3563 15.5888C18.1013 15.75 17.9401 16.0238 17.7863 16.2825C17.2013 17.2838 16.6126 18.285 16.0276 19.2825L15.9751 19.3763C16.6688 18.5475 17.8088 18.09 18.8851 18.195C18.9226 18.1088 18.9751 18.0375 19.0538 17.9813C19.2113 17.865 19.4326 17.8688 19.6051 17.9588C19.7776 18.045 19.9051 18.2063 19.9913 18.3825C20.1376 18.6863 20.1676 19.0388 20.3213 19.3388C20.5013 19.6838 20.8276 19.9275 21.1388 20.1563L22.3951 21.075C22.5188 21.1688 22.6613 21.2625 22.8151 21.2588C22.9763 21.2513 23.1151 21.1275 23.1863 20.985C23.2576 20.8388 23.2726 20.6738 23.2801 20.5125C23.3438 19.0838 22.8713 17.6363 21.9788 16.5188Z" fill="#212647"/>
<path d="M18.33 19.3893C18.3185 19.3893 18.3074 19.3851 18.2988 19.3774C18.2902 19.3697 18.2848 19.3592 18.2835 19.3477C18.2821 19.3354 18.2857 19.323 18.2934 19.3133C18.3012 19.3036 18.3124 19.2974 18.3247 19.296C18.5625 19.2693 18.6859 18.9798 18.7222 18.7173L18.7346 18.6326C18.771 18.381 18.8119 18.096 19.0267 17.943C19.1902 17.8226 19.4261 17.8121 19.6267 17.9171C19.7902 17.9988 19.9312 18.1526 20.0332 18.3618C20.0387 18.373 20.0394 18.3859 20.0353 18.3977C20.0313 18.4094 20.0227 18.4191 20.0115 18.4245C20.0003 18.4299 19.9874 18.4306 19.9757 18.4266C19.9639 18.4225 19.9543 18.4139 19.9489 18.4027C19.884 18.27 19.7677 18.0922 19.5836 18.0003C19.416 17.913 19.2146 17.9208 19.0811 18.0187C18.8985 18.1488 18.8621 18.4016 18.8269 18.6457L18.8145 18.7305C18.7736 19.0271 18.6259 19.3563 18.3345 19.3886C18.3334 19.3893 18.3315 19.3893 18.33 19.3893Z" fill="#FCAD95"/>
<path d="M23.625 22.26V23.625H16.875V23.0925C16.8754 22.6969 17.0121 22.3134 17.2621 22.0068C17.5121 21.7001 17.8601 21.4889 18.2475 21.4088C18.36 21.3863 18.4725 21.375 18.5925 21.375H22.74C22.7625 21.375 22.7888 21.375 22.8113 21.3787C23.265 21.4162 23.625 21.795 23.625 22.26Z" fill="#6871D8"/>
</g>
<defs>
<clipPath id="clip0_3359_4654">
<rect width="24" height="24" fill="white"/>
</clipPath>
</defs>
</svg>
