<svg width="25" height="25" viewBox="0 0 25 25" fill="none" xmlns="http://www.w3.org/2000/svg">
<path d="M3.17208 15.19L4.91652 13.5V20.5833C4.91652 21.6879 5.81196 22.5833 6.91652 22.5833H10.2499V16.0833H12.2499H14.2499V22.5833H17.5832C18.6878 22.5833 19.5832 21.6879 19.5832 20.5833V13.5L21.0144 15.0843C21.5052 15.6277 22.3511 15.6491 22.8688 15.1314C23.3593 14.6409 23.3697 13.8489 22.8923 13.3458L19.1249 9.375V4.9375C19.1249 4.30467 18.6119 3.79167 17.979 3.79167C17.3462 3.79167 16.8332 4.30467 16.8332 4.9375V7.08333L12.2499 2.5L1.34549 13.3277C0.833058 13.8365 0.831597 14.6649 1.34223 15.1755C1.8459 15.6792 2.66049 15.6856 3.17208 15.19Z" stroke="#9CA3AF" stroke-width="1.5" stroke-linecap="round" stroke-linejoin="round"/>
</svg>
