<svg width="25" height="24" viewBox="0 0 25 24" fill="none" xmlns="http://www.w3.org/2000/svg">
<path d="M4 13.8334L4.91667 12.9167V20.0001C4.91667 21.1046 5.8121 22.0001 6.91667 22.0001H9.79167C10.0448 22.0001 10.25 21.7949 10.25 21.5417V15.9584C10.25 15.7053 10.4552 15.5001 10.7083 15.5001H12.25H13.7917C14.0448 15.5001 14.25 15.7053 14.25 15.9584V21.5417C14.25 21.7949 14.4552 22.0001 14.7083 22.0001H17.5833C18.6879 22.0001 19.5833 21.1046 19.5833 20.0001V12.9167L20.5 13.8334C21.0063 14.3397 21.8271 14.3397 22.3333 13.8334C22.8396 13.3272 22.8396 12.5063 22.3333 12.0001L19.2592 8.92599C19.1733 8.84004 19.125 8.72346 19.125 8.6019V5.35425C19.125 4.72142 18.612 4.20841 17.9792 4.20841C17.3463 4.20841 16.8333 4.72142 16.8333 5.35425V6.50008L12.8982 2.56493C12.5402 2.20695 11.9598 2.20695 11.6018 2.56493L2.16667 12.0001C1.66041 12.5063 1.66041 13.3272 2.16667 13.8334C2.67293 14.3397 3.49374 14.3397 4 13.8334Z" fill="#FD7D14"/>
</svg>
