<svg width="25" height="24" viewBox="0 0 25 24" fill="none" xmlns="http://www.w3.org/2000/svg">
<path fill-rule="evenodd" clip-rule="evenodd" d="M2.75 10.6699C2.75 5.88166 6.59034 2 11.3276 2C13.6026 2 15.7843 2.91344 17.3929 4.53936C19.0016 6.16529 19.9053 8.37052 19.9053 10.6699C19.9053 15.4582 16.0649 19.3399 11.3276 19.3399C6.59034 19.3399 2.75 15.4582 2.75 10.6699ZM19.7634 17.6543L22.318 19.7164H22.3624C22.8792 20.2388 22.8792 21.0858 22.3624 21.6082C21.8455 22.1306 21.0076 22.1306 20.4907 21.6082L18.3707 19.1785C18.1703 18.9766 18.0576 18.7024 18.0576 18.4164C18.0576 18.1304 18.1703 17.8562 18.3707 17.6543C18.7572 17.2704 19.3768 17.2704 19.7634 17.6543Z" fill="#FD7D14"/>
</svg>
