<svg width="25" height="24" viewBox="0 0 25 24" fill="none" xmlns="http://www.w3.org/2000/svg">
<g clip-path="url(#clip0_801_84929)">
<path d="M13 11.5C13.9395 11.5 14.8578 11.2214 15.639 10.6995C16.4201 10.1775 17.0289 9.4357 17.3884 8.56775C17.7479 7.6998 17.842 6.74473 17.6587 5.82332C17.4755 4.90191 17.0231 4.05554 16.3588 3.39124C15.6945 2.72695 14.8481 2.27455 13.9267 2.09127C13.0053 1.90799 12.0502 2.00206 11.1823 2.36157C10.3143 2.72109 9.57246 3.32991 9.05052 4.11104C8.52858 4.89218 8.25 5.81054 8.25 6.75C8.25126 8.00939 8.75211 9.21685 9.64263 10.1074C10.5332 10.9979 11.7406 11.4987 13 11.5ZM13 3.58334C13.6263 3.58334 14.2385 3.76906 14.7593 4.11701C15.2801 4.46497 15.6859 4.95954 15.9256 5.53817C16.1653 6.1168 16.228 6.75351 16.1058 7.36779C15.9836 7.98206 15.682 8.54631 15.2392 8.98917C14.7963 9.43204 14.2321 9.73364 13.6178 9.85582C13.0035 9.97801 12.3668 9.9153 11.7882 9.67562C11.2095 9.43594 10.715 9.03006 10.367 8.50931C10.0191 7.98855 9.83333 7.37631 9.83333 6.75C9.83333 5.91015 10.167 5.1047 10.7608 4.51083C11.3547 3.91697 12.1601 3.58334 13 3.58334Z" fill="#9CA3AF"/>
<path d="M13 13.0833C11.111 13.0853 9.29992 13.8367 7.96418 15.1724C6.62844 16.5082 5.8771 18.3192 5.875 20.2083C5.875 20.4182 5.95841 20.6196 6.10687 20.768C6.25534 20.9165 6.4567 20.9999 6.66667 20.9999C6.87663 20.9999 7.07799 20.9165 7.22646 20.768C7.37493 20.6196 7.45833 20.4182 7.45833 20.2083C7.45833 18.7385 8.04219 17.329 9.08145 16.2897C10.1207 15.2504 11.5303 14.6666 13 14.6666C14.4697 14.6666 15.8793 15.2504 16.9186 16.2897C17.9578 17.329 18.5417 18.7385 18.5417 20.2083C18.5417 20.4182 18.6251 20.6196 18.7735 20.768C18.922 20.9165 19.1234 20.9999 19.3333 20.9999C19.5433 20.9999 19.7447 20.9165 19.8931 20.768C20.0416 20.6196 20.125 20.4182 20.125 20.2083C20.1229 18.3192 19.3716 16.5082 18.0358 15.1724C16.7001 13.8367 14.889 13.0853 13 13.0833Z" fill="#9CA3AF"/>
</g>
<defs>
<clipPath id="clip0_801_84929">
<rect width="19" height="19" fill="white" transform="translate(3.5 2)"/>
</clipPath>
</defs>
</svg>
