<svg width="258" height="97" viewBox="0 0 258 97" fill="none" xmlns="http://www.w3.org/2000/svg">
<path d="M52.9448 40.4061V36.5562H47.2571V63.2991H52.9448V49.2314C52.9448 46.9138 53.741 45.0159 55.3333 43.5344C56.9256 42.0561 59.4478 41.3153 62.8967 41.3153V35.9648C58.2345 35.9648 54.9161 37.4463 52.9448 40.4061Z" fill="white"/>
<path d="M69.8936 26.5195C68.8713 26.5195 67.9892 26.8597 67.2503 27.5369C66.5115 28.214 66.1421 29.0342 66.1421 29.9975C66.1421 30.9608 66.5115 31.781 67.2503 32.4582C67.9892 33.1353 68.8713 33.4755 69.8936 33.4755C70.8776 33.4755 71.7407 33.1385 72.4827 32.4582C73.2215 31.781 73.5909 30.9608 73.5909 29.9975C73.5909 29.0342 73.2215 28.214 72.4827 27.5369C71.7438 26.8597 70.8808 26.5195 69.8936 26.5195Z" fill="white"/>
<path d="M72.7373 36.553H67.0496V63.2959H72.7373V36.553Z" fill="white"/>
<path d="M92.6699 36.0188C88.7273 36.0188 85.8261 37.4812 83.9695 40.406V36.5561H78.2817V74H83.9695V59.1311C85.7146 62.2689 88.6318 63.8394 92.7272 63.8394C96.4054 63.8394 99.4658 62.5487 101.912 59.9609C104.357 57.3762 105.561 54.0318 105.523 49.9307C105.485 45.9027 104.252 42.5774 101.826 39.9546C99.4022 37.3286 96.3481 36.0188 92.6699 36.0188ZM97.6188 56.2635C96.1411 57.9231 94.1857 58.7496 91.7591 58.7496C89.3324 58.7496 87.3802 57.9199 85.9025 56.2635C84.4249 54.604 83.6829 52.4931 83.6829 49.9243C83.6829 47.3556 84.4217 45.2447 85.9025 43.5851C87.3802 41.9256 89.3324 41.0991 91.7591 41.0991C94.1857 41.0991 96.1379 41.9288 97.6188 43.5851C99.0964 45.2447 99.8384 47.3556 99.8384 49.9243C99.8384 52.4931 99.0964 54.6072 97.6188 56.2635Z" fill="white"/>
<path d="M37.5568 58.2124C35.5632 58.1679 34.5665 57.0997 34.5665 55.0078V32.223C51.0405 25.4387 80.5874 20.4061 84.7943 20.0055C84.7943 20.0055 65.5337 19.5191 38.2511 27.68C36.939 28.071 35.7129 28.4588 34.5696 28.8372V23.7919H28.8851V30.9481C22.1847 33.7712 20 36.2795 20 38.7752C20 41.6396 23.1273 43.5216 24.7483 43.7537C23.9999 42.4248 23.4458 39.5826 24.9234 37.9517C25.847 36.9344 27.2004 35.933 28.8851 34.957V55.2749C28.8851 57.8786 29.6176 59.8687 31.0761 61.2389C32.5347 62.6123 34.6493 63.299 37.4167 63.299C38.9485 63.299 40.337 62.9684 41.3975 62.6028C42.6745 62.1673 43.477 61.6904 43.477 61.6904L41.3179 57.5448C40.2988 57.8881 38.9931 58.1933 37.5568 58.2124Z" fill="white"/>
<path d="M126.831 25.8519C130.363 25.8519 133.312 26.9074 135.685 29.0183C138.057 31.1293 139.242 33.7807 139.242 36.9757C139.242 40.1326 138.073 42.7967 135.739 44.9617C133.401 47.1299 130.433 48.2108 126.828 48.2108H116.402V63.299H110.609V25.8519H126.831ZM126.831 42.6473C128.854 42.6473 130.462 42.1164 131.659 41.0514C132.853 39.9864 133.452 38.648 133.452 37.0298C133.452 35.3766 132.844 34.0191 131.631 32.9541C130.417 31.8891 128.819 31.3582 126.831 31.3582H116.405V42.6473H126.831Z" fill="white"/>
<path d="M147.264 57.7927H166.187V63.299H141.471V25.8519H147.264V57.7927Z" fill="white"/>
<path d="M195.559 25.8519H201.351V63.299H196.664L175.425 36.3145V63.299H169.633V25.8519H174.266L195.559 52.8905V25.8519Z" fill="white"/>
<path d="M231.274 63.299L222.558 48.2108H214.558V63.299H208.765V25.8519H224.984C228.516 25.8519 231.465 26.9074 233.838 29.0183C236.21 31.1293 237.395 33.7807 237.395 36.9757C237.395 39.4713 236.631 41.7031 235.105 43.6678C233.58 45.6325 231.529 46.9646 228.952 47.6608L238 63.3022H231.274V63.299ZM214.561 31.3582V42.6473H224.988C227.01 42.6473 228.618 42.1164 229.815 41.0514C231.01 39.9864 231.608 38.648 231.608 37.0298C231.608 35.3766 231 34.0191 229.787 32.9541C228.573 31.8891 226.975 31.3582 224.988 31.3582H214.561Z" fill="white"/>
</svg>
