<svg width="810" height="804" viewBox="0 0 810 804" fill="none" xmlns="http://www.w3.org/2000/svg">
<g id="No Upcoming Trips">
<g id="Group 3">
<mask id="mask0_806_59891" style="mask-type:luminance" maskUnits="userSpaceOnUse" x="75" y="174" width="678" height="387">
<path id="Clip 2" fill-rule="evenodd" clip-rule="evenodd" d="M242.556 242.616H155.7C144.414 242.616 135.183 251.877 135.183 263.199C135.183 274.521 144.414 283.782 155.7 283.782H199.902H212.856C224.142 283.782 233.373 293.046 233.373 304.368C233.373 310.026 231.06 315.183 227.34 318.9C223.635 322.635 218.493 324.954 212.856 324.954H185.22H169.962H95.517C84.231 324.954 75 334.218 75 345.537C75 356.856 84.231 366.12 95.517 366.12H148.812C132.723 404.055 123.813 445.794 123.813 489.63C123.813 505.533 124.989 521.163 127.245 536.436C128.187 542.817 129.324 549.144 130.653 555.402C169.362 549.462 210.423 544.683 253.29 541.197L256.515 544.149L259.551 540.705C311.052 536.685 365.106 534.543 420.858 534.543C539.31 534.543 650.154 544.203 744.927 561C748.581 545.112 751.044 528.765 752.208 512.052C752.739 504.642 753 497.163 753 489.63C753 315.306 612.159 174 438.408 174C364.356 174 296.295 199.671 242.556 242.616Z" fill="white"/>
</mask>
<g mask="url(#mask0_806_59891)">
<path id="Fill 1" fill-rule="evenodd" clip-rule="evenodd" d="M60 576H768V159H60V576Z" fill="#F3F4F6"/>
</g>
</g>
<g id="Group 6">
<mask id="mask1_806_59891" style="mask-type:luminance" maskUnits="userSpaceOnUse" x="0" y="324" width="54" height="42">
<path id="Clip 5" fill-rule="evenodd" clip-rule="evenodd" d="M20.781 324C9.351 324 0 333.453 0 345C0 356.547 9.351 366 20.781 366H33.216C44.649 366 54 356.547 54 345C54 333.453 44.649 324 33.216 324H20.781Z" fill="white"/>
</mask>
<g mask="url(#mask1_806_59891)">
<path id="Fill 4" fill-rule="evenodd" clip-rule="evenodd" d="M-15 381H69V309H-15V381Z" fill="#F3F4F6"/>
</g>
</g>
<g id="Group 9">
<mask id="mask2_806_59891" style="mask-type:luminance" maskUnits="userSpaceOnUse" x="130" y="534" width="680" height="270">
<path id="Clip 8" fill-rule="evenodd" clip-rule="evenodd" d="M259.095 541.119L256.056 544.542L252.831 541.608C209.976 545.073 168.927 549.816 130.224 555.723C160.377 697.569 286.677 804 437.904 804C508.713 804 574.05 780.654 626.631 741.273H682.602C693.882 741.273 703.113 732.066 703.113 720.819C703.113 715.203 700.8 710.073 697.083 706.38C693.375 702.669 688.233 700.365 682.602 700.365H658.26C646.977 700.365 637.746 691.161 637.746 679.911C637.746 674.292 640.059 669.165 643.776 665.469C647.484 661.758 652.626 659.457 658.26 659.457H789.279C800.562 659.457 809.79 650.253 809.79 639C809.79 633.381 807.477 628.254 803.76 624.561C800.04 620.85 794.922 618.546 789.279 618.546H725.034C733.239 600.315 739.749 581.169 744.354 561.288C649.602 544.599 538.785 534.996 420.36 534.996C364.623 534.996 310.578 537.123 259.095 541.119Z" fill="white"/>
</mask>
<g mask="url(#mask2_806_59891)">
<path id="Fill 7" fill-rule="evenodd" clip-rule="evenodd" d="M115.224 819H824.787V519.996H115.224V819Z" fill="#E5E7EB"/>
</g>
</g>
<g id="Group 12">
<mask id="mask3_806_59891" style="mask-type:luminance" maskUnits="userSpaceOnUse" x="258" y="498" width="492" height="63">
<path id="Clip 11" fill-rule="evenodd" clip-rule="evenodd" d="M689.325 537.912L657.651 508.881L623.757 534.039L609.549 514.464L553.461 534.039L424.254 514.464L349.149 535.2C372.114 534.432 395.448 534.039 419.091 534.039C537.384 534.039 648.084 543.882 742.734 561C746.376 544.806 748.839 528.15 750 511.119L739.278 498L689.325 537.912ZM258 540.318C287.592 537.96 318.027 536.238 349.149 535.2L293.667 498.996L258 540.318Z" fill="white"/>
</mask>
<g mask="url(#mask3_806_59891)">
<path id="Fill 10" fill-rule="evenodd" clip-rule="evenodd" d="M243 576H765V483H243V576Z" fill="#D1D5DB"/>
</g>
</g>
<g id="Group 15">
<mask id="mask4_806_59891" style="mask-type:luminance" maskUnits="userSpaceOnUse" x="252" y="540" width="6" height="4">
<path id="Clip 14" fill-rule="evenodd" clip-rule="evenodd" d="M252 540.432L255.09 543.003L258 540C255.996 540.132 253.989 540.276 252 540.432Z" fill="white"/>
</mask>
<g mask="url(#mask4_806_59891)">
<path id="Fill 13" fill-rule="evenodd" clip-rule="evenodd" d="M237 558H273V525H237V558Z" fill="#F1F2F7"/>
</g>
</g>
<g id="Group 18">
<mask id="mask5_806_59891" style="mask-type:luminance" maskUnits="userSpaceOnUse" x="126" y="486" width="126" height="69">
<path id="Clip 17" fill-rule="evenodd" clip-rule="evenodd" d="M126 536.004C126.942 542.397 128.079 548.733 129.402 555C168.099 549.051 209.148 544.266 252 540.774L192.327 486L126 536.004Z" fill="white"/>
</mask>
<g mask="url(#mask5_806_59891)">
<path id="Fill 16" fill-rule="evenodd" clip-rule="evenodd" d="M111 570H267V471H111V570Z" fill="#D1D5DB"/>
</g>
</g>
<g id="Group 21">
<mask id="mask6_806_59891" style="mask-type:luminance" maskUnits="userSpaceOnUse" x="326" y="653" width="235" height="22">
<path id="Clip 20" fill-rule="evenodd" clip-rule="evenodd" d="M326.151 663.653C326.151 669.449 378.534 674.153 443.154 674.153C507.771 674.153 560.154 669.449 560.154 663.653C560.154 657.857 507.771 653.153 443.154 653.153C378.534 653.153 326.151 657.857 326.151 663.653Z" fill="white"/>
</mask>
<g mask="url(#mask6_806_59891)">
<path id="Fill 19" fill-rule="evenodd" clip-rule="evenodd" d="M311.154 689.153H575.154V638.153H311.154V689.153Z" fill="#D1D5DB"/>
</g>
</g>
<g id="Group 24">
<mask id="mask7_806_59891" style="mask-type:luminance" maskUnits="userSpaceOnUse" x="723" y="699" width="42" height="42">
<path id="Clip 23" fill-rule="evenodd" clip-rule="evenodd" d="M723 720C723 731.55 732.45 741 744 741C755.55 741 765 731.55 765 720C765 708.453 755.55 699 744 699C732.45 699 723 708.453 723 720Z" fill="white"/>
</mask>
<g mask="url(#mask7_806_59891)">
<path id="Fill 22" fill-rule="evenodd" clip-rule="evenodd" d="M708 756H780V684H708V756Z" fill="#D1D5DB"/>
</g>
</g>
<g id="Group 47">
<path id="Fill 25" fill-rule="evenodd" clip-rule="evenodd" d="M440.059 408.697C430.291 408.697 422.371 400.777 422.371 391.009C422.371 381.244 430.291 373.327 440.059 373.327C449.827 373.327 457.747 381.244 457.747 391.009C457.747 400.777 449.827 408.697 440.059 408.697ZM440.059 366.001C426.247 366.001 415.048 377.197 415.048 391.009C415.048 404.827 426.247 416.023 440.059 416.023C453.871 416.023 465.073 404.827 465.073 391.009C465.073 377.197 453.871 366.001 440.059 366.001Z" fill="#D8DBEA"/>
<path id="Fill 27" fill-rule="evenodd" clip-rule="evenodd" d="M507.843 625.501H372.276C358.776 625.501 347.826 614.557 347.826 601.054V476.386C347.826 427.711 387.654 387.886 436.326 387.886H443.79C492.468 387.886 532.29 427.711 532.29 476.386V601.054C532.29 614.557 521.346 625.501 507.843 625.501Z" fill="#D1D5DB"/>
<path id="Fill 29" fill-rule="evenodd" clip-rule="evenodd" d="M543.401 595.8H542.075C536.693 595.8 532.292 591.396 532.292 586.017V516.477C532.292 511.095 536.693 506.694 542.075 506.694H555.338C560.717 506.694 565.118 511.095 565.118 516.477V574.08C565.118 586.026 555.344 595.8 543.401 595.8Z" fill="#FD7E14"/>
<path id="Fill 31" fill-rule="evenodd" clip-rule="evenodd" d="M338.048 595.8H336.722C324.773 595.8 314.999 586.026 314.999 574.08V516.477C314.999 511.095 319.4 506.694 324.782 506.694H338.048C343.427 506.694 347.828 511.095 347.828 516.477V586.017C347.828 591.396 343.427 595.8 338.048 595.8Z" fill="#FD7E14"/>
<path id="Fill 33" fill-rule="evenodd" clip-rule="evenodd" d="M497.9 591.852L438.497 610.65L379.091 591.852V551.244H497.9V591.852Z" fill="#9CA3AF"/>
<path id="Fill 35" fill-rule="evenodd" clip-rule="evenodd" d="M403.128 602.658L400.341 605.436C398.025 607.743 394.275 607.743 391.956 605.436L389.172 602.658V576.687H403.128V602.658Z" fill="#FD7E14"/>
<path id="Fill 37" fill-rule="evenodd" clip-rule="evenodd" d="M398.97 598.087C398.97 599.647 397.707 600.907 396.15 600.907C394.59 600.907 393.327 599.647 393.327 598.087C393.327 596.527 394.59 595.267 396.15 595.267C397.707 595.267 398.97 596.527 398.97 598.087Z" fill="#F7FFF6"/>
<path id="Fill 39" fill-rule="evenodd" clip-rule="evenodd" d="M482.853 602.658L480.066 605.436C477.75 607.743 474 607.743 471.681 605.436L468.897 602.658V576.687H482.853V602.658Z" fill="#FD7E14"/>
<path id="Fill 41" fill-rule="evenodd" clip-rule="evenodd" d="M478.696 598.087C478.696 599.647 477.433 600.907 475.876 600.907C474.316 600.907 473.053 599.647 473.053 598.087C473.053 596.527 474.316 595.267 475.876 595.267C477.433 595.267 478.696 596.527 478.696 598.087Z" fill="#F7FFF6"/>
<path id="Fill 43" fill-rule="evenodd" clip-rule="evenodd" d="M523.432 480.961V494.185V521.638L366.838 446.638C377.248 420.028 403.261 401.083 433.432 401.083H446.689C486.019 401.083 523.432 441.598 523.432 480.961Z" fill="white"/>
<path id="Fill 45" fill-rule="evenodd" clip-rule="evenodd" d="M366.838 487.873V474.649V447.196L523.432 522.199C513.025 548.806 487.012 567.751 456.838 567.751H443.584C404.251 567.751 366.838 527.236 366.838 487.873Z" fill="#FD7E14"/>
</g>
<g id="Bee">
<path id="Stroke 3" d="M490.437 126C386.516 134.797 348.321 222.759 379.611 274.033C401.69 310.21 439.103 359.102 508.843 347.374C578.58 335.643 584.456 271.103 547.729 262.324C511.001 253.548 380.157 294.492 394.945 389.08C405.619 457.328 498.142 477 498.142 477" stroke="#D1D5DB" stroke-width="2" stroke-dasharray="7"/>
<path id="Fill 5" fill-rule="evenodd" clip-rule="evenodd" d="M550.502 72C550.502 72 565.393 33.1008 566.963 17.9685C567.789 10.0615 554.685 -11.9535 539.35 8.41034C524.014 28.7742 531.011 53.7429 550.502 72Z" fill="#D1D5DB"/>
<path id="Fill 7_2" fill-rule="evenodd" clip-rule="evenodd" d="M497.662 29.636C480.217 23.7366 472.32 28.3363 468.955 37.5172C465.588 46.7012 470.288 64.1823 496.599 68.1672C522.914 72.1521 549 71.9992 549 71.9992C549 71.9992 515.107 35.5354 497.662 29.636Z" fill="#D1D5DB"/>
<path id="Fill 9" fill-rule="evenodd" clip-rule="evenodd" d="M547.548 79.7076C547.944 78.0816 548.468 76.5231 549.051 75C545.831 75.5087 542.554 76.2232 539.256 77.1906C535.678 78.2374 532.339 79.6106 529.198 81.1837C527.835 83.7595 526.731 86.5117 526.014 89.4669C521.593 107.659 532.029 125.996 549.563 132C551.462 131.624 553.37 131.188 555.281 130.63C560.621 129.065 565.547 126.995 570 124.596C552.876 117.083 543.021 98.3352 547.548 79.7076Z" fill="#D1D5DB"/>
<path id="Fill 11" fill-rule="evenodd" clip-rule="evenodd" d="M522.514 89.195C522.933 87.3978 523.502 85.6792 524.132 84C508.962 93.7183 500.467 108.801 501.868 117.597C492.174 121.763 486 125.273 486 125.273C486 125.273 493.314 124.716 503.971 122.668C509.68 131.009 525.503 136.595 543 134.592C527.15 126.395 518.204 107.742 522.514 89.195Z" fill="#D1D5DB"/>
<path id="Fill 13_2" fill-rule="evenodd" clip-rule="evenodd" d="M572.751 95.7902C568.733 94.8259 566.241 90.7892 567.209 86.7464C568.173 82.7314 572.235 80.2433 576.25 81.2076C580.287 82.1781 582.754 86.2302 581.792 90.2483C580.822 94.2881 576.791 96.7577 572.751 95.7902ZM590.356 90.3895C587.122 79.1878 572.253 73.4031 554.712 75.384C553.979 77.1197 553.355 78.9508 552.909 80.8472C549.003 97.474 558.026 114.199 573.327 120C586.096 111.877 593.265 100.376 590.356 90.3895Z" fill="#D1D5DB"/>
</g>
</g>
</svg>
