<svg width="390" height="367" viewBox="0 0 390 367" fill="none" xmlns="http://www.w3.org/2000/svg">
<g clip-path="url(#clip0_4322_4960)">
<path d="M0 0H390V367H0V0Z" fill="white"/>
<path d="M92.0876 172.876C83.0907 164.281 77.5391 152.483 77.5391 139.466C77.5391 113.17 100.191 91.8535 128.135 91.8535C156.078 91.8535 178.731 113.17 178.731 139.466L139.769 111.558L92.0876 172.876Z" fill="#E5E7EB"/>
<path d="M128.135 79.1989V84.323M128.135 69.6657V75.028M128.135 57.8682V64.8992M117.014 80.1146L117.959 85.1609M115.255 70.726L116.244 76.0071M113.078 59.1079L114.375 66.0321M106.231 82.8333L108.093 87.6484M102.766 73.8752L104.715 78.9141M98.4781 62.7893L101.033 69.396M96.1131 87.2733L98.8357 91.7107M91.0478 79.0173L93.8972 83.6609M84.7793 68.8004L88.5152 74.8893M86.9684 93.2987L90.4687 97.2238M80.4566 85.9958L84.1195 90.1036M72.398 76.9584L77.2009 82.3445M79.0748 100.727L83.2459 104.021M71.3142 94.599L75.6795 98.0459M61.7105 87.016L67.4337 91.5353M72.6714 109.332L77.3873 111.894M63.898 104.566L68.833 107.247M53.0408 98.6668L59.5113 102.182M67.9536 118.853L73.0704 120.606M58.4341 115.592L63.7888 117.427M46.6533 111.558L53.6741 113.962M65.0645 129L70.4266 129.89M55.0875 127.345L60.6992 128.276M42.7413 125.296L50.099 126.517M64.0914 139.465H69.5366M53.9608 139.465H59.6591M41.4238 139.465H48.8955M65.0645 149.931L70.4266 149.041M55.0875 151.586L60.6992 150.655M42.7413 153.635L50.099 152.414M67.9536 160.078L73.0704 158.326M58.4341 163.338L63.7888 161.505M46.6533 167.374L53.6741 164.969M72.6714 169.599L77.3873 167.037M63.898 174.366L68.833 171.684M53.0408 180.265L59.5113 176.749M188.316 118.853L183.199 120.606M197.836 115.592L192.481 117.427M183.598 109.332L178.883 111.894M192.372 104.566L187.437 107.247M203.229 98.6668L196.758 102.182M177.195 100.727L173.024 104.021M184.956 94.599L180.591 98.0459M194.56 87.016L188.836 91.5353M169.301 93.2987L165.801 97.2238M175.813 85.9958L172.15 90.1036M183.872 76.9584L179.069 82.3445M160.157 87.2733L157.434 91.7107M165.222 79.0173L162.373 83.6609M171.49 68.8004L167.755 74.8893M150.039 82.8333L148.177 87.6484M153.504 73.8752L151.555 78.9141M157.792 62.7893L155.236 69.396M139.256 80.1146L138.31 85.1609M141.015 70.726L140.026 76.0071M143.192 59.1079L141.895 66.0321" stroke="#E5E7EB" stroke-width="3.12" stroke-miterlimit="10" stroke-linecap="round" stroke-linejoin="round"/>
<path d="M83.6549 271.829H29.3076M168.285 271.829H90.4799M309.075 271.829H302.006M349.635 271.829H315.866M358.02 271.829H355.485" stroke="#6B7280" stroke-width="3.12" stroke-miterlimit="10" stroke-linecap="round" stroke-linejoin="round"/>
<path d="M63.499 209.393L139.987 111.697L182.73 142.641" stroke="#D1D5DB" stroke-width="3.12" stroke-miterlimit="10" stroke-linecap="round" stroke-linejoin="round"/>
<path d="M163.195 167.614L217.797 97.813L310.553 177.093" stroke="#D1D5DB" stroke-width="3.12" stroke-miterlimit="10" stroke-linecap="round" stroke-linejoin="round"/>
<path d="M44.8646 229.861C47.9195 227.665 49.5733 224.872 48.5585 223.621C47.5436 222.371 44.2445 223.138 41.1896 225.333C38.1347 227.529 36.4809 230.323 37.4957 231.573C38.5105 232.823 41.8097 232.057 44.8646 229.861Z" fill="#E5E7EB"/>
<path d="M44.8636 218.253C47.9185 216.057 49.5723 213.264 48.5575 212.013C47.5427 210.763 44.2435 211.53 41.1886 213.725C38.1337 215.921 36.4799 218.715 37.4947 219.965C38.5096 221.215 41.8087 220.449 44.8636 218.253Z" fill="#E5E7EB"/>
<path d="M44.8646 258.092C47.9195 255.896 49.5733 253.103 48.5585 251.852C47.5436 250.602 44.2445 251.369 41.1896 253.564C38.1347 255.76 36.4809 258.554 37.4957 259.804C38.5105 261.054 41.8097 260.288 44.8646 258.092Z" fill="#E5E7EB"/>
<path d="M44.8636 243.587C47.9185 241.391 49.5723 238.598 48.5575 237.347C47.5427 236.097 44.2435 236.864 41.1886 239.059C38.1337 241.255 36.4799 244.049 37.4947 245.299C38.5095 246.549 41.8087 245.783 44.8636 243.587Z" fill="#E5E7EB"/>
<path d="M44.8646 229.861C47.9195 227.665 49.5733 224.872 48.5585 223.621C47.5436 222.371 44.2445 223.138 41.1896 225.333C38.1347 227.529 36.4809 230.323 37.4957 231.573C38.5105 232.823 41.8097 232.057 44.8646 229.861Z" stroke="#6B7280" stroke-width="3.12" stroke-miterlimit="10" stroke-linecap="round" stroke-linejoin="round"/>
<path d="M44.8636 218.253C47.9185 216.057 49.5723 213.264 48.5575 212.013C47.5427 210.763 44.2435 211.53 41.1886 213.725C38.1337 215.921 36.4799 218.715 37.4947 219.965C38.5096 221.215 41.8087 220.449 44.8636 218.253Z" stroke="#6B7280" stroke-width="3.12" stroke-miterlimit="10" stroke-linecap="round" stroke-linejoin="round"/>
<path d="M44.8646 258.092C47.9195 255.896 49.5733 253.103 48.5585 251.852C47.5436 250.602 44.2445 251.369 41.1896 253.564C38.1347 255.76 36.4809 258.554 37.4957 259.804C38.5105 261.054 41.8097 260.288 44.8646 258.092Z" stroke="#6B7280" stroke-width="3.12" stroke-miterlimit="10" stroke-linecap="round" stroke-linejoin="round"/>
<path d="M44.8636 243.587C47.9185 241.391 49.5723 238.598 48.5575 237.347C47.5427 236.097 44.2435 236.864 41.1886 239.059C38.1337 241.255 36.4799 244.049 37.4947 245.299C38.5095 246.549 41.8087 245.783 44.8636 243.587Z" stroke="#6B7280" stroke-width="3.12" stroke-miterlimit="10" stroke-linecap="round" stroke-linejoin="round"/>
<path d="M37.4882 219.98C38.503 218.729 36.8492 215.936 33.7943 213.74C30.7394 211.544 27.4402 210.778 26.4254 212.028C25.4106 213.278 27.0644 216.072 30.1193 218.268C33.1742 220.464 36.4733 221.23 37.4882 219.98Z" fill="#E5E7EB"/>
<path d="M37.4882 253.986C38.503 252.736 36.8492 249.942 33.7943 247.746C30.7394 245.551 27.4402 244.784 26.4254 246.035C25.4106 247.285 27.0644 250.078 30.1193 252.274C33.1742 254.47 36.4733 255.236 37.4882 253.986Z" fill="#E5E7EB"/>
<path d="M37.4884 239.443C38.5032 238.192 36.8494 235.399 33.7945 233.203C30.7396 231.007 27.4405 230.241 26.4256 231.491C25.4108 232.741 27.0646 235.535 30.1195 237.731C33.1744 239.926 36.4736 240.693 37.4884 239.443Z" fill="#E5E7EB"/>
<path d="M37.4882 219.98C38.503 218.729 36.8492 215.936 33.7943 213.74C30.7394 211.544 27.4402 210.778 26.4254 212.028C25.4106 213.278 27.0644 216.072 30.1193 218.268C33.1742 220.464 36.4733 221.23 37.4882 219.98Z" stroke="#6B7280" stroke-width="3.12" stroke-miterlimit="10" stroke-linecap="round" stroke-linejoin="round"/>
<path d="M37.4882 253.986C38.503 252.736 36.8492 249.942 33.7943 247.746C30.7394 245.551 27.4402 244.784 26.4254 246.035C25.4106 247.285 27.0644 250.078 30.1193 252.274C33.1742 254.47 36.4733 255.236 37.4882 253.986Z" stroke="#6B7280" stroke-width="3.12" stroke-miterlimit="10" stroke-linecap="round" stroke-linejoin="round"/>
<path d="M37.4884 239.443C38.5032 238.192 36.8494 235.399 33.7945 233.203C30.7396 231.007 27.4405 230.241 26.4256 231.491C25.4108 232.741 27.0646 235.535 30.1195 237.731C33.1744 239.926 36.4736 240.693 37.4884 239.443Z" stroke="#6B7280" stroke-width="3.12" stroke-miterlimit="10" stroke-linecap="round" stroke-linejoin="round"/>
<path d="M37.4912 217.821V271.142" stroke="#6B7280" stroke-width="3.12" stroke-miterlimit="10" stroke-linecap="round" stroke-linejoin="round"/>
<path d="M77.2298 260.902C80.2847 258.707 81.9385 255.913 80.9237 254.663C79.9089 253.413 76.6097 254.179 73.5548 256.375C70.4999 258.571 68.8461 261.364 69.8609 262.614C70.8758 263.865 74.1749 263.098 77.2298 260.902Z" stroke="#6B7280" stroke-width="3.12" stroke-miterlimit="10" stroke-linecap="round" stroke-linejoin="round"/>
<path d="M77.2298 248.718C80.2847 246.522 81.9385 243.729 80.9237 242.478C79.9089 241.228 76.6097 241.994 73.5548 244.19C70.4999 246.386 68.8461 249.18 69.8609 250.43C70.8758 251.68 74.1749 250.914 77.2298 248.718Z" stroke="#6B7280" stroke-width="3.12" stroke-miterlimit="10" stroke-linecap="round" stroke-linejoin="round"/>
<path d="M77.2288 237.721C80.2837 235.526 81.9375 232.732 80.9227 231.482C79.9079 230.231 76.6087 230.998 73.5538 233.194C70.4989 235.389 68.8451 238.183 69.86 239.433C70.8748 240.684 74.1739 239.917 77.2288 237.721Z" stroke="#6B7280" stroke-width="3.12" stroke-miterlimit="10" stroke-linecap="round" stroke-linejoin="round"/>
<path d="M69.8534 253.987C70.8682 252.737 69.2144 249.943 66.1595 247.747C63.1046 245.552 59.8055 244.785 58.7906 246.035C57.7758 247.286 59.4296 250.079 62.4845 252.275C65.5394 254.471 68.8386 255.237 69.8534 253.987Z" stroke="#6B7280" stroke-width="3.12" stroke-miterlimit="10" stroke-linecap="round" stroke-linejoin="round"/>
<path d="M69.8544 239.443C70.8692 238.193 69.2154 235.399 66.1605 233.203C63.1056 231.008 59.8064 230.241 58.7916 231.492C57.7768 232.742 59.4306 235.535 62.4855 237.731C65.5404 239.927 68.8395 240.693 69.8544 239.443Z" stroke="#6B7280" stroke-width="3.12" stroke-miterlimit="10" stroke-linecap="round" stroke-linejoin="round"/>
<path d="M69.8564 237.928V271.142" stroke="#6B7280" stroke-width="3.12" stroke-miterlimit="10" stroke-linecap="round" stroke-linejoin="round"/>
<path d="M115.262 143.455L119.049 148.081L128.324 144.632L140.284 148.96L145.224 144.632L154.584 147.536L159.657 140.274L171.547 144.761L176.25 137.95M193.645 128.688L205.479 126.084L209.834 133.607L222.119 127.368L231.089 132.69L236.874 124.616L251.931 126.988M243.47 101.205H299.025C299.354 100.473 299.523 99.6854 299.522 98.8905C299.522 95.608 296.694 92.9473 293.206 92.9473C292.519 92.9473 291.858 93.0541 291.239 93.2453C289.782 89.5364 285.99 86.8918 281.543 86.8918C280.362 86.8918 279.23 87.0804 278.173 87.4232C275.937 82.7821 270.974 79.5518 265.206 79.5518C257.344 79.5518 250.971 85.5493 250.971 92.9473C250.971 93.6948 251.039 94.427 251.164 95.1412C247.628 95.7779 244.735 98.1109 243.47 101.205ZM339.864 125.116C339.865 125.08 339.867 125.045 339.867 125.01C339.867 121.498 336.841 118.651 333.109 118.651C332.438 118.651 331.771 118.745 331.129 118.929C331.141 118.741 331.147 118.552 331.147 118.363C331.147 112.798 326.352 108.285 320.437 108.285C314.522 108.285 309.727 112.798 309.727 118.363C309.727 118.939 309.781 119.501 309.88 120.05C309.828 120.048 309.779 120.043 309.727 120.043C306.825 120.043 304.473 122.256 304.473 124.987C304.473 125.031 304.479 125.073 304.48 125.116L339.864 125.116Z" stroke="#D1D5DB" stroke-width="3.12" stroke-miterlimit="10" stroke-linecap="round" stroke-linejoin="round"/>
<path d="M132.953 271.828C123.077 271.828 115.043 264.268 115.043 254.975C115.043 245.682 123.077 238.121 132.953 238.121C142.828 238.121 150.863 245.682 150.863 254.975C150.863 264.268 142.828 271.828 132.953 271.828Z" fill="#5A2900"/>
<path d="M132.953 271.828C123.077 271.828 115.043 264.268 115.043 254.975C115.043 245.682 123.077 238.121 132.953 238.121C142.828 238.121 150.863 245.682 150.863 254.975C150.863 264.268 142.828 271.828 132.953 271.828Z" stroke="#833B00" stroke-width="3.12" stroke-miterlimit="10" stroke-linecap="round" stroke-linejoin="round"/>
<path d="M132.953 263.783C127.792 263.783 123.593 259.832 123.593 254.975C123.593 250.118 127.792 246.167 132.953 246.167C138.114 246.167 142.313 250.118 142.313 254.975C142.313 259.832 138.114 263.783 132.953 263.783Z" fill="#E5E7EB"/>
<path d="M132.953 263.783C127.792 263.783 123.593 259.832 123.593 254.975C123.593 250.118 127.792 246.167 132.953 246.167C138.114 246.167 142.313 250.118 142.313 254.975C142.313 259.832 138.114 263.783 132.953 263.783Z" stroke="#833B00" stroke-width="3.12" stroke-miterlimit="10" stroke-linecap="round" stroke-linejoin="round"/>
<path d="M132.953 257.883C131.249 257.883 129.863 256.578 129.863 254.975C129.863 253.372 131.249 252.067 132.953 252.067C134.657 252.067 136.043 253.372 136.043 254.975C136.043 256.578 134.657 257.883 132.953 257.883Z" fill="#E5E7EB"/>
<path d="M132.953 257.883C131.249 257.883 129.863 256.578 129.863 254.975C129.863 253.372 131.249 252.067 132.953 252.067C134.657 252.067 136.043 253.372 136.043 254.975C136.043 256.578 134.657 257.883 132.953 257.883Z" stroke="#833B00" stroke-width="3.12" stroke-miterlimit="10" stroke-linecap="round" stroke-linejoin="round"/>
<path d="M276.062 203.722L272.404 190.622C271.691 188.066 270.17 185.775 268.041 184.051C265.913 182.326 263.278 181.251 260.486 180.967C244.108 179.302 224.261 178.358 201.075 178.358C174.543 178.358 133.806 180.276 121.558 181.582C120.465 181.698 119.424 182.085 118.541 182.704C117.659 183.322 116.967 184.149 116.535 185.102L109.172 201.319C105.771 207.033 103.709 213.366 103.122 219.893L102.964 256.377L111.21 256.51C111.167 255.999 111.145 255.487 111.143 254.975C111.143 243.64 120.907 234.451 132.953 234.451C144.998 234.451 154.763 243.64 154.763 254.975C154.763 255.631 154.726 256.278 154.662 256.918L211.983 257.59C211.863 256.723 211.802 255.849 211.8 254.975C211.8 243.64 221.564 234.451 233.61 234.451C245.655 234.451 255.42 243.64 255.42 254.975C255.419 255.986 255.34 256.996 255.183 257.996L278.326 258.214V220.207C278.326 214.643 277.565 209.103 276.062 203.722Z" fill="#D46101"/>
<g opacity="0.36">
<path d="M107.319 256.377L107.477 219.893C108.064 213.366 110.126 207.033 113.527 201.319L120.889 185.102C121.321 184.149 122.014 183.322 122.896 182.704C123.779 182.085 124.819 181.698 125.913 181.582C137.8 180.314 176.523 178.471 203.05 178.364C202.391 178.362 201.739 178.358 201.075 178.358C174.543 178.358 133.806 180.276 121.558 181.582C120.465 181.698 119.424 182.085 118.541 182.704C117.659 183.322 116.967 184.149 116.535 185.102L109.172 201.319C105.771 207.033 103.709 213.366 103.122 219.893L102.964 256.377L111.21 256.51C111.208 256.486 111.207 256.463 111.205 256.439L107.319 256.377ZM259.538 257.997C259.695 256.996 259.774 255.986 259.775 254.975C259.775 243.64 250.01 234.451 237.965 234.451C237.238 234.452 236.511 234.486 235.787 234.553C246.81 235.582 255.42 244.331 255.42 254.975C255.419 255.986 255.34 256.996 255.182 257.996L278.325 258.214V258.173L259.538 257.997Z" fill="#D46101"/>
<path d="M159.017 256.918C159.081 256.278 159.117 255.631 159.117 254.975C159.117 243.64 149.353 234.451 137.307 234.451C136.58 234.451 135.853 234.485 135.13 234.553C146.152 235.582 154.762 244.331 154.762 254.975C154.762 255.63 154.726 256.278 154.662 256.918L211.982 257.59L211.976 257.539L159.017 256.918Z" fill="#D46101"/>
</g>
<path opacity="0.36" d="M159.064 253.597H211.185V248.725H158.085C158.62 250.306 158.949 251.942 159.064 253.597Z" fill="#D46101"/>
<path opacity="0.25" d="M276.842 203.355L273.184 190.256C272.471 187.7 270.95 185.408 268.821 183.684C266.693 181.96 264.058 180.885 261.266 180.601C244.888 178.936 225.041 177.992 201.855 177.992C175.323 177.992 134.586 179.909 122.338 181.215C121.395 181.316 120.489 181.618 119.69 182.099C118.89 182.58 118.218 183.226 117.725 183.989C117.734 183.988 117.742 183.368 117.751 183.368C129.999 182.062 170.737 180.762 197.268 180.762C220.454 180.762 240.301 181.706 256.68 183.371C259.472 183.655 262.106 184.73 264.234 186.454C266.363 188.178 267.884 190.47 268.598 193.026L272.255 206.125C273.758 211.506 274.519 217.047 274.519 222.61V257.804L279.105 257.848V219.84C279.105 214.277 278.345 208.736 276.842 203.355Z" fill="#D46101"/>
<path d="M276.062 203.722L272.404 190.622C271.691 188.066 270.17 185.775 268.041 184.051C265.913 182.326 263.278 181.251 260.486 180.967C244.108 179.302 224.261 178.358 201.075 178.358C174.543 178.358 133.806 180.276 121.558 181.582C120.465 181.698 119.424 182.085 118.541 182.704C117.659 183.322 116.967 184.149 116.535 185.102L109.172 201.319C105.771 207.033 103.709 213.366 103.122 219.893L102.964 256.377L111.21 256.51C111.167 255.999 111.145 255.487 111.143 254.975C111.143 243.64 120.907 234.451 132.953 234.451C144.998 234.451 154.763 243.64 154.763 254.975C154.763 255.631 154.726 256.278 154.662 256.918L211.983 257.59C211.863 256.723 211.802 255.849 211.8 254.975C211.8 243.64 221.564 234.451 233.61 234.451C245.655 234.451 255.42 243.64 255.42 254.975C255.419 255.986 255.34 256.996 255.183 257.996L278.326 258.214V220.207C278.326 214.643 277.565 209.103 276.062 203.722Z" stroke="#833B00" stroke-width="3.12" stroke-miterlimit="10" stroke-linecap="round" stroke-linejoin="round"/>
<path d="M233.611 271.828C223.736 271.828 215.701 264.268 215.701 254.975C215.701 245.682 223.736 238.121 233.611 238.121C243.486 238.121 251.521 245.682 251.521 254.975C251.521 264.268 243.486 271.828 233.611 271.828Z" fill="#5A2900"/>
<path d="M233.611 271.828C223.736 271.828 215.701 264.268 215.701 254.975C215.701 245.682 223.736 238.121 233.611 238.121C243.486 238.121 251.521 245.682 251.521 254.975C251.521 264.268 243.486 271.828 233.611 271.828Z" stroke="#833B00" stroke-width="3.12" stroke-miterlimit="10" stroke-linecap="round" stroke-linejoin="round"/>
<path d="M233.61 263.783C228.449 263.783 224.25 259.831 224.25 254.975C224.25 250.118 228.449 246.167 233.61 246.167C238.771 246.167 242.97 250.118 242.97 254.975C242.97 259.831 238.771 263.783 233.61 263.783Z" fill="#E5E7EB"/>
<path d="M233.61 263.783C228.449 263.783 224.25 259.831 224.25 254.975C224.25 250.118 228.449 246.167 233.61 246.167C238.771 246.167 242.97 250.118 242.97 254.975C242.97 259.831 238.771 263.783 233.61 263.783Z" stroke="#833B00" stroke-width="3.12" stroke-miterlimit="10" stroke-linecap="round" stroke-linejoin="round"/>
<path d="M233.61 257.883C231.907 257.883 230.521 256.578 230.521 254.975C230.521 253.372 231.907 252.067 233.61 252.067C235.314 252.067 236.7 253.372 236.7 254.975C236.7 256.578 235.314 257.883 233.61 257.883Z" fill="#E5E7EB"/>
<path d="M233.61 257.883C231.907 257.883 230.521 256.578 230.521 254.975C230.521 253.372 231.907 252.067 233.61 252.067C235.314 252.067 236.7 253.372 236.7 254.975C236.7 256.578 235.314 257.883 233.61 257.883Z" stroke="#833B00" stroke-width="3.12" stroke-miterlimit="10" stroke-linecap="round" stroke-linejoin="round"/>
<path d="M102.964 259.652H98.7024C97.8664 259.652 97.0645 259.34 96.4734 258.783C95.8822 258.227 95.55 257.473 95.55 256.686V244.85C95.55 244.063 95.8822 243.308 96.4734 242.752C97.0645 242.196 97.8664 241.883 98.7024 241.883H102.964V259.652Z" fill="white"/>
<path d="M102.964 259.652H98.7024C97.8664 259.652 97.0645 259.34 96.4734 258.783C95.8822 258.227 95.55 257.473 95.55 256.686V244.85C95.55 244.063 95.8822 243.308 96.4734 242.752C97.0645 242.196 97.8664 241.883 98.7024 241.883H102.964V259.652Z" stroke="#833B00" stroke-width="3.12" stroke-miterlimit="10" stroke-linecap="round" stroke-linejoin="round"/>
<path d="M103.594 237.082H102.034C101.758 237.082 101.486 237.031 101.231 236.932C100.977 236.833 100.746 236.688 100.551 236.505C100.357 236.321 100.202 236.104 100.097 235.865C99.9916 235.625 99.9374 235.369 99.9375 235.11V226.026C99.9374 225.767 99.9916 225.511 100.097 225.271C100.202 225.032 100.357 224.815 100.551 224.631C100.746 224.448 100.977 224.303 101.231 224.204C101.486 224.105 101.758 224.054 102.034 224.054H103.594C103.869 224.054 104.142 224.105 104.396 224.204C104.65 224.303 104.881 224.448 105.076 224.631C105.271 224.815 105.425 225.032 105.531 225.271C105.636 225.511 105.69 225.767 105.69 226.026V235.11C105.69 235.369 105.636 235.625 105.531 235.865C105.425 236.104 105.271 236.321 105.076 236.505C104.881 236.688 104.65 236.833 104.396 236.932C104.142 237.031 103.869 237.082 103.594 237.082Z" fill="white"/>
<path d="M103.594 237.082H102.034C101.758 237.082 101.486 237.031 101.231 236.932C100.977 236.833 100.746 236.688 100.551 236.505C100.357 236.321 100.202 236.104 100.097 235.865C99.9916 235.625 99.9374 235.369 99.9375 235.11V226.026C99.9374 225.767 99.9916 225.511 100.097 225.271C100.202 225.032 100.357 224.815 100.551 224.631C100.746 224.448 100.977 224.303 101.231 224.204C101.486 224.105 101.758 224.054 102.034 224.054H103.594C103.869 224.054 104.142 224.105 104.396 224.204C104.65 224.303 104.881 224.448 105.076 224.631C105.271 224.815 105.425 225.032 105.531 225.271C105.636 225.511 105.69 225.767 105.69 226.026V235.11C105.69 235.369 105.636 235.625 105.531 235.865C105.425 236.104 105.271 236.321 105.076 236.505C104.881 236.688 104.65 236.833 104.396 236.932C104.142 237.031 103.869 237.082 103.594 237.082Z" stroke="#833B00" stroke-width="3.12" stroke-miterlimit="10" stroke-linecap="round" stroke-linejoin="round"/>
<path d="M281.288 262.47H264.518C263.587 262.47 262.694 262.122 262.036 261.502C261.378 260.883 261.008 260.043 261.008 259.167V256.598C261.008 255.722 261.378 254.882 262.036 254.262C262.694 253.643 263.587 253.295 264.518 253.295H281.288C282.219 253.295 283.112 253.643 283.77 254.262C284.428 254.882 284.798 255.722 284.798 256.598V259.167C284.798 260.043 284.428 260.883 283.77 261.502C283.112 262.122 282.219 262.47 281.288 262.47Z" fill="white"/>
<path d="M264.778 258.911C264.778 258.464 264.967 258.034 265.303 257.718C265.64 257.401 266.096 257.223 266.572 257.223H284.798V256.597C284.798 255.721 284.428 254.881 283.77 254.262C283.112 253.642 282.219 253.294 281.288 253.294H264.518C263.587 253.294 262.694 253.642 262.036 254.262C261.378 254.881 261.008 255.721 261.008 256.597V259.166C261.008 260.042 261.378 260.883 262.036 261.502C262.694 262.121 263.587 262.469 264.518 262.469H264.778V258.911Z" fill="#D1D5DB"/>
<path d="M281.288 262.47H264.518C263.587 262.47 262.694 262.122 262.036 261.502C261.378 260.883 261.008 260.043 261.008 259.167V256.598C261.008 255.722 261.378 254.882 262.036 254.262C262.694 253.643 263.587 253.295 264.518 253.295H281.288C282.219 253.295 283.112 253.643 283.77 254.262C284.428 254.882 284.798 255.722 284.798 256.598V259.167C284.798 260.043 284.428 260.883 283.77 261.502C283.112 262.122 282.219 262.47 281.288 262.47Z" stroke="#833B00" stroke-width="3.12" stroke-miterlimit="10" stroke-linecap="round" stroke-linejoin="round"/>
<path d="M252.933 212.23H234.869C232.81 212.23 231.141 210.66 231.141 208.722V191.596C231.141 189.658 232.81 188.087 234.869 188.087H245.838C250.17 188.087 253.852 191.066 254.503 195.096L256.619 208.195C256.962 210.318 255.215 212.23 252.933 212.23Z" fill="#E5E7EB"/>
<path opacity="0.56" d="M238.76 195.794C238.76 193.857 240.429 192.286 242.488 192.286H253.457L253.475 192.287C251.959 189.757 249.081 188.087 245.838 188.087H234.869C232.81 188.087 231.141 189.658 231.141 191.596V208.722C231.141 210.66 232.81 212.23 234.869 212.23H238.759L238.76 195.794Z" fill="#E5E7EB"/>
<path d="M252.933 212.23H234.869C232.81 212.23 231.141 210.66 231.141 208.722V191.596C231.141 189.658 232.81 188.087 234.869 188.087H245.838C250.17 188.087 253.852 191.066 254.503 195.096L256.619 208.195C256.962 210.318 255.215 212.23 252.933 212.23Z" stroke="#833B00" stroke-width="3.12" stroke-miterlimit="10" stroke-linecap="round" stroke-linejoin="round"/>
<path d="M219.092 211.864H179.228C177.169 211.864 175.5 210.293 175.5 208.356V191.229C175.5 189.291 177.169 187.721 179.228 187.721H219.092C221.151 187.721 222.82 189.291 222.82 191.229V208.356C222.82 208.816 222.724 209.273 222.536 209.698C222.349 210.124 222.074 210.511 221.728 210.836C221.382 211.162 220.971 211.421 220.519 211.597C220.066 211.773 219.581 211.864 219.092 211.864Z" fill="#E5E7EB"/>
<path opacity="0.56" d="M182.73 194.979C182.73 193.042 184.399 191.471 186.458 191.471H222.82V191.229C222.82 189.291 221.151 187.721 219.092 187.721H179.228C177.169 187.721 175.5 189.291 175.5 191.229V208.356C175.5 210.293 177.169 211.864 179.228 211.864H182.73V194.979Z" fill="#E5E7EB"/>
<path d="M219.092 211.864H179.228C177.169 211.864 175.5 210.293 175.5 208.356V191.229C175.5 189.291 177.169 187.721 179.228 187.721H219.092C221.151 187.721 222.82 189.291 222.82 191.229V208.356C222.82 208.816 222.724 209.273 222.536 209.698C222.349 210.124 222.074 210.511 221.728 210.836C221.382 211.162 220.971 211.421 220.519 211.597C220.066 211.773 219.581 211.864 219.092 211.864Z" stroke="#833B00" stroke-width="3.12" stroke-miterlimit="10" stroke-linecap="round" stroke-linejoin="round"/>
<path d="M157.381 212.23H119.834C117.736 212.23 116.216 210.014 116.782 207.777L121.11 190.651C121.493 189.135 122.74 188.087 124.162 188.087H157.381C159.131 188.087 160.55 189.658 160.55 191.596V208.722C160.55 210.66 159.131 212.23 157.381 212.23Z" fill="#E5E7EB"/>
<path opacity="0.56" d="M123.802 211.407L128.13 194.28C128.513 192.764 129.76 191.717 131.182 191.717H160.55V191.596C160.55 189.658 159.131 188.087 157.381 188.087H124.162C122.74 188.087 121.493 189.135 121.11 190.651L116.782 207.777C116.217 210.014 117.736 212.23 119.834 212.23H123.685C123.695 211.959 123.732 211.683 123.802 211.407Z" fill="#E5E7EB"/>
<path d="M157.381 212.23H119.834C117.736 212.23 116.216 210.014 116.782 207.777L121.11 190.651C121.493 189.135 122.74 188.087 124.162 188.087H157.381C159.131 188.087 160.55 189.658 160.55 191.596V208.722C160.55 210.66 159.131 212.23 157.381 212.23Z" stroke="#833B00" stroke-width="3.12" stroke-miterlimit="10" stroke-linecap="round" stroke-linejoin="round"/>
<path opacity="0.48" d="M161.229 180.103C165.664 180.103 169.26 183.487 169.26 187.661V257.089" stroke="#833B00" stroke-width="0.78" stroke-miterlimit="10" stroke-linecap="round" stroke-linejoin="round"/>
<path d="M150.863 221.056H162.563M211.575 220.2H221.551" stroke="#833B00" stroke-width="3.12" stroke-miterlimit="10" stroke-linecap="round" stroke-linejoin="round"/>
<path d="M279.338 245.693H277.811V210.658H279.338C281.922 210.658 284.018 212.63 284.018 215.062V241.289C284.018 243.721 281.922 245.693 279.338 245.693Z" fill="#D1D5DB"/>
<path d="M261.008 191.757H265.735M262.973 198.058H267.7M264.813 204.358H269.54M265.608 210.658H270.335M279.338 245.692H277.811V210.658H279.338C281.922 210.658 284.018 212.63 284.018 215.062V241.288C284.018 243.721 281.922 245.692 279.338 245.692Z" stroke="#833B00" stroke-width="3.12" stroke-miterlimit="10" stroke-linecap="round" stroke-linejoin="round"/>
<path d="M208.575 259.35H158.147C156.06 259.35 154.367 257.758 154.367 255.793C154.367 253.829 156.06 252.236 158.147 252.236H208.575C210.663 252.236 212.356 253.829 212.356 255.793C212.355 257.758 210.663 259.35 208.575 259.35Z" fill="white"/>
<path d="M208.575 259.35H158.147C156.06 259.35 154.367 257.758 154.367 255.793C154.367 253.829 156.06 252.236 158.147 252.236H208.575C210.663 252.236 212.356 253.829 212.356 255.793C212.355 257.758 210.663 259.35 208.575 259.35Z" fill="white"/>
<path d="M154.367 252.236H212.355V255.793H154.367V252.236Z" fill="#D1D5DB"/>
<path d="M208.575 259.35H158.147C156.06 259.35 154.367 257.758 154.367 255.793C154.367 253.829 156.06 252.236 158.147 252.236H208.575C210.663 252.236 212.356 253.829 212.356 255.793C212.355 257.758 210.663 259.35 208.575 259.35Z" stroke="#833B00" stroke-width="3.12" stroke-miterlimit="10" stroke-linecap="round" stroke-linejoin="round"/>
<path d="M127.238 203.135L134.843 195.886M133.703 203.788L143.969 194.036M186.635 202.28L194.24 195.032M193.1 202.934L203.366 193.182M236.053 203.002L242.341 197.008M241.399 203.543L249.889 195.478" stroke="#833B00" stroke-width="1.56" stroke-miterlimit="10" stroke-linecap="round" stroke-linejoin="round"/>
<path d="M300.189 222.374L332.407 150.583C333.106 149.026 335.45 149.026 336.149 150.583L368.367 222.374C372.223 230.968 364.014 239.949 352.303 239.949H316.253C304.542 239.949 296.333 230.968 300.189 222.374Z" fill="#E5E7EB"/>
<path d="M300.189 222.374L332.407 150.583C333.106 149.026 335.45 149.026 336.149 150.583L368.367 222.374C372.223 230.968 364.014 239.949 352.303 239.949H316.253C304.542 239.949 296.333 230.968 300.189 222.374Z" fill="#E5E7EB"/>
<path opacity="0.56" d="M315.936 225.75L338.892 156.695L336.149 150.583C335.45 149.026 333.106 149.026 332.407 150.583L300.189 222.375C296.333 230.968 304.542 239.949 316.253 239.949H318.971C315.594 237.236 314.259 232.71 315.936 225.75Z" fill="#E5E7EB"/>
<path d="M334.278 271.828V163.804M343.544 178.832L334.278 187.17L325.013 178.832M345.312 194.696L334.278 204.626L323.245 194.696M352.69 212.745L334.278 226.527L315.866 212.745" stroke="#6B7280" stroke-width="3.12" stroke-miterlimit="10" stroke-linecap="round" stroke-linejoin="round"/>
<path d="M230.888 55.6626L226.2 60.0743L221.512 55.6626M265.696 61.3838L261.008 65.7955L256.32 61.3838M339.866 85.0674L335.178 89.4791L330.49 85.0674" stroke="#D1D5DB" stroke-width="3.12" stroke-miterlimit="10" stroke-linecap="round" stroke-linejoin="round"/>
<path d="M294.45 271.829H186.03M187.46 271.829H174.33" stroke="#6B7280" stroke-width="3.12" stroke-miterlimit="10" stroke-linecap="round" stroke-linejoin="round"/>
<path d="M103.042 301.056C105.058 301.056 106.634 301.656 107.77 302.856C108.922 304.056 109.498 305.768 109.498 307.992V318H107.722V308.04C107.722 306.264 107.282 304.92 106.402 304.008C105.522 303.096 104.29 302.64 102.706 302.64C101.042 302.64 99.7461 303.128 98.8181 304.104C97.8901 305.064 97.4261 306.512 97.4261 308.448V318H95.6501V301.2H97.3541V304.032C98.4261 302.048 100.322 301.056 103.042 301.056ZM119.622 318.12C118.406 318.12 117.31 317.848 116.334 317.304C115.358 316.744 114.59 315.976 114.03 315C113.47 314.024 113.19 312.92 113.19 311.688C113.19 310.456 113.47 309.352 114.03 308.376C114.59 307.4 115.358 306.64 116.334 306.096C117.31 305.552 118.406 305.28 119.622 305.28C120.838 305.28 121.934 305.552 122.91 306.096C123.886 306.64 124.646 307.4 125.19 308.376C125.75 309.352 126.03 310.456 126.03 311.688C126.03 312.92 125.75 314.024 125.19 315C124.646 315.976 123.886 316.744 122.91 317.304C121.934 317.848 120.838 318.12 119.622 318.12ZM119.622 316.608C120.518 316.608 121.318 316.408 122.022 316.008C122.742 315.592 123.302 315.008 123.702 314.256C124.102 313.504 124.302 312.648 124.302 311.688C124.302 310.728 124.102 309.872 123.702 309.12C123.302 308.368 122.742 307.792 122.022 307.392C121.318 306.976 120.518 306.768 119.622 306.768C118.726 306.768 117.918 306.976 117.198 307.392C116.494 307.792 115.934 308.368 115.518 309.12C115.118 309.872 114.918 310.728 114.918 311.688C114.918 312.648 115.118 313.504 115.518 314.256C115.934 315.008 116.494 315.592 117.198 316.008C117.918 316.408 118.726 316.608 119.622 316.608ZM137.422 307.848C137.822 307 138.414 306.36 139.198 305.928C139.998 305.496 140.982 305.28 142.15 305.28V306.936L141.742 306.912C140.414 306.912 139.374 307.32 138.622 308.136C137.87 308.952 137.494 310.096 137.494 311.568V318H135.79V305.376H137.422V307.848ZM150.518 316.608C151.302 316.608 152.022 316.472 152.678 316.2C153.35 315.912 153.918 315.496 154.382 314.952L155.342 316.056C154.782 316.728 154.086 317.24 153.254 317.592C152.422 317.944 151.502 318.12 150.494 318.12C149.198 318.12 148.046 317.848 147.038 317.304C146.03 316.744 145.246 315.976 144.686 315C144.126 314.024 143.846 312.92 143.846 311.688C143.846 310.456 144.11 309.352 144.638 308.376C145.182 307.4 145.926 306.64 146.87 306.096C147.814 305.552 148.886 305.28 150.086 305.28C151.206 305.28 152.214 305.536 153.11 306.048C154.022 306.56 154.742 307.272 155.27 308.184C155.814 309.096 156.102 310.136 156.134 311.304L145.766 313.32C146.086 314.344 146.662 315.152 147.494 315.744C148.342 316.32 149.35 316.608 150.518 316.608ZM150.086 306.744C149.206 306.744 148.414 306.952 147.71 307.368C147.022 307.768 146.478 308.336 146.078 309.072C145.694 309.792 145.502 310.624 145.502 311.568C145.502 311.808 145.51 311.984 145.526 312.096L154.43 310.368C154.238 309.312 153.75 308.448 152.966 307.776C152.182 307.088 151.222 306.744 150.086 306.744ZM164.835 318.12C163.587 318.12 162.467 317.848 161.475 317.304C160.499 316.76 159.731 316 159.171 315.024C158.611 314.032 158.331 312.92 158.331 311.688C158.331 310.456 158.611 309.352 159.171 308.376C159.731 307.4 160.499 306.64 161.475 306.096C162.467 305.552 163.587 305.28 164.835 305.28C165.923 305.28 166.891 305.496 167.739 305.928C168.603 306.344 169.283 306.96 169.779 307.776L168.507 308.64C168.091 308.016 167.563 307.552 166.923 307.248C166.283 306.928 165.587 306.768 164.835 306.768C163.923 306.768 163.099 306.976 162.363 307.392C161.643 307.792 161.075 308.368 160.659 309.12C160.259 309.872 160.059 310.728 160.059 311.688C160.059 312.664 160.259 313.528 160.659 314.28C161.075 315.016 161.643 315.592 162.363 316.008C163.099 316.408 163.923 316.608 164.835 316.608C165.587 316.608 166.283 316.456 166.923 316.152C167.563 315.848 168.091 315.384 168.507 314.76L169.779 315.624C169.283 316.44 168.603 317.064 167.739 317.496C166.875 317.912 165.907 318.12 164.835 318.12ZM178.075 318.12C176.859 318.12 175.763 317.848 174.787 317.304C173.811 316.744 173.043 315.976 172.483 315C171.923 314.024 171.643 312.92 171.643 311.688C171.643 310.456 171.923 309.352 172.483 308.376C173.043 307.4 173.811 306.64 174.787 306.096C175.763 305.552 176.859 305.28 178.075 305.28C179.291 305.28 180.387 305.552 181.363 306.096C182.339 306.64 183.099 307.4 183.643 308.376C184.203 309.352 184.483 310.456 184.483 311.688C184.483 312.92 184.203 314.024 183.643 315C183.099 315.976 182.339 316.744 181.363 317.304C180.387 317.848 179.291 318.12 178.075 318.12ZM178.075 316.608C178.971 316.608 179.771 316.408 180.475 316.008C181.195 315.592 181.755 315.008 182.155 314.256C182.555 313.504 182.755 312.648 182.755 311.688C182.755 310.728 182.555 309.872 182.155 309.12C181.755 308.368 181.195 307.792 180.475 307.392C179.771 306.976 178.971 306.768 178.075 306.768C177.179 306.768 176.371 306.976 175.651 307.392C174.947 307.792 174.387 308.368 173.971 309.12C173.571 309.872 173.371 310.728 173.371 311.688C173.371 312.648 173.571 313.504 173.971 314.256C174.387 315.008 174.947 315.592 175.651 316.008C176.371 316.408 177.179 316.608 178.075 316.608ZM189.594 307.848C189.994 307 190.586 306.36 191.37 305.928C192.17 305.496 193.154 305.28 194.322 305.28V306.936L193.914 306.912C192.586 306.912 191.546 307.32 190.794 308.136C190.042 308.952 189.666 310.096 189.666 311.568V318H187.962V305.376H189.594V307.848ZM208.81 300.192V318H207.178V315.504C206.666 316.352 205.986 317 205.138 317.448C204.306 317.896 203.362 318.12 202.306 318.12C201.122 318.12 200.05 317.848 199.09 317.304C198.13 316.76 197.378 316 196.834 315.024C196.29 314.048 196.018 312.936 196.018 311.688C196.018 310.44 196.29 309.328 196.834 308.352C197.378 307.376 198.13 306.624 199.09 306.096C200.05 305.552 201.122 305.28 202.306 305.28C203.33 305.28 204.25 305.496 205.066 305.928C205.898 306.344 206.578 306.96 207.106 307.776V300.192H208.81ZM202.45 316.608C203.33 316.608 204.122 316.408 204.826 316.008C205.546 315.592 206.106 315.008 206.506 314.256C206.922 313.504 207.13 312.648 207.13 311.688C207.13 310.728 206.922 309.872 206.506 309.12C206.106 308.368 205.546 307.792 204.826 307.392C204.122 306.976 203.33 306.768 202.45 306.768C201.554 306.768 200.746 306.976 200.026 307.392C199.322 307.792 198.762 308.368 198.346 309.12C197.946 309.872 197.746 310.728 197.746 311.688C197.746 312.648 197.946 313.504 198.346 314.256C198.762 315.008 199.322 315.592 200.026 316.008C200.746 316.408 201.554 316.608 202.45 316.608ZM223.725 301.512C222.989 301.512 222.429 301.712 222.045 302.112C221.677 302.512 221.493 303.104 221.493 303.888V305.376H225.381V306.816H221.541V318H219.837V303.816C219.837 302.664 220.165 301.752 220.821 301.08C221.493 300.408 222.437 300.072 223.653 300.072C224.133 300.072 224.597 300.144 225.045 300.288C225.493 300.416 225.869 300.608 226.173 300.864L225.597 302.136C225.101 301.72 224.477 301.512 223.725 301.512ZM232.638 318.12C231.422 318.12 230.326 317.848 229.35 317.304C228.374 316.744 227.606 315.976 227.046 315C226.486 314.024 226.206 312.92 226.206 311.688C226.206 310.456 226.486 309.352 227.046 308.376C227.606 307.4 228.374 306.64 229.35 306.096C230.326 305.552 231.422 305.28 232.638 305.28C233.854 305.28 234.95 305.552 235.926 306.096C236.902 306.64 237.662 307.4 238.206 308.376C238.766 309.352 239.046 310.456 239.046 311.688C239.046 312.92 238.766 314.024 238.206 315C237.662 315.976 236.902 316.744 235.926 317.304C234.95 317.848 233.854 318.12 232.638 318.12ZM232.638 316.608C233.534 316.608 234.334 316.408 235.038 316.008C235.758 315.592 236.318 315.008 236.718 314.256C237.118 313.504 237.318 312.648 237.318 311.688C237.318 310.728 237.118 309.872 236.718 309.12C236.318 308.368 235.758 307.792 235.038 307.392C234.334 306.976 233.534 306.768 232.638 306.768C231.742 306.768 230.934 306.976 230.214 307.392C229.51 307.792 228.95 308.368 228.534 309.12C228.134 309.872 227.934 310.728 227.934 311.688C227.934 312.648 228.134 313.504 228.534 314.256C228.95 315.008 229.51 315.592 230.214 316.008C230.934 316.408 231.742 316.608 232.638 316.608ZM253.9 305.376V318H252.268V315.696C251.82 316.464 251.204 317.064 250.42 317.496C249.636 317.912 248.74 318.12 247.732 318.12C246.084 318.12 244.78 317.664 243.82 316.752C242.876 315.824 242.404 314.472 242.404 312.696V305.376H244.108V312.528C244.108 313.856 244.436 314.864 245.092 315.552C245.748 316.24 246.684 316.584 247.9 316.584C249.228 316.584 250.276 316.184 251.044 315.384C251.812 314.568 252.196 313.44 252.196 312V305.376H253.9ZM265.105 305.28C266.689 305.28 267.945 305.744 268.873 306.672C269.817 307.584 270.289 308.92 270.289 310.68V318H268.585V310.848C268.585 309.536 268.257 308.536 267.601 307.848C266.945 307.16 266.009 306.816 264.793 306.816C263.433 306.816 262.353 307.224 261.553 308.04C260.769 308.84 260.377 309.952 260.377 311.376V318H258.673V305.376H260.305V307.704C260.769 306.936 261.409 306.344 262.225 305.928C263.057 305.496 264.017 305.28 265.105 305.28ZM286.482 300.192V318H284.85V315.504C284.338 316.352 283.658 317 282.81 317.448C281.978 317.896 281.034 318.12 279.978 318.12C278.794 318.12 277.722 317.848 276.762 317.304C275.802 316.76 275.05 316 274.506 315.024C273.962 314.048 273.69 312.936 273.69 311.688C273.69 310.44 273.962 309.328 274.506 308.352C275.05 307.376 275.802 306.624 276.762 306.096C277.722 305.552 278.794 305.28 279.978 305.28C281.002 305.28 281.922 305.496 282.738 305.928C283.57 306.344 284.25 306.96 284.778 307.776V300.192H286.482ZM280.122 316.608C281.002 316.608 281.794 316.408 282.498 316.008C283.218 315.592 283.778 315.008 284.178 314.256C284.594 313.504 284.802 312.648 284.802 311.688C284.802 310.728 284.594 309.872 284.178 309.12C283.778 308.368 283.218 307.792 282.498 307.392C281.794 306.976 281.002 306.768 280.122 306.768C279.226 306.768 278.418 306.976 277.698 307.392C276.994 307.792 276.434 308.368 276.018 309.12C275.618 309.872 275.418 310.728 275.418 311.688C275.418 312.648 275.618 313.504 276.018 314.256C276.434 315.008 276.994 315.592 277.698 316.008C278.418 316.408 279.226 316.608 280.122 316.608ZM290.964 301.2H292.98L292.62 312.96H291.3L290.964 301.2ZM291.972 318.12C291.62 318.12 291.316 318 291.06 317.76C290.82 317.504 290.7 317.208 290.7 316.872C290.7 316.52 290.82 316.232 291.06 316.008C291.3 315.768 291.604 315.648 291.972 315.648C292.324 315.648 292.62 315.768 292.86 316.008C293.1 316.232 293.22 316.52 293.22 316.872C293.22 317.208 293.1 317.504 292.86 317.76C292.62 318 292.324 318.12 291.972 318.12Z" fill="#101828"/>
</g>
<defs>
<clipPath id="clip0_4322_4960">
<rect width="390" height="367" fill="white"/>
</clipPath>
</defs>
</svg>
