<svg width="390" height="367" viewBox="0 0 390 367" fill="none" xmlns="http://www.w3.org/2000/svg">
<g clip-path="url(#clip0_806_59797)">
<path d="M0 0H390V367H0V0Z" fill="white"/>
<path d="M92.0876 172.876C83.0907 164.281 77.5391 152.483 77.5391 139.466C77.5391 113.17 100.191 91.8535 128.135 91.8535C156.078 91.8535 178.731 113.17 178.731 139.466L139.769 111.558L92.0876 172.876Z" fill="#E5E7EB"/>
<path d="M128.135 79.1989V84.323M128.135 69.6657V75.028M128.135 57.8682V64.8992M117.014 80.1146L117.959 85.1609M115.255 70.726L116.244 76.0071M113.078 59.1079L114.375 66.0321M106.231 82.8333L108.093 87.6484M102.766 73.8752L104.715 78.9141M98.4781 62.7893L101.033 69.396M96.1131 87.2733L98.8357 91.7107M91.0478 79.0173L93.8972 83.6609M84.7793 68.8004L88.5152 74.8893M86.9684 93.2987L90.4687 97.2238M80.4566 85.9958L84.1195 90.1036M72.398 76.9584L77.2009 82.3445M79.0748 100.727L83.2459 104.021M71.3142 94.599L75.6795 98.0459M61.7105 87.016L67.4337 91.5353M72.6714 109.332L77.3873 111.894M63.898 104.566L68.833 107.247M53.0408 98.6668L59.5113 102.182M67.9536 118.853L73.0704 120.606M58.4341 115.592L63.7888 117.427M46.6533 111.558L53.6741 113.962M65.0645 129L70.4266 129.89M55.0875 127.345L60.6992 128.276M42.7413 125.296L50.099 126.517M64.0914 139.465H69.5366M53.9608 139.465H59.6591M41.4238 139.465H48.8955M65.0645 149.931L70.4266 149.041M55.0875 151.586L60.6992 150.655M42.7413 153.635L50.099 152.414M67.9536 160.078L73.0704 158.326M58.4341 163.338L63.7888 161.505M46.6533 167.374L53.6741 164.969M72.6714 169.599L77.3873 167.037M63.898 174.366L68.833 171.684M53.0408 180.265L59.5113 176.749M188.316 118.853L183.199 120.606M197.836 115.592L192.481 117.427M183.598 109.332L178.883 111.894M192.372 104.566L187.437 107.247M203.229 98.6668L196.758 102.182M177.195 100.727L173.024 104.021M184.956 94.599L180.591 98.0459M194.56 87.016L188.836 91.5353M169.301 93.2987L165.801 97.2238M175.813 85.9958L172.15 90.1036M183.872 76.9584L179.069 82.3445M160.157 87.2733L157.434 91.7107M165.222 79.0173L162.373 83.6609M171.49 68.8004L167.755 74.8893M150.039 82.8333L148.177 87.6484M153.504 73.8752L151.555 78.9141M157.792 62.7893L155.236 69.396M139.256 80.1146L138.31 85.1609M141.015 70.726L140.026 76.0071M143.192 59.1079L141.895 66.0321" stroke="#E5E7EB" stroke-width="3.12" stroke-miterlimit="10" stroke-linecap="round" stroke-linejoin="round"/>
<path d="M83.6549 271.829H29.3076M168.285 271.829H90.4799M309.075 271.829H302.006M349.635 271.829H315.866M358.02 271.829H355.485" stroke="#6B7280" stroke-width="3.12" stroke-miterlimit="10" stroke-linecap="round" stroke-linejoin="round"/>
<path d="M63.499 209.393L139.987 111.697L182.73 142.641" stroke="#D1D5DB" stroke-width="3.12" stroke-miterlimit="10" stroke-linecap="round" stroke-linejoin="round"/>
<path d="M163.195 167.614L217.797 97.813L310.553 177.093" stroke="#D1D5DB" stroke-width="3.12" stroke-miterlimit="10" stroke-linecap="round" stroke-linejoin="round"/>
<path d="M44.8646 229.861C47.9195 227.665 49.5733 224.872 48.5585 223.621C47.5436 222.371 44.2445 223.138 41.1896 225.333C38.1347 227.529 36.4809 230.323 37.4957 231.573C38.5105 232.823 41.8097 232.057 44.8646 229.861Z" fill="#E5E7EB"/>
<path d="M44.8636 218.253C47.9185 216.057 49.5723 213.264 48.5575 212.013C47.5427 210.763 44.2435 211.53 41.1886 213.725C38.1337 215.921 36.4799 218.715 37.4947 219.965C38.5096 221.215 41.8087 220.449 44.8636 218.253Z" fill="#E5E7EB"/>
<path d="M44.8646 258.092C47.9195 255.896 49.5733 253.103 48.5585 251.852C47.5436 250.602 44.2445 251.369 41.1896 253.564C38.1347 255.76 36.4809 258.554 37.4957 259.804C38.5105 261.054 41.8097 260.288 44.8646 258.092Z" fill="#E5E7EB"/>
<path d="M44.8636 243.587C47.9185 241.391 49.5723 238.598 48.5575 237.347C47.5427 236.097 44.2435 236.864 41.1886 239.059C38.1337 241.255 36.4799 244.049 37.4947 245.299C38.5095 246.549 41.8087 245.783 44.8636 243.587Z" fill="#E5E7EB"/>
<path d="M44.8646 229.861C47.9195 227.665 49.5733 224.872 48.5585 223.621C47.5436 222.371 44.2445 223.138 41.1896 225.333C38.1347 227.529 36.4809 230.323 37.4957 231.573C38.5105 232.823 41.8097 232.057 44.8646 229.861Z" stroke="#6B7280" stroke-width="3.12" stroke-miterlimit="10" stroke-linecap="round" stroke-linejoin="round"/>
<path d="M44.8636 218.253C47.9185 216.057 49.5723 213.264 48.5575 212.013C47.5427 210.763 44.2435 211.53 41.1886 213.725C38.1337 215.921 36.4799 218.715 37.4947 219.965C38.5096 221.215 41.8087 220.449 44.8636 218.253Z" stroke="#6B7280" stroke-width="3.12" stroke-miterlimit="10" stroke-linecap="round" stroke-linejoin="round"/>
<path d="M44.8646 258.092C47.9195 255.896 49.5733 253.103 48.5585 251.852C47.5436 250.602 44.2445 251.369 41.1896 253.564C38.1347 255.76 36.4809 258.554 37.4957 259.804C38.5105 261.054 41.8097 260.288 44.8646 258.092Z" stroke="#6B7280" stroke-width="3.12" stroke-miterlimit="10" stroke-linecap="round" stroke-linejoin="round"/>
<path d="M44.8636 243.587C47.9185 241.391 49.5723 238.598 48.5575 237.347C47.5427 236.097 44.2435 236.864 41.1886 239.059C38.1337 241.255 36.4799 244.049 37.4947 245.299C38.5095 246.549 41.8087 245.783 44.8636 243.587Z" stroke="#6B7280" stroke-width="3.12" stroke-miterlimit="10" stroke-linecap="round" stroke-linejoin="round"/>
<path d="M37.4882 219.98C38.503 218.729 36.8492 215.936 33.7943 213.74C30.7394 211.544 27.4402 210.778 26.4254 212.028C25.4106 213.278 27.0644 216.072 30.1193 218.268C33.1742 220.464 36.4733 221.23 37.4882 219.98Z" fill="#E5E7EB"/>
<path d="M37.4882 253.986C38.503 252.736 36.8492 249.942 33.7943 247.746C30.7394 245.551 27.4402 244.784 26.4254 246.035C25.4106 247.285 27.0644 250.078 30.1193 252.274C33.1742 254.47 36.4733 255.236 37.4882 253.986Z" fill="#E5E7EB"/>
<path d="M37.4884 239.443C38.5032 238.192 36.8494 235.399 33.7945 233.203C30.7396 231.007 27.4405 230.241 26.4256 231.491C25.4108 232.741 27.0646 235.535 30.1195 237.731C33.1744 239.926 36.4736 240.693 37.4884 239.443Z" fill="#E5E7EB"/>
<path d="M37.4882 219.98C38.503 218.729 36.8492 215.936 33.7943 213.74C30.7394 211.544 27.4402 210.778 26.4254 212.028C25.4106 213.278 27.0644 216.072 30.1193 218.268C33.1742 220.464 36.4733 221.23 37.4882 219.98Z" stroke="#6B7280" stroke-width="3.12" stroke-miterlimit="10" stroke-linecap="round" stroke-linejoin="round"/>
<path d="M37.4882 253.986C38.503 252.736 36.8492 249.942 33.7943 247.746C30.7394 245.551 27.4402 244.784 26.4254 246.035C25.4106 247.285 27.0644 250.078 30.1193 252.274C33.1742 254.47 36.4733 255.236 37.4882 253.986Z" stroke="#6B7280" stroke-width="3.12" stroke-miterlimit="10" stroke-linecap="round" stroke-linejoin="round"/>
<path d="M37.4884 239.443C38.5032 238.192 36.8494 235.399 33.7945 233.203C30.7396 231.007 27.4405 230.241 26.4256 231.491C25.4108 232.741 27.0646 235.535 30.1195 237.731C33.1744 239.926 36.4736 240.693 37.4884 239.443Z" stroke="#6B7280" stroke-width="3.12" stroke-miterlimit="10" stroke-linecap="round" stroke-linejoin="round"/>
<path d="M37.4912 217.821V271.142" stroke="#6B7280" stroke-width="3.12" stroke-miterlimit="10" stroke-linecap="round" stroke-linejoin="round"/>
<path d="M77.2298 260.902C80.2847 258.707 81.9385 255.913 80.9237 254.663C79.9089 253.413 76.6097 254.179 73.5548 256.375C70.4999 258.571 68.8461 261.364 69.8609 262.614C70.8758 263.865 74.1749 263.098 77.2298 260.902Z" stroke="#6B7280" stroke-width="3.12" stroke-miterlimit="10" stroke-linecap="round" stroke-linejoin="round"/>
<path d="M77.2298 248.718C80.2847 246.522 81.9385 243.729 80.9237 242.478C79.9089 241.228 76.6097 241.994 73.5548 244.19C70.4999 246.386 68.8461 249.18 69.8609 250.43C70.8758 251.68 74.1749 250.914 77.2298 248.718Z" stroke="#6B7280" stroke-width="3.12" stroke-miterlimit="10" stroke-linecap="round" stroke-linejoin="round"/>
<path d="M77.2288 237.721C80.2837 235.526 81.9375 232.732 80.9227 231.482C79.9079 230.231 76.6087 230.998 73.5538 233.194C70.4989 235.389 68.8451 238.183 69.86 239.433C70.8748 240.684 74.1739 239.917 77.2288 237.721Z" stroke="#6B7280" stroke-width="3.12" stroke-miterlimit="10" stroke-linecap="round" stroke-linejoin="round"/>
<path d="M69.8534 253.987C70.8682 252.737 69.2144 249.943 66.1595 247.747C63.1046 245.552 59.8055 244.785 58.7906 246.035C57.7758 247.286 59.4296 250.079 62.4845 252.275C65.5394 254.471 68.8386 255.237 69.8534 253.987Z" stroke="#6B7280" stroke-width="3.12" stroke-miterlimit="10" stroke-linecap="round" stroke-linejoin="round"/>
<path d="M69.8544 239.443C70.8692 238.193 69.2154 235.399 66.1605 233.203C63.1056 231.008 59.8064 230.241 58.7916 231.492C57.7768 232.742 59.4306 235.535 62.4855 237.731C65.5404 239.927 68.8395 240.693 69.8544 239.443Z" stroke="#6B7280" stroke-width="3.12" stroke-miterlimit="10" stroke-linecap="round" stroke-linejoin="round"/>
<path d="M69.8564 237.928V271.142" stroke="#6B7280" stroke-width="3.12" stroke-miterlimit="10" stroke-linecap="round" stroke-linejoin="round"/>
<path d="M115.262 143.455L119.049 148.081L128.324 144.632L140.284 148.96L145.224 144.632L154.584 147.536L159.657 140.274L171.547 144.761L176.25 137.95M193.645 128.688L205.479 126.084L209.834 133.607L222.119 127.368L231.089 132.69L236.874 124.616L251.931 126.988M243.47 101.205H299.025C299.354 100.473 299.523 99.6854 299.522 98.8905C299.522 95.608 296.694 92.9473 293.206 92.9473C292.519 92.9473 291.858 93.0541 291.239 93.2453C289.782 89.5364 285.99 86.8918 281.543 86.8918C280.362 86.8918 279.23 87.0804 278.173 87.4232C275.937 82.7821 270.974 79.5518 265.206 79.5518C257.344 79.5518 250.971 85.5493 250.971 92.9473C250.971 93.6948 251.039 94.427 251.164 95.1412C247.628 95.7779 244.735 98.1109 243.47 101.205ZM339.864 125.116C339.865 125.08 339.867 125.045 339.867 125.01C339.867 121.498 336.841 118.651 333.109 118.651C332.438 118.651 331.771 118.745 331.129 118.929C331.141 118.741 331.147 118.552 331.147 118.363C331.147 112.798 326.352 108.285 320.437 108.285C314.522 108.285 309.727 112.798 309.727 118.363C309.727 118.939 309.781 119.501 309.88 120.05C309.828 120.048 309.779 120.043 309.727 120.043C306.825 120.043 304.473 122.256 304.473 124.987C304.473 125.031 304.479 125.073 304.48 125.116L339.864 125.116Z" stroke="#D1D5DB" stroke-width="3.12" stroke-miterlimit="10" stroke-linecap="round" stroke-linejoin="round"/>
<path d="M132.953 271.828C123.077 271.828 115.043 264.268 115.043 254.975C115.043 245.682 123.077 238.121 132.953 238.121C142.828 238.121 150.863 245.682 150.863 254.975C150.863 264.268 142.828 271.828 132.953 271.828Z" fill="#5A2900"/>
<path d="M132.953 271.828C123.077 271.828 115.043 264.268 115.043 254.975C115.043 245.682 123.077 238.121 132.953 238.121C142.828 238.121 150.863 245.682 150.863 254.975C150.863 264.268 142.828 271.828 132.953 271.828Z" stroke="#833B00" stroke-width="3.12" stroke-miterlimit="10" stroke-linecap="round" stroke-linejoin="round"/>
<path d="M132.953 263.783C127.792 263.783 123.593 259.832 123.593 254.975C123.593 250.118 127.792 246.167 132.953 246.167C138.114 246.167 142.313 250.118 142.313 254.975C142.313 259.832 138.114 263.783 132.953 263.783Z" fill="#E5E7EB"/>
<path d="M132.953 263.783C127.792 263.783 123.593 259.832 123.593 254.975C123.593 250.118 127.792 246.167 132.953 246.167C138.114 246.167 142.313 250.118 142.313 254.975C142.313 259.832 138.114 263.783 132.953 263.783Z" stroke="#833B00" stroke-width="3.12" stroke-miterlimit="10" stroke-linecap="round" stroke-linejoin="round"/>
<path d="M132.953 257.883C131.249 257.883 129.863 256.578 129.863 254.975C129.863 253.372 131.249 252.067 132.953 252.067C134.657 252.067 136.043 253.372 136.043 254.975C136.043 256.578 134.657 257.883 132.953 257.883Z" fill="#E5E7EB"/>
<path d="M132.953 257.883C131.249 257.883 129.863 256.578 129.863 254.975C129.863 253.372 131.249 252.067 132.953 252.067C134.657 252.067 136.043 253.372 136.043 254.975C136.043 256.578 134.657 257.883 132.953 257.883Z" stroke="#833B00" stroke-width="3.12" stroke-miterlimit="10" stroke-linecap="round" stroke-linejoin="round"/>
<path d="M276.062 203.722L272.404 190.622C271.691 188.066 270.17 185.775 268.041 184.051C265.913 182.326 263.278 181.251 260.486 180.967C244.108 179.302 224.261 178.358 201.075 178.358C174.543 178.358 133.806 180.276 121.558 181.582C120.465 181.698 119.424 182.085 118.541 182.704C117.659 183.322 116.967 184.149 116.535 185.102L109.172 201.319C105.771 207.033 103.709 213.366 103.122 219.893L102.964 256.377L111.21 256.51C111.167 255.999 111.145 255.487 111.143 254.975C111.143 243.64 120.907 234.451 132.953 234.451C144.998 234.451 154.763 243.64 154.763 254.975C154.763 255.631 154.726 256.278 154.662 256.918L211.983 257.59C211.863 256.723 211.802 255.849 211.8 254.975C211.8 243.64 221.564 234.451 233.61 234.451C245.655 234.451 255.42 243.64 255.42 254.975C255.419 255.986 255.34 256.996 255.183 257.996L278.326 258.214V220.207C278.326 214.643 277.565 209.103 276.062 203.722Z" fill="#D46101"/>
<g opacity="0.36">
<path d="M107.319 256.377L107.477 219.893C108.064 213.366 110.126 207.033 113.527 201.319L120.889 185.102C121.321 184.149 122.014 183.322 122.896 182.704C123.779 182.085 124.819 181.698 125.913 181.582C137.8 180.314 176.523 178.471 203.05 178.364C202.391 178.362 201.739 178.358 201.075 178.358C174.543 178.358 133.806 180.276 121.558 181.582C120.465 181.698 119.424 182.085 118.541 182.704C117.659 183.322 116.967 184.149 116.535 185.102L109.172 201.319C105.771 207.033 103.709 213.366 103.122 219.893L102.964 256.377L111.21 256.51C111.208 256.486 111.207 256.463 111.205 256.439L107.319 256.377ZM259.538 257.997C259.695 256.996 259.774 255.986 259.775 254.975C259.775 243.64 250.01 234.451 237.965 234.451C237.238 234.452 236.511 234.486 235.787 234.553C246.81 235.582 255.42 244.331 255.42 254.975C255.419 255.986 255.34 256.996 255.182 257.996L278.325 258.214V258.173L259.538 257.997Z" fill="#D46101"/>
<path d="M159.017 256.918C159.081 256.278 159.117 255.631 159.117 254.975C159.117 243.64 149.353 234.451 137.307 234.451C136.58 234.451 135.853 234.485 135.13 234.553C146.152 235.582 154.762 244.331 154.762 254.975C154.762 255.63 154.726 256.278 154.662 256.918L211.982 257.59L211.976 257.539L159.017 256.918Z" fill="#D46101"/>
</g>
<path opacity="0.36" d="M159.064 253.597H211.185V248.725H158.085C158.62 250.306 158.949 251.942 159.064 253.597Z" fill="#D46101"/>
<path opacity="0.25" d="M276.842 203.355L273.184 190.256C272.471 187.7 270.95 185.408 268.821 183.684C266.693 181.96 264.058 180.885 261.266 180.601C244.888 178.936 225.041 177.992 201.855 177.992C175.323 177.992 134.586 179.909 122.338 181.215C121.395 181.316 120.489 181.618 119.69 182.099C118.89 182.58 118.218 183.226 117.725 183.989C117.734 183.988 117.742 183.368 117.751 183.368C129.999 182.062 170.737 180.762 197.268 180.762C220.454 180.762 240.301 181.706 256.68 183.371C259.472 183.655 262.106 184.73 264.234 186.454C266.363 188.178 267.884 190.47 268.598 193.026L272.255 206.125C273.758 211.506 274.519 217.047 274.519 222.61V257.804L279.105 257.848V219.84C279.105 214.277 278.345 208.736 276.842 203.355Z" fill="#D46101"/>
<path d="M276.062 203.722L272.404 190.622C271.691 188.066 270.17 185.775 268.041 184.051C265.913 182.326 263.278 181.251 260.486 180.967C244.108 179.302 224.261 178.358 201.075 178.358C174.543 178.358 133.806 180.276 121.558 181.582C120.465 181.698 119.424 182.085 118.541 182.704C117.659 183.322 116.967 184.149 116.535 185.102L109.172 201.319C105.771 207.033 103.709 213.366 103.122 219.893L102.964 256.377L111.21 256.51C111.167 255.999 111.145 255.487 111.143 254.975C111.143 243.64 120.907 234.451 132.953 234.451C144.998 234.451 154.763 243.64 154.763 254.975C154.763 255.631 154.726 256.278 154.662 256.918L211.983 257.59C211.863 256.723 211.802 255.849 211.8 254.975C211.8 243.64 221.564 234.451 233.61 234.451C245.655 234.451 255.42 243.64 255.42 254.975C255.419 255.986 255.34 256.996 255.183 257.996L278.326 258.214V220.207C278.326 214.643 277.565 209.103 276.062 203.722Z" stroke="#833B00" stroke-width="3.12" stroke-miterlimit="10" stroke-linecap="round" stroke-linejoin="round"/>
<path d="M233.611 271.828C223.736 271.828 215.701 264.268 215.701 254.975C215.701 245.682 223.736 238.121 233.611 238.121C243.486 238.121 251.521 245.682 251.521 254.975C251.521 264.268 243.486 271.828 233.611 271.828Z" fill="#5A2900"/>
<path d="M233.611 271.828C223.736 271.828 215.701 264.268 215.701 254.975C215.701 245.682 223.736 238.121 233.611 238.121C243.486 238.121 251.521 245.682 251.521 254.975C251.521 264.268 243.486 271.828 233.611 271.828Z" stroke="#833B00" stroke-width="3.12" stroke-miterlimit="10" stroke-linecap="round" stroke-linejoin="round"/>
<path d="M233.61 263.783C228.449 263.783 224.25 259.831 224.25 254.975C224.25 250.118 228.449 246.167 233.61 246.167C238.771 246.167 242.97 250.118 242.97 254.975C242.97 259.831 238.771 263.783 233.61 263.783Z" fill="#E5E7EB"/>
<path d="M233.61 263.783C228.449 263.783 224.25 259.831 224.25 254.975C224.25 250.118 228.449 246.167 233.61 246.167C238.771 246.167 242.97 250.118 242.97 254.975C242.97 259.831 238.771 263.783 233.61 263.783Z" stroke="#833B00" stroke-width="3.12" stroke-miterlimit="10" stroke-linecap="round" stroke-linejoin="round"/>
<path d="M233.61 257.883C231.907 257.883 230.521 256.578 230.521 254.975C230.521 253.372 231.907 252.067 233.61 252.067C235.314 252.067 236.7 253.372 236.7 254.975C236.7 256.578 235.314 257.883 233.61 257.883Z" fill="#E5E7EB"/>
<path d="M233.61 257.883C231.907 257.883 230.521 256.578 230.521 254.975C230.521 253.372 231.907 252.067 233.61 252.067C235.314 252.067 236.7 253.372 236.7 254.975C236.7 256.578 235.314 257.883 233.61 257.883Z" stroke="#833B00" stroke-width="3.12" stroke-miterlimit="10" stroke-linecap="round" stroke-linejoin="round"/>
<path d="M102.964 259.652H98.7024C97.8664 259.652 97.0645 259.34 96.4734 258.783C95.8822 258.227 95.55 257.473 95.55 256.686V244.85C95.55 244.063 95.8822 243.308 96.4734 242.752C97.0645 242.196 97.8664 241.883 98.7024 241.883H102.964V259.652Z" fill="white"/>
<path d="M102.964 259.652H98.7024C97.8664 259.652 97.0645 259.34 96.4734 258.783C95.8822 258.227 95.55 257.473 95.55 256.686V244.85C95.55 244.063 95.8822 243.308 96.4734 242.752C97.0645 242.196 97.8664 241.883 98.7024 241.883H102.964V259.652Z" stroke="#833B00" stroke-width="3.12" stroke-miterlimit="10" stroke-linecap="round" stroke-linejoin="round"/>
<path d="M103.594 237.082H102.034C101.758 237.082 101.486 237.031 101.231 236.932C100.977 236.833 100.746 236.688 100.551 236.505C100.357 236.321 100.202 236.104 100.097 235.865C99.9916 235.625 99.9374 235.369 99.9375 235.11V226.026C99.9374 225.767 99.9916 225.511 100.097 225.271C100.202 225.032 100.357 224.815 100.551 224.631C100.746 224.448 100.977 224.303 101.231 224.204C101.486 224.105 101.758 224.054 102.034 224.054H103.594C103.869 224.054 104.142 224.105 104.396 224.204C104.65 224.303 104.881 224.448 105.076 224.631C105.271 224.815 105.425 225.032 105.531 225.271C105.636 225.511 105.69 225.767 105.69 226.026V235.11C105.69 235.369 105.636 235.625 105.531 235.865C105.425 236.104 105.271 236.321 105.076 236.505C104.881 236.688 104.65 236.833 104.396 236.932C104.142 237.031 103.869 237.082 103.594 237.082Z" fill="white"/>
<path d="M103.594 237.082H102.034C101.758 237.082 101.486 237.031 101.231 236.932C100.977 236.833 100.746 236.688 100.551 236.505C100.357 236.321 100.202 236.104 100.097 235.865C99.9916 235.625 99.9374 235.369 99.9375 235.11V226.026C99.9374 225.767 99.9916 225.511 100.097 225.271C100.202 225.032 100.357 224.815 100.551 224.631C100.746 224.448 100.977 224.303 101.231 224.204C101.486 224.105 101.758 224.054 102.034 224.054H103.594C103.869 224.054 104.142 224.105 104.396 224.204C104.65 224.303 104.881 224.448 105.076 224.631C105.271 224.815 105.425 225.032 105.531 225.271C105.636 225.511 105.69 225.767 105.69 226.026V235.11C105.69 235.369 105.636 235.625 105.531 235.865C105.425 236.104 105.271 236.321 105.076 236.505C104.881 236.688 104.65 236.833 104.396 236.932C104.142 237.031 103.869 237.082 103.594 237.082Z" stroke="#833B00" stroke-width="3.12" stroke-miterlimit="10" stroke-linecap="round" stroke-linejoin="round"/>
<path d="M281.288 262.47H264.518C263.587 262.47 262.694 262.122 262.036 261.502C261.378 260.883 261.008 260.043 261.008 259.167V256.598C261.008 255.722 261.378 254.882 262.036 254.262C262.694 253.643 263.587 253.295 264.518 253.295H281.288C282.219 253.295 283.112 253.643 283.77 254.262C284.428 254.882 284.798 255.722 284.798 256.598V259.167C284.798 260.043 284.428 260.883 283.77 261.502C283.112 262.122 282.219 262.47 281.288 262.47Z" fill="white"/>
<path d="M264.778 258.911C264.778 258.464 264.967 258.034 265.303 257.718C265.64 257.401 266.096 257.223 266.572 257.223H284.798V256.597C284.798 255.721 284.428 254.881 283.77 254.262C283.112 253.642 282.219 253.294 281.288 253.294H264.518C263.587 253.294 262.694 253.642 262.036 254.262C261.378 254.881 261.008 255.721 261.008 256.597V259.166C261.008 260.042 261.378 260.883 262.036 261.502C262.694 262.121 263.587 262.469 264.518 262.469H264.778V258.911Z" fill="#D1D5DB"/>
<path d="M281.288 262.47H264.518C263.587 262.47 262.694 262.122 262.036 261.502C261.378 260.883 261.008 260.043 261.008 259.167V256.598C261.008 255.722 261.378 254.882 262.036 254.262C262.694 253.643 263.587 253.295 264.518 253.295H281.288C282.219 253.295 283.112 253.643 283.77 254.262C284.428 254.882 284.798 255.722 284.798 256.598V259.167C284.798 260.043 284.428 260.883 283.77 261.502C283.112 262.122 282.219 262.47 281.288 262.47Z" stroke="#833B00" stroke-width="3.12" stroke-miterlimit="10" stroke-linecap="round" stroke-linejoin="round"/>
<path d="M252.933 212.23H234.869C232.81 212.23 231.141 210.66 231.141 208.722V191.596C231.141 189.658 232.81 188.087 234.869 188.087H245.838C250.17 188.087 253.852 191.066 254.503 195.096L256.619 208.195C256.962 210.318 255.215 212.23 252.933 212.23Z" fill="#E5E7EB"/>
<path opacity="0.56" d="M238.76 195.794C238.76 193.857 240.429 192.286 242.488 192.286H253.457L253.475 192.287C251.959 189.757 249.081 188.087 245.838 188.087H234.869C232.81 188.087 231.141 189.658 231.141 191.596V208.722C231.141 210.66 232.81 212.23 234.869 212.23H238.759L238.76 195.794Z" fill="#E5E7EB"/>
<path d="M252.933 212.23H234.869C232.81 212.23 231.141 210.66 231.141 208.722V191.596C231.141 189.658 232.81 188.087 234.869 188.087H245.838C250.17 188.087 253.852 191.066 254.503 195.096L256.619 208.195C256.962 210.318 255.215 212.23 252.933 212.23Z" stroke="#833B00" stroke-width="3.12" stroke-miterlimit="10" stroke-linecap="round" stroke-linejoin="round"/>
<path d="M219.092 211.864H179.228C177.169 211.864 175.5 210.293 175.5 208.356V191.229C175.5 189.291 177.169 187.721 179.228 187.721H219.092C221.151 187.721 222.82 189.291 222.82 191.229V208.356C222.82 208.816 222.724 209.273 222.536 209.698C222.349 210.124 222.074 210.511 221.728 210.836C221.382 211.162 220.971 211.421 220.519 211.597C220.066 211.773 219.581 211.864 219.092 211.864Z" fill="#E5E7EB"/>
<path opacity="0.56" d="M182.73 194.979C182.73 193.042 184.399 191.471 186.458 191.471H222.82V191.229C222.82 189.291 221.151 187.721 219.092 187.721H179.228C177.169 187.721 175.5 189.291 175.5 191.229V208.356C175.5 210.293 177.169 211.864 179.228 211.864H182.73V194.979Z" fill="#E5E7EB"/>
<path d="M219.092 211.864H179.228C177.169 211.864 175.5 210.293 175.5 208.356V191.229C175.5 189.291 177.169 187.721 179.228 187.721H219.092C221.151 187.721 222.82 189.291 222.82 191.229V208.356C222.82 208.816 222.724 209.273 222.536 209.698C222.349 210.124 222.074 210.511 221.728 210.836C221.382 211.162 220.971 211.421 220.519 211.597C220.066 211.773 219.581 211.864 219.092 211.864Z" stroke="#833B00" stroke-width="3.12" stroke-miterlimit="10" stroke-linecap="round" stroke-linejoin="round"/>
<path d="M157.381 212.23H119.834C117.736 212.23 116.216 210.014 116.782 207.777L121.11 190.651C121.493 189.135 122.74 188.087 124.162 188.087H157.381C159.131 188.087 160.55 189.658 160.55 191.596V208.722C160.55 210.66 159.131 212.23 157.381 212.23Z" fill="#E5E7EB"/>
<path opacity="0.56" d="M123.802 211.407L128.13 194.28C128.513 192.764 129.76 191.717 131.182 191.717H160.55V191.596C160.55 189.658 159.131 188.087 157.381 188.087H124.162C122.74 188.087 121.493 189.135 121.11 190.651L116.782 207.777C116.217 210.014 117.736 212.23 119.834 212.23H123.685C123.695 211.959 123.732 211.683 123.802 211.407Z" fill="#E5E7EB"/>
<path d="M157.381 212.23H119.834C117.736 212.23 116.216 210.014 116.782 207.777L121.11 190.651C121.493 189.135 122.74 188.087 124.162 188.087H157.381C159.131 188.087 160.55 189.658 160.55 191.596V208.722C160.55 210.66 159.131 212.23 157.381 212.23Z" stroke="#833B00" stroke-width="3.12" stroke-miterlimit="10" stroke-linecap="round" stroke-linejoin="round"/>
<path opacity="0.48" d="M161.229 180.103C165.664 180.103 169.26 183.487 169.26 187.661V257.089" stroke="#833B00" stroke-width="0.78" stroke-miterlimit="10" stroke-linecap="round" stroke-linejoin="round"/>
<path d="M150.863 221.056H162.563M211.575 220.2H221.551" stroke="#833B00" stroke-width="3.12" stroke-miterlimit="10" stroke-linecap="round" stroke-linejoin="round"/>
<path d="M279.338 245.693H277.811V210.658H279.338C281.922 210.658 284.018 212.63 284.018 215.062V241.289C284.018 243.721 281.922 245.693 279.338 245.693Z" fill="#D1D5DB"/>
<path d="M261.008 191.757H265.735M262.973 198.058H267.7M264.813 204.358H269.54M265.608 210.658H270.335M279.338 245.692H277.811V210.658H279.338C281.922 210.658 284.018 212.63 284.018 215.062V241.288C284.018 243.721 281.922 245.692 279.338 245.692Z" stroke="#833B00" stroke-width="3.12" stroke-miterlimit="10" stroke-linecap="round" stroke-linejoin="round"/>
<path d="M208.575 259.35H158.147C156.06 259.35 154.367 257.758 154.367 255.793C154.367 253.829 156.06 252.236 158.147 252.236H208.575C210.663 252.236 212.356 253.829 212.356 255.793C212.355 257.758 210.663 259.35 208.575 259.35Z" fill="white"/>
<path d="M208.575 259.35H158.147C156.06 259.35 154.367 257.758 154.367 255.793C154.367 253.829 156.06 252.236 158.147 252.236H208.575C210.663 252.236 212.356 253.829 212.356 255.793C212.355 257.758 210.663 259.35 208.575 259.35Z" fill="white"/>
<path d="M154.367 252.236H212.355V255.793H154.367V252.236Z" fill="#D1D5DB"/>
<path d="M208.575 259.35H158.147C156.06 259.35 154.367 257.758 154.367 255.793C154.367 253.829 156.06 252.236 158.147 252.236H208.575C210.663 252.236 212.356 253.829 212.356 255.793C212.355 257.758 210.663 259.35 208.575 259.35Z" stroke="#833B00" stroke-width="3.12" stroke-miterlimit="10" stroke-linecap="round" stroke-linejoin="round"/>
<path d="M127.238 203.135L134.843 195.886M133.703 203.788L143.969 194.036M186.635 202.28L194.24 195.032M193.1 202.934L203.366 193.182M236.053 203.002L242.341 197.008M241.399 203.543L249.889 195.478" stroke="#833B00" stroke-width="1.56" stroke-miterlimit="10" stroke-linecap="round" stroke-linejoin="round"/>
<path d="M300.189 222.374L332.407 150.583C333.106 149.026 335.45 149.026 336.149 150.583L368.367 222.374C372.223 230.968 364.014 239.949 352.303 239.949H316.253C304.542 239.949 296.333 230.968 300.189 222.374Z" fill="#E5E7EB"/>
<path d="M300.189 222.374L332.407 150.583C333.106 149.026 335.45 149.026 336.149 150.583L368.367 222.374C372.223 230.968 364.014 239.949 352.303 239.949H316.253C304.542 239.949 296.333 230.968 300.189 222.374Z" fill="#E5E7EB"/>
<path opacity="0.56" d="M315.936 225.75L338.892 156.695L336.149 150.583C335.45 149.026 333.106 149.026 332.407 150.583L300.189 222.375C296.333 230.968 304.542 239.949 316.253 239.949H318.971C315.594 237.236 314.259 232.71 315.936 225.75Z" fill="#E5E7EB"/>
<path d="M334.278 271.828V163.804M343.544 178.832L334.278 187.17L325.013 178.832M345.312 194.696L334.278 204.626L323.245 194.696M352.69 212.745L334.278 226.527L315.866 212.745" stroke="#6B7280" stroke-width="3.12" stroke-miterlimit="10" stroke-linecap="round" stroke-linejoin="round"/>
<path d="M230.888 55.6626L226.2 60.0743L221.512 55.6626M265.696 61.3838L261.008 65.7955L256.32 61.3838M339.866 85.0674L335.178 89.4791L330.49 85.0674" stroke="#D1D5DB" stroke-width="3.12" stroke-miterlimit="10" stroke-linecap="round" stroke-linejoin="round"/>
<path d="M294.45 271.829H186.03M187.46 271.829H174.33" stroke="#6B7280" stroke-width="3.12" stroke-miterlimit="10" stroke-linecap="round" stroke-linejoin="round"/>
<path d="M70.738 301.2V313.128C70.738 315.528 70.114 317.36 68.866 318.624C67.618 319.888 65.89 320.52 63.682 320.52C62.306 320.52 61.066 320.296 59.962 319.848C58.874 319.416 57.962 318.784 57.226 317.952L58.042 316.584C59.466 318.152 61.346 318.936 63.682 318.936C65.41 318.936 66.722 318.456 67.618 317.496C68.514 316.536 68.962 315.096 68.962 313.176V310.92C67.874 312.824 66.058 313.776 63.514 313.776C61.434 313.776 59.81 313.184 58.642 312C57.474 310.8 56.89 309.08 56.89 306.84V301.2H58.666V306.768C58.666 308.544 59.106 309.896 59.986 310.824C60.866 311.736 62.098 312.192 63.682 312.192C65.346 312.192 66.642 311.712 67.57 310.752C68.498 309.776 68.962 308.32 68.962 306.384V301.2H70.738ZM80.868 318.12C79.652 318.12 78.556 317.848 77.58 317.304C76.604 316.744 75.836 315.976 75.276 315C74.716 314.024 74.436 312.92 74.436 311.688C74.436 310.456 74.716 309.352 75.276 308.376C75.836 307.4 76.604 306.64 77.58 306.096C78.556 305.552 79.652 305.28 80.868 305.28C82.084 305.28 83.18 305.552 84.156 306.096C85.132 306.64 85.892 307.4 86.436 308.376C86.996 309.352 87.276 310.456 87.276 311.688C87.276 312.92 86.996 314.024 86.436 315C85.892 315.976 85.132 316.744 84.156 317.304C83.18 317.848 82.084 318.12 80.868 318.12ZM80.868 316.608C81.764 316.608 82.564 316.408 83.268 316.008C83.988 315.592 84.548 315.008 84.948 314.256C85.348 313.504 85.548 312.648 85.548 311.688C85.548 310.728 85.348 309.872 84.948 309.12C84.548 308.368 83.988 307.792 83.268 307.392C82.564 306.976 81.764 306.768 80.868 306.768C79.972 306.768 79.164 306.976 78.444 307.392C77.74 307.792 77.18 308.368 76.764 309.12C76.364 309.872 76.164 310.728 76.164 311.688C76.164 312.648 76.364 313.504 76.764 314.256C77.18 315.008 77.74 315.592 78.444 316.008C79.164 316.408 79.972 316.608 80.868 316.608ZM102.131 305.376V318H100.499V315.696C100.051 316.464 99.4349 317.064 98.6509 317.496C97.8669 317.912 96.9709 318.12 95.9629 318.12C94.3149 318.12 93.0109 317.664 92.0509 316.752C91.1069 315.824 90.6349 314.472 90.6349 312.696V305.376H92.3389V312.528C92.3389 313.856 92.6669 314.864 93.3229 315.552C93.9789 316.24 94.9149 316.584 96.1309 316.584C97.4589 316.584 98.5069 316.184 99.2749 315.384C100.043 314.568 100.427 313.44 100.427 312V305.376H102.131ZM119.617 305.28C121.201 305.28 122.457 305.744 123.385 306.672C124.329 307.584 124.801 308.92 124.801 310.68V318H123.097V310.848C123.097 309.536 122.769 308.536 122.113 307.848C121.457 307.16 120.521 306.816 119.305 306.816C117.945 306.816 116.865 307.224 116.065 308.04C115.281 308.84 114.889 309.952 114.889 311.376V318H113.185V300.192H114.889V307.584C115.353 306.848 115.993 306.28 116.809 305.88C117.625 305.48 118.561 305.28 119.617 305.28ZM140.994 305.376V318H139.362V315.504C138.85 316.352 138.17 317 137.322 317.448C136.49 317.896 135.546 318.12 134.49 318.12C133.306 318.12 132.234 317.848 131.274 317.304C130.314 316.76 129.562 316 129.018 315.024C128.474 314.048 128.202 312.936 128.202 311.688C128.202 310.44 128.474 309.328 129.018 308.352C129.562 307.376 130.314 306.624 131.274 306.096C132.234 305.552 133.306 305.28 134.49 305.28C135.514 305.28 136.434 305.496 137.25 305.928C138.082 306.344 138.762 306.96 139.29 307.776V305.376H140.994ZM134.634 316.608C135.514 316.608 136.306 316.408 137.01 316.008C137.73 315.592 138.29 315.008 138.69 314.256C139.106 313.504 139.314 312.648 139.314 311.688C139.314 310.728 139.106 309.872 138.69 309.12C138.29 308.368 137.73 307.792 137.01 307.392C136.306 306.976 135.514 306.768 134.634 306.768C133.738 306.768 132.93 306.976 132.21 307.392C131.506 307.792 130.946 308.368 130.53 309.12C130.13 309.872 129.93 310.728 129.93 311.688C129.93 312.648 130.13 313.504 130.53 314.256C130.946 315.008 131.506 315.592 132.21 316.008C132.93 316.408 133.738 316.608 134.634 316.608ZM156.347 305.376L150.731 318H148.979L143.387 305.376H145.163L149.891 316.128L154.667 305.376H156.347ZM163.796 316.608C164.58 316.608 165.3 316.472 165.956 316.2C166.628 315.912 167.196 315.496 167.66 314.952L168.62 316.056C168.06 316.728 167.364 317.24 166.532 317.592C165.7 317.944 164.78 318.12 163.772 318.12C162.476 318.12 161.324 317.848 160.316 317.304C159.308 316.744 158.524 315.976 157.964 315C157.404 314.024 157.124 312.92 157.124 311.688C157.124 310.456 157.388 309.352 157.916 308.376C158.46 307.4 159.204 306.64 160.148 306.096C161.092 305.552 162.164 305.28 163.364 305.28C164.484 305.28 165.492 305.536 166.388 306.048C167.3 306.56 168.02 307.272 168.548 308.184C169.092 309.096 169.38 310.136 169.412 311.304L159.044 313.32C159.364 314.344 159.94 315.152 160.772 315.744C161.62 316.32 162.628 316.608 163.796 316.608ZM163.364 306.744C162.484 306.744 161.692 306.952 160.988 307.368C160.3 307.768 159.756 308.336 159.356 309.072C158.972 309.792 158.78 310.624 158.78 311.568C158.78 311.808 158.788 311.984 158.804 312.096L167.708 310.368C167.516 309.312 167.028 308.448 166.244 307.776C165.46 307.088 164.5 306.744 163.364 306.744ZM179.312 305.28C180.896 305.28 182.152 305.744 183.08 306.672C184.024 307.584 184.496 308.92 184.496 310.68V318H182.792V310.848C182.792 309.536 182.464 308.536 181.808 307.848C181.152 307.16 180.216 306.816 179 306.816C177.64 306.816 176.56 307.224 175.76 308.04C174.976 308.84 174.584 309.952 174.584 311.376V318H172.88V305.376H174.512V307.704C174.976 306.936 175.616 306.344 176.432 305.928C177.264 305.496 178.224 305.28 179.312 305.28ZM189.127 300.072C189.495 300.072 189.799 300.2 190.039 300.456C190.279 300.696 190.399 301 190.399 301.368C190.399 301.56 190.367 301.768 190.303 301.992C190.255 302.2 190.183 302.448 190.087 302.736L189.055 306.048H187.903L188.743 302.592C188.471 302.512 188.255 302.368 188.095 302.16C187.935 301.936 187.855 301.672 187.855 301.368C187.855 300.984 187.975 300.672 188.215 300.432C188.455 300.192 188.759 300.072 189.127 300.072ZM200.237 317.232C199.917 317.52 199.525 317.744 199.061 317.904C198.597 318.048 198.109 318.12 197.597 318.12C196.413 318.12 195.501 317.8 194.861 317.16C194.221 316.52 193.901 315.616 193.901 314.448V302.616H195.605V305.376H199.421V306.816H195.605V314.352C195.605 315.104 195.789 315.68 196.157 316.08C196.525 316.464 197.061 316.656 197.765 316.656C198.533 316.656 199.157 316.44 199.637 316.008L200.237 317.232ZM212.99 318.12C211.966 318.12 210.982 317.976 210.038 317.688C209.11 317.384 208.382 317.008 207.854 316.56L208.622 315.216C209.15 315.632 209.814 315.976 210.614 316.248C211.414 316.504 212.246 316.632 213.11 316.632C214.262 316.632 215.11 316.456 215.654 316.104C216.214 315.736 216.494 315.224 216.494 314.568C216.494 314.104 216.342 313.744 216.038 313.488C215.734 313.216 215.35 313.016 214.886 312.888C214.422 312.744 213.806 312.608 213.038 312.48C212.014 312.288 211.19 312.096 210.566 311.904C209.942 311.696 209.406 311.352 208.958 310.872C208.526 310.392 208.31 309.728 208.31 308.88C208.31 307.824 208.75 306.96 209.63 306.288C210.51 305.616 211.734 305.28 213.302 305.28C214.118 305.28 214.934 305.392 215.75 305.616C216.566 305.824 217.238 306.104 217.766 306.456L217.022 307.824C215.982 307.104 214.742 306.744 213.302 306.744C212.214 306.744 211.39 306.936 210.83 307.32C210.286 307.704 210.014 308.208 210.014 308.832C210.014 309.312 210.166 309.696 210.47 309.984C210.79 310.272 211.182 310.488 211.646 310.632C212.11 310.76 212.75 310.896 213.566 311.04C214.574 311.232 215.382 311.424 215.99 311.616C216.598 311.808 217.118 312.136 217.55 312.6C217.982 313.064 218.198 313.704 218.198 314.52C218.198 315.624 217.734 316.504 216.806 317.16C215.894 317.8 214.622 318.12 212.99 318.12ZM232.869 305.376V318H231.237V315.504C230.725 316.352 230.045 317 229.197 317.448C228.365 317.896 227.421 318.12 226.365 318.12C225.181 318.12 224.109 317.848 223.149 317.304C222.189 316.76 221.437 316 220.893 315.024C220.349 314.048 220.077 312.936 220.077 311.688C220.077 310.44 220.349 309.328 220.893 308.352C221.437 307.376 222.189 306.624 223.149 306.096C224.109 305.552 225.181 305.28 226.365 305.28C227.389 305.28 228.309 305.496 229.125 305.928C229.957 306.344 230.637 306.96 231.165 307.776V305.376H232.869ZM226.509 316.608C227.389 316.608 228.181 316.408 228.885 316.008C229.605 315.592 230.165 315.008 230.565 314.256C230.981 313.504 231.189 312.648 231.189 311.688C231.189 310.728 230.981 309.872 230.565 309.12C230.165 308.368 229.605 307.792 228.885 307.392C228.181 306.976 227.389 306.768 226.509 306.768C225.613 306.768 224.805 306.976 224.085 307.392C223.381 307.792 222.821 308.368 222.405 309.12C222.005 309.872 221.805 310.728 221.805 311.688C221.805 312.648 222.005 313.504 222.405 314.256C222.821 315.008 223.381 315.592 224.085 316.008C224.805 316.408 225.613 316.608 226.509 316.608ZM248.222 305.376L242.606 318H240.854L235.262 305.376H237.038L241.766 316.128L246.542 305.376H248.222ZM255.671 316.608C256.455 316.608 257.175 316.472 257.831 316.2C258.503 315.912 259.071 315.496 259.535 314.952L260.495 316.056C259.935 316.728 259.239 317.24 258.407 317.592C257.575 317.944 256.655 318.12 255.647 318.12C254.351 318.12 253.199 317.848 252.191 317.304C251.183 316.744 250.399 315.976 249.839 315C249.279 314.024 248.999 312.92 248.999 311.688C248.999 310.456 249.263 309.352 249.791 308.376C250.335 307.4 251.079 306.64 252.023 306.096C252.967 305.552 254.039 305.28 255.239 305.28C256.359 305.28 257.367 305.536 258.263 306.048C259.175 306.56 259.895 307.272 260.423 308.184C260.967 309.096 261.255 310.136 261.287 311.304L250.919 313.32C251.239 314.344 251.815 315.152 252.647 315.744C253.495 316.32 254.503 316.608 255.671 316.608ZM255.239 306.744C254.359 306.744 253.567 306.952 252.863 307.368C252.175 307.768 251.631 308.336 251.231 309.072C250.847 309.792 250.655 310.624 250.655 311.568C250.655 311.808 250.663 311.984 250.679 312.096L259.583 310.368C259.391 309.312 258.903 308.448 258.119 307.776C257.335 307.088 256.375 306.744 255.239 306.744ZM276.275 300.192V318H274.643V315.504C274.131 316.352 273.451 317 272.603 317.448C271.771 317.896 270.827 318.12 269.771 318.12C268.587 318.12 267.515 317.848 266.555 317.304C265.595 316.76 264.843 316 264.299 315.024C263.755 314.048 263.483 312.936 263.483 311.688C263.483 310.44 263.755 309.328 264.299 308.352C264.843 307.376 265.595 306.624 266.555 306.096C267.515 305.552 268.587 305.28 269.771 305.28C270.795 305.28 271.715 305.496 272.531 305.928C273.363 306.344 274.043 306.96 274.571 307.776V300.192H276.275ZM269.915 316.608C270.795 316.608 271.587 316.408 272.291 316.008C273.011 315.592 273.571 315.008 273.971 314.256C274.387 313.504 274.595 312.648 274.595 311.688C274.595 310.728 274.387 309.872 273.971 309.12C273.571 308.368 273.011 307.792 272.291 307.392C271.587 306.976 270.795 306.768 269.915 306.768C269.019 306.768 268.211 306.976 267.491 307.392C266.787 307.792 266.227 308.368 265.811 309.12C265.411 309.872 265.211 310.728 265.211 311.688C265.211 312.648 265.411 313.504 265.811 314.256C266.227 315.008 266.787 315.592 267.491 316.008C268.211 316.408 269.019 316.608 269.915 316.608ZM298.822 305.376V318H297.19V315.504C296.678 316.352 295.998 317 295.15 317.448C294.318 317.896 293.374 318.12 292.318 318.12C291.134 318.12 290.062 317.848 289.102 317.304C288.142 316.76 287.39 316 286.846 315.024C286.302 314.048 286.03 312.936 286.03 311.688C286.03 310.44 286.302 309.328 286.846 308.352C287.39 307.376 288.142 306.624 289.102 306.096C290.062 305.552 291.134 305.28 292.318 305.28C293.342 305.28 294.262 305.496 295.078 305.928C295.91 306.344 296.59 306.96 297.118 307.776V305.376H298.822ZM292.462 316.608C293.342 316.608 294.134 316.408 294.838 316.008C295.558 315.592 296.118 315.008 296.518 314.256C296.934 313.504 297.142 312.648 297.142 311.688C297.142 310.728 296.934 309.872 296.518 309.12C296.118 308.368 295.558 307.792 294.838 307.392C294.134 306.976 293.342 306.768 292.462 306.768C291.566 306.768 290.758 306.976 290.038 307.392C289.334 307.792 288.774 308.368 288.358 309.12C287.958 309.872 287.758 310.728 287.758 311.688C287.758 312.648 287.958 313.504 288.358 314.256C288.774 315.008 289.334 315.592 290.038 316.008C290.758 316.408 291.566 316.608 292.462 316.608ZM309.999 305.28C311.583 305.28 312.839 305.744 313.767 306.672C314.711 307.584 315.183 308.92 315.183 310.68V318H313.479V310.848C313.479 309.536 313.151 308.536 312.495 307.848C311.839 307.16 310.903 306.816 309.687 306.816C308.327 306.816 307.247 307.224 306.447 308.04C305.663 308.84 305.271 309.952 305.271 311.376V318H303.567V305.376H305.199V307.704C305.663 306.936 306.303 306.344 307.119 305.928C307.951 305.496 308.911 305.28 309.999 305.28ZM331.186 305.376V316.464C331.186 318.608 330.698 320.192 329.722 321.216C328.746 322.256 327.274 322.776 325.306 322.776C324.202 322.776 323.154 322.6 322.162 322.248C321.186 321.912 320.394 321.44 319.786 320.832L320.65 319.536C321.194 320.08 321.866 320.504 322.666 320.808C323.466 321.112 324.322 321.264 325.234 321.264C326.69 321.264 327.762 320.888 328.45 320.136C329.138 319.4 329.482 318.248 329.482 316.68V315.216C329.034 315.952 328.418 316.52 327.634 316.92C326.866 317.32 325.994 317.52 325.018 317.52C323.37 317.52 322.066 317.064 321.106 316.152C320.162 315.224 319.69 313.872 319.69 312.096V305.376H321.394V311.928C321.394 313.256 321.722 314.264 322.378 314.952C323.034 315.64 323.97 315.984 325.186 315.984C326.514 315.984 327.562 315.584 328.33 314.784C329.098 313.968 329.482 312.84 329.482 311.4V305.376H331.186ZM128.279 337.376V350H126.647V347.504C126.135 348.352 125.455 349 124.607 349.448C123.775 349.896 122.831 350.12 121.775 350.12C120.591 350.12 119.519 349.848 118.559 349.304C117.599 348.76 116.847 348 116.303 347.024C115.759 346.048 115.487 344.936 115.487 343.688C115.487 342.44 115.759 341.328 116.303 340.352C116.847 339.376 117.599 338.624 118.559 338.096C119.519 337.552 120.591 337.28 121.775 337.28C122.799 337.28 123.719 337.496 124.535 337.928C125.367 338.344 126.047 338.96 126.575 339.776V337.376H128.279ZM121.919 348.608C122.799 348.608 123.591 348.408 124.295 348.008C125.015 347.592 125.575 347.008 125.975 346.256C126.391 345.504 126.599 344.648 126.599 343.688C126.599 342.728 126.391 341.872 125.975 341.12C125.575 340.368 125.015 339.792 124.295 339.392C123.591 338.976 122.799 338.768 121.919 338.768C121.023 338.768 120.215 338.976 119.495 339.392C118.791 339.792 118.231 340.368 117.815 341.12C117.415 341.872 117.215 342.728 117.215 343.688C117.215 344.648 117.415 345.504 117.815 346.256C118.231 347.008 118.791 347.592 119.495 348.008C120.215 348.408 121.023 348.608 121.919 348.608ZM138.256 350.12C137.008 350.12 135.888 349.848 134.896 349.304C133.92 348.76 133.152 348 132.592 347.024C132.032 346.032 131.752 344.92 131.752 343.688C131.752 342.456 132.032 341.352 132.592 340.376C133.152 339.4 133.92 338.64 134.896 338.096C135.888 337.552 137.008 337.28 138.256 337.28C139.344 337.28 140.312 337.496 141.16 337.928C142.024 338.344 142.704 338.96 143.2 339.776L141.928 340.64C141.512 340.016 140.984 339.552 140.344 339.248C139.704 338.928 139.008 338.768 138.256 338.768C137.344 338.768 136.52 338.976 135.784 339.392C135.064 339.792 134.496 340.368 134.08 341.12C133.68 341.872 133.48 342.728 133.48 343.688C133.48 344.664 133.68 345.528 134.08 346.28C134.496 347.016 135.064 347.592 135.784 348.008C136.52 348.408 137.344 348.608 138.256 348.608C139.008 348.608 139.704 348.456 140.344 348.152C140.984 347.848 141.512 347.384 141.928 346.76L143.2 347.624C142.704 348.44 142.024 349.064 141.16 349.496C140.296 349.912 139.328 350.12 138.256 350.12ZM152.576 349.232C152.256 349.52 151.864 349.744 151.4 349.904C150.936 350.048 150.448 350.12 149.936 350.12C148.752 350.12 147.84 349.8 147.2 349.16C146.56 348.52 146.24 347.616 146.24 346.448V334.616H147.944V337.376H151.76V338.816H147.944V346.352C147.944 347.104 148.128 347.68 148.496 348.08C148.864 348.464 149.4 348.656 150.104 348.656C150.872 348.656 151.496 348.44 151.976 348.008L152.576 349.232ZM155.665 337.376H157.369V350H155.665V337.376ZM156.529 334.616C156.177 334.616 155.881 334.496 155.641 334.256C155.401 334.016 155.281 333.728 155.281 333.392C155.281 333.072 155.401 332.792 155.641 332.552C155.881 332.312 156.177 332.192 156.529 332.192C156.881 332.192 157.177 332.312 157.417 332.552C157.657 332.776 157.777 333.048 157.777 333.368C157.777 333.72 157.657 334.016 157.417 334.256C157.177 334.496 156.881 334.616 156.529 334.616ZM172.718 337.376L167.102 350H165.35L159.758 337.376H161.534L166.262 348.128L171.038 337.376H172.718ZM175.118 337.376H176.822V350H175.118V337.376ZM175.982 334.616C175.63 334.616 175.334 334.496 175.094 334.256C174.854 334.016 174.734 333.728 174.734 333.392C174.734 333.072 174.854 332.792 175.094 332.552C175.334 332.312 175.63 332.192 175.982 332.192C176.334 332.192 176.63 332.312 176.87 332.552C177.11 332.776 177.23 333.048 177.23 333.368C177.23 333.72 177.11 334.016 176.87 334.256C176.63 334.496 176.334 334.616 175.982 334.616ZM187.78 349.232C187.46 349.52 187.068 349.744 186.604 349.904C186.14 350.048 185.652 350.12 185.14 350.12C183.956 350.12 183.044 349.8 182.404 349.16C181.764 348.52 181.444 347.616 181.444 346.448V334.616H183.148V337.376H186.964V338.816H183.148V346.352C183.148 347.104 183.332 347.68 183.7 348.08C184.068 348.464 184.604 348.656 185.308 348.656C186.076 348.656 186.7 348.44 187.18 348.008L187.78 349.232ZM190.868 337.376H192.572V350H190.868V337.376ZM191.732 334.616C191.38 334.616 191.084 334.496 190.844 334.256C190.604 334.016 190.484 333.728 190.484 333.392C190.484 333.072 190.604 332.792 190.844 332.552C191.084 332.312 191.38 332.192 191.732 332.192C192.084 332.192 192.38 332.312 192.62 332.552C192.86 332.776 192.98 333.048 192.98 333.368C192.98 333.72 192.86 334.016 192.62 334.256C192.38 334.496 192.084 334.616 191.732 334.616ZM202.714 348.608C203.498 348.608 204.218 348.472 204.874 348.2C205.546 347.912 206.114 347.496 206.578 346.952L207.538 348.056C206.978 348.728 206.282 349.24 205.45 349.592C204.618 349.944 203.698 350.12 202.69 350.12C201.394 350.12 200.242 349.848 199.234 349.304C198.226 348.744 197.442 347.976 196.882 347C196.322 346.024 196.042 344.92 196.042 343.688C196.042 342.456 196.306 341.352 196.834 340.376C197.378 339.4 198.122 338.64 199.066 338.096C200.01 337.552 201.082 337.28 202.282 337.28C203.402 337.28 204.41 337.536 205.306 338.048C206.218 338.56 206.938 339.272 207.466 340.184C208.01 341.096 208.298 342.136 208.33 343.304L197.962 345.32C198.282 346.344 198.858 347.152 199.69 347.744C200.538 348.32 201.546 348.608 202.714 348.608ZM202.282 338.744C201.402 338.744 200.61 338.952 199.906 339.368C199.218 339.768 198.674 340.336 198.274 341.072C197.89 341.792 197.698 342.624 197.698 343.568C197.698 343.808 197.706 343.984 197.722 344.096L206.626 342.368C206.434 341.312 205.946 340.448 205.162 339.776C204.378 339.088 203.418 338.744 202.282 338.744ZM215.182 350.12C214.158 350.12 213.174 349.976 212.23 349.688C211.302 349.384 210.574 349.008 210.046 348.56L210.814 347.216C211.342 347.632 212.006 347.976 212.806 348.248C213.606 348.504 214.438 348.632 215.302 348.632C216.454 348.632 217.302 348.456 217.846 348.104C218.406 347.736 218.686 347.224 218.686 346.568C218.686 346.104 218.534 345.744 218.23 345.488C217.926 345.216 217.542 345.016 217.078 344.888C216.614 344.744 215.998 344.608 215.23 344.48C214.206 344.288 213.382 344.096 212.758 343.904C212.134 343.696 211.598 343.352 211.15 342.872C210.718 342.392 210.502 341.728 210.502 340.88C210.502 339.824 210.942 338.96 211.822 338.288C212.702 337.616 213.926 337.28 215.494 337.28C216.31 337.28 217.126 337.392 217.942 337.616C218.758 337.824 219.43 338.104 219.958 338.456L219.214 339.824C218.174 339.104 216.934 338.744 215.494 338.744C214.406 338.744 213.582 338.936 213.022 339.32C212.478 339.704 212.206 340.208 212.206 340.832C212.206 341.312 212.358 341.696 212.662 341.984C212.982 342.272 213.374 342.488 213.838 342.632C214.302 342.76 214.942 342.896 215.758 343.04C216.766 343.232 217.574 343.424 218.182 343.616C218.79 343.808 219.31 344.136 219.742 344.6C220.174 345.064 220.39 345.704 220.39 346.52C220.39 347.624 219.926 348.504 218.998 349.16C218.086 349.8 216.814 350.12 215.182 350.12ZM241.197 337.376V348.464C241.197 350.608 240.709 352.192 239.733 353.216C238.757 354.256 237.285 354.776 235.317 354.776C234.213 354.776 233.165 354.6 232.173 354.248C231.197 353.912 230.405 353.44 229.797 352.832L230.661 351.536C231.205 352.08 231.877 352.504 232.677 352.808C233.477 353.112 234.333 353.264 235.245 353.264C236.701 353.264 237.773 352.888 238.461 352.136C239.149 351.4 239.493 350.248 239.493 348.68V347.216C239.045 347.952 238.429 348.52 237.645 348.92C236.877 349.32 236.005 349.52 235.029 349.52C233.381 349.52 232.077 349.064 231.117 348.152C230.173 347.224 229.701 345.872 229.701 344.096V337.376H231.405V343.928C231.405 345.256 231.733 346.264 232.389 346.952C233.045 347.64 233.981 347.984 235.197 347.984C236.525 347.984 237.573 347.584 238.341 346.784C239.109 345.968 239.493 344.84 239.493 343.4V337.376H241.197ZM251.37 348.608C252.154 348.608 252.874 348.472 253.53 348.2C254.202 347.912 254.77 347.496 255.234 346.952L256.194 348.056C255.634 348.728 254.938 349.24 254.106 349.592C253.274 349.944 252.354 350.12 251.346 350.12C250.05 350.12 248.898 349.848 247.89 349.304C246.882 348.744 246.098 347.976 245.538 347C244.978 346.024 244.698 344.92 244.698 343.688C244.698 342.456 244.962 341.352 245.49 340.376C246.034 339.4 246.778 338.64 247.722 338.096C248.666 337.552 249.738 337.28 250.938 337.28C252.058 337.28 253.066 337.536 253.962 338.048C254.874 338.56 255.594 339.272 256.122 340.184C256.666 341.096 256.954 342.136 256.986 343.304L246.618 345.32C246.938 346.344 247.514 347.152 248.346 347.744C249.194 348.32 250.202 348.608 251.37 348.608ZM250.938 338.744C250.058 338.744 249.266 338.952 248.562 339.368C247.874 339.768 247.33 340.336 246.93 341.072C246.546 341.792 246.354 342.624 246.354 343.568C246.354 343.808 246.362 343.984 246.378 344.096L255.282 342.368C255.09 341.312 254.602 340.448 253.818 339.776C253.034 339.088 252.074 338.744 250.938 338.744ZM266.67 349.232C266.35 349.52 265.958 349.744 265.494 349.904C265.03 350.048 264.542 350.12 264.03 350.12C262.846 350.12 261.934 349.8 261.294 349.16C260.654 348.52 260.334 347.616 260.334 346.448V334.616H262.038V337.376H265.854V338.816H262.038V346.352C262.038 347.104 262.222 347.68 262.59 348.08C262.958 348.464 263.494 348.656 264.198 348.656C264.966 348.656 265.59 348.44 266.07 348.008L266.67 349.232ZM269.495 333.2H271.511L271.151 344.96H269.831L269.495 333.2ZM270.503 350.12C270.151 350.12 269.847 350 269.591 349.76C269.351 349.504 269.231 349.208 269.231 348.872C269.231 348.52 269.351 348.232 269.591 348.008C269.831 347.768 270.135 347.648 270.503 347.648C270.855 347.648 271.151 347.768 271.391 348.008C271.631 348.232 271.751 348.52 271.751 348.872C271.751 349.208 271.631 349.504 271.391 349.76C271.151 350 270.855 350.12 270.503 350.12Z" fill="#101828"/>
</g>
<defs>
<clipPath id="clip0_806_59797">
<rect width="390" height="367" fill="white"/>
</clipPath>
</defs>
</svg>
