<svg width="237" height="163" viewBox="0 0 237 163" fill="none" xmlns="http://www.w3.org/2000/svg">
<path d="M205.052 118.033C204.998 115.164 203.924 112.415 202.034 110.307C201.121 114.185 205.052 118.033 205.052 118.033Z" fill="#EBEBEB"/>
<path d="M200.659 115.845C198.085 114.751 195.21 114.67 192.582 115.617C195.676 118.023 200.659 115.845 200.659 115.845Z" fill="#EBEBEB"/>
<path d="M200.169 113.335C200.589 111.114 200.201 108.811 199.079 106.865C197.749 109.704 200.169 113.335 200.169 113.335Z" fill="#EBEBEB"/>
<path d="M217.114 104.273C210.708 106.032 207.273 111.762 207.273 111.762C212.747 111.772 217.114 104.273 217.114 104.273Z" fill="#EBEBEB"/>
<path d="M206.885 106.979C207.201 99.8646 200.471 91.8125 200.471 91.8125C201.488 100.646 206.885 106.979 206.885 106.979Z" fill="#EBEBEB"/>
<path d="M206.918 86.7207C206.787 90.2837 207.627 93.8131 209.344 96.9087C210.299 92.334 206.918 86.7207 206.918 86.7207Z" fill="#EBEBEB"/>
<path d="M209.508 101.171C214.564 100.614 217.3 95.4404 217.3 95.4404C211.208 97.2019 209.508 101.171 209.508 101.171Z" fill="#EBEBEB"/>
<path d="M220.407 122.918C218.039 121.409 215.215 120.849 212.473 121.346C215.137 124.237 220.407 122.918 220.407 122.918Z" fill="#EBEBEB"/>
<path d="M207.328 125.252C207.972 126.936 209.173 128.332 210.719 129.192C210.504 126.792 207.328 125.252 207.328 125.252Z" fill="#EBEBEB"/>
<path d="M207.975 124.486C210.847 126.309 214.01 125.596 214.01 125.596C212.067 123.509 207.975 124.486 207.975 124.486Z" fill="#EBEBEB"/>
<path d="M205.399 134.062C205.399 134.062 205.399 134.027 205.399 133.958C205.399 133.89 205.399 133.773 205.399 133.633V132.454C205.399 131.936 205.399 131.305 205.399 130.569C205.399 129.833 205.399 128.999 205.449 128.075C205.493 126.225 205.62 124.024 205.803 121.589C205.986 119.153 206.296 116.477 206.691 113.686C207.487 108.099 208.587 103.108 209.453 99.5196C209.895 97.7256 210.268 96.2636 210.54 95.2868C210.666 94.8049 210.768 94.4207 210.84 94.1375L210.913 93.8379C210.924 93.8031 210.93 93.767 210.932 93.7305C210.914 93.7608 210.9 93.7937 210.891 93.8282L210.796 94.1244C210.714 94.4045 210.6 94.7756 210.455 95.264C210.158 96.2408 209.759 97.693 209.298 99.4968C208.099 104.164 207.15 108.896 206.454 113.67C206.059 116.47 205.778 119.147 205.582 121.589C205.386 124.031 205.298 126.235 205.266 128.101C205.238 129.029 205.247 129.865 205.25 130.601C205.253 131.337 205.25 131.972 205.275 132.49C205.301 133.008 205.307 133.388 205.317 133.682C205.317 133.805 205.317 133.906 205.332 133.991C205.352 134.017 205.374 134.041 205.399 134.062Z" fill="#E0E0E0"/>
<path d="M214.659 119.006C214.624 118.951 212.583 120.332 210.102 122.083C207.622 123.835 205.64 125.297 205.678 125.339C205.716 125.382 207.751 124.014 210.235 122.262C212.719 120.511 214.694 119.059 214.659 119.006Z" fill="#E0E0E0"/>
<path d="M205.674 119.766C205.583 119.634 205.477 119.515 205.358 119.411L204.451 118.519L201.418 115.588C200.255 114.462 199.206 113.446 198.384 112.658L197.465 111.769C197.36 111.65 197.24 111.547 197.107 111.463C197.192 111.596 197.29 111.72 197.401 111.831C197.6 112.062 197.901 112.381 198.273 112.775C199.019 113.556 200.075 114.615 201.263 115.758C202.451 116.9 203.544 117.916 204.344 118.642C204.745 119.004 205.071 119.294 205.292 119.489C205.408 119.597 205.536 119.69 205.674 119.766Z" fill="#E0E0E0"/>
<path d="M221.14 115.634C221.14 115.634 215.922 115.533 213.717 119.763C215.181 119.719 216.615 119.323 217.904 118.606C219.192 117.889 220.301 116.871 221.14 115.634Z" fill="#EBEBEB"/>
<path d="M214.015 113.478C214.015 113.478 209.768 116.6 210.444 121.351C211.594 120.416 212.515 119.217 213.135 117.85C213.755 116.483 214.056 114.986 214.015 113.478Z" fill="#EBEBEB"/>
<path d="M191.645 105.787C191.645 105.787 193.319 111.801 198.644 112.882C198.096 111.219 197.177 109.711 195.961 108.479C194.746 107.247 193.268 106.325 191.645 105.787Z" fill="#EBEBEB"/>
<path d="M216.333 83.4189C216.333 83.4189 209.678 87.8927 210.414 95.1666C212.221 93.8192 213.697 92.0553 214.725 90.0156C215.753 87.9759 216.303 85.7169 216.333 83.4189Z" fill="#EBEBEB"/>
<path d="M194.182 123.204C194.313 123.339 194.458 123.459 194.615 123.562C194.902 123.777 195.313 124.096 195.809 124.503C198.403 126.619 200.63 129.173 202.394 132.057C202.733 132.611 202.995 133.063 203.172 133.382C203.253 133.554 203.354 133.714 203.472 133.861C203.415 133.68 203.341 133.506 203.251 133.34C203.096 133.014 202.853 132.539 202.53 131.972C200.833 129.018 198.587 126.438 195.92 124.38C195.408 123.986 194.972 123.686 194.678 123.494C194.523 123.379 194.357 123.282 194.182 123.204Z" fill="#E0E0E0"/>
<path d="M199.974 127.671C200.456 124.845 199.913 121.935 198.448 119.495C197.731 124.594 199.974 127.671 199.974 127.671Z" fill="#EBEBEB"/>
<path d="M195.497 125.157C193.736 124.124 191.668 123.794 189.686 124.23C192.899 125.984 195.497 125.157 195.497 125.157Z" fill="#EBEBEB"/>
<path d="M215.098 134.623L212.601 151.531H198.094L194.729 134.867L215.098 134.623Z" fill="#EBEBEB"/>
<path d="M196.758 145.458C196.758 145.507 200.474 145.546 205.059 145.546C209.644 145.546 213.36 145.507 213.36 145.458C213.36 145.409 209.644 145.37 205.059 145.37C200.474 145.37 196.758 145.409 196.758 145.458Z" fill="#FAFAFA"/>
<path d="M196.701 144.628C196.701 144.677 200.443 144.716 205.059 144.716C209.676 144.716 213.418 144.677 213.418 144.628C213.418 144.579 209.676 144.54 205.059 144.54C200.443 144.54 196.701 144.566 196.701 144.628Z" fill="#FAFAFA"/>
<path d="M196.729 143.688C196.729 143.737 200.47 143.776 205.087 143.776C209.703 143.776 213.445 143.737 213.445 143.688C213.445 143.639 209.703 143.59 205.084 143.59C200.464 143.59 196.729 143.639 196.729 143.688Z" fill="#FAFAFA"/>
<path d="M210.936 150.564C211.137 149.868 211.286 149.157 211.381 148.438C211.53 147.727 211.622 147.005 211.656 146.279C211.455 146.975 211.306 147.686 211.21 148.405C211.062 149.116 210.97 149.838 210.936 150.564Z" fill="#FAFAFA"/>
<path d="M209.947 150.385C210.052 149.698 210.112 149.004 210.127 148.308C210.202 147.617 210.233 146.922 210.222 146.228C209.964 147.597 209.872 148.993 209.947 150.385Z" fill="#FAFAFA"/>
<path d="M208.148 150.385C208.347 149.691 208.474 148.977 208.528 148.256C208.636 147.541 208.673 146.816 208.638 146.094C208.503 146.801 208.409 147.517 208.357 148.236C208.248 148.948 208.178 149.665 208.148 150.385Z" fill="#FAFAFA"/>
<path d="M206.888 150.471C207.108 149.038 207.154 147.582 207.024 146.138C206.949 146.857 206.913 147.58 206.916 148.303C206.865 149.025 206.856 149.749 206.888 150.471Z" fill="#FAFAFA"/>
<path d="M204.651 150.386C204.812 149.022 204.858 147.646 204.787 146.273C204.68 146.953 204.63 147.64 204.635 148.328C204.586 149.013 204.591 149.701 204.651 150.386Z" fill="#FAFAFA"/>
<path d="M203.019 150.477C203.119 149.067 203.107 147.652 202.985 146.244C202.885 147.654 202.897 149.069 203.019 150.477Z" fill="#FAFAFA"/>
<path d="M201.488 150.248C201.505 149.505 201.464 148.763 201.365 148.027C201.323 147.287 201.226 146.551 201.074 145.826C201.057 146.569 201.098 147.311 201.197 148.047C201.239 148.787 201.336 149.523 201.488 150.248Z" fill="#FAFAFA"/>
<path d="M199.516 150.026C199.512 149.388 199.431 148.754 199.273 148.137C199.169 147.51 198.987 146.898 198.732 146.317C198.822 146.944 198.947 147.565 199.105 148.177C199.209 148.8 199.346 149.418 199.516 150.026Z" fill="#FAFAFA"/>
<path d="M216.776 131.276V134.438C216.776 134.602 216.745 134.764 216.684 134.916C216.624 135.067 216.535 135.205 216.422 135.321C216.31 135.437 216.176 135.528 216.029 135.591C215.882 135.653 215.724 135.685 215.565 135.685H194.548C194.227 135.685 193.919 135.554 193.692 135.32C193.465 135.086 193.338 134.769 193.338 134.438V131.276H216.776Z" fill="#EBEBEB"/>
<path d="M214.943 135.685L214.766 136.691L195.386 138.117L194.893 135.685H214.943Z" fill="#E0E0E0"/>
<path d="M102.808 18.501H74.0332V61.4768H102.808V18.501Z" fill="#E0E0E0"/>
<path d="M101.367 18.501H72.5918V61.4768H101.367V18.501Z" fill="#F5F5F5"/>
<path d="M97.7899 23.1582H76.166V56.8252H97.7899V23.1582Z" fill="white"/>
<path d="M97.7894 56.821C97.7894 56.821 97.7894 56.7656 97.7894 56.6582C97.7894 56.5507 97.7894 56.3879 97.7894 56.1796C97.7894 55.7563 97.7894 55.1376 97.7894 54.3334C97.7894 52.7054 97.7894 50.3709 97.7704 47.3981C97.7704 41.4625 97.7483 33.0718 97.7325 23.1573L97.8052 23.2321H76.1845L76.2635 23.1507C76.2635 35.8491 76.2635 47.5707 76.2477 56.8145L76.1845 56.7526L91.9244 56.7852L96.2726 56.8014H97.4133H97.8083C97.8083 56.8014 97.6819 56.8014 97.426 56.8014H96.2979L91.9623 56.8177L76.1845 56.8503H76.1213V56.7852C76.1213 47.5316 76.1213 35.8198 76.1055 23.1214V23.04H76.156H97.7768H97.8494V23.1149C97.8336 33.0327 97.821 41.4559 97.8147 47.4046C97.8147 50.3676 97.7989 52.7152 97.7957 54.3236C97.7957 55.1214 97.7957 55.7367 97.7957 56.1568C97.7957 56.3586 97.7957 56.5149 97.7957 56.6256C97.7957 56.7363 97.7894 56.821 97.7894 56.821Z" fill="#E0E0E0"/>
<path d="M101.436 18.501C101.29 18.7735 101.118 19.0308 100.924 19.2694C100.589 19.7317 100.115 20.3569 99.5747 21.0341C99.0344 21.7114 98.5256 22.3105 98.1496 22.737C97.9578 22.9727 97.7463 23.1906 97.5176 23.3882C97.6796 23.1258 97.8636 22.8785 98.0674 22.6491L99.4515 20.9169L100.845 19.2108C101.024 18.9587 101.221 18.7213 101.436 18.501Z" fill="#E0E0E0"/>
<path d="M97.9004 56.7129C98.9758 58.475 100.242 60.1058 101.673 61.5741L97.9004 56.7129Z" fill="white"/>
<path d="M101.673 61.5741C101.434 61.3929 101.214 61.1866 101.016 60.9587C100.011 59.9071 99.1145 58.7516 98.3396 57.5106C98.168 57.2603 98.0209 56.9931 97.9004 56.7129C98.0954 56.9426 98.2729 57.1875 98.4313 57.4455C98.7473 57.9046 99.1928 58.533 99.7142 59.2037C100.236 59.8745 100.732 60.4605 101.095 60.8806C101.303 61.0977 101.496 61.3295 101.673 61.5741Z" fill="#E0E0E0"/>
<path d="M72.5859 61.4452C73.8499 59.8476 75.1066 58.25 76.3558 56.6523L72.5859 61.4452Z" fill="white"/>
<path d="M76.3558 56.6543C75.7904 57.502 75.1818 58.3182 74.5325 59.0995C73.9244 59.917 73.2746 60.7006 72.5859 61.4471C73.153 60.5996 73.7616 59.7824 74.4093 58.9986C75.018 58.1827 75.6677 57.4002 76.3558 56.6543Z" fill="#E0E0E0"/>
<path d="M72.5918 18.501C73.2394 19.2187 73.8501 19.9707 74.4214 20.7541C75.0301 21.5073 75.5997 22.293 76.1278 23.1082C75.4773 22.3932 74.8665 21.641 74.2982 20.8551C73.6865 20.1043 73.1168 19.3184 72.5918 18.501Z" fill="#E0E0E0"/>
<path d="M91.0521 29.9912H83.8125V51.1747H91.0521V29.9912Z" fill="#E0E0E0"/>
<path d="M152.752 13.2979H125.342V41.5403H152.752V13.2979Z" fill="#EBEBEB"/>
<path d="M151.945 14.1279H126.146V40.7099H151.945V14.1279Z" fill="white"/>
<path d="M142.751 23.6035H135.344V31.2356H142.751V23.6035Z" fill="#E0E0E0"/>
<path d="M153.907 13.3037H152.75V41.5397H153.907V13.3037Z" fill="#E0E0E0"/>
<path d="M216.899 16.9834H185.514V61.5026H216.899V16.9834Z" fill="#E0E0E0"/>
<path d="M214.934 16.9834H182.521V61.5026H214.934V16.9834Z" fill="#EBEBEB"/>
<path d="M211.853 20.0957H185.615V58.0671H211.853V20.0957Z" fill="#FAFAFA"/>
<path d="M185.615 58.0675H211.843V48.1074H185.615V58.0675Z" fill="#F5F5F5"/>
<path d="M201.634 37.1585L202.481 39.1968C202.481 39.1968 200.544 40.6522 200.825 42.8988C201.106 45.1455 202.721 49.6811 202.721 49.6811H206.111C206.111 49.6811 207.808 43.3579 207.767 42.3193C207.726 41.2806 206.273 39.2391 206.273 39.2391L207.04 37.1585C207.04 37.1585 204.016 35.244 201.634 37.1585Z" fill="#E0E0E0"/>
<path d="M201.456 43.8559C200.798 43.2471 199.983 42.4884 199.715 41.4595C199.647 41.2595 199.625 41.0461 199.651 40.836C199.677 40.6259 199.749 40.4247 199.863 40.2483C199.984 40.1015 200.136 39.9861 200.308 39.9114C200.48 39.8367 200.666 39.8049 200.852 39.8185C201.179 39.8442 201.499 39.9256 201.8 40.0594L201.645 40.4892C201.39 40.3733 201.118 40.3018 200.84 40.2776C200.723 40.2656 200.604 40.282 200.495 40.3255C200.385 40.369 200.287 40.4385 200.208 40.5283C200.14 40.6501 200.098 40.7856 200.085 40.9255C200.073 41.0654 200.09 41.2065 200.135 41.3391C200.372 42.241 201.13 42.9475 201.743 43.5173L201.456 43.8559Z" fill="#E0E0E0"/>
<path d="M207.423 44.141L207.107 43.835C207.516 43.3661 207.844 42.8287 208.077 42.246C208.187 41.9961 208.253 41.7283 208.273 41.4548C208.288 41.2087 208.215 40.9656 208.068 40.7711C207.976 40.6708 207.863 40.594 207.737 40.5471C207.612 40.5001 207.477 40.4843 207.344 40.5008C207.059 40.5415 206.795 40.6803 206.595 40.8948L206.279 40.5692C206.55 40.2804 206.91 40.0965 207.297 40.0482C207.5 40.0234 207.707 40.0492 207.899 40.1234C208.09 40.1976 208.262 40.3181 208.4 40.4748C208.625 40.754 208.738 41.1118 208.716 41.4744C208.695 41.8016 208.618 42.1225 208.488 42.4219C208.231 43.0533 207.871 43.6347 207.423 44.141Z" fill="#E0E0E0"/>
<path d="M207.043 37.1777C206.793 37.2779 206.532 37.3457 206.266 37.3796C205.626 37.4913 204.98 37.5501 204.332 37.5554C203.684 37.5627 203.037 37.5137 202.398 37.4089C202.13 37.3827 201.868 37.3192 201.617 37.2201C201.884 37.2243 202.15 37.2483 202.413 37.2917C203.051 37.3591 203.691 37.3906 204.332 37.3861C204.972 37.3788 205.611 37.3364 206.247 37.2591C206.509 37.21 206.776 37.1827 207.043 37.1777Z" fill="#EBEBEB"/>
<path d="M211.852 25.2334C211.536 24.771 209.956 24.1882 209.413 24.0938C206.97 23.6803 204.42 23.6379 202.069 24.4389C199.718 25.2399 197.594 26.9688 196.675 29.3229C196.201 30.5439 196.043 31.8951 195.436 33.0445C194.649 34.5064 193.224 35.4507 192.121 36.6847C190.725 38.2612 189.914 40.2943 189.83 42.4263C189.745 44.5584 190.393 46.6528 191.66 48.3412L198.245 48.4258C198.084 45.7559 198.09 43.0274 198.877 40.4714C199.664 37.9155 201.282 35.5386 203.646 34.4316C206.126 33.2724 209.277 33.5524 211.972 33.9497L211.852 25.2334Z" fill="#EBEBEB"/>
<path d="M195.155 20.0957C195.885 21.2581 194.947 23.1466 193.989 24.1169C193.032 25.0871 191.812 25.9011 191.366 27.2068C190.921 28.5124 191.366 29.9614 191.158 31.3256C191.059 31.9435 190.824 32.5297 190.47 33.0389C190.116 33.5482 189.654 33.9667 189.118 34.2623C188.582 34.5578 187.988 34.7224 187.38 34.7434C186.773 34.7643 186.169 34.641 185.615 34.383V20.0957H195.155Z" fill="#EBEBEB"/>
<path d="M192.551 44.8158C192.551 44.8158 192.912 45.3303 192.766 45.6624C192.621 45.9945 190.908 48.3551 191.553 49.9766C192.077 51.1744 192.724 52.3107 193.483 53.3661H197.5C197.5 53.3661 199.472 50.1589 199.431 49.0909C199.361 47.3197 198.107 45.48 198.107 45.48L198.423 44.8288C198.423 44.8288 194.7 43.7088 192.551 44.8158Z" fill="#E0E0E0"/>
<path d="M211.853 58.0668C211.853 58.0668 211.853 58.005 211.853 57.8812C211.853 57.7575 211.853 57.5817 211.853 57.3473C211.853 56.8719 211.853 56.1783 211.853 55.2732C211.853 53.4628 211.853 50.819 211.83 47.4588C211.83 40.7742 211.808 31.2928 211.796 20.0824L211.868 20.1605H185.64L185.723 20.0759C185.723 34.2981 185.723 47.4523 185.723 58.0473L185.656 57.9789L204.733 58.0147H210.023H211.413H211.894C211.894 58.0147 211.739 58.0147 211.429 58.0147H210.048L204.774 58.031L185.656 58.0668H185.59V57.9985C185.59 47.4034 185.59 34.2492 185.59 20.027V19.9424H185.675H211.903H211.979V20.0173C211.979 31.2472 211.951 40.7482 211.941 47.4458C211.941 50.7832 211.941 53.4205 211.922 55.2276C211.922 56.1263 211.922 56.8165 211.922 57.2854C211.922 57.5166 211.922 57.6924 211.922 57.8129C211.922 57.9333 211.853 58.0668 211.853 58.0668Z" fill="#E0E0E0"/>
<path d="M214.933 16.9834C214.491 17.574 213.994 18.1192 213.451 18.6114C212.946 19.1409 212.412 19.6399 211.852 20.1059C212.294 19.5148 212.792 18.9696 213.337 18.4779C213.843 17.951 214.375 17.4522 214.933 16.9834Z" fill="#E0E0E0"/>
<path d="M182.436 16.9736C183.024 17.4321 183.578 17.9349 184.095 18.4779C184.648 18.9804 185.164 19.5246 185.64 20.1059C185.052 19.6475 184.498 19.1458 183.981 18.6049C183.428 18.1008 182.911 17.5556 182.436 16.9736Z" fill="#E0E0E0"/>
<path d="M182.525 61.5034C182.974 60.9052 183.465 60.3425 183.995 59.82C184.482 59.2574 185.01 58.7339 185.575 58.2539C185.124 58.8506 184.632 59.4132 184.102 59.9373C183.615 60.4984 183.088 61.0219 182.525 61.5034Z" fill="#E0E0E0"/>
<path d="M214.833 61.5611C214.789 61.5871 214.255 60.6852 213.424 59.7149C212.592 58.7446 211.799 58.0706 211.844 58.0283C212.044 58.136 212.229 58.2719 212.393 58.4321C212.811 58.7893 213.199 59.1801 213.556 59.601C213.913 60.0232 214.239 60.4727 214.53 60.9457C214.66 61.1338 214.763 61.3413 214.833 61.5611Z" fill="#E0E0E0"/>
<path d="M26.2461 120.925V130.634H40.0237H55.2201V120.925H26.2461Z" fill="#F5F5F5"/>
<path d="M25.0293 118.213V120.925H56.2311V118.213H40.0235H25.0293Z" fill="#E0E0E0"/>
<path d="M40.6302 130.635H55.2199V120.925H56.2311V118.213H40.0234V120.674L40.6302 130.635Z" fill="#E0E0E0"/>
<path d="M36.1764 122.491H30.2988V123.953H36.1764V122.491Z" fill="#E0E0E0"/>
<path d="M37.0891 125.779H29.543V128.866H37.0891V125.779Z" fill="white"/>
<path d="M59.5722 151.502L58.9623 18.54H56.4659V44.7247H50.0132L49.8931 18.54H47.3998V44.7247H25.1914L25.0713 18.54H22.5749V44.7247H16.138L16.0179 18.54H13.5215V151.502H16.6278L16.5456 133.659H22.5749V151.502H25.6812L25.5958 133.659H47.3998V151.502H50.5061L50.4271 133.659H56.4722V151.502H59.5722ZM19.3959 116.041L17.165 106.185H21.747L19.3959 116.041ZM22.5749 106.797V130.077L19.8699 118.128L22.5749 106.797ZM22.5749 72.9575L19.8699 61.0177L22.5749 49.6771V72.9575ZM22.0914 75.0967H16.5108L19.3738 63.0983L22.0914 75.0967ZM19.3959 58.9339L16.8395 47.6486H22.0882L19.3959 58.9339ZM18.8998 61.0177L16.2644 72.0686L16.1601 48.912L18.8998 61.0177ZM16.4318 107.198L18.9061 118.121L16.5266 128.098L16.4318 107.198ZM19.3801 120.221L21.7659 130.761H16.8584L19.3801 120.221ZM16.514 103.29L16.4919 103.202L16.4129 103.219L16.2991 78.0043H22.5749V103.29H16.514ZM25.362 78.0043H47.3998V103.29H25.46L25.362 78.0043ZM53.0878 63.0886L55.8054 75.0869H50.2438L53.0878 63.0886ZM50.1301 71.4109L50.0321 49.5957L52.6138 60.9917L50.1301 71.4109ZM56.4501 73.7161L53.5713 61.0177L56.4501 48.9445V73.7161ZM56.4501 75.0446V75.0869H56.2763L56.4501 75.0446ZM56.4501 107.478V129.342L53.9221 118.128L56.4501 107.478ZM53.4386 116.041L51.2045 106.185H55.7865L53.4386 116.041ZM53.1131 58.9339L50.5598 47.6323H55.8054L53.1131 58.9339ZM56.4659 78.0075V103.294H50.5598L50.5377 103.206L50.2786 103.268L50.1617 78.0075H56.4659ZM52.9551 118.121L50.3987 128.866L50.2944 106.384L52.9551 118.121ZM53.4291 120.212L55.8181 130.751H50.9138L53.4291 120.212ZM47.3998 47.6323V75.0869H25.3304L25.204 47.6323H47.3998ZM25.9845 130.751H25.5958L25.4821 106.185H47.3998V130.751H25.9845Z" fill="#E0E0E0"/>
<path d="M45.459 55.3818H41.332V75.2011H45.459V55.3818Z" fill="#E0E0E0"/>
<path d="M44.297 70.4436C44.2977 70.6105 44.2502 70.7739 44.1606 70.913C44.0711 71.0521 43.9435 71.1607 43.794 71.225C43.6445 71.2893 43.4798 71.3065 43.3209 71.2743C43.1619 71.2421 43.0158 71.1621 42.901 71.0443C42.7862 70.9265 42.708 70.7762 42.6761 70.6125C42.6443 70.4489 42.6603 70.2791 42.7222 70.1249C42.784 69.9706 42.8889 69.8387 43.0236 69.7459C43.1582 69.6531 43.3166 69.6035 43.4786 69.6035C43.6951 69.6035 43.9028 69.6919 44.0562 69.8494C44.2096 70.0068 44.2962 70.2205 44.297 70.4436Z" fill="#FAFAFA"/>
<path d="M44.0745 60.6309H42.8105V68.7318H44.0745V60.6309Z" fill="#FAFAFA"/>
<path d="M41.2656 55.3818H37.1387V75.2011H41.2656V55.3818Z" fill="#EBEBEB"/>
<path d="M40.1037 70.4436C40.1043 70.6105 40.0568 70.7739 39.9673 70.913C39.8777 71.0521 39.7501 71.1607 39.6006 71.225C39.4511 71.2893 39.2865 71.3065 39.1275 71.2743C38.9685 71.2421 38.8224 71.1621 38.7076 71.0443C38.5929 70.9265 38.5146 70.7762 38.4828 70.6125C38.4509 70.4489 38.4669 70.2791 38.5288 70.1249C38.5906 69.9706 38.6955 69.8387 38.8302 69.7459C38.9649 69.6531 39.1232 69.6035 39.2852 69.6035C39.5017 69.6035 39.7094 69.6919 39.8628 69.8494C40.0162 70.0068 40.1028 70.2205 40.1037 70.4436Z" fill="#FAFAFA"/>
<path d="M39.8831 60.6309H38.6191V68.7318H39.8831V60.6309Z" fill="#FAFAFA"/>
<path d="M37.2754 55.3818H33.1484V75.2011H37.2754V55.3818Z" fill="#F5F5F5"/>
<path d="M36.1115 70.4436C36.1121 70.6105 36.0646 70.7739 35.9751 70.913C35.8855 71.0521 35.7579 71.1607 35.6084 71.225C35.4589 71.2893 35.2943 71.3065 35.1353 71.2743C34.9764 71.2421 34.8302 71.1621 34.7154 71.0443C34.6007 70.9265 34.5224 70.7762 34.4906 70.6125C34.4587 70.4489 34.4748 70.2791 34.5366 70.1249C34.5985 69.9706 34.7034 69.8387 34.838 69.7459C34.9727 69.6531 35.131 69.6035 35.293 69.6035C35.5096 69.6035 35.7173 69.6919 35.8707 69.8494C36.0241 70.0068 36.1106 70.2205 36.1115 70.4436Z" fill="#E0E0E0"/>
<path d="M35.891 60.6309H34.627V68.7318H35.891V60.6309Z" fill="#E0E0E0"/>
<path d="M28.0442 74.8989L33.0022 57.4631L31.2927 56.6914L26.2051 74.2673L28.0442 74.8989Z" fill="#F5F5F5"/>
<path d="M20.6973 103.277V100.278H41.2657L41.3321 103.277H20.6973Z" fill="#F5F5F5"/>
<path d="M41.2757 100.768C41.2757 100.768 23.0331 100.908 21.8512 101.194C21.5984 101.256 21.3393 102.409 21.8512 102.516C22.3631 102.623 41.2757 102.78 41.2757 102.78V100.768Z" fill="white"/>
<path d="M23.0859 100.158V97.1592H39.3789L39.4326 100.158H23.0859Z" fill="#EBEBEB"/>
<path d="M39.3885 97.6475C39.3885 97.6475 24.9378 97.7875 24.0024 98.074C23.8002 98.1359 23.5948 99.2885 24.0024 99.3959C24.4101 99.5034 39.3885 99.6597 39.3885 99.6597V97.6475Z" fill="#FAFAFA"/>
<path d="M23.0137 97.1944V94.1924H39.3066L39.3603 97.1944H23.0137Z" fill="#E0E0E0"/>
<path d="M39.3162 94.6846C39.3162 94.6846 24.8655 94.8213 23.9302 95.1079C23.7279 95.1697 23.5225 96.3256 23.9302 96.4298C24.3378 96.534 39.3162 96.6935 39.3162 96.6935V94.6846Z" fill="#FAFAFA"/>
<path d="M47.3106 25.2891H43.1836V45.1083H47.3106V25.2891Z" fill="#F5F5F5"/>
<path d="M46.1349 40.354C46.1349 40.5208 46.0869 40.6839 45.997 40.8226C45.9071 40.9612 45.7792 41.0693 45.6297 41.1332C45.4801 41.197 45.3156 41.2137 45.1568 41.1811C44.9981 41.1486 44.8522 41.0683 44.7378 40.9504C44.6233 40.8324 44.5454 40.6821 44.5138 40.5186C44.4822 40.355 44.4984 40.1854 44.5603 40.0313C44.6223 39.8772 44.7272 39.7455 44.8618 39.6529C44.9964 39.5602 45.1546 39.5107 45.3165 39.5107C45.5336 39.5107 45.7417 39.5996 45.8952 39.7577C46.0487 39.9159 46.1349 40.1304 46.1349 40.354Z" fill="#E0E0E0"/>
<path d="M45.9281 30.543H44.6641V38.6439H45.9281V30.543Z" fill="#E0E0E0"/>
<path d="M43.1172 25.2891H38.9902V45.1083H43.1172V25.2891Z" fill="#EBEBEB"/>
<path d="M41.9552 40.354C41.9552 40.5208 41.9072 40.6839 41.8173 40.8226C41.7274 40.9612 41.5996 41.0693 41.45 41.1332C41.3005 41.197 41.1359 41.2137 40.9771 41.1811C40.8184 41.1486 40.6725 41.0683 40.5581 40.9504C40.4436 40.8324 40.3657 40.6821 40.3341 40.5186C40.3025 40.355 40.3187 40.1854 40.3807 40.0313C40.4426 39.8772 40.5475 39.7455 40.6821 39.6529C40.8167 39.5602 40.9749 39.5107 41.1368 39.5107C41.3539 39.5107 41.562 39.5996 41.7155 39.7577C41.869 39.9159 41.9552 40.1304 41.9552 40.354Z" fill="#FAFAFA"/>
<path d="M41.7335 30.543H40.4727V38.6439H41.7335V30.543Z" fill="#FAFAFA"/>
<path d="M39.127 25.2891H35V45.1083H39.127V25.2891Z" fill="#E0E0E0"/>
<path d="M37.965 40.354C37.965 40.5208 37.917 40.6839 37.8271 40.8226C37.7371 40.9612 37.6093 41.0693 37.4598 41.1332C37.3102 41.197 37.1457 41.2137 36.9869 41.1811C36.8281 41.1486 36.6823 41.0683 36.5678 40.9504C36.4534 40.8324 36.3754 40.6821 36.3439 40.5186C36.3123 40.355 36.3285 40.1854 36.3904 40.0313C36.4524 39.8772 36.5573 39.7455 36.6919 39.6529C36.8265 39.5602 36.9847 39.5107 37.1466 39.5107C37.3636 39.5107 37.5718 39.5996 37.7253 39.7577C37.8788 39.9159 37.965 40.1304 37.965 40.354Z" fill="#FAFAFA"/>
<path d="M37.7425 30.543H36.4785V38.6439H37.7425V30.543Z" fill="#FAFAFA"/>
<path d="M222.781 151.531C222.781 151.577 176.089 151.616 118.501 151.616C60.9129 151.616 14.2207 151.577 14.2207 151.531C14.2207 151.485 60.9002 151.446 118.501 151.446C176.101 151.446 222.781 151.482 222.781 151.531Z" fill="#263238"/>
<path d="M61.543 95.7979L75.7061 151.531H80.2818L66.403 95.4658L61.543 95.7979Z" fill="#455A64"/>
<path d="M43.0352 151.53L50.5275 99.0498L54.8314 99.1768L48.3945 151.53H43.0352Z" fill="#455A64"/>
<path d="M41.6514 103.173L25.5449 151.531H30.7305L44.7514 107.679L41.6514 103.173Z" fill="#455A64"/>
<path d="M72.6569 86.6941C78.1711 103.436 75.7948 119.322 65.1488 123.047C54.5027 126.772 39.616 116.923 34.0986 100.18C28.5812 83.4381 32.743 66.8456 43.3922 63.1207C54.0414 59.3959 67.1396 69.9518 72.6569 86.6941Z" fill="#FC7F13"/>
<g opacity="0.3">
<path d="M72.6569 86.6941C78.1711 103.436 75.7948 119.322 65.1488 123.047C54.5027 126.772 39.616 116.923 34.0986 100.18C28.5812 83.4381 32.743 66.8456 43.3922 63.1207C54.0414 59.3959 67.1396 69.9518 72.6569 86.6941Z" fill="black"/>
</g>
<path d="M67.7048 121.807C78.3525 118.083 82.5552 101.62 77.0918 85.0368C71.6284 68.4532 58.5677 58.0286 47.92 61.7528C37.2723 65.477 33.0696 81.9398 38.533 98.5234C43.9964 115.107 57.0571 125.532 67.7048 121.807Z" fill="#FC7F13"/>
<path d="M66.7648 116.655C75.3567 113.65 78.5886 99.8823 73.9835 85.9039C69.3784 71.9256 58.6801 63.0301 50.0882 66.0353C41.4963 69.0404 38.2644 82.8082 42.8695 96.7865C47.4746 110.765 58.1729 119.66 66.7648 116.655Z" fill="#FAFAFA"/>
<path d="M65.6292 111.745C72.304 109.41 74.6986 98.3614 70.9776 87.0667C67.2566 75.772 58.8291 68.5084 52.1543 70.8431C45.4794 73.1777 43.0848 84.2265 46.8058 95.5212C50.5268 106.816 58.9543 114.079 65.6292 111.745Z" fill="#FC7F13"/>
<path d="M63.761 103.878C68.2726 102.3 69.9226 94.9276 67.4465 87.4114C64.9703 79.8952 59.3056 75.0814 54.794 76.6594C50.2824 78.2374 48.6323 85.6097 51.1085 93.1258C53.5847 100.642 59.2494 105.456 63.761 103.878Z" fill="#FAFAFA"/>
<path d="M63.8558 88.8877C65.3031 93.2865 64.5194 97.5388 62.1052 98.3854C59.6909 99.232 56.553 96.3471 55.1058 91.9483C53.6585 87.5494 54.439 83.2971 56.8564 82.4538C59.2738 81.6105 62.4054 84.4758 63.8558 88.8877Z" fill="#FC7F13"/>
<path d="M77.1033 85.0394C77.1033 85.0394 77.0496 84.9026 76.9516 84.6356C76.8537 84.3687 76.7146 83.9649 76.5282 83.4472C76.1269 82.4118 75.5423 80.8815 74.6322 78.993C73.5082 76.6997 72.1918 74.512 70.698 72.455C68.7312 69.7238 66.3808 67.3096 63.7239 65.2918C62.1776 64.1205 60.4963 63.1515 58.7184 62.407C58.2602 62.2018 57.7704 62.0553 57.2964 61.8762L56.557 61.6646C56.3096 61.5883 56.0586 61.5252 55.8049 61.4758C54.774 61.2335 53.7211 61.1047 52.6639 61.0916C52.3953 61.0916 52.1267 61.072 51.8549 61.0916L51.0428 61.1436C50.4948 61.2057 49.9505 61.2981 49.4122 61.4204C48.3102 61.6679 47.243 62.0585 46.2364 62.5828C44.1354 63.698 42.3172 65.3049 40.9276 67.2747C39.4543 69.338 38.3304 71.6432 37.6033 74.0927C37.2318 75.3552 36.9332 76.6392 36.709 77.9381C36.4961 79.2654 36.3506 80.6032 36.2729 81.9462C35.8475 93.274 39.4994 104.364 46.5271 113.087C47.3834 114.104 48.2905 115.074 49.2447 115.994C50.1896 116.884 51.1846 117.716 52.2246 118.485C54.2384 119.978 56.4818 121.11 58.8606 121.835C61.1282 122.525 63.5207 122.659 65.8474 122.226C66.9553 122.011 68.0321 121.651 69.0516 121.155C69.5516 120.915 70.0379 120.647 70.5084 120.351L71.1846 119.885C71.4153 119.735 71.6175 119.559 71.8324 119.384C72.6618 118.707 73.4202 117.944 74.095 117.104C74.2656 116.903 74.4299 116.697 74.5816 116.483L75.0398 115.851C75.3179 115.408 75.6149 114.988 75.8551 114.548C76.8273 112.845 77.5895 111.022 78.124 109.124C79.0368 105.853 79.4734 102.46 79.4196 99.0564C79.392 96.4843 79.1456 93.9196 78.6833 91.3918C78.3041 89.3145 77.8649 87.7321 77.571 86.6609L77.2076 85.4529C77.1254 85.1794 77.0875 85.0394 77.0875 85.0394C77.0875 85.0394 77.1349 85.1761 77.2234 85.4464C77.3119 85.7166 77.4383 86.1236 77.6026 86.6511C77.9186 87.7191 78.3547 89.3015 78.7465 91.3788C79.2226 93.9053 79.4817 96.4701 79.5207 99.0434C79.5862 102.454 79.1602 105.855 78.2567 109.137C77.7213 111.052 76.956 112.891 75.9783 114.61C75.735 115.063 75.438 115.489 75.1599 115.932L74.6985 116.583C74.546 116.802 74.3825 117.011 74.2087 117.212C73.5285 118.056 72.765 118.826 71.9304 119.507C71.7123 119.677 71.5069 119.866 71.2763 120.015C71.0456 120.165 70.8244 120.341 70.5937 120.491C70.119 120.789 69.6284 121.06 69.1243 121.301C68.0942 121.805 67.0057 122.171 65.8853 122.389C63.5373 122.831 61.1212 122.698 58.8322 122.001C56.4324 121.27 54.1697 120.126 52.1393 118.618C51.0924 117.846 50.0911 117.01 49.1405 116.115C48.1818 115.187 47.2705 114.209 46.4102 113.184C39.3466 104.434 35.6789 93.2989 36.1149 81.9267C36.1934 80.5772 36.34 79.2328 36.5542 77.899C36.7801 76.5924 37.0808 75.3008 37.4548 74.0309C38.1796 71.5659 39.3024 69.2445 40.7759 67.164C42.182 65.175 44.0222 63.5545 46.1479 62.433C47.1656 61.9045 48.2445 61.5117 49.3585 61.2641C49.9008 61.1402 50.4494 61.0478 51.0017 60.9874L51.8265 60.932C52.0982 60.9092 52.37 60.932 52.6417 60.932C53.7055 60.9476 54.7646 61.0785 55.8017 61.3227C56.0575 61.3737 56.3106 61.4378 56.5601 61.5148L57.3027 61.7297C57.7862 61.9088 58.2729 62.0553 58.7342 62.267C60.5199 63.017 62.2078 63.9937 63.7586 65.1746C66.4223 67.2078 68.7761 69.6398 70.7422 72.3899C72.232 74.455 73.5422 76.6516 74.6575 78.9539C75.5739 80.8489 76.1521 82.3858 76.5535 83.4244C76.7336 83.9486 76.8695 84.3459 76.9611 84.6194C77.0527 84.8929 77.1033 85.0394 77.1033 85.0394Z" fill="#263238"/>
<g opacity="0.3">
<path d="M76.2442 86.749L65.0957 89.7576L79.48 99.9586C79.48 99.9586 79.2335 92.4535 78.1307 88.0905L76.2442 86.749Z" fill="black"/>
</g>
<g opacity="0.3">
<path d="M38.2891 113.26L41.5755 117.61L42.5108 114.683L39.2023 110.519L38.2891 113.26Z" fill="black"/>
</g>
<g opacity="0.3">
<path d="M47.4004 121.263C47.4004 121.263 49.1858 123.499 51.856 123.499L52.0582 121.836C50.5178 121.112 49.0444 120.246 47.6563 119.247L47.4004 121.263Z" fill="black"/>
</g>
<g opacity="0.3">
<path d="M68.6663 123.833L68.1133 121.658C68.1133 121.658 71.0932 120.515 72.2624 119.131L72.8438 121.482C72.8438 121.482 70.8372 123.634 68.6663 123.833Z" fill="black"/>
</g>
<path d="M173.645 131.001L183.276 137.663L186.303 133.522L177.266 125.297L173.645 131.001Z" fill="#BC8F86"/>
<path d="M181.982 136.82L182.248 137.032C182.248 137.032 180.586 143.098 181.401 143.824L188.236 134.593L185.177 132.376C184.986 133.31 184.602 134.19 184.05 134.957C183.499 135.724 182.794 136.36 181.982 136.82Z" fill="#FC7F13"/>
<path d="M185.422 134.059C185.514 133.991 185.627 133.961 185.74 133.973C185.852 133.986 185.956 134.041 186.032 134.127C186.102 134.219 186.135 134.335 186.125 134.452C186.114 134.568 186.061 134.676 185.975 134.752C185.879 134.82 185.762 134.85 185.646 134.836C185.53 134.822 185.422 134.766 185.343 134.678C185.277 134.573 185.254 134.446 185.279 134.324C185.304 134.202 185.375 134.095 185.476 134.026" fill="white"/>
<path d="M188.234 134.593L187.495 134.062L181.216 143.101C181.216 143.101 181.086 143.648 181.399 143.824L188.234 134.593Z" fill="#263238"/>
<path d="M182.247 137.078C182.291 137.11 182.481 136.902 182.784 136.791C183.087 136.681 183.359 136.707 183.375 136.651C183.391 136.596 183.084 136.466 182.718 136.606C182.351 136.746 182.199 137.078 182.247 137.078Z" fill="#263238"/>
<path d="M181.919 138.357C181.954 138.402 182.175 138.266 182.472 138.259C182.769 138.253 183 138.36 183.031 138.314C183.063 138.269 182.835 138.044 182.466 138.06C182.096 138.077 181.878 138.324 181.919 138.357Z" fill="#263238"/>
<path d="M182.647 139.792C182.688 139.759 182.515 139.522 182.192 139.466C181.87 139.411 181.614 139.532 181.636 139.577C181.658 139.623 181.883 139.597 182.148 139.659C182.413 139.72 182.597 139.834 182.647 139.792Z" fill="#263238"/>
<path d="M145.027 136.438L144.25 148.365L149.243 148.997L151.635 136.816L145.027 136.438Z" fill="#BC8F86"/>
<path d="M144.311 146.791L144.264 147.133C144.264 147.133 138.339 148.683 138.137 149.774L149.31 151.255L149.626 147.403C148.75 147.699 147.821 147.798 146.904 147.692C145.987 147.587 145.103 147.279 144.311 146.791Z" fill="#FC7F13"/>
<path d="M148.352 148.474C148.455 148.521 148.537 148.607 148.583 148.713C148.629 148.82 148.634 148.94 148.598 149.05C148.556 149.158 148.475 149.246 148.372 149.294C148.269 149.342 148.152 149.348 148.045 149.311C147.936 149.259 147.85 149.167 147.802 149.054C147.754 148.94 147.749 148.813 147.786 148.695C147.841 148.587 147.935 148.506 148.048 148.468C148.161 148.431 148.283 148.44 148.39 148.494" fill="white"/>
<path d="M149.309 151.254L149.388 150.329L138.644 149.248C138.644 149.248 138.116 149.404 138.129 149.772L149.309 151.254Z" fill="#263238"/>
<path d="M144.223 147.171C144.223 147.226 144.485 147.288 144.732 147.496C144.978 147.705 145.092 147.965 145.145 147.952C145.199 147.939 145.145 147.601 144.855 147.343C144.564 147.086 144.216 147.106 144.223 147.171Z" fill="#263238"/>
<path d="M142.987 147.497C142.968 147.552 143.193 147.679 143.348 147.94C143.503 148.2 143.525 148.461 143.582 148.467C143.638 148.474 143.711 148.158 143.509 147.836C143.307 147.513 142.997 147.448 142.987 147.497Z" fill="#263238"/>
<path d="M142.141 148.857C142.188 148.876 142.302 148.606 142.198 148.28C142.094 147.955 141.857 147.795 141.828 147.841C141.8 147.886 141.936 148.069 142.018 148.339C142.1 148.609 142.087 148.844 142.141 148.857Z" fill="#263238"/>
<path d="M166.928 37.9948C167.06 37.1091 167.835 36.4286 168.678 36.217C169.537 36.047 170.426 36.1387 171.235 36.4807C172.164 36.7969 173.007 37.3372 173.693 38.0566C174.032 38.4193 174.299 38.8472 174.477 39.3159C174.655 39.7846 174.742 40.285 174.733 40.7884C174.682 41.7294 174.227 42.6736 174.483 43.5755C174.676 44.2625 175.239 44.764 175.804 45.1775C176.37 45.591 176.983 45.9817 177.365 46.5808C177.748 47.1799 177.808 48.0655 177.293 48.5344C176.834 48.9609 176.029 49.0098 175.823 49.6154C175.703 49.9898 175.905 50.3806 176.016 50.7582C176.121 51.1628 176.141 51.5855 176.077 51.9989C176.013 52.4124 175.865 52.8072 175.643 53.1579C175.193 53.8564 174.58 54.4274 173.861 54.8185C172.622 55.538 171.08 55.8734 169.775 55.3004C169.128 55.0046 168.572 54.5344 168.163 53.9394C167.505 52.9331 167.136 51.756 167.098 50.5434C167.064 49.3372 167.14 48.1303 167.326 46.939" fill="#263238"/>
<path d="M166.475 52.3104C167.015 52.4638 167.583 52.4849 168.133 52.372C168.683 52.2591 169.199 52.0153 169.641 51.66C170.083 51.3048 170.439 50.8479 170.679 50.326C170.919 49.804 171.038 49.2314 171.025 48.6539C171.003 47.5794 170.532 46.4821 170.854 45.463C171.079 44.7597 171.648 44.216 171.84 43.5094C172.125 42.448 171.502 41.3767 170.908 40.4618C170.554 39.8562 170.115 39.3077 169.606 38.8338C169.35 38.6003 169.048 38.4272 168.721 38.3266C168.393 38.2259 168.048 38.2001 167.71 38.251" fill="#263238"/>
<path d="M156.86 38.3398C156.92 39.1506 156.399 39.8767 155.877 40.4823C155.356 41.0879 154.771 41.7261 154.657 42.5303C154.455 43.9564 155.811 45.2816 155.533 46.6915C155.381 47.4501 154.781 48.0557 154.673 48.8209C154.566 49.586 154.954 50.2828 155.432 50.8461C155.909 51.4094 156.487 51.8783 156.91 52.4741C156.91 52.4741 157.789 53.9556 160.491 53.0081" fill="#263238"/>
<path d="M168.957 39.5792C168.976 38.8433 168.325 38.2768 167.652 38.0065C166.978 37.7363 166.249 37.6354 165.658 37.2251C165.133 36.8604 164.779 36.2939 164.337 35.8283C163.789 35.2565 163.103 34.8452 162.35 34.6366C161.596 34.4281 160.803 34.4298 160.051 34.6416C159.298 34.8533 158.614 35.2676 158.068 35.8417C157.523 36.4159 157.135 37.1294 156.945 37.9089C156.69 38.954 156.863 40.1881 157.666 40.8881C158.595 41.6956 159.973 41.5165 161.164 41.2658C162.355 41.0151 163.692 40.7676 164.7 41.4872C165.301 41.9235 165.648 42.6301 166.012 43.2845C166.375 43.939 166.836 44.6064 167.531 44.8539C168.227 45.1013 169.165 44.6748 169.194 43.9194" fill="#263238"/>
<path d="M166.14 39.7219C166.437 39.7551 166.712 39.9019 166.909 40.1333C167.107 40.3647 167.214 40.664 167.208 40.9722L166.494 57.5777C166.465 59.5313 163.681 60.6449 161.64 60.596C159.583 60.5439 159.513 59.5053 159.488 57.6363C159.447 54.5171 159.45 53.3482 159.45 53.3645C159.45 53.3808 156.846 52.9151 156.315 49.415C156.05 47.673 156.142 44.8207 156.29 42.4895C156.423 40.3893 157.778 37.8204 159.807 38.045L166.14 39.7219Z" fill="#BC8F86"/>
<path d="M156.891 44.812C156.89 44.9293 156.933 45.0424 157.011 45.1274C157.09 45.2125 157.197 45.2628 157.311 45.2679C157.366 45.2718 157.422 45.2645 157.474 45.2464C157.527 45.2282 157.575 45.1996 157.617 45.1621C157.658 45.1245 157.692 45.0789 157.717 45.0278C157.742 44.9767 157.756 44.921 157.76 44.8641C157.761 44.7468 157.717 44.6338 157.639 44.5487C157.56 44.4637 157.453 44.4133 157.339 44.4083C157.284 44.4043 157.229 44.4116 157.176 44.4298C157.124 44.4479 157.075 44.4766 157.034 44.5141C156.992 44.5516 156.958 44.5972 156.933 44.6484C156.909 44.6995 156.894 44.7551 156.891 44.812Z" fill="#263238"/>
<path d="M156.781 43.63C156.835 43.6886 157.163 43.4379 157.634 43.4412C158.105 43.4444 158.443 43.6854 158.494 43.6268C158.544 43.5682 158.465 43.4933 158.317 43.3826C158.114 43.2365 157.872 43.1591 157.625 43.1612C157.381 43.1593 157.143 43.238 156.945 43.3858C156.803 43.4868 156.753 43.591 156.781 43.63Z" fill="#263238"/>
<path d="M161.242 44.8982C161.241 45.0155 161.285 45.1286 161.363 45.2136C161.441 45.2986 161.549 45.349 161.662 45.354C161.718 45.3585 161.773 45.3515 161.826 45.3335C161.879 45.3155 161.927 45.2869 161.969 45.2493C162.011 45.2117 162.045 45.1659 162.069 45.1145C162.094 45.0632 162.108 45.0074 162.111 44.9503C162.113 44.8333 162.07 44.7202 161.992 44.6351C161.915 44.55 161.808 44.4995 161.694 44.4945C161.639 44.49 161.583 44.497 161.53 44.5149C161.477 44.5329 161.428 44.5615 161.386 44.599C161.344 44.6366 161.31 44.6824 161.285 44.7337C161.26 44.7851 161.246 44.841 161.242 44.8982Z" fill="#263238"/>
<path d="M161.491 43.8579C161.545 43.9165 161.877 43.6658 162.345 43.6658C162.812 43.6658 163.157 43.91 163.207 43.8513C163.258 43.7927 163.179 43.7211 163.03 43.6071C162.827 43.463 162.585 43.3858 162.338 43.3857C162.095 43.3854 161.857 43.464 161.659 43.6104C161.517 43.7244 161.476 43.8318 161.491 43.8579Z" fill="#263238"/>
<path d="M159.785 47.6741C159.539 47.5919 159.283 47.5438 159.024 47.5308C158.904 47.5308 158.79 47.4918 158.771 47.4071C158.761 47.2797 158.79 47.1522 158.853 47.0424C158.964 46.7429 159.084 46.4303 159.207 46.1047C159.703 44.7697 160.06 43.6692 160.007 43.6497C159.953 43.6301 159.514 44.6981 159.018 46.0331C158.901 46.3587 158.784 46.6843 158.676 46.9773C158.602 47.1255 158.579 47.2959 158.613 47.4592C158.631 47.5023 158.658 47.541 158.692 47.5725C158.725 47.6039 158.765 47.6275 158.809 47.6415C158.876 47.6596 158.945 47.6694 159.014 47.6708C159.27 47.7036 159.529 47.7047 159.785 47.6741Z" fill="#263238"/>
<path d="M159.451 53.3991C161.052 53.4245 162.629 52.9905 164.005 52.1455C164.005 52.1455 162.854 54.5484 159.457 54.2163L159.451 53.3991Z" fill="#7F473D"/>
<path d="M161.287 42.6827C161.335 42.813 161.802 42.7511 162.352 42.8227C162.902 42.8944 163.345 43.0474 163.42 42.9302C163.452 42.8716 163.376 42.7511 163.196 42.6208C162.958 42.4624 162.688 42.3642 162.406 42.3343C162.124 42.298 161.838 42.3326 161.572 42.4353C161.37 42.5167 161.268 42.6208 161.287 42.6827Z" fill="#263238"/>
<path d="M156.85 42.5467C156.941 42.6574 157.308 42.5467 157.747 42.5467C158.186 42.5467 158.562 42.6216 158.648 42.5076C158.686 42.4522 158.626 42.3415 158.464 42.2373C158.241 42.1076 157.987 42.0456 157.731 42.0583C157.477 42.0588 157.228 42.1345 157.014 42.2764C156.859 42.3806 156.809 42.4946 156.85 42.5467Z" fill="#263238"/>
<path d="M168.514 51.2397C168.045 51.3379 167.56 51.3194 167.099 51.1859C166.639 51.0523 166.215 50.8074 165.865 50.4716C165.514 50.1358 165.246 49.7187 165.083 49.2548C164.92 48.791 164.867 48.2939 164.928 47.8046C165.032 46.945 165.481 46.0724 165.193 45.2584C164.811 44.1839 163.348 43.8518 162.959 42.7806C162.735 42.1555 162.937 41.4261 162.681 40.827C162.425 40.2279 161.853 39.9219 161.281 39.7102C160.709 39.4986 160.099 39.3488 159.619 38.9678C159.139 38.5869 158.842 37.8576 159.148 37.3203C161.684 37.6336 164.175 38.2566 166.568 39.1762C167.124 39.3879 167.705 39.6451 168.034 40.153C168.363 40.661 168.35 41.3838 168.35 42.0285L167.908 51.4448" fill="#263238"/>
<path d="M170.304 39.8734C170.337 39.9139 170.357 39.964 170.361 40.0167C170.371 40.0922 170.364 40.169 170.342 40.2415C170.319 40.3141 170.282 40.3807 170.232 40.4367C170.158 40.5312 170.066 40.6089 169.961 40.6649C169.857 40.721 169.742 40.7541 169.625 40.7623C169.321 40.7459 169.025 40.6555 168.762 40.4986C168.458 40.3239 168.12 40.2205 167.773 40.1958C167.37 40.1859 166.967 40.2241 166.572 40.3097C166.126 40.4087 165.673 40.4686 165.217 40.4888C164.705 40.5091 164.206 40.3221 163.826 39.9679C163.486 39.595 163.216 39.1614 163.027 38.6883C162.858 38.2657 162.646 37.8629 162.395 37.4868C162.174 37.1803 161.87 36.9472 161.522 36.8164C161.174 36.6856 160.796 36.6629 160.436 36.7509C159.944 36.8828 159.521 37.2046 159.254 37.6496C159.158 37.8167 159.075 37.9908 159.004 38.1706C159.002 38.1183 159.011 38.0663 159.029 38.0175C159.07 37.8772 159.125 37.7418 159.194 37.6138C159.456 37.136 159.891 36.7848 160.404 36.637C160.762 36.538 161.14 36.5447 161.494 36.6565C161.903 36.7856 162.262 37.0429 162.521 37.3924C162.79 37.7748 163.016 38.1864 163.197 38.6199C163.379 39.0718 163.638 39.4865 163.962 39.8441C164.308 40.1658 164.761 40.3373 165.226 40.3228C165.672 40.3035 166.116 40.2469 166.553 40.1535C166.962 40.0677 167.379 40.0328 167.795 40.0493C168.16 40.0776 168.514 40.1888 168.832 40.3749C169.076 40.5272 169.35 40.6218 169.634 40.6516C169.739 40.6492 169.843 40.6248 169.938 40.58C170.034 40.5353 170.12 40.471 170.191 40.3911C170.238 40.3426 170.276 40.2847 170.301 40.221C170.327 40.1572 170.34 40.0889 170.339 40.02C170.323 39.9255 170.295 39.8767 170.304 39.8734Z" fill="#455A64"/>
<path d="M170.687 40.2047C170.643 40.2438 170.125 39.3516 169.082 38.746C168.445 38.4027 167.757 38.1685 167.047 38.0525C167.255 38.0072 167.47 38.0072 167.679 38.0525C168.727 38.216 169.677 38.7783 170.343 39.6284C170.495 39.7935 170.613 39.9899 170.687 40.2047Z" fill="#455A64"/>
<path d="M166.877 37.8697C166.877 37.8697 166.877 37.9088 166.83 37.9739C166.77 38.0647 166.697 38.145 166.612 38.2116C166.451 38.3291 166.269 38.4124 166.076 38.4566C165.884 38.5007 165.684 38.5049 165.49 38.4689C164.922 38.3307 164.409 38.0158 164.021 37.5669C163.559 37.1046 163.133 36.512 162.51 36.1441C161.915 35.8077 161.218 35.717 160.561 35.8901C160.023 36.0336 159.546 36.3523 159.199 36.7985C158.963 37.099 158.787 37.4441 158.68 37.8144C158.608 38.0814 158.595 38.2344 158.579 38.2312C158.563 38.2279 158.579 38.1921 158.579 38.1205C158.586 38.0109 158.6 37.902 158.624 37.7949C158.706 37.4027 158.872 37.0344 159.11 36.7171C159.464 36.2392 159.962 35.8957 160.526 35.7403C161.223 35.5467 161.967 35.6401 162.599 36.0008C163.269 36.3948 163.692 37.0037 164.138 37.4595C164.5 37.8931 164.98 38.205 165.516 38.3549C165.881 38.4326 166.262 38.3639 166.58 38.1628C166.689 38.0765 166.789 37.9782 166.877 37.8697Z" fill="#455A64"/>
<path d="M166.721 52.7477C166.769 52.769 166.82 52.7833 166.872 52.79C167.02 52.8167 167.169 52.832 167.318 52.8356C167.874 52.845 168.425 52.7166 168.923 52.4612C169.672 52.0826 170.275 51.4552 170.636 50.6801C171.083 49.7327 171.186 48.651 170.924 47.6325C170.781 47.1313 170.682 46.6181 170.626 46.099C170.607 45.6213 170.723 45.1482 170.961 44.7379C171.191 44.3522 171.369 43.9359 171.489 43.5007C171.578 43.1108 171.589 42.7065 171.521 42.3122C171.428 41.7443 171.185 41.2137 170.819 40.7787C170.725 40.6594 170.619 40.5503 170.503 40.4531C170.421 40.3879 170.377 40.3586 170.371 40.3651C170.371 40.3814 170.532 40.5117 170.769 40.821C171.102 41.2578 171.32 41.776 171.401 42.3253C171.455 42.6998 171.436 43.0818 171.344 43.4486C171.22 43.8682 171.043 44.269 170.816 44.6403C170.699 44.8564 170.603 45.0844 170.532 45.3208C170.463 45.5738 170.435 45.8367 170.45 46.099C170.502 46.6303 170.601 47.1557 170.747 47.6683C171 48.6459 170.908 49.6845 170.487 50.5987C170.205 51.2236 169.76 51.7559 169.203 52.1368C168.645 52.5178 167.996 52.7326 167.327 52.7575C166.936 52.764 166.724 52.7249 166.721 52.7477Z" fill="#455A64"/>
<path d="M172.735 37.2489C172.579 37.0819 172.377 36.9682 172.157 36.9233C171.635 36.7707 171.078 36.8147 170.585 37.0474C170.092 37.2802 169.696 37.6864 169.467 38.1932C169.356 38.3901 169.304 38.6169 169.319 38.8444C169.35 38.8444 169.401 38.6034 169.594 38.2583C169.837 37.8076 170.213 37.4486 170.668 37.2336C171.122 37.0187 171.632 36.959 172.122 37.0633C172.501 37.1578 172.719 37.2782 172.735 37.2489Z" fill="#455A64"/>
<path d="M170.225 39.4563C170.225 39.4563 170.225 39.3782 170.209 39.2284C170.204 39.0138 170.257 38.802 170.361 38.6163C170.522 38.3209 170.767 38.0834 171.063 37.9358C171.255 37.8366 171.465 37.7822 171.68 37.7766C171.895 37.771 172.108 37.8142 172.305 37.9032C172.787 38.1243 173.18 38.5109 173.417 38.9972C173.687 39.5593 173.805 40.1855 173.761 40.8108C173.715 41.5104 173.609 42.2044 173.445 42.8849C173.263 43.6297 173.176 44.3959 173.186 45.1641C173.254 45.9325 173.449 46.6834 173.761 47.3847C174.042 48.0216 174.289 48.6737 174.501 49.3383C174.682 49.9381 174.734 50.5715 174.652 51.1942C174.573 51.7378 174.415 52.2659 174.182 52.7603C173.832 53.4777 173.415 54.1582 172.937 54.7921L172.554 55.3195C172.505 55.3764 172.463 55.4399 172.431 55.5084C172.488 55.46 172.54 55.4054 172.586 55.3456C172.684 55.2316 172.823 55.0656 173 54.8409C173.506 54.2193 173.945 53.5437 174.311 52.8254C174.559 52.3201 174.73 51.7788 174.82 51.2202C174.909 50.5715 174.861 49.9104 174.678 49.2829C174.47 48.6062 174.225 47.942 173.945 47.2935C173.644 46.6121 173.456 45.8835 173.388 45.138C173.325 43.6045 173.929 42.1848 173.951 40.8043C173.99 40.1463 173.857 39.4897 173.565 38.9028C173.307 38.3864 172.881 37.9797 172.361 37.7534C172.146 37.6614 171.914 37.6194 171.681 37.6307C171.449 37.642 171.221 37.7061 171.015 37.8186C170.706 37.9839 170.454 38.2446 170.295 38.5642C170.193 38.7641 170.15 38.9906 170.172 39.2154C170.175 39.2984 170.193 39.38 170.225 39.4563Z" fill="#455A64"/>
<path d="M159.963 48.8397C160.031 49.0496 160.129 49.2481 160.254 49.429C160.316 49.5201 160.396 49.5963 160.489 49.6525C160.583 49.7087 160.686 49.7435 160.794 49.7546C160.909 49.7553 161.023 49.7258 161.124 49.6689C161.225 49.6119 161.311 49.5294 161.372 49.429C161.493 49.2262 161.55 48.9893 161.533 48.7517C161.533 48.5401 161.429 48.2861 161.217 48.2601C161.131 48.2569 161.045 48.2771 160.968 48.3187L159.896 48.7745" fill="#7F473D"/>
<path d="M160.395 49.7615C160.59 49.7763 160.785 49.752 160.97 49.6899C161.159 49.6136 161.314 49.4688 161.406 49.2829C161.455 49.1679 161.48 49.0437 161.48 48.9182C161.48 48.7927 161.455 48.6686 161.406 48.5535C161.382 48.4939 161.351 48.4381 161.312 48.3875C161.271 48.3419 161.277 48.3419 161.229 48.3517C161.182 48.3614 161.116 48.3973 161.059 48.4201L160.882 48.4949L160.25 48.7424C160.065 48.8352 159.866 48.8968 159.662 48.9247C159.825 48.7959 160.005 48.6917 160.196 48.6154L160.797 48.3256L160.974 48.2442C161.037 48.2131 161.103 48.186 161.169 48.1628C161.222 48.1449 161.278 48.1449 161.331 48.1628C161.377 48.1858 161.418 48.2192 161.451 48.2605C161.499 48.3256 161.54 48.3967 161.571 48.4721C161.629 48.6135 161.657 48.7666 161.652 48.9202C161.646 49.0739 161.608 49.2245 161.539 49.361C161.481 49.4708 161.403 49.5676 161.309 49.6459C161.214 49.7241 161.106 49.7823 160.989 49.8169C160.838 49.8678 160.676 49.8746 160.522 49.8364C160.439 49.8169 160.389 49.7745 160.395 49.7615Z" fill="#263238"/>
<path d="M170.956 116.261L168.937 99.5579C170.251 96.3931 170.729 93.2315 170.346 91.2681C170.368 91.4733 170.378 91.7272 170.324 91.1509C170.008 87.6735 167.082 85.1176 167.082 85.1176L166.106 80.8848L153.617 82.7016L154.088 89.7639L146.254 115.994L144.412 144.351L151.07 145.116C151.07 145.116 153.598 132.245 154.3 127.071C154.678 124.265 154.894 121.438 154.948 118.605L161.075 109.163C161.802 113.07 162.62 117.876 163.043 120.386C163.232 121.509 163.7 122.563 164.402 123.444L180.436 136.426L184.269 131.301C182.752 127.563 170.956 116.261 170.956 116.261Z" fill="#263238"/>
<path d="M155.219 87.9481C155.101 87.7278 155.013 87.4924 154.956 87.2481C154.787 86.6701 154.658 86.0803 154.571 85.4834C154.482 84.8864 154.437 84.2835 154.435 83.6795C154.42 83.4289 154.436 83.1773 154.482 82.9307C154.521 83.1772 154.541 83.4265 154.542 83.6763C154.571 84.1354 154.621 84.767 154.723 85.4606C154.824 86.1541 154.956 86.763 155.064 87.2188C155.136 87.4569 155.187 87.7009 155.219 87.9481Z" fill="#455A64"/>
<path d="M155.789 83.1416C155.789 83.1416 155.836 83.0928 155.95 83.0668C156.113 83.0355 156.28 83.0607 156.427 83.1384C156.542 83.1931 156.641 83.2773 156.715 83.3827C156.789 83.4882 156.836 83.6114 156.851 83.7408C156.863 83.9006 156.833 84.0609 156.763 84.204C156.692 84.3471 156.585 84.4673 156.453 84.5515C156.315 84.6296 156.158 84.6633 156.002 84.6482C155.846 84.6331 155.698 84.5699 155.577 84.4668C155.478 84.3881 155.398 84.2849 155.347 84.1666C155.296 84.0484 155.274 83.9188 155.283 83.7896C155.297 83.6239 155.345 83.4631 155.422 83.3175C155.476 83.2165 155.514 83.1677 155.524 83.171C155.533 83.1742 155.524 83.2361 155.479 83.3435C155.426 83.4882 155.397 83.6413 155.394 83.7961C155.394 83.9147 155.424 84.0312 155.481 84.1345C155.537 84.2378 155.618 84.3245 155.717 84.3862C155.815 84.4479 155.927 84.4827 156.042 84.4871C156.157 84.4915 156.271 84.4655 156.374 84.4115C156.481 84.3436 156.568 84.2474 156.627 84.1329C156.686 84.0184 156.714 83.8898 156.709 83.7603C156.699 83.6529 156.664 83.5497 156.606 83.4599C156.548 83.3702 156.469 83.2966 156.377 83.2458C156.197 83.145 155.991 83.1084 155.789 83.1416Z" fill="#455A64"/>
<path d="M164.005 86.5471C164.005 86.5471 163.932 86.5927 163.787 86.6415C163.581 86.7127 163.37 86.7618 163.155 86.788C162.841 86.8351 162.523 86.8471 162.207 86.8238C161.814 86.7914 161.426 86.715 161.05 86.5959C160.676 86.4688 160.315 86.3007 159.976 86.0945C159.702 85.9219 159.446 85.7211 159.211 85.4954C159.052 85.3449 158.907 85.1792 158.778 85.0005C158.686 84.8735 158.642 84.7986 158.652 84.7921C158.661 84.7856 158.876 85.0526 159.284 85.4107C159.522 85.6195 159.778 85.8059 160.048 85.9675C160.382 86.1617 160.733 86.3209 161.097 86.4429C161.463 86.5577 161.839 86.6362 162.219 86.6773C162.535 86.7057 162.852 86.7057 163.167 86.6773C163.67 86.6252 164.005 86.5178 164.005 86.5471Z" fill="#455A64"/>
<path d="M168.015 99.1523C167.975 99.2223 167.929 99.2888 167.879 99.351L167.481 99.8915C167.136 100.373 166.634 101.067 166.033 101.939C164.829 103.681 163.189 106.117 161.423 108.816L156.863 115.745L155.473 117.845L155.093 118.412C155.051 118.479 155.004 118.542 154.951 118.6C154.985 118.528 155.024 118.458 155.068 118.392L155.422 117.809L156.762 115.683C157.899 113.892 159.489 111.431 161.268 108.728C163.047 106.026 164.69 103.6 165.92 101.874C166.533 101.008 167.048 100.325 167.408 99.8524C167.591 99.6342 167.724 99.4617 167.844 99.3282C167.895 99.2641 167.952 99.2052 168.015 99.1523Z" fill="#455A64"/>
<path d="M166.703 60.6723C166.728 60.6723 166.728 60.3467 166.817 59.8029C166.933 59.1159 167.164 58.4549 167.499 57.8493C167.804 57.2249 168.292 56.7147 168.893 56.3907C169.152 56.2869 169.43 56.2414 169.708 56.2572C169.64 56.2168 169.563 56.1954 169.484 56.1953C169.269 56.1736 169.053 56.2037 168.852 56.2832C168.207 56.5885 167.682 57.1125 167.367 57.7679C167.019 58.3937 166.794 59.0842 166.706 59.7997C166.656 60.0882 166.655 60.3834 166.703 60.6723Z" fill="#263238"/>
<path d="M165.621 55.4687L159.301 56.4781L155.37 61.8179C153.8 63.9638 152.994 66.6013 153.089 69.2871C153.208 70.6712 153.539 72.0272 154.068 73.305L153.082 80.9534C152.937 81.8325 153.49 82.6758 153.863 82.6758L165.707 81.0478C167.249 80.7222 167.884 79.9049 167.789 78.9835L167.612 77.2773L171.518 60.0759C171.815 61.1048 171.644 56.7548 169.385 55.8985C168.194 55.3949 166.89 55.246 165.621 55.4687Z" fill="#FC7F13"/>
<path d="M157.386 59.0088C157.349 59.0422 157.316 59.0805 157.289 59.1228L157.026 59.4679C156.805 59.7707 156.486 60.2135 156.107 60.7703C155.094 62.1943 154.259 63.7445 153.623 65.384C152.997 67.0288 152.805 68.8151 153.067 70.5611C153.154 71.0868 153.3 71.6004 153.503 72.0914C153.556 72.226 153.616 72.3575 153.683 72.4853C153.705 72.5315 153.731 72.5761 153.759 72.6188C153.704 72.4321 153.638 72.2494 153.56 72.0718C153.382 71.5764 153.254 71.0636 153.177 70.5415C152.955 68.8183 153.161 67.0651 153.775 65.4459C154.408 63.8195 155.222 62.2745 156.201 60.8419L157.077 59.5167L157.314 59.1553C157.343 59.1095 157.368 59.0604 157.386 59.0088Z" fill="#263238"/>
<path d="M166.879 63.166C166.874 63.2169 166.874 63.2682 166.879 63.319C166.879 63.4395 166.911 63.586 166.93 63.7619C166.98 64.1428 167.066 64.6963 167.183 65.3899C167.42 66.7476 167.796 68.61 168.244 70.6613C168.693 72.7126 169.132 74.5685 169.467 75.8937C169.635 76.5612 169.783 77.0984 169.878 77.4696C169.929 77.6389 169.97 77.7789 170.001 77.8961C170.033 78.0134 170.049 78.0427 170.055 78.0394C170.055 77.9876 170.047 77.9361 170.033 77.8864L169.938 77.4533C169.85 77.0528 169.726 76.5188 169.578 75.8676L168.399 70.6255C167.95 68.5742 167.559 66.7183 167.293 65.3671L166.993 63.7684C166.961 63.5926 166.933 63.4428 166.914 63.3321C166.895 63.2214 166.886 63.166 166.879 63.166Z" fill="#263238"/>
<g opacity="0.3">
<path d="M166.574 80.7971C165.894 80.0971 165.752 79.0291 165.645 78.0425C165.305 74.9081 164.966 71.7726 164.627 68.636C164.415 66.6824 164.216 64.6311 164.943 62.8077C164.98 62.6646 165.048 62.5319 165.142 62.4192C165.235 62.3066 165.352 62.2168 165.483 62.1565C165.618 62.1312 165.757 62.1462 165.884 62.1999C166.01 62.2536 166.119 62.3436 166.198 62.4593C166.362 62.684 166.83 63.0096 166.89 63.2799C167.582 66.0768 167.882 68.815 168.574 71.625C168.754 72.3641 168.994 72.3348 168.836 73.0804C168.605 74.1614 167.623 77.2644 167.623 77.2644C167.623 77.2644 167.762 78.3942 167.803 79.0519C167.825 79.4424 167.715 79.8288 167.493 80.146C167.271 80.4633 166.95 80.692 166.583 80.7938" fill="black"/>
</g>
<path d="M159.023 57.0703L158.824 55.3479L167.208 54.2441V56.1749L159.023 57.0703Z" fill="#FC7F13"/>
<path d="M123.993 137.89L127.63 144.194C127.63 144.194 122.634 150.12 123.206 151.357L135.321 144.52L130.035 134.472L123.993 137.89Z" fill="#455A64"/>
<path d="M131.089 141.543C131.224 141.513 131.366 141.537 131.485 141.609C131.605 141.682 131.695 141.797 131.736 141.933C131.765 142.069 131.744 142.212 131.676 142.332C131.608 142.453 131.499 142.543 131.37 142.585C131.225 142.615 131.075 142.589 130.948 142.512C130.821 142.435 130.725 142.313 130.681 142.168C130.661 142.019 130.698 141.869 130.783 141.748C130.869 141.626 130.996 141.544 131.139 141.517" fill="#E0E0E0"/>
<path d="M135.308 144.525L134.739 143.548L123.335 150.451C123.335 150.451 122.924 150.994 123.193 151.352L135.308 144.525Z" fill="#263238"/>
<path d="M127.4 144.241C127.434 144.299 127.744 144.163 128.139 144.195C128.534 144.228 128.825 144.394 128.869 144.338C128.913 144.283 128.635 143.983 128.155 143.951C127.675 143.918 127.349 144.192 127.4 144.241Z" fill="#263238"/>
<path d="M126.417 145.497C126.435 145.565 126.733 145.523 127.083 145.67C127.434 145.816 127.624 146.054 127.681 146.018C127.737 145.982 127.592 145.614 127.169 145.445C126.745 145.276 126.401 145.438 126.417 145.497Z" fill="#263238"/>
<path d="M126.526 147.474C126.586 147.454 126.507 147.103 126.178 146.855C125.85 146.608 125.502 146.631 125.502 146.696C125.502 146.761 125.771 146.842 126.039 147.051C126.308 147.259 126.463 147.497 126.526 147.474Z" fill="#263238"/>
<path d="M126.716 142.711C126.77 142.753 126.998 142.516 127.348 142.349C127.699 142.183 128.015 142.148 128.018 142.076C128.022 142.004 127.655 141.929 127.251 142.131C126.846 142.333 126.669 142.678 126.716 142.711Z" fill="#263238"/>
<path d="M124.464 140.46L124.732 147.786C124.732 147.786 117.591 150.528 117.512 151.886L131.321 151.866L131.362 140.428L124.464 140.46Z" fill="#455A64"/>
<path d="M129.001 147.171C129.131 147.213 129.242 147.302 129.314 147.422C129.385 147.541 129.412 147.684 129.389 147.823C129.355 147.961 129.27 148.081 129.152 148.156C129.035 148.232 128.893 148.258 128.757 148.23C128.617 148.185 128.497 148.089 128.421 147.959C128.346 147.829 128.319 147.675 128.346 147.526C128.397 147.386 128.499 147.27 128.631 147.205C128.762 147.14 128.913 147.131 129.051 147.178" fill="#E0E0E0"/>
<path d="M131.321 151.866L131.283 150.714L118.059 151.163C118.059 151.163 117.427 151.44 117.512 151.886L131.321 151.866Z" fill="#263238"/>
<path d="M124.504 147.715C124.504 147.787 124.842 147.816 125.174 148.041C125.506 148.265 125.683 148.558 125.746 148.529C125.809 148.5 125.708 148.099 125.3 147.839C124.893 147.578 124.504 147.653 124.504 147.715Z" fill="#263238"/>
<path d="M123.059 148.334C123.043 148.402 123.334 148.519 123.565 148.812C123.795 149.105 123.862 149.418 123.928 149.415C123.995 149.411 124.039 149.017 123.745 148.659C123.451 148.301 123.059 148.269 123.059 148.334Z" fill="#263238"/>
<path d="M122.239 150.121C122.302 150.137 122.394 149.795 122.22 149.408C122.046 149.02 121.73 148.877 121.702 148.935C121.674 148.994 121.869 149.196 122.018 149.512C122.167 149.828 122.173 150.101 122.239 150.121Z" fill="#263238"/>
<path d="M124.628 146.038C124.653 146.103 124.963 146.006 125.345 146.038C125.727 146.071 126.024 146.188 126.059 146.129C126.094 146.071 125.806 145.82 125.358 145.804C124.909 145.787 124.593 145.983 124.628 146.038Z" fill="#263238"/>
<path d="M131.428 95.4813C131.428 95.4813 132.205 99.5187 131.813 100.098C131.394 100.88 131.03 101.692 130.723 102.527L130.951 120.67L132.158 147.369L123.942 147.203L120.858 123.623C120.165 122.34 119.616 120.98 119.224 119.569C118.781 117.697 116.326 99.1183 116.326 99.1183L116.462 91.9746L131.428 95.4813Z" fill="#263238"/>
<path d="M112.727 92.3789C112.727 92.3789 113.991 116.704 114.512 118.873C115.033 121.041 126.311 143.325 126.311 143.325L133.428 139.9L124.52 116.431L124.946 93.9646L112.727 92.3789Z" fill="#263238"/>
<path d="M115.501 94.5283C115.497 94.5738 115.497 94.6196 115.501 94.6651C115.501 94.7627 115.53 94.8962 115.549 95.0688C115.596 95.4302 115.659 95.9512 115.745 96.6154C115.925 97.9634 116.181 99.904 116.5 102.297C116.819 104.69 117.211 107.549 117.641 110.72C117.859 112.303 118.073 113.976 118.329 115.692C118.569 117.479 118.964 119.24 119.511 120.954C120.096 122.706 120.949 124.308 121.214 126.03C121.53 127.733 121.752 129.4 121.963 130.986C122.368 134.16 122.687 137.022 122.962 139.428C123.237 141.835 123.455 143.778 123.626 145.12C123.711 145.794 123.78 146.315 123.834 146.667C123.863 146.836 123.885 146.966 123.9 147.067C123.906 147.112 123.916 147.157 123.929 147.201C123.929 147.201 123.929 147.155 123.929 147.064C123.929 146.973 123.9 146.829 123.882 146.66L123.705 145.113C123.559 143.759 123.351 141.812 123.095 139.412C122.839 137.013 122.529 134.141 122.147 130.966C121.941 129.377 121.73 127.71 121.407 125.994C121.139 124.246 120.279 122.628 119.701 120.895C119.151 119.193 118.749 117.443 118.5 115.666C118.244 113.947 118.026 112.28 117.802 110.698L116.626 102.278C116.285 99.8909 116.01 97.9536 115.817 96.6056L115.593 95.0753C115.564 94.906 115.545 94.7725 115.53 94.6748C115.525 94.6252 115.515 94.5761 115.501 94.5283Z" fill="#455A64"/>
<path d="M131.51 133.029C131.494 133.216 131.494 133.403 131.51 133.589C131.51 133.951 131.529 134.472 131.551 135.116C131.599 136.419 131.687 138.187 131.795 140.15C131.902 142.114 131.994 143.898 132.051 145.184C132.079 145.806 132.101 146.32 132.12 146.711C132.119 146.899 132.134 147.086 132.164 147.271C132.187 147.084 132.195 146.896 132.187 146.708C132.187 146.35 132.187 145.825 132.187 145.181C132.161 143.878 132.089 142.107 131.981 140.14C131.874 138.174 131.763 136.429 131.687 135.11C131.649 134.491 131.615 133.977 131.592 133.586C131.579 133.399 131.552 133.212 131.51 133.029Z" fill="#455A64"/>
<path d="M122.846 40.9636L124.546 54.375C124.833 56.6542 124.808 60.0697 121.285 60.3758C118.207 60.4019 117.063 57.5398 116.797 55.4104C116.668 54.3978 116.56 53.5578 116.541 53.4568C116.541 53.4568 113.186 53.5806 112.519 50.2301C112.203 48.6021 111.795 45.2224 111.466 42.152C111.297 40.5618 111.715 38.9642 112.638 37.6773C113.56 36.3903 114.919 35.5084 116.443 35.207L116.759 35.1419C120.185 34.6795 122.489 37.4178 122.846 40.9636Z" fill="#FFD5BD"/>
<path d="M116.529 53.4139C118.038 53.1453 119.435 52.4199 120.542 51.3301C120.542 51.3301 119.989 53.9349 116.684 54.2865L116.529 53.4139Z" fill="#FFB294"/>
<path d="M112.265 43.7341C112.334 43.7927 112.773 43.5941 113.387 43.6397C114 43.6853 114.439 43.9392 114.508 43.8904C114.578 43.8416 114.474 43.7667 114.281 43.6495C114.004 43.4947 113.698 43.4046 113.383 43.3857C113.079 43.3599 112.772 43.4078 112.489 43.5257C112.296 43.6299 112.23 43.7081 112.265 43.7341Z" fill="#263238"/>
<path d="M117.391 43.3055C117.476 43.3251 117.786 42.9506 118.339 42.7129C118.892 42.4753 119.407 42.4948 119.445 42.4199C119.483 42.345 119.363 42.3287 119.129 42.3125C118.816 42.3032 118.505 42.3631 118.216 42.4883C117.933 42.6025 117.681 42.7844 117.48 43.019C117.369 43.1785 117.35 43.3055 117.391 43.3055Z" fill="#263238"/>
<path d="M117.292 44.3793C117.31 44.4757 117.364 44.5613 117.441 44.6178C117.519 44.6743 117.615 44.6974 117.71 44.6821C117.757 44.6786 117.803 44.6651 117.845 44.6423C117.887 44.6195 117.924 44.5881 117.954 44.5498C117.984 44.5116 118.005 44.4675 118.018 44.4202C118.03 44.3729 118.033 44.3235 118.026 44.2751C118.009 44.179 117.956 44.0935 117.878 44.0369C117.801 43.9803 117.705 43.9571 117.612 43.9723C117.564 43.9759 117.518 43.9894 117.476 44.0121C117.433 44.0349 117.396 44.0663 117.366 44.1044C117.336 44.1426 117.314 44.1867 117.302 44.234C117.289 44.2813 117.286 44.3307 117.292 44.3793Z" fill="#263238"/>
<path d="M112.606 44.932C112.623 45.029 112.677 45.1153 112.755 45.1725C112.832 45.2297 112.929 45.2532 113.024 45.238C113.071 45.2341 113.117 45.2202 113.159 45.1973C113.2 45.1744 113.237 45.1429 113.267 45.1048C113.296 45.0667 113.318 45.0227 113.331 44.9757C113.343 44.9286 113.346 44.8794 113.34 44.831C113.323 44.7343 113.271 44.648 113.193 44.5907C113.116 44.5335 113.02 44.5099 112.926 44.525C112.878 44.529 112.832 44.5428 112.79 44.5657C112.748 44.5886 112.711 44.62 112.681 44.658C112.652 44.6961 112.63 44.74 112.617 44.7871C112.604 44.8342 112.6 44.8835 112.606 44.932Z" fill="#263238"/>
<path d="M116.309 46.9744C116.03 46.9391 115.748 46.9391 115.469 46.9744C115.339 46.9744 115.213 46.9744 115.175 46.8995C115.133 46.7673 115.133 46.6247 115.175 46.4925L115.364 45.4148C115.624 43.8812 115.782 42.6309 115.725 42.6212C115.668 42.6114 115.409 43.8454 115.146 45.379C115.086 45.7534 115.029 46.1148 114.973 46.46C114.922 46.6341 114.933 46.8211 115.004 46.9874C115.031 47.0312 115.067 47.0679 115.11 47.0945C115.152 47.1212 115.201 47.1369 115.251 47.1405C115.324 47.1509 115.399 47.1509 115.472 47.1405C115.757 47.1232 116.038 47.0674 116.309 46.9744Z" fill="#263238"/>
<path d="M117.236 40.7001C117.302 40.8174 117.732 40.6708 118.263 40.635C118.794 40.5992 119.24 40.6643 119.287 40.5373C119.309 40.4755 119.211 40.368 119.021 40.2801C118.77 40.1729 118.497 40.1283 118.225 40.1498C117.953 40.1713 117.69 40.2583 117.457 40.4038C117.274 40.5276 117.198 40.648 117.236 40.7001Z" fill="#263238"/>
<path d="M112.124 42.3897C112.193 42.4842 112.61 42.3181 113.128 42.24C113.647 42.1618 114.076 42.1749 114.13 42.0609C114.146 42.0088 114.051 41.9274 113.858 41.8688C113.603 41.7968 113.336 41.7835 113.075 41.8297C112.811 41.871 112.558 41.9686 112.332 42.1162C112.18 42.2335 112.092 42.3442 112.124 42.3897Z" fill="#263238"/>
<path d="M123.045 43.5033C123.095 43.4675 125.156 42.3768 125.513 44.6853C125.87 46.9938 123.557 46.8863 123.535 46.8212C123.513 46.7561 123.045 43.5033 123.045 43.5033Z" fill="#FFD5BD"/>
<path d="M124.084 45.8351C124.084 45.8351 124.125 45.8579 124.198 45.8774C124.297 45.9034 124.401 45.8882 124.489 45.8351C124.622 45.7169 124.722 45.5637 124.778 45.3917C124.833 45.2197 124.843 45.0353 124.805 44.8583C124.781 44.6594 124.713 44.4689 124.606 44.3015C124.574 44.2328 124.526 44.1731 124.466 44.1277C124.407 44.0824 124.338 44.0526 124.264 44.041C124.218 44.0354 124.171 44.0471 124.132 44.0739C124.093 44.1008 124.065 44.1411 124.053 44.1876C124.031 44.2592 124.053 44.3015 124.053 44.308C124.053 44.3146 123.999 44.2787 124.002 44.1778C124.008 44.1189 124.031 44.0632 124.068 44.0183C124.124 43.9612 124.199 43.9275 124.277 43.9238C124.372 43.9278 124.464 43.9568 124.545 44.0081C124.626 44.0594 124.692 44.1313 124.738 44.2169C124.865 44.4014 124.946 44.6148 124.975 44.8388C125.032 45.3044 124.868 45.7797 124.558 45.9295C124.501 45.9576 124.438 45.9722 124.375 45.9722C124.312 45.9722 124.249 45.9576 124.192 45.9295C124.097 45.8905 124.075 45.8416 124.084 45.8351Z" fill="#FFB294"/>
<path d="M117.025 48.5145C116.996 48.4591 117.42 48.2703 117.682 47.8047C117.789 47.5989 117.871 47.3802 117.925 47.1535C117.97 46.9776 118.008 46.8669 118.033 46.8702C118.058 46.8734 118.064 46.9907 118.049 47.1763C118.031 47.4283 117.958 47.673 117.837 47.8926C117.712 48.1121 117.532 48.2932 117.316 48.4168C117.151 48.5145 117.034 48.5373 117.025 48.5145Z" fill="#263238"/>
<path d="M106.757 39.6515C106.781 39.5106 106.858 39.3853 106.972 39.3031C107.22 39.1475 107.503 39.0632 107.793 39.0589C108.668 38.9346 109.493 38.5639 110.176 37.9876C110.461 37.4354 110.79 36.9084 111.159 36.4117C112.034 35.2331 112.771 34.4158 113.576 33.96C114.824 33.3141 116.219 33.0293 117.612 33.1362C118.787 33.3055 119.925 34.1358 120.222 35.3242C120.797 34.673 121.761 34.5754 122.576 34.8033H122.595C123.502 35.0149 124.102 35.9038 124.466 36.7829C124.829 37.662 125.047 38.6291 125.61 39.3877C125.726 39.5473 125.866 39.7394 125.802 39.925C125.771 39.9954 125.719 40.0542 125.654 40.0938C125.589 40.1333 125.514 40.1516 125.439 40.1464C125.289 40.1291 125.144 40.0815 125.012 40.0064L125.385 40.6869C125.077 40.7794 124.753 40.7973 124.437 40.739C124.371 41.5722 124.258 42.4007 124.096 43.22C123.767 43.2186 123.449 43.3414 123.202 43.5652C122.93 43.8908 122.854 44.4313 122.326 44.2912C122.058 44.2196 121.758 43.6921 121.641 43.4317C120.861 41.6965 120.454 39.8085 120.446 37.8965C120.04 37.5432 119.571 37.2744 119.065 37.1053L119.109 37.1378C118.161 36.9197 117.078 36.7243 116.265 37.2746C115.633 37.6979 115.317 38.4695 114.875 39.1077C114.469 39.6962 113.952 40.1941 113.355 40.5712C112.757 40.9484 112.092 41.197 111.399 41.3022C111.459 42.2595 111.69 43.5814 111.75 44.5582L110.802 43.1289C110.726 43.0247 110.66 42.9205 110.596 42.8033L110.574 42.7707C110.478 42.5944 110.373 42.4238 110.258 42.2595C110.168 42.3855 110.033 42.4699 109.883 42.4945C109.732 42.5192 109.579 42.4822 109.454 42.3914C109.33 42.3006 109.246 42.1633 109.219 42.009C109.192 41.8547 109.225 41.6956 109.31 41.566C109.375 41.4446 109.458 41.3347 109.557 41.2404C109.455 41.3649 109.323 41.4603 109.175 41.5173C109.026 41.5744 108.866 41.5911 108.71 41.566C108.557 41.5379 108.416 41.4591 108.31 41.3417C108.204 41.2242 108.138 41.0743 108.122 40.9148C108.122 40.8027 108.151 40.6927 108.207 40.5965C108.263 40.5002 108.343 40.4212 108.438 40.3678C108.034 40.4485 107.617 40.4043 107.237 40.2408C106.966 40.1561 106.713 39.9608 106.757 39.6515Z" fill="#263238"/>
<path d="M119.232 35.8389C119.36 35.9194 119.481 36.0097 119.596 36.1091C119.893 36.4 120.111 36.7659 120.228 37.1706C120.317 37.4465 120.379 37.7313 120.411 38.0204C120.449 38.346 120.462 38.6716 120.481 39.0232C120.491 39.3963 120.524 39.7683 120.582 40.1368C120.612 40.3274 120.655 40.5157 120.711 40.7001C120.767 40.9023 120.868 41.0877 121.008 41.2406C121.074 41.2985 121.153 41.3385 121.237 41.3567C121.322 41.3749 121.409 41.3708 121.492 41.3448C121.649 41.2932 121.785 41.1903 121.881 41.0517C122.031 40.7768 122.106 40.4652 122.099 40.1498L122.032 40.1693C122.16 40.4096 122.322 40.629 122.513 40.8205C122.696 40.9994 122.939 41.0995 123.192 41.1006C123.31 41.0984 123.425 41.0623 123.524 40.9964C123.616 40.9337 123.687 40.8425 123.726 40.7359C123.768 40.6332 123.78 40.52 123.761 40.4103C123.746 40.3135 123.699 40.2249 123.628 40.1596L123.596 40.1986C123.819 40.405 124.08 40.5614 124.364 40.6577C124.462 40.6903 124.538 40.7066 124.592 40.7196H124.674L124.595 40.6968L124.371 40.6219C124.095 40.5185 123.843 40.3591 123.628 40.1531L123.596 40.1889C123.658 40.2532 123.699 40.3357 123.713 40.425C123.727 40.5142 123.714 40.6058 123.675 40.687C123.639 40.7824 123.575 40.8641 123.492 40.9215C123.397 40.9801 123.287 41.0105 123.176 41.0094C122.94 41.0061 122.713 40.9094 122.544 40.7391C122.36 40.5456 122.204 40.3264 122.08 40.0879L122.023 39.9837V40.1042C122.028 40.4047 121.956 40.7014 121.814 40.9638C121.73 41.0885 121.608 41.1803 121.467 41.2243C121.397 41.2473 121.322 41.2514 121.25 41.236C121.178 41.2206 121.111 41.1863 121.056 41.1364C120.924 40.9951 120.831 40.8213 120.784 40.6317C120.723 40.4478 120.676 40.2595 120.642 40.0684C120.586 39.7029 120.551 39.3343 120.538 38.9646C120.519 38.6097 120.503 38.2711 120.462 37.9553C120.426 37.6627 120.361 37.3747 120.269 37.0957C120.144 36.6853 119.914 36.3174 119.602 36.031C119.489 35.9473 119.365 35.8825 119.232 35.8389Z" fill="#455A64"/>
<path d="M109.447 40.3743L109.476 40.3939L109.567 40.446C109.615 40.4741 109.665 40.4991 109.716 40.5209C109.785 40.5529 109.856 40.5812 109.928 40.6055C110.391 40.7574 110.884 40.7876 111.362 40.6934C112.073 40.5639 112.731 40.2245 113.258 39.7166C113.892 39.0851 114.394 38.3259 114.731 37.4863C114.924 37.0467 115.069 36.6039 115.24 36.1839C115.393 35.7827 115.601 35.4057 115.856 35.0638C116.087 34.7563 116.389 34.5134 116.734 34.3573C116.892 34.2915 117.058 34.2509 117.227 34.2368C117.544 34.2235 117.859 34.2922 118.143 34.4367C118.427 34.5812 118.672 34.7968 118.855 35.0638C118.951 35.2158 119.027 35.38 119.082 35.5522C119.082 35.5522 119.082 35.5522 119.082 35.5164L119.057 35.4155C119.013 35.2868 118.956 35.1634 118.886 35.0475C118.771 34.8677 118.626 34.7092 118.46 34.5787C118.24 34.4033 117.985 34.2799 117.714 34.2173C117.555 34.1814 117.393 34.1671 117.23 34.1749C117.055 34.1885 116.882 34.2291 116.718 34.2954C116.36 34.4529 116.047 34.7016 115.808 35.0182C115.545 35.3629 115.332 35.7458 115.176 36.1546C115.006 36.5713 114.86 37.0142 114.668 37.457C114.332 38.2853 113.839 39.036 113.217 39.6645C112.702 40.1671 112.057 40.5062 111.359 40.6413C110.889 40.738 110.404 40.7168 109.943 40.5795C109.774 40.5213 109.609 40.4528 109.447 40.3743Z" fill="#455A64"/>
<path d="M108.979 38.9125C108.979 38.9125 109.02 38.9418 109.105 38.9841C109.225 39.0402 109.348 39.087 109.475 39.1242C109.663 39.1797 109.855 39.22 110.05 39.2446C110.288 39.2661 110.528 39.2661 110.767 39.2446C111.006 39.2219 111.242 39.1761 111.472 39.1079C111.659 39.052 111.841 38.979 112.015 38.8897C112.135 38.833 112.249 38.7655 112.357 38.6878C112.398 38.6615 112.437 38.6309 112.473 38.5967C112.473 38.5967 112.293 38.7009 111.993 38.8376C111.818 38.9191 111.638 38.9866 111.453 39.0395C111.225 39.0991 110.994 39.1415 110.761 39.1665C110.526 39.1862 110.291 39.1862 110.056 39.1665C109.865 39.1474 109.676 39.1136 109.49 39.0655C109.171 38.9874 108.985 38.8995 108.979 38.9125Z" fill="#455A64"/>
<path d="M113.378 76.1607C113.378 75.7342 116.689 56.8038 116.689 56.8038C117.321 56.195 124.311 50.9268 124.311 50.9268L130.35 58.396C130.35 58.396 131.873 64.2568 132.341 68.4896C132.657 71.2832 134.054 84.61 134.458 90.2364C134.511 90.9815 134.374 91.7279 134.06 92.4014C133.746 93.0748 133.267 93.6519 132.67 94.0752L132.038 94.1436L131.87 95.8237C126.286 95.9539 112.809 93.3979 112.638 93.5054C112.468 93.6128 113.387 77.7008 113.378 76.1607Z" fill="#455A64"/>
<path d="M112.633 91.415C112.696 91.4373 112.76 91.4547 112.826 91.4671L113.382 91.5974C113.862 91.7081 114.567 91.8481 115.436 92.0109C117.177 92.3365 119.591 92.7142 122.268 93.0561C124.944 93.3979 127.374 93.6682 129.131 93.8766L131.21 94.1143L131.776 94.1761C131.842 94.1812 131.909 94.1812 131.975 94.1761C131.912 94.1547 131.846 94.1405 131.779 94.1338L131.217 94.0459C130.727 93.9742 130.019 93.8766 129.141 93.7593L122.293 92.9128C119.616 92.5709 117.202 92.2128 115.458 91.9099C114.589 91.7602 113.878 91.6364 113.398 91.542L112.838 91.4411C112.771 91.4239 112.702 91.4151 112.633 91.415Z" fill="#263238"/>
<path d="M127.136 50.4674C128.106 50.7539 128.915 51.4442 129.692 52.0954L133.055 54.9607C133.702 55.5142 134.379 56.1068 134.666 56.9143C135.083 58.0864 134.537 59.467 133.57 60.2158C132.557 60.9262 131.314 61.1964 130.11 60.968C128.919 60.7377 127.769 60.325 126.697 59.7437L124.064 51.1186C124.646 50.259 126.169 50.1776 127.136 50.4674Z" fill="#455A64"/>
<path d="M116.604 56.876C116.727 56.8369 116.847 56.7856 116.961 56.723C117.188 56.6188 117.51 56.4527 117.909 56.2379C118.932 55.6722 119.919 55.0415 120.866 54.3494C121.982 53.5419 122.952 52.767 123.657 52.2069L124.488 51.5394C124.594 51.4624 124.693 51.3764 124.785 51.2822C124.672 51.3424 124.567 51.4144 124.469 51.4971C124.263 51.6404 123.969 51.8553 123.609 52.1255C122.889 52.6628 121.909 53.4279 120.8 54.2322C119.691 55.0364 118.648 55.7006 117.874 56.1499C117.485 56.3746 117.172 56.5537 116.951 56.6742C116.828 56.7277 116.712 56.7954 116.604 56.876Z" fill="#263238"/>
<path d="M126.062 54.1865C126.159 54.2861 126.265 54.3755 126.379 54.4535C126.486 54.5317 126.609 54.6358 126.751 54.7596C126.894 54.8833 127.067 55.0168 127.232 55.1763C128.148 55.9985 128.943 56.9551 129.589 58.0156C130.229 59.0795 130.72 60.2317 131.046 61.4376C131.166 61.9 131.261 62.2777 131.308 62.5414C131.33 62.6799 131.364 62.8161 131.409 62.9484C131.406 62.8082 131.391 62.6687 131.362 62.5316C131.33 62.2646 131.251 61.8804 131.144 61.4116C130.842 60.1838 130.357 59.0118 129.706 57.9374C129.054 56.8666 128.241 55.9094 127.298 55.1015C127.118 54.9419 126.95 54.8084 126.799 54.6945C126.647 54.5805 126.521 54.4828 126.41 54.4079C126.3 54.3255 126.183 54.2515 126.062 54.1865Z" fill="#263238"/>
<g opacity="0.3">
<path d="M126.27 50.6229C128.672 50.9224 131.231 53.6737 133.184 55.3245C132.378 55.4971 131.133 54.6733 130.4 54.2728C128.564 53.3123 127.215 51.7592 124.785 51.2806L124.064 51.1048C124.504 50.7108 125.746 50.5805 126.27 50.6229Z" fill="black"/>
</g>
<path d="M124.867 51.2749C124.867 51.2749 124.997 51.2977 125.227 51.3563C125.557 51.4406 125.875 51.5652 126.175 51.7275C126.931 52.1312 127.898 52.841 128.997 53.5704C129.925 54.2201 130.918 54.7659 131.958 55.1984C132.275 55.3286 132.601 55.4374 132.932 55.524C133.052 55.5589 133.176 55.5807 133.301 55.5891C133.187 55.5392 133.068 55.499 132.947 55.4686C132.72 55.397 132.391 55.2863 131.999 55.1202C130.977 54.666 129.999 54.1144 129.076 53.4727C128.16 52.8173 127.21 52.2119 126.232 51.6591C125.926 51.5052 125.601 51.3956 125.265 51.3335C125.173 51.3161 125.081 51.3053 124.987 51.3009C124.899 51.2684 124.867 51.2684 124.867 51.2749Z" fill="#263238"/>
<g opacity="0.3">
<path d="M124.391 64.2607C123.443 70.8151 122.35 77.6689 118.482 82.9664C117.461 84.3633 116.011 85.7275 114.32 85.5712C113.647 85.5061 112.876 84.8842 113.154 84.2493C113.154 84.3144 113.89 83.9465 114.418 83.5981C115.559 82.8362 116.564 82.5204 117.306 81.3449C118.049 80.1695 118.668 78.5513 119.218 77.2684C120.937 73.244 123.01 68.3698 124.4 64.2673" fill="black"/>
</g>
<path d="M127.393 95.7915C127.573 95.4895 127.681 95.1482 127.709 94.7952C127.778 94.4493 127.769 94.0919 127.684 93.75C127.643 93.75 127.649 94.2156 127.57 94.7756C127.491 95.3357 127.349 95.7785 127.393 95.7915Z" fill="#263238"/>
<path d="M124.852 95.2732C125.015 94.6652 125.084 94.0345 125.057 93.4043C124.899 94.0133 124.829 94.6432 124.852 95.2732Z" fill="#263238"/>
<path d="M121.888 94.7495C122.011 94.4573 122.09 94.1477 122.122 93.8313C122.198 93.5219 122.229 93.2026 122.214 92.8838C122.094 93.1776 122.016 93.4881 121.983 93.8052C121.905 94.1132 121.873 94.4316 121.888 94.7495Z" fill="#263238"/>
<path d="M119.294 94.519C119.375 94.22 119.442 93.9168 119.493 93.6106C119.586 93.3155 119.664 93.0156 119.726 92.7119C119.383 93.244 119.229 93.8831 119.294 94.519Z" fill="#263238"/>
<path d="M116.663 93.9942C116.78 93.751 116.855 93.4888 116.885 93.2193C116.959 92.9585 116.988 92.6862 116.97 92.415C116.853 92.6582 116.778 92.9204 116.749 93.19C116.674 93.4508 116.645 93.723 116.663 93.9942Z" fill="#263238"/>
<path d="M114.3 93.8306C114.341 93.8306 114.36 93.378 114.468 92.8342C114.575 92.2905 114.72 91.8574 114.683 91.8574C114.491 92.1496 114.37 92.4844 114.329 92.8342C114.245 93.1597 114.235 93.5006 114.3 93.8306Z" fill="#263238"/>
<path d="M118.183 82.0508C118.156 82.1571 118.141 82.2664 118.139 82.3764C118.124 82.5049 118.117 82.6344 118.12 82.7638C118.111 82.933 118.111 83.1026 118.12 83.2718C118.148 83.7111 118.213 84.1469 118.316 84.5742C118.45 85.1008 118.632 85.6132 118.859 86.1045C119.097 86.5907 119.379 87.052 119.703 87.4818C119.969 87.8352 120.266 88.1622 120.591 88.4586C120.714 88.5739 120.843 88.6826 120.977 88.7842C121.077 88.8647 121.182 88.9377 121.293 89.0023C121.38 89.0674 121.473 89.1231 121.571 89.1684C121.587 89.1423 121.201 88.8949 120.67 88.3869C120.361 88.0857 120.075 87.759 119.817 87.4101C119.185 86.5589 118.722 85.5874 118.455 84.5514C118.346 84.1243 118.271 83.6887 118.231 83.249C118.155 82.5131 118.202 82.0508 118.183 82.0508Z" fill="#263238"/>
<g opacity="0.3">
<path d="M120.541 88.238L120.456 88.1631C119.274 87.0448 118.495 85.5472 118.244 83.9141C119.394 84.982 120.213 86.6914 120.541 88.238Z" fill="black"/>
</g>
<path d="M121.119 92.7957C121.69 91.8672 121.893 90.748 121.685 89.6699C121.672 90.2027 121.629 90.7342 121.558 91.2621C121.438 91.7809 121.292 92.2928 121.119 92.7957Z" fill="#263238"/>
<path d="M117.034 81.5264C117.018 81.5654 117.236 81.7054 117.524 81.852C117.689 81.9565 117.877 82.019 118.07 82.0343C118.086 81.9985 117.868 81.8585 117.581 81.7087C117.415 81.6042 117.228 81.5417 117.034 81.5264Z" fill="#263238"/>
<path d="M129.743 95.8511C129.955 95.5845 130.081 95.2568 130.103 94.9133C130.169 94.5775 130.131 94.2288 129.993 93.917C129.952 93.917 130.034 94.3631 129.964 94.8938C129.895 95.4245 129.705 95.8283 129.743 95.8511Z" fill="#263238"/>
<path d="M192.832 84.412L191.84 68.6953L93.7694 75.2529L93.1911 66.0254L73.1504 84.5194L95.362 100.536L94.7616 90.9696L192.832 84.412Z" fill="#E0E0E0"/>
<path d="M192.833 84.4111L94.7653 91.0468L94.838 90.9621L95.4321 100.528V100.701L95.2962 100.603L73.0814 84.5901L72.9961 84.5283L73.0719 84.4566L78.5609 79.3936L93.1127 65.9626L93.239 65.8486V66.0179C93.435 69.1394 93.6288 72.2152 93.8205 75.2454L93.7352 75.1673L191.809 68.6553H191.844V68.7009C192.476 78.9247 192.792 84.1506 192.792 84.4208C192.8 84.143 192.474 78.903 191.812 68.7009L191.85 68.7367L93.7763 75.3333H93.6973V75.2487C93.5034 72.2206 93.3096 69.1459 93.1158 66.0245L93.2517 66.0798L78.7157 79.514L73.2268 84.5771V84.4436C80.8487 89.943 88.2778 95.2991 95.4384 100.46L95.312 100.535C95.1034 97.2299 94.8981 93.9674 94.7116 90.9654V90.8872H94.7906L192.833 84.4111Z" fill="#263238"/>
<g opacity="0.3">
<path d="M170.728 73.1072C170.507 72.1108 170.127 71.1308 170.131 70.1084L167.091 70.3689C167.378 71.7787 167.66 73.2993 167.119 74.6212C166.629 75.8227 165.539 76.6529 164.474 77.3334C162.446 78.6358 160.136 79.6973 158.865 81.7746C159.839 82.2695 160.982 81.7193 161.934 81.1788L168.968 77.1674C169.516 76.9029 170.004 76.5223 170.399 76.0506C170.99 75.2398 170.955 74.1035 170.728 73.1072Z" fill="black"/>
</g>
<path d="M108.569 84.9619L104.037 85.6131L100.618 89.758C100.618 89.758 101.13 90.2366 102.053 89.6701C102.451 89.4259 101.563 90.5199 101.563 90.5199L99.1235 90.699C99.0919 90.7762 99.0758 90.8591 99.0762 90.9429C99.0765 91.0267 99.0933 91.1095 99.1254 91.1865C99.1576 91.2634 99.2045 91.3328 99.2634 91.3906C99.3222 91.4484 99.3918 91.4933 99.4679 91.5227C100.034 91.7311 102.065 91.806 102.065 91.806L102.274 91.4804C102.4 91.6007 102.551 91.689 102.715 91.7382C102.88 91.7874 103.054 91.7961 103.222 91.7637C103.775 91.9768 104.371 92.0374 104.954 91.9395C105.473 91.8699 105.979 91.7206 106.455 91.4967L110.736 87.3193L108.569 84.9619Z" fill="#FFD5BD"/>
<path d="M104.643 87.0303C104.139 87.3591 103.681 87.7591 103.285 88.2187C102.85 88.641 102.473 89.1231 102.166 89.6513C102.204 89.6806 102.716 89.0555 103.398 88.3489C104.081 87.6424 104.672 87.0693 104.643 87.0303Z" fill="#FFB294"/>
<path d="M103.963 89.7871C103.592 90.065 103.252 90.3862 102.952 90.7444C102.613 91.0627 102.312 91.4212 102.055 91.8123C102.761 91.2159 103.398 90.5362 103.951 89.7871H103.963Z" fill="#FFB294"/>
<path d="M104.912 90.2852C104.622 90.5233 104.346 90.7776 104.084 91.0471C103.786 91.2749 103.501 91.5206 103.23 91.7829C103.587 91.6555 103.912 91.4462 104.178 91.1708C104.486 90.938 104.737 90.6349 104.912 90.2852Z" fill="#FFB294"/>
<path d="M105.906 90.709C105.663 90.8808 105.439 91.0807 105.24 91.3048C104.883 91.6304 104.576 91.9007 104.608 91.9397C104.892 91.8316 105.148 91.6552 105.353 91.4253C105.591 91.2361 105.781 90.9903 105.906 90.709Z" fill="#FFB294"/>
<g opacity="0.3">
<path d="M124.738 73.4606C123.183 72.8778 121.414 73.708 120.292 74.9616C119.17 76.2152 118.532 77.8301 117.764 79.3442C116.119 82.6158 113.849 85.5108 111.09 87.8553L112.878 88.8679C115.331 87.8272 117.695 86.5791 119.947 85.1366C121.549 84.1077 123.148 82.9225 124.055 81.2294C125.291 78.8981 125.032 76.0817 124.738 73.4606Z" fill="black"/>
</g>
<path d="M124.32 61.1495C124.32 61.1495 124.987 77.703 122.696 80.4901C120.405 83.2772 112.448 88.998 112.448 88.998L111.459 88.9004L109.778 89.2878L107.076 85.1267L115.343 76.0099C115.343 76.0099 115.659 58.8052 115.937 58.3624C116.215 57.9196 116.61 55.7999 119.429 56.0636C122.247 56.3274 124.399 58.8996 124.32 61.1495Z" fill="#455A64"/>
<path d="M122.607 56.8984C122.714 56.9634 122.814 57.0398 122.904 57.1264C123.155 57.3954 123.363 57.703 123.521 58.038C123.786 58.5565 123.998 59.1021 124.153 59.666C124.299 60.4312 124.351 61.2123 124.307 61.9908C124.285 65.4682 124.149 70.2675 123.805 75.552C123.764 76.2032 123.72 76.8544 123.638 77.5056C123.57 78.1283 123.434 78.7411 123.233 79.3322C122.992 79.8688 122.672 80.3641 122.285 80.8007C121.906 81.2337 121.52 81.644 121.122 82.0217C119.542 83.5325 117.994 84.7502 116.698 85.7693C115.403 86.7885 114.331 87.5797 113.592 88.1299L112.742 88.7811L112.524 88.9472C112.497 88.9649 112.473 88.9857 112.451 89.0091L112.53 88.9602L112.758 88.8039L113.62 88.1885C114.366 87.6481 115.444 86.8601 116.752 85.8573C118.296 84.6931 119.781 83.4477 121.201 82.1259C121.603 81.7482 121.991 81.3379 122.374 80.9016C122.775 80.4555 123.106 79.948 123.356 79.3974C123.562 78.7959 123.701 78.1721 123.77 77.5382C123.852 76.887 123.9 76.2358 123.941 75.5846C124.282 70.3001 124.409 65.491 124.405 62.0169C124.445 61.2297 124.386 60.4406 124.228 59.6693C124.065 59.0974 123.842 58.5452 123.565 58.0218C123.401 57.6879 123.188 57.3825 122.933 57.1166C122.843 57.0184 122.731 56.9437 122.607 56.8984Z" fill="#263238"/>
<path d="M115.34 76.0146C115.34 76.0537 115.905 76.1644 116.541 76.4998C117.176 76.8352 117.631 77.2259 117.656 77.1933C117.363 76.8469 117.001 76.5694 116.594 76.3793C116.212 76.153 115.781 76.0277 115.34 76.0146Z" fill="#263238"/>
<path d="M115.928 60.3047C115.947 60.3047 115.912 60.0116 115.956 59.5525C116.013 58.9591 116.195 58.3857 116.49 57.8725C116.785 57.3719 117.187 56.9476 117.666 56.6319C118.029 56.3942 118.298 56.3063 118.279 56.2803C118.214 56.2849 118.152 56.3003 118.092 56.3259C117.928 56.387 117.77 56.4621 117.618 56.5505C117.11 56.8525 116.685 57.2828 116.383 57.8008C116.076 58.3299 115.9 58.9277 115.868 59.5428C115.859 59.7296 115.864 59.9169 115.883 60.1028C115.886 60.1723 115.901 60.2406 115.928 60.3047Z" fill="#263238"/>
<path d="M107.076 85.1276C107.122 85.0595 107.172 84.9953 107.228 84.9355L107.692 84.4015L109.424 82.4479L115.27 75.9522L115.248 76.0043C115.264 75.6038 115.283 75.1772 115.302 74.7475C115.466 70.964 115.618 67.5419 115.725 65.0478C115.788 63.8203 115.839 62.8207 115.874 62.1174C115.893 61.7918 115.908 61.5183 115.921 61.3197C115.922 61.2268 115.932 61.1342 115.949 61.043C115.956 61.1362 115.956 61.2298 115.949 61.323C115.949 61.5216 115.949 61.7853 115.93 62.1207C115.908 62.8338 115.877 63.8334 115.836 65.0511C115.738 67.5484 115.605 70.9705 115.46 74.754C115.441 75.1838 115.422 75.6103 115.406 76.014V76.0433L115.384 76.0661L109.5 82.526L107.73 84.4405L107.247 84.955C107.194 85.0163 107.137 85.074 107.076 85.1276Z" fill="#263238"/>
<path d="M160.686 82.376L156.512 82.6788L153.131 86.2343C153.131 86.2343 153.57 86.7032 154.445 86.2506C154.828 86.052 153.946 86.993 153.946 86.993H151.712C151.678 87.0613 151.657 87.136 151.652 87.2127C151.646 87.2893 151.656 87.3663 151.68 87.439C151.705 87.5117 151.743 87.5786 151.793 87.6357C151.843 87.6928 151.903 87.7389 151.971 87.7712C152.477 87.9958 154.325 88.201 154.325 88.201L154.524 87.9112C154.632 88.0312 154.766 88.1233 154.915 88.1799C155.063 88.2365 155.223 88.256 155.381 88.2368C155.875 88.4693 156.42 88.5636 156.961 88.5103C157.438 88.4822 157.909 88.3801 158.357 88.2075L162.525 84.678L160.686 82.376Z" fill="#BC8F86"/>
<path d="M156.976 84.0039C156.04 84.5825 155.217 85.3381 154.553 86.231C154.584 86.2603 155.09 85.7231 155.76 85.1109C156.43 84.4988 156.999 84.0234 156.976 84.0039Z" fill="#7F473D"/>
<path d="M156.179 86.4609C155.823 86.6902 155.494 86.96 155.197 87.2652C154.869 87.5366 154.571 87.8445 154.309 88.1834C154.667 87.9563 154.998 87.6863 155.295 87.3791C155.623 87.1093 155.92 86.8012 156.179 86.4609Z" fill="#7F473D"/>
<path d="M157.027 86.9805C156.746 87.1809 156.477 87.3984 156.221 87.6317C155.935 87.8207 155.66 88.0262 155.396 88.247C155.732 88.1549 156.043 87.9857 156.307 87.7521C156.6 87.5538 156.846 87.2901 157.027 86.9805Z" fill="#7F473D"/>
<path d="M157.903 87.4297C157.669 87.5702 157.451 87.7385 157.255 87.9311C157.026 88.0844 156.814 88.2635 156.623 88.4651C156.89 88.3865 157.135 88.2436 157.337 88.0483C157.571 87.8921 157.765 87.6798 157.903 87.4297Z" fill="#7F473D"/>
<path d="M168.364 55.677C168.364 55.677 171.322 55.4946 172.668 59.6493C174.014 63.8039 176.609 73.8096 176.375 76.5609C176.141 79.3122 161.678 86.088 161.678 86.088L158.395 81.8942L169.376 74.4738L166.481 61.1926C166.481 61.1926 165.318 56.0384 168.364 55.677Z" fill="#FC7F13"/>
<path d="M169.469 55.9664C169.157 56.0044 168.852 56.0821 168.559 56.1976C167.872 56.5261 167.319 57.0932 166.998 57.7995C166.692 58.5196 166.524 59.2933 166.502 60.0787C166.467 60.6811 166.473 61.0555 166.448 61.0555C166.389 60.7337 166.368 60.4058 166.385 60.0787C166.375 59.2742 166.534 58.477 166.849 57.7409C167.187 57.0024 167.781 56.4213 168.514 56.1129C168.736 56.0239 168.972 55.9744 169.21 55.9664C169.295 55.9474 169.383 55.9474 169.469 55.9664Z" fill="#263238"/>
<path d="M172.106 75.0673C172.084 75.1129 171.553 74.8459 170.842 74.7417C170.131 74.6375 169.552 74.7222 169.543 74.6734C169.972 74.5404 170.424 74.5071 170.868 74.5758C171.311 74.6445 171.734 74.8135 172.106 75.0706V75.0673Z" fill="#263238"/>
</svg>
