<svg width="218" height="54" viewBox="0 0 218 54" fill="none" xmlns="http://www.w3.org/2000/svg">
<path d="M32.9448 20.4061V16.5562H27.2571V43.2991H32.9448V29.2314C32.9448 26.9138 33.741 25.0159 35.3333 23.5344C36.9256 22.0561 39.4478 21.3153 42.8967 21.3153V15.9648C38.2345 15.9648 34.9161 17.4463 32.9448 20.4061Z" fill="white"/>
<path d="M49.8936 6.51953C48.8713 6.51953 47.9892 6.85971 47.2503 7.53687C46.5115 8.21403 46.1421 9.03424 46.1421 9.99752C46.1421 10.9608 46.5115 11.781 47.2503 12.4582C47.9892 13.1353 48.8713 13.4755 49.8936 13.4755C50.8776 13.4755 51.7407 13.1385 52.4827 12.4582C53.2215 11.781 53.5909 10.9608 53.5909 9.99752C53.5909 9.03424 53.2215 8.21403 52.4827 7.53687C51.7438 6.85971 50.8808 6.51953 49.8936 6.51953Z" fill="white"/>
<path d="M52.7373 16.553H47.0496V43.2959H52.7373V16.553Z" fill="white"/>
<path d="M72.6699 16.0188C68.7273 16.0188 65.8261 17.4812 63.9695 20.406V16.5561H58.2817V54H63.9695V39.1311C65.7146 42.2689 68.6318 43.8394 72.7272 43.8394C76.4054 43.8394 79.4658 42.5487 81.9116 39.9609C84.3574 37.3762 85.5612 34.0318 85.523 29.9307C85.4848 25.9027 84.2523 22.5774 81.8256 19.9546C79.4022 17.3286 76.3481 16.0188 72.6699 16.0188ZM77.6188 36.2635C76.1411 37.9231 74.1857 38.7496 71.7591 38.7496C69.3324 38.7496 67.3802 37.9199 65.9025 36.2635C64.4249 34.604 63.6829 32.4931 63.6829 29.9243C63.6829 27.3556 64.4217 25.2447 65.9025 23.5851C67.3802 21.9256 69.3324 21.0991 71.7591 21.0991C74.1857 21.0991 76.1379 21.9288 77.6188 23.5851C79.0964 25.2447 79.8384 27.3556 79.8384 29.9243C79.8384 32.4931 79.0964 34.6072 77.6188 36.2635Z" fill="white"/>
<path d="M17.5568 38.2124C15.5632 38.1679 14.5665 37.0997 14.5665 35.0078V12.223C31.0405 5.43867 60.5874 0.406089 64.7943 0.00551804C64.7943 0.00551804 45.5337 -0.480895 18.2511 7.67995C16.939 8.07099 15.7129 8.45885 14.5696 8.83716V3.79187H8.88509V10.9481C2.18465 13.7712 0 16.2795 0 18.7752C0 21.6396 3.1273 23.5216 4.74827 23.7537C3.99988 22.4248 3.44576 19.5826 4.92343 17.9517C5.84697 16.9344 7.20043 15.933 8.88509 14.957V35.2749C8.88509 37.8786 9.61756 39.8687 11.0761 41.2389C12.5347 42.6123 14.6493 43.299 17.4167 43.299C18.9485 43.299 20.337 42.9684 21.3975 42.6028C22.6745 42.1673 23.477 41.6904 23.477 41.6904L21.3179 37.5448C20.2988 37.8881 18.9931 38.1933 17.5568 38.2124Z" fill="white"/>
<path d="M106.831 5.85193C110.363 5.85193 113.312 6.9074 115.685 9.01835C118.057 11.1293 119.242 13.7807 119.242 16.9757C119.242 20.1326 118.073 22.7967 115.739 24.9617C113.401 27.1299 110.433 28.2108 106.828 28.2108H96.4017V43.299H90.6089V5.85193H106.831ZM106.831 22.6473C108.854 22.6473 110.462 22.1164 111.659 21.0514C112.853 19.9864 113.452 18.648 113.452 17.0298C113.452 15.3766 112.844 14.0191 111.631 12.9541C110.417 11.8891 108.819 11.3582 106.831 11.3582H96.4049V22.6473H106.831Z" fill="white"/>
<path d="M127.264 37.7927H146.187V43.299H121.471V5.85193H127.264V37.7927Z" fill="white"/>
<path d="M175.559 5.85193H181.351V43.299H176.664L155.425 16.3145V43.299H149.633V5.85193H154.266L175.559 32.8905V5.85193Z" fill="white"/>
<path d="M211.274 43.299L202.558 28.2108H194.558V43.299H188.765V5.85193H204.984C208.516 5.85193 211.465 6.9074 213.838 9.01835C216.21 11.1293 217.395 13.7807 217.395 16.9757C217.395 19.4713 216.631 21.7031 215.105 23.6678C213.58 25.6325 211.529 26.9646 208.952 27.6608L218 43.3022H211.274V43.299ZM194.561 11.3582V22.6473H204.988C207.01 22.6473 208.618 22.1164 209.815 21.0514C211.01 19.9864 211.608 18.648 211.608 17.0298C211.608 15.3766 211 14.0191 209.787 12.9541C208.573 11.8891 206.975 11.3582 204.988 11.3582H194.561Z" fill="white"/>
</svg>
