<svg width="48" height="49" viewBox="0 0 48 49" fill="none" xmlns="http://www.w3.org/2000/svg">
<path d="M28.0067 24.9852C27.9864 23.0877 29.564 22.1691 29.6382 22.1222C28.7482 20.8282 27.3595 20.6471 26.8741 20.6337C25.7077 20.513 24.5819 21.3243 23.9886 21.3243C23.3818 21.3243 22.4717 20.6471 21.4874 20.6605C20.22 20.6806 19.0402 21.4115 18.3862 22.5379C17.0446 24.8444 18.0492 28.2371 19.3301 30.101C19.9706 31.0128 20.7256 32.032 21.7032 31.9985C22.6672 31.9582 23.0245 31.3883 24.1841 31.3883C25.3302 31.3883 25.6673 31.9985 26.6718 31.9717C27.7033 31.9582 28.3505 31.0531 28.9707 30.1346C29.7123 29.0886 30.0089 28.056 30.0224 28.0024C30.0022 28.0091 28.0269 27.2514 28.0067 24.9852Z" fill="black"/>
<path d="M26.1123 19.4071C26.6314 18.7634 26.982 17.8917 26.8875 17C26.1393 17.0335 25.2021 17.5163 24.6628 18.1465C24.1842 18.703 23.7594 19.6082 23.8673 20.4597C24.71 20.5268 25.5729 20.044 26.1123 19.4071Z" fill="black"/>
<rect x="0.5" y="1" width="47" height="47" rx="15.5" stroke="#E5E7EB"/>
</svg>
