<svg width="16" height="17" viewBox="0 0 16 17" fill="none" xmlns="http://www.w3.org/2000/svg">
<path fill-rule="evenodd" clip-rule="evenodd" d="M7.99998 3.2959C4.87531 3.2959 2.33331 5.8379 2.33331 8.96256C2.33331 12.0872 4.87531 14.6292 7.99998 14.6292C11.1246 14.6292 13.6666 12.0872 13.6666 8.96256C13.6666 5.8379 11.1246 3.2959 7.99998 3.2959ZM7.99998 15.6292C4.32398 15.6292 1.33331 12.6386 1.33331 8.96257C1.33331 5.28657 4.32398 2.2959 7.99998 2.2959C11.676 2.2959 14.6666 5.28657 14.6666 8.96257C14.6666 12.6386 11.676 15.6292 7.99998 15.6292Z" fill="#434343"/>
<path fill-rule="evenodd" clip-rule="evenodd" d="M10.2874 11.4242C10.2001 11.4242 10.1121 11.4015 10.0314 11.3542L7.51811 9.85487C7.36744 9.7642 7.27411 9.60087 7.27411 9.42487V6.19287C7.27411 5.91687 7.49811 5.69287 7.77411 5.69287C8.05078 5.69287 8.27411 5.91687 8.27411 6.19287V9.14087L10.5441 10.4942C10.7808 10.6362 10.8588 10.9429 10.7174 11.1802C10.6234 11.3369 10.4574 11.4242 10.2874 11.4242Z" fill="#434343"/>
</svg>
