<svg width="13" height="11" viewBox="0 0 13 11" fill="none" xmlns="http://www.w3.org/2000/svg">
<path d="M7.5 0.5C8.22656 0.5 8.90625 0.636719 9.53906 0.910156C10.1797 1.18359 10.7383 1.55859 11.2148 2.03516C11.6914 2.51172 12.0664 3.07031 12.3398 3.71094C12.6133 4.34375 12.75 5.02344 12.75 5.75C12.75 6.47656 12.6133 7.16016 12.3398 7.80078C12.0664 8.43359 11.6914 8.98828 11.2148 9.46484C10.7383 9.94141 10.1797 10.3164 9.53906 10.5898C8.90625 10.8633 8.22656 11 7.5 11V9.875C8.05469 9.875 8.58203 9.77344 9.08203 9.57031C9.58203 9.35938 10.0273 9.05859 10.418 8.66797C10.8086 8.27734 11.1055 7.83203 11.3086 7.33203C11.5195 6.83203 11.625 6.30469 11.625 5.75C11.625 5.19531 11.5195 4.66797 11.3086 4.16797C11.1055 3.66797 10.8086 3.22266 10.418 2.83203C10.0273 2.44141 9.58203 2.14453 9.08203 1.94141C8.58203 1.73047 8.05469 1.625 7.5 1.625C6.94531 1.625 6.41797 1.73047 5.91797 1.94141C5.41797 2.14453 4.97266 2.44141 4.58203 2.83203C4.28516 3.12891 4.03906 3.46484 3.84375 3.83984C3.64844 4.20703 3.51562 4.59375 3.44531 5H5.625L3 8L0.375 5H2.30859C2.39453 4.36719 2.58984 3.77734 2.89453 3.23047C3.19922 2.67578 3.58203 2.19922 4.04297 1.80078C4.50391 1.39453 5.02734 1.07813 5.61328 0.851562C6.20703 0.617188 6.83594 0.5 7.5 0.5ZM9.75 5V6.5H6.75V2.75H8.25V5H9.75Z" fill="#5F5F5F"/>
</svg>
