<svg width="24" height="24" viewBox="0 0 24 24" fill="none" xmlns="http://www.w3.org/2000/svg">
<path d="M16 13.6C16.4419 13.6 16.8 13.2419 16.8 12.8C16.8 12.3582 16.4419 12 16 12C15.5582 12 15.2 12.3582 15.2 12.8C15.2 13.2419 15.5582 13.6 16 13.6Z" fill="url(#paint0_linear_1593_6494)"/>
<path d="M16 16.8C16.4419 16.8 16.8 16.4419 16.8 16C16.8 15.5582 16.4419 15.2 16 15.2C15.5582 15.2 15.2 15.5582 15.2 16C15.2 16.4419 15.5582 16.8 16 16.8Z" fill="url(#paint1_linear_1593_6494)"/>
<path d="M12.8 12.8C12.8 13.2419 12.4419 13.6 12 13.6C11.5582 13.6 11.2 13.2419 11.2 12.8C11.2 12.3582 11.5582 12 12 12C12.4419 12 12.8 12.3582 12.8 12.8Z" fill="url(#paint2_linear_1593_6494)"/>
<path d="M12.8 16C12.8 16.4419 12.4419 16.8 12 16.8C11.5582 16.8 11.2 16.4419 11.2 16C11.2 15.5582 11.5582 15.2 12 15.2C12.4419 15.2 12.8 15.5582 12.8 16Z" fill="url(#paint3_linear_1593_6494)"/>
<path d="M8.00002 13.6C8.44185 13.6 8.80002 13.2419 8.80002 12.8C8.80002 12.3582 8.44185 12 8.00002 12C7.5582 12 7.20002 12.3582 7.20002 12.8C7.20002 13.2419 7.5582 13.6 8.00002 13.6Z" fill="url(#paint4_linear_1593_6494)"/>
<path d="M8.00002 16.8C8.44185 16.8 8.80002 16.4419 8.80002 16C8.80002 15.5582 8.44185 15.2 8.00002 15.2C7.5582 15.2 7.20002 15.5582 7.20002 16C7.20002 16.4419 7.5582 16.8 8.00002 16.8Z" fill="url(#paint5_linear_1593_6494)"/>
<path fill-rule="evenodd" clip-rule="evenodd" d="M8.00002 3.80005C8.3314 3.80005 8.60002 4.06868 8.60002 4.40005V5.01022C9.12962 5.00004 9.71309 5.00004 10.3548 5.00005H13.6452C14.2869 5.00004 14.8704 5.00004 15.4 5.01022V4.40005C15.4 4.06868 15.6687 3.80005 16 3.80005C16.3314 3.80005 16.6 4.06868 16.6 4.40005V5.06172C16.808 5.07757 17.0049 5.0975 17.1912 5.12256C18.1292 5.24866 18.8883 5.51435 19.487 6.11304C20.0857 6.71173 20.3514 7.47089 20.4775 8.40883C20.6 9.32019 20.6 10.4847 20.6 11.9549V13.6452C20.6 15.1154 20.6 16.2799 20.4775 17.1913C20.3514 18.1292 20.0857 18.8884 19.487 19.4871C18.8883 20.0857 18.1292 20.3514 17.1912 20.4775C16.2799 20.6001 15.1154 20.6001 13.6452 20.6H10.3549C8.8847 20.6001 7.72017 20.6001 6.80881 20.4775C5.87087 20.3514 5.11171 20.0857 4.51302 19.4871C3.91433 18.8884 3.64863 18.1292 3.52253 17.1913C3.4 16.2799 3.40001 15.1154 3.40002 13.6452V11.9549C3.40001 10.4847 3.4 9.3202 3.52253 8.40883C3.64863 7.47089 3.91433 6.71173 4.51302 6.11304C5.11171 5.51435 5.87087 5.24866 6.80881 5.12256C6.99515 5.0975 7.19207 5.07757 7.40002 5.06172V4.40005C7.40002 4.06868 7.66865 3.80005 8.00002 3.80005ZM6.9687 6.31186C6.16383 6.42007 5.70011 6.623 5.36155 6.96157C5.02298 7.30014 4.82004 7.76386 4.71183 8.56873C4.69351 8.70504 4.67818 8.84854 4.66537 9.00005H19.3347C19.3219 8.84854 19.3065 8.70504 19.2882 8.56873C19.18 7.76386 18.9771 7.30014 18.6385 6.96157C18.2999 6.623 17.8362 6.42007 17.0313 6.31186C16.2092 6.20132 15.1255 6.20005 13.6 6.20005H10.4C8.87457 6.20005 7.79084 6.20132 6.9687 6.31186ZM4.60003 12C4.60003 11.3168 4.60028 10.7222 4.61049 10.2H19.3896C19.3998 10.7222 19.4 11.3168 19.4 12V13.6C19.4 15.1255 19.3987 16.2092 19.2882 17.0314C19.18 17.8362 18.9771 18.3 18.6385 18.6385C18.2999 18.9771 17.8362 19.18 17.0313 19.2882C16.2092 19.3988 15.1255 19.4 13.6 19.4H10.4C8.87457 19.4 7.79083 19.3988 6.9687 19.2882C6.16383 19.18 5.70011 18.9771 5.36155 18.6385C5.02298 18.3 4.82004 17.8362 4.71183 17.0314C4.6013 16.2092 4.60003 15.1255 4.60003 13.6V12Z" fill="url(#paint6_linear_1593_6494)"/>
<defs>
<linearGradient id="paint0_linear_1593_6494" x1="12" y1="3.80005" x2="12" y2="20.6" gradientUnits="userSpaceOnUse">
<stop stop-color="#FC7F13"/>
<stop offset="1" stop-color="#CF530D"/>
<stop offset="1" stop-color="#CF530D"/>
</linearGradient>
<linearGradient id="paint1_linear_1593_6494" x1="12" y1="3.80005" x2="12" y2="20.6" gradientUnits="userSpaceOnUse">
<stop stop-color="#FC7F13"/>
<stop offset="1" stop-color="#CF530D"/>
<stop offset="1" stop-color="#CF530D"/>
</linearGradient>
<linearGradient id="paint2_linear_1593_6494" x1="12" y1="3.80005" x2="12" y2="20.6" gradientUnits="userSpaceOnUse">
<stop stop-color="#FC7F13"/>
<stop offset="1" stop-color="#CF530D"/>
<stop offset="1" stop-color="#CF530D"/>
</linearGradient>
<linearGradient id="paint3_linear_1593_6494" x1="12" y1="3.80005" x2="12" y2="20.6" gradientUnits="userSpaceOnUse">
<stop stop-color="#FC7F13"/>
<stop offset="1" stop-color="#CF530D"/>
<stop offset="1" stop-color="#CF530D"/>
</linearGradient>
<linearGradient id="paint4_linear_1593_6494" x1="12" y1="3.80005" x2="12" y2="20.6" gradientUnits="userSpaceOnUse">
<stop stop-color="#FC7F13"/>
<stop offset="1" stop-color="#CF530D"/>
<stop offset="1" stop-color="#CF530D"/>
</linearGradient>
<linearGradient id="paint5_linear_1593_6494" x1="12" y1="3.80005" x2="12" y2="20.6" gradientUnits="userSpaceOnUse">
<stop stop-color="#FC7F13"/>
<stop offset="1" stop-color="#CF530D"/>
<stop offset="1" stop-color="#CF530D"/>
</linearGradient>
<linearGradient id="paint6_linear_1593_6494" x1="12" y1="3.80005" x2="12" y2="20.6" gradientUnits="userSpaceOnUse">
<stop stop-color="#FC7F13"/>
<stop offset="1" stop-color="#CF530D"/>
<stop offset="1" stop-color="#CF530D"/>
</linearGradient>
</defs>
</svg>
