<svg width="17" height="16" viewBox="0 0 17 16" fill="none" xmlns="http://www.w3.org/2000/svg">
<g clip-path="url(#clip0_1593_6498)">
<path opacity="0.972" fill-rule="evenodd" clip-rule="evenodd" d="M2.76562 -0.015625C6.57812 -0.015625 10.3906 -0.015625 14.2031 -0.015625C14.5606 0.19318 14.6491 0.484847 14.4688 0.859375C14.3621 0.998637 14.2215 1.07676 14.0469 1.09375C13.7241 1.10937 13.4012 1.11458 13.0781 1.10938C13.0833 1.78654 13.0781 2.46362 13.0625 3.14062C12.901 4.53144 12.2916 5.68247 11.2344 6.59375C10.9167 6.84897 10.599 7.10416 10.2812 7.35938C10.0521 7.77603 10.0521 8.19272 10.2812 8.60938C10.8287 9.01075 11.3391 9.45866 11.8125 9.95312C12.5356 10.7747 12.9522 11.733 13.0625 12.8281C13.0781 13.5051 13.0833 14.1822 13.0781 14.8594C13.4012 14.8542 13.7241 14.8594 14.0469 14.875C14.3624 14.9302 14.5395 15.1177 14.5781 15.4375C14.5559 15.6935 14.4309 15.8758 14.2031 15.9844C10.3906 15.9844 6.57812 15.9844 2.76562 15.9844C2.40816 15.7756 2.31962 15.4839 2.5 15.1094C2.60665 14.9701 2.74727 14.892 2.92188 14.875C3.24462 14.8594 3.56754 14.8542 3.89062 14.8594C3.88541 14.1822 3.89062 13.5051 3.90625 12.8281C4.06775 11.4373 4.67712 10.2863 5.73438 9.375C6.05209 9.11978 6.36978 8.86459 6.6875 8.60938C6.91666 8.19272 6.91666 7.77603 6.6875 7.35938C6.14003 6.958 5.62963 6.51009 5.15625 6.01562C4.43316 5.19406 4.0165 4.23572 3.90625 3.14062C3.89062 2.46362 3.88541 1.78654 3.89062 1.10938C3.56754 1.11458 3.24462 1.10937 2.92188 1.09375C2.60632 1.03857 2.42923 0.851072 2.39062 0.53125C2.41286 0.275235 2.53786 0.0929431 2.76562 -0.015625ZM5.01562 1.10938C7.32812 1.10938 9.64062 1.10938 11.9531 1.10938C11.9583 1.73446 11.9531 2.35946 11.9375 2.98438C11.8629 3.84438 11.54 4.59438 10.9688 5.23438C10.5639 5.66266 10.1212 6.04287 9.64062 6.375C9.187 6.81359 8.96825 7.35006 8.98438 7.98438C8.96825 8.61869 9.187 9.15516 9.64062 9.59375C10.4868 10.1378 11.1482 10.8513 11.625 11.7344C11.7977 12.1335 11.9019 12.5502 11.9375 12.9844C11.9531 13.6093 11.9583 14.2343 11.9531 14.8594C9.64062 14.8594 7.32812 14.8594 5.01562 14.8594C5.01041 14.2343 5.01562 13.6093 5.03125 12.9844C5.10591 12.1242 5.42881 11.3742 6 10.7344C6.40487 10.3061 6.84756 9.92587 7.32812 9.59375C7.78175 9.15516 8.0005 8.61869 7.98438 7.98438C8.0005 7.35006 7.78175 6.81359 7.32812 6.375C6.48197 5.83097 5.8205 5.11744 5.34375 4.23438C5.16822 3.83603 5.06406 3.41937 5.03125 2.98438C5.01562 2.35946 5.01041 1.73446 5.01562 1.10938Z" fill="url(#paint0_linear_1593_6498)"/>
</g>
<defs>
<linearGradient id="paint0_linear_1593_6498" x1="8.48438" y1="-0.015625" x2="8.48438" y2="15.9844" gradientUnits="userSpaceOnUse">
<stop stop-color="#FC7F13"/>
<stop offset="1" stop-color="#CF530D"/>
<stop offset="1" stop-color="#CF530D"/>
</linearGradient>
<clipPath id="clip0_1593_6498">
<rect width="16" height="16" fill="white" transform="translate(0.5)"/>
</clipPath>
</defs>
</svg>
