<svg width="48" height="49" viewBox="0 0 48 49" fill="none" xmlns="http://www.w3.org/2000/svg">
<path d="M24.1838 22.8633V26.3487H29.1263C28.9093 27.4696 28.258 28.4187 27.2812 29.0569L30.2617 31.3233C31.9983 29.7524 33.0002 27.4451 33.0002 24.7043C33.0002 24.0661 32.9417 23.4524 32.8332 22.8634L24.1838 22.8633Z" fill="#4285F4"/>
<path d="M19.0362 26.2129L18.364 26.7172L15.9845 28.5335C17.4956 31.4707 20.5928 33.4998 24.1828 33.4998C26.6623 33.4998 28.7412 32.698 30.2607 31.3235L27.2802 29.0571C26.462 29.5971 25.4184 29.9244 24.1828 29.9244C21.795 29.9244 19.7663 28.3454 19.0399 26.2181L19.0362 26.2129Z" fill="#34A853"/>
<path d="M15.9851 20.4648C15.359 21.6757 15 23.0421 15 24.4984C15 25.9547 15.359 27.3211 15.9851 28.5319C15.9851 28.5401 19.0408 26.2083 19.0408 26.2083C18.8571 25.6683 18.7486 25.0956 18.7486 24.4983C18.7486 23.901 18.8571 23.3283 19.0408 22.7883L15.9851 20.4648Z" fill="#FBBC05"/>
<path d="M24.183 19.0836C25.5355 19.0836 26.7377 19.5418 27.6978 20.4254L30.3277 17.8482C28.7331 16.3919 26.6626 15.5 24.183 15.5C20.593 15.5 17.4956 17.5209 15.9845 20.4663L19.0401 22.79C19.7664 20.6627 21.7952 19.0836 24.183 19.0836Z" fill="#EA4335"/>
<rect x="0.5" y="1" width="47" height="47" rx="15.5" stroke="#E5E7EB"/>
</svg>
