<svg width="21" height="22" viewBox="0 0 21 22" fill="none" xmlns="http://www.w3.org/2000/svg">
<g clip-path="url(#clip0_1593_6621)">
<path opacity="0.964" fill-rule="evenodd" clip-rule="evenodd" d="M15.8115 0.479492C16.1943 0.479492 16.5772 0.479492 16.96 0.479492C19.2158 0.90332 20.5557 2.24316 20.9795 4.49902C20.9795 4.84081 20.9795 5.18263 20.9795 5.52441C20.7911 6.29875 20.4971 7.03703 20.0977 7.73926C19.1421 9.32869 18.0415 10.8121 16.7959 12.1895C16.5224 12.3262 16.249 12.3262 15.9756 12.1895C14.7951 10.901 13.7492 9.51326 12.8379 8.02637C12.3677 7.24457 12.0259 6.4106 11.8125 5.52441C11.6813 3.55124 12.4538 2.05417 14.1299 1.0332C14.667 0.76071 15.2276 0.576139 15.8115 0.479492ZM15.8936 1.83301C17.5245 1.71492 18.6935 2.38484 19.4004 3.84277C19.6458 4.45888 19.6868 5.0878 19.5234 5.72949C19.1372 6.6936 18.645 7.59595 18.0469 8.43652C17.5311 9.1778 16.9773 9.88872 16.3857 10.5693C15.2412 9.25273 14.2636 7.81719 13.4531 6.26269C12.8308 4.62966 13.2342 3.31034 14.6631 2.30469C15.0553 2.08534 15.4654 1.92811 15.8936 1.83301Z" fill="url(#paint0_linear_1593_6621)"/>
<path opacity="0.965" fill-rule="evenodd" clip-rule="evenodd" d="M15.9756 3.10439C17.1921 2.98399 17.9782 3.50352 18.334 4.66299C18.4743 5.88033 17.9616 6.66644 16.7959 7.02138C15.5786 7.1617 14.7924 6.649 14.4375 5.4833C14.3023 4.26196 14.815 3.46899 15.9756 3.10439ZM16.1807 4.45791C16.0623 4.51448 15.9598 4.59651 15.873 4.704C15.7017 5.03549 15.7495 5.32945 16.0166 5.58584C16.3481 5.75716 16.642 5.70934 16.8984 5.44228C17.128 4.77607 16.8888 4.44793 16.1807 4.45791Z" fill="url(#paint1_linear_1593_6621)"/>
<path opacity="0.983" fill-rule="evenodd" clip-rule="evenodd" d="M20.9795 10.0772C20.9795 12.8662 20.9795 15.6553 20.9795 18.4443C20.8914 18.6212 20.7547 18.7511 20.5693 18.834C18.3728 19.7049 16.1853 20.5867 14.0068 21.4795C13.8428 21.4795 13.6787 21.4795 13.5146 21.4795C11.4219 20.6112 9.31641 19.7636 7.19824 18.9365C5.08007 19.7636 2.9746 20.6112 0.881836 21.4795C0.717773 21.4795 0.553711 21.4795 0.389648 21.4795C0.211914 21.3838 0.0751952 21.2471 -0.0205078 21.0693C-0.0205078 16.9678 -0.0205078 12.8662 -0.0205078 8.76466C0.0675404 8.58784 0.204259 8.45794 0.389648 8.37501C2.57715 7.50002 4.76466 6.625 6.95215 5.75001C7.11621 5.72265 7.28027 5.72265 7.44434 5.75001C8.7399 6.27755 10.0387 6.7971 11.3408 7.3086C11.7903 7.51787 11.9202 7.8528 11.7305 8.31349C11.5012 8.61778 11.2072 8.70666 10.8486 8.58009C9.8545 8.18207 8.86327 7.77877 7.875 7.37013C7.85449 10.8291 7.84764 14.2881 7.85449 17.7471C9.60451 18.4307 11.3545 19.1143 13.1045 19.7979C13.0976 17.4326 13.1045 15.0674 13.125 12.7022C13.3765 12.269 13.7252 12.1665 14.1709 12.3945C14.2778 12.474 14.353 12.5766 14.3965 12.7022C14.417 15.0674 14.4238 17.4326 14.417 19.7979C16.1584 19.1307 17.8947 18.4471 19.626 17.7471C19.6601 15.1905 19.6807 12.6339 19.6875 10.0772C19.8026 9.79058 20.0145 9.65388 20.3232 9.667C20.6356 9.65888 20.8544 9.79559 20.9795 10.0772ZM6.50098 7.37013C6.54195 10.8222 6.55565 14.2812 6.54199 17.7471C4.79198 18.4307 3.04199 19.1143 1.29199 19.7979C1.27832 16.3524 1.29199 12.9071 1.33301 9.46192C3.06633 8.77963 4.78898 8.08236 6.50098 7.37013Z" fill="url(#paint2_linear_1593_6621)"/>
</g>
<defs>
<linearGradient id="paint0_linear_1593_6621" x1="16.3889" y1="0.479492" x2="16.3889" y2="12.292" gradientUnits="userSpaceOnUse">
<stop stop-color="#FC7F13"/>
<stop offset="1" stop-color="#CF530D"/>
<stop offset="1" stop-color="#CF530D"/>
</linearGradient>
<linearGradient id="paint1_linear_1593_6621" x1="16.3865" y1="3.0874" x2="16.3865" y2="7.044" gradientUnits="userSpaceOnUse">
<stop stop-color="#FC7F13"/>
<stop offset="1" stop-color="#CF530D"/>
<stop offset="1" stop-color="#CF530D"/>
</linearGradient>
<linearGradient id="paint2_linear_1593_6621" x1="10.4795" y1="5.72949" x2="10.4795" y2="21.4795" gradientUnits="userSpaceOnUse">
<stop stop-color="#FC7F13"/>
<stop offset="1" stop-color="#CF530D"/>
<stop offset="1" stop-color="#CF530D"/>
</linearGradient>
<clipPath id="clip0_1593_6621">
<rect width="21" height="21" fill="white" transform="translate(0 0.5)"/>
</clipPath>
</defs>
</svg>
