<svg width="36" height="36" viewBox="0 0 36 36" fill="none" xmlns="http://www.w3.org/2000/svg">
<rect width="36" height="36" rx="18" fill="#F6F0F0"/>
<path d="M28.1281 17.1548C28.352 17.1548 28.5666 17.0659 28.7249 16.9076C28.8832 16.7493 28.9721 16.5347 28.9721 16.3108V13.7788C28.9716 13.6229 28.928 13.4702 28.8461 13.3377C28.7642 13.2051 28.6471 13.0978 28.5079 13.0276L18.3798 7.96358C18.262 7.90421 18.1319 7.87329 18 7.87329C17.8681 7.87329 17.738 7.90421 17.6202 7.96358L7.4921 13.0276C7.35291 13.0978 7.23586 13.2051 7.15392 13.3377C7.07199 13.4702 7.02837 13.6229 7.02789 13.7788V16.3108C7.02789 16.5347 7.11682 16.7493 7.2751 16.9076C7.43338 17.0659 7.64806 17.1548 7.8719 17.1548H8.71591V26.4389H7.8719C7.64806 26.4389 7.43338 26.5278 7.2751 26.6861C7.11682 26.8444 7.02789 27.0591 7.02789 27.2829C7.02789 27.5068 7.11682 27.7215 7.2751 27.8797C7.43338 28.038 7.64806 28.1269 7.8719 28.1269H28.1281C28.352 28.1269 28.5666 28.038 28.7249 27.8797C28.8832 27.7215 28.9721 27.5068 28.9721 27.2829C28.9721 27.0591 28.8832 26.8444 28.7249 26.6861C28.5666 26.5278 28.352 26.4389 28.1281 26.4389H27.2841V17.1548H28.1281ZM8.71591 14.3021L18 9.66003L27.2841 14.3021V15.4668H8.71591V14.3021ZM17.156 17.1548V26.4389H14.624V17.1548H17.156ZM18.844 17.1548H21.376V26.4389H18.844V17.1548ZM10.4039 17.1548H12.936V26.4389H10.4039V17.1548ZM25.5961 26.4389H23.0641V17.1548H25.5961V26.4389Z" fill="black" fill-opacity="0.2"/>
</svg>
