<svg width="52" height="52" viewBox="0 0 52 52" fill="none" xmlns="http://www.w3.org/2000/svg">
<rect width="52" height="52" rx="6" fill="url(#paint0_linear_3813_4908)"/>
<path fill-rule="evenodd" clip-rule="evenodd" d="M34.6665 18.9043H16.8425C16.4285 18.9043 16.0925 18.5683 16.0925 18.1543C16.0925 17.7403 16.4285 17.4043 16.8425 17.4043H34.6665C35.0805 17.4043 35.4165 17.7403 35.4165 18.1543C35.4165 18.5683 35.0805 18.9043 34.6665 18.9043Z" fill="white"/>
<path fill-rule="evenodd" clip-rule="evenodd" d="M30.2012 22.8096C29.7872 22.8096 29.4472 22.4736 29.4472 22.0596C29.4472 21.6456 29.7782 21.3096 30.1922 21.3096H30.2012C30.6152 21.3096 30.9512 21.6456 30.9512 22.0596C30.9512 22.4736 30.6152 22.8096 30.2012 22.8096Z" fill="white"/>
<path fill-rule="evenodd" clip-rule="evenodd" d="M25.7637 22.8096C25.3497 22.8096 25.0097 22.4736 25.0097 22.0596C25.0097 21.6456 25.3407 21.3096 25.7547 21.3096H25.7637C26.1777 21.3096 26.5137 21.6456 26.5137 22.0596C26.5137 22.4736 26.1777 22.8096 25.7637 22.8096Z" fill="white"/>
<path fill-rule="evenodd" clip-rule="evenodd" d="M21.3169 22.8096C20.9029 22.8096 20.5619 22.4736 20.5619 22.0596C20.5619 21.6456 20.8939 21.3096 21.3079 21.3096H21.3169C21.7309 21.3096 22.0669 21.6456 22.0669 22.0596C22.0669 22.4736 21.7309 22.8096 21.3169 22.8096Z" fill="white"/>
<path fill-rule="evenodd" clip-rule="evenodd" d="M30.2012 26.6963C29.7872 26.6963 29.4472 26.3603 29.4472 25.9463C29.4472 25.5323 29.7782 25.1963 30.1922 25.1963H30.2012C30.6152 25.1963 30.9512 25.5323 30.9512 25.9463C30.9512 26.3603 30.6152 26.6963 30.2012 26.6963Z" fill="white"/>
<path fill-rule="evenodd" clip-rule="evenodd" d="M25.7637 26.6963C25.3497 26.6963 25.0097 26.3603 25.0097 25.9463C25.0097 25.5323 25.3407 25.1963 25.7547 25.1963H25.7637C26.1777 25.1963 26.5137 25.5323 26.5137 25.9463C26.5137 26.3603 26.1777 26.6963 25.7637 26.6963Z" fill="white"/>
<path fill-rule="evenodd" clip-rule="evenodd" d="M21.3169 26.6963C20.9029 26.6963 20.5619 26.3603 20.5619 25.9463C20.5619 25.5323 20.8939 25.1963 21.3079 25.1963H21.3169C21.7309 25.1963 22.0669 25.5323 22.0669 25.9463C22.0669 26.3603 21.7309 26.6963 21.3169 26.6963Z" fill="white"/>
<path fill-rule="evenodd" clip-rule="evenodd" d="M29.7935 14.791C29.3795 14.791 29.0435 14.455 29.0435 14.041V10.75C29.0435 10.336 29.3795 10 29.7935 10C30.2075 10 30.5435 10.336 30.5435 10.75V14.041C30.5435 14.455 30.2075 14.791 29.7935 14.791Z" fill="white"/>
<path fill-rule="evenodd" clip-rule="evenodd" d="M21.7153 14.791C21.3013 14.791 20.9653 14.455 20.9653 14.041V10.75C20.9653 10.336 21.3013 10 21.7153 10C22.1293 10 22.4653 10.336 22.4653 10.75V14.041C22.4653 14.455 22.1293 14.791 21.7153 14.791Z" fill="white"/>
<mask id="mask0_3813_4908" style="mask-type:luminance" maskUnits="userSpaceOnUse" x="16" y="11" width="20" height="21">
<path fill-rule="evenodd" clip-rule="evenodd" d="M16 11.5791H35.5V31.5H16V11.5791Z" fill="white"/>
</mask>
<g mask="url(#mask0_3813_4908)">
<path fill-rule="evenodd" clip-rule="evenodd" d="M21.521 13.0791C18.928 13.0791 17.5 14.4621 17.5 16.9731V26.0221C17.5 28.5881 18.928 30.0001 21.521 30.0001H29.979C32.572 30.0001 34 28.6141 34 26.0981V16.9731C34.004 15.7381 33.672 14.7781 33.013 14.1181C32.335 13.4381 31.29 13.0791 29.988 13.0791H21.521ZM29.979 31.5001H21.521C18.116 31.5001 16 29.4011 16 26.0221V16.9731C16 13.6451 18.116 11.5791 21.521 11.5791H29.988C31.697 11.5791 33.11 12.0911 34.075 13.0581C35.012 13.9991 35.505 15.3521 35.5 16.9751V26.0981C35.5 29.4301 33.384 31.5001 29.979 31.5001Z" fill="white"/>
</g>
<path d="M4.91903 45V39.36H5.49503L7.75903 44.472H7.52703L9.79103 39.36H10.367V45H9.75903V40.216H9.99903L7.86303 45H7.42303L5.27903 40.216H5.51903V45H4.91903ZM13.3542 45.072C12.9702 45.072 12.6342 44.9893 12.3462 44.824C12.0636 44.6533 11.8449 44.4133 11.6902 44.104C11.5356 43.7893 11.4582 43.4187 11.4582 42.992C11.4582 42.56 11.5356 42.1893 11.6902 41.88C11.8449 41.5707 12.0636 41.3333 12.3462 41.168C12.6342 40.9973 12.9702 40.912 13.3542 40.912C13.7436 40.912 14.0796 40.9973 14.3622 41.168C14.6502 41.3333 14.8716 41.5707 15.0262 41.88C15.1862 42.1893 15.2662 42.56 15.2662 42.992C15.2662 43.4187 15.1862 43.7893 15.0262 44.104C14.8716 44.4133 14.6502 44.6533 14.3622 44.824C14.0796 44.9893 13.7436 45.072 13.3542 45.072ZM13.3542 44.544C13.7382 44.544 14.0422 44.4133 14.2662 44.152C14.4902 43.8853 14.6022 43.4987 14.6022 42.992C14.6022 42.48 14.4876 42.0933 14.2582 41.832C14.0342 41.5653 13.7329 41.432 13.3542 41.432C12.9756 41.432 12.6742 41.5653 12.4502 41.832C12.2262 42.0933 12.1142 42.48 12.1142 42.992C12.1142 43.4987 12.2262 43.8853 12.4502 44.152C12.6742 44.4133 12.9756 44.544 13.3542 44.544ZM16.2605 45V41.952C16.2605 41.792 16.2552 41.6293 16.2445 41.464C16.2392 41.2987 16.2285 41.1387 16.2125 40.984H16.8365L16.9165 41.96L16.8045 41.968C16.8579 41.728 16.9512 41.5307 17.0845 41.376C17.2179 41.2213 17.3752 41.1067 17.5565 41.032C17.7379 40.952 17.9272 40.912 18.1245 40.912C18.2045 40.912 18.2739 40.9147 18.3325 40.92C18.3965 40.9253 18.4552 40.9387 18.5085 40.96L18.5005 41.536C18.4205 41.5093 18.3459 41.4933 18.2765 41.488C18.2125 41.4773 18.1379 41.472 18.0525 41.472C17.8179 41.472 17.6125 41.528 17.4365 41.64C17.2659 41.752 17.1352 41.896 17.0445 42.072C16.9592 42.248 16.9165 42.4347 16.9165 42.632V45H16.2605ZM20.9199 45.072C20.2906 45.072 19.7946 44.8907 19.4319 44.528C19.0692 44.16 18.8879 43.6507 18.8879 43C18.8879 42.5787 18.9679 42.2133 19.1279 41.904C19.2879 41.5893 19.5119 41.3467 19.7999 41.176C20.0879 41 20.4186 40.912 20.7919 40.912C21.1599 40.912 21.4692 40.9893 21.7199 41.144C21.9706 41.2987 22.1626 41.52 22.2959 41.808C22.4292 42.0907 22.4959 42.4267 22.4959 42.816V43.056H19.3839V42.648H22.0719L21.9359 42.752C21.9359 42.3253 21.8399 41.992 21.6479 41.752C21.4559 41.512 21.1706 41.392 20.7919 41.392C20.3919 41.392 20.0799 41.5333 19.8559 41.816C19.6319 42.0933 19.5199 42.4693 19.5199 42.944V43.016C19.5199 43.5173 19.6426 43.8987 19.8879 44.16C20.1386 44.416 20.4879 44.544 20.9359 44.544C21.1759 44.544 21.3999 44.5093 21.6079 44.44C21.8212 44.3653 22.0239 44.2453 22.2159 44.08L22.4399 44.536C22.2639 44.7067 22.0399 44.84 21.7679 44.936C21.5012 45.0267 21.2186 45.072 20.9199 45.072ZM25.6454 45V39.36H27.5174C28.1414 39.36 28.6694 39.4693 29.1014 39.688C29.5334 39.9013 29.8614 40.2187 30.0854 40.64C30.3094 41.056 30.4214 41.568 30.4214 42.176C30.4214 42.7787 30.3094 43.2907 30.0854 43.712C29.8614 44.1333 29.5334 44.4533 29.1014 44.672C28.6694 44.8907 28.1414 45 27.5174 45H25.6454ZM26.3094 44.432H27.4694C28.2374 44.432 28.8081 44.2453 29.1814 43.872C29.5547 43.4933 29.7414 42.928 29.7414 42.176C29.7414 41.4187 29.5547 40.8533 29.1814 40.48C28.8081 40.1067 28.2374 39.92 27.4694 39.92H26.3094V44.432ZM33.078 45.072C32.7206 45.072 32.4086 44.9893 32.142 44.824C31.8753 44.6533 31.6673 44.4133 31.518 44.104C31.374 43.7947 31.302 43.424 31.302 42.992C31.302 42.5547 31.374 42.1813 31.518 41.872C31.6673 41.5627 31.8753 41.3253 32.142 41.16C32.4086 40.9947 32.7206 40.912 33.078 40.912C33.4406 40.912 33.7526 41.0053 34.014 41.192C34.2806 41.3733 34.4566 41.6213 34.542 41.936H34.446L34.534 40.984H35.158C35.142 41.1387 35.126 41.296 35.11 41.456C35.0993 41.6107 35.094 41.7627 35.094 41.912V45H34.446V44.056H34.534C34.4486 44.3707 34.2726 44.6187 34.006 44.8C33.7393 44.9813 33.43 45.072 33.078 45.072ZM33.206 44.544C33.59 44.544 33.894 44.4133 34.118 44.152C34.342 43.8853 34.454 43.4987 34.454 42.992C34.454 42.48 34.342 42.0933 34.118 41.832C33.894 41.5653 33.59 41.432 33.206 41.432C32.8273 41.432 32.5233 41.5653 32.294 41.832C32.07 42.0933 31.958 42.48 31.958 42.992C31.958 43.4987 32.07 43.8853 32.294 44.152C32.5233 44.4133 32.8273 44.544 33.206 44.544ZM37.7708 45.072C37.3762 45.072 37.0748 44.96 36.8668 44.736C36.6588 44.5067 36.5548 44.1627 36.5548 43.704V41.488H35.7708V40.984H36.5548V39.888L37.2028 39.704V40.984H38.3548V41.488H37.2028V43.632C37.2028 43.952 37.2562 44.1813 37.3628 44.32C37.4748 44.4533 37.6402 44.52 37.8588 44.52C37.9602 44.52 38.0508 44.512 38.1308 44.496C38.2108 44.4747 38.2828 44.4507 38.3468 44.424V44.968C38.2722 45 38.1815 45.024 38.0748 45.04C37.9735 45.0613 37.8722 45.072 37.7708 45.072ZM40.8887 45.072C40.2593 45.072 39.7633 44.8907 39.4007 44.528C39.038 44.16 38.8567 43.6507 38.8567 43C38.8567 42.5787 38.9367 42.2133 39.0967 41.904C39.2567 41.5893 39.4807 41.3467 39.7687 41.176C40.0567 41 40.3873 40.912 40.7607 40.912C41.1287 40.912 41.438 40.9893 41.6887 41.144C41.9393 41.2987 42.1313 41.52 42.2647 41.808C42.398 42.0907 42.4647 42.4267 42.4647 42.816V43.056H39.3527V42.648H42.0407L41.9047 42.752C41.9047 42.3253 41.8087 41.992 41.6167 41.752C41.4247 41.512 41.1393 41.392 40.7607 41.392C40.3607 41.392 40.0487 41.5333 39.8247 41.816C39.6007 42.0933 39.4887 42.4693 39.4887 42.944V43.016C39.4887 43.5173 39.6113 43.8987 39.8567 44.16C40.1073 44.416 40.4567 44.544 40.9047 44.544C41.1447 44.544 41.3687 44.5093 41.5767 44.44C41.79 44.3653 41.9927 44.2453 42.1847 44.08L42.4087 44.536C42.2327 44.7067 42.0087 44.84 41.7367 44.936C41.47 45.0267 41.1873 45.072 40.8887 45.072ZM44.7922 45.072C44.4722 45.072 44.1736 45.0293 43.8962 44.944C43.6189 44.8533 43.3896 44.728 43.2082 44.568L43.4322 44.112C43.6296 44.2667 43.8429 44.3813 44.0722 44.456C44.3069 44.5307 44.5496 44.568 44.8002 44.568C45.1202 44.568 45.3602 44.512 45.5202 44.4C45.6856 44.2827 45.7682 44.1227 45.7682 43.92C45.7682 43.7653 45.7149 43.6427 45.6082 43.552C45.5069 43.456 45.3389 43.3813 45.1042 43.328L44.3602 43.176C44.0189 43.1013 43.7629 42.976 43.5922 42.8C43.4216 42.6187 43.3362 42.3893 43.3362 42.112C43.3362 41.8773 43.3976 41.672 43.5202 41.496C43.6429 41.3147 43.8216 41.1733 44.0562 41.072C44.2909 40.9653 44.5656 40.912 44.8802 40.912C45.1736 40.912 45.4429 40.9573 45.6882 41.048C45.9389 41.1333 46.1469 41.2587 46.3122 41.424L46.0802 41.872C45.9202 41.7173 45.7362 41.6027 45.5282 41.528C45.3256 41.448 45.1149 41.408 44.8962 41.408C44.5816 41.408 44.3442 41.472 44.1842 41.6C44.0296 41.7227 43.9522 41.8853 43.9522 42.088C43.9522 42.2427 44.0002 42.3707 44.0962 42.472C44.1976 42.568 44.3522 42.64 44.5602 42.688L45.3042 42.84C45.6669 42.92 45.9362 43.0453 46.1122 43.216C46.2936 43.3813 46.3842 43.6053 46.3842 43.888C46.3842 44.128 46.3176 44.3387 46.1842 44.52C46.0509 44.696 45.8642 44.832 45.6242 44.928C45.3896 45.024 45.1122 45.072 44.7922 45.072Z" fill="#E0E0E0"/>
<defs>
<linearGradient id="paint0_linear_3813_4908" x1="26" y1="0" x2="26" y2="52" gradientUnits="userSpaceOnUse">
<stop offset="0.9998" stop-color="#FC7F13"/>
<stop offset="0.9999" stop-color="#CF530D"/>
<stop offset="1" stop-color="#CF530D"/>
</linearGradient>
</defs>
</svg>
