<svg width="123" height="30" viewBox="0 0 123 30" fill="none" xmlns="http://www.w3.org/2000/svg">
<rect x="0.5" y="0.5" width="122" height="29" rx="14.5" stroke="#FD7D14"/>
<path d="M18 21.25C21.4518 21.25 24.25 18.4518 24.25 15C24.25 11.5482 21.4518 8.75 18 8.75C14.5482 8.75 11.75 11.5482 11.75 15C11.75 18.4518 14.5482 21.25 18 21.25Z" stroke="#FD7D14" stroke-width="1.5" stroke-linecap="round" stroke-linejoin="round"/>
<path d="M18 17.5C19.3807 17.5 20.5 16.3807 20.5 15C20.5 13.6193 19.3807 12.5 18 12.5C16.6193 12.5 15.5 13.6193 15.5 15C15.5 16.3807 16.6193 17.5 18 17.5Z" stroke="#FD7D14" stroke-width="1.5" stroke-linecap="round" stroke-linejoin="round"/>
<path d="M18 8.33335V6.66669" stroke="#FD7D14" stroke-width="1.5" stroke-linecap="round" stroke-linejoin="round"/>
<path d="M11.3337 15H9.66699" stroke="#FD7D14" stroke-width="1.5" stroke-linecap="round" stroke-linejoin="round"/>
<path d="M18 21.6667V23.3334" stroke="#FD7D14" stroke-width="1.5" stroke-linecap="round" stroke-linejoin="round"/>
<path d="M24.667 15H26.3337" stroke="#FD7D14" stroke-width="1.5" stroke-linecap="round" stroke-linejoin="round"/>
<path d="M33.204 20V10.13H34.212L40.4 18.306H40.064V10.13H41.282V20H40.288L34.1 11.824H34.422V20H33.204ZM46.7427 20.126C45.6227 20.126 44.736 19.804 44.0827 19.16C43.4387 18.516 43.1167 17.6293 43.1167 16.5C43.1167 15.7533 43.2567 15.1093 43.5367 14.568C43.826 14.0173 44.2227 13.5927 44.7267 13.294C45.2307 12.986 45.8187 12.832 46.4907 12.832C47.1347 12.832 47.6807 12.972 48.1287 13.252C48.5767 13.5227 48.9173 13.91 49.1507 14.414C49.384 14.918 49.5007 15.5153 49.5007 16.206V16.626H44.1107V15.87H48.6327L48.3947 16.052C48.3947 15.324 48.2313 14.7593 47.9047 14.358C47.5873 13.9567 47.116 13.756 46.4907 13.756C45.8093 13.756 45.282 13.994 44.9087 14.47C44.5353 14.9367 44.3487 15.576 44.3487 16.388V16.514C44.3487 17.3727 44.5587 18.0213 44.9787 18.46C45.408 18.8987 46.0007 19.118 46.7567 19.118C47.1767 19.118 47.5687 19.0573 47.9327 18.936C48.2967 18.8147 48.6467 18.614 48.9827 18.334L49.4027 19.216C49.0853 19.5053 48.6887 19.7293 48.2127 19.888C47.746 20.0467 47.256 20.126 46.7427 20.126ZM53.8536 20.126C53.2376 20.126 52.6962 19.9813 52.2296 19.692C51.7629 19.4027 51.3989 18.9827 51.1376 18.432C50.8762 17.8813 50.7456 17.228 50.7456 16.472C50.7456 15.716 50.8762 15.0673 51.1376 14.526C51.3989 13.9753 51.7629 13.5553 52.2296 13.266C52.6962 12.9767 53.2376 12.832 53.8536 12.832C54.4789 12.832 55.0202 12.9907 55.4776 13.308C55.9442 13.616 56.2522 14.0407 56.4016 14.582H56.2336L56.3876 12.958H57.6196C57.5916 13.238 57.5636 13.518 57.5356 13.798C57.5169 14.078 57.5076 14.3533 57.5076 14.624V20H56.2336V18.39H56.3876C56.2382 18.922 55.9302 19.3467 55.4636 19.664C55.0062 19.972 54.4696 20.126 53.8536 20.126ZM54.1476 19.118C54.7822 19.118 55.2909 18.894 55.6736 18.446C56.0562 17.998 56.2476 17.34 56.2476 16.472C56.2476 15.604 56.0562 14.9507 55.6736 14.512C55.2909 14.0733 54.7822 13.854 54.1476 13.854C53.5129 13.854 52.9996 14.0733 52.6076 14.512C52.2249 14.9507 52.0336 15.604 52.0336 16.472C52.0336 17.34 52.2249 17.998 52.6076 18.446C52.9902 18.894 53.5036 19.118 54.1476 19.118ZM59.6281 20V14.68C59.6281 14.4 59.6188 14.1153 59.6001 13.826C59.5908 13.5273 59.5675 13.238 59.5301 12.958H60.7621L60.9161 14.722L60.7061 14.736C60.7995 14.3067 60.9581 13.952 61.1821 13.672C61.4155 13.3827 61.6908 13.1727 62.0081 13.042C62.3348 12.902 62.6708 12.832 63.0161 12.832C63.1655 12.832 63.2915 12.8367 63.3941 12.846C63.4968 12.8553 63.5995 12.8787 63.7021 12.916L63.6741 14.05C63.5341 13.994 63.4035 13.9613 63.2821 13.952C63.1701 13.9333 63.0301 13.924 62.8621 13.924C62.4515 13.924 62.0968 14.0173 61.7981 14.204C61.5088 14.3907 61.2848 14.638 61.1261 14.946C60.9768 15.254 60.9021 15.5853 60.9021 15.94V20H59.6281ZM68.4778 20.126C67.8524 20.126 67.3111 19.972 66.8538 19.664C66.3964 19.3467 66.0931 18.9127 65.9438 18.362H66.0978V20H64.8238V9.696H66.0978V14.568H65.9438C66.1024 14.0267 66.4058 13.602 66.8538 13.294C67.3111 12.986 67.8524 12.832 68.4778 12.832C69.1031 12.832 69.6491 12.9813 70.1158 13.28C70.5824 13.5693 70.9418 13.9847 71.1938 14.526C71.4551 15.0673 71.5858 15.7207 71.5858 16.486C71.5858 17.242 71.4551 17.8953 71.1938 18.446C70.9418 18.9873 70.5778 19.4027 70.1018 19.692C69.6351 19.9813 69.0938 20.126 68.4778 20.126ZM68.1838 19.118C68.8184 19.118 69.3271 18.8987 69.7098 18.46C70.1018 18.012 70.2978 17.354 70.2978 16.486C70.2978 15.618 70.1018 14.9647 69.7098 14.526C69.3271 14.078 68.8184 13.854 68.1838 13.854C67.5398 13.854 67.0264 14.0733 66.6438 14.512C66.2704 14.9507 66.0838 15.604 66.0838 16.472C66.0838 17.34 66.2704 17.998 66.6438 18.446C67.0264 18.894 67.5398 19.118 68.1838 19.118ZM72.953 23.178L72.659 22.142C73.0976 22.0393 73.4616 21.918 73.751 21.778C74.0403 21.6473 74.283 21.4747 74.479 21.26C74.675 21.0453 74.8476 20.7747 74.997 20.448L75.347 19.608L75.319 20.14L72.253 12.958H73.625L76.075 18.992H75.711L78.161 12.958H79.477L76.243 20.546C76.047 21.0033 75.8323 21.386 75.599 21.694C75.375 22.002 75.1276 22.254 74.857 22.45C74.5956 22.646 74.3063 22.8 73.989 22.912C73.6716 23.024 73.3263 23.1127 72.953 23.178ZM86.9929 20.126C86.2555 20.126 85.6955 19.9253 85.3129 19.524C84.9395 19.1133 84.7529 18.4973 84.7529 17.676V13.938H83.3809V12.958H84.7529V11.068L86.0269 10.718V12.958H88.0149V13.938H86.0269V17.564C86.0269 18.1053 86.1202 18.4927 86.3069 18.726C86.5029 18.95 86.7829 19.062 87.1469 19.062C87.3335 19.062 87.4922 19.048 87.6229 19.02C87.7629 18.9827 87.8889 18.9407 88.0009 18.894V19.944C87.8609 20 87.6975 20.042 87.5109 20.07C87.3335 20.1073 87.1609 20.126 86.9929 20.126ZM92.2508 20.126C91.5601 20.126 90.9628 19.9813 90.4588 19.692C89.9548 19.3933 89.5628 18.9733 89.2828 18.432C89.0028 17.8813 88.8628 17.228 88.8628 16.472C88.8628 15.7253 89.0028 15.0813 89.2828 14.54C89.5628 13.9893 89.9548 13.5693 90.4588 13.28C90.9628 12.9813 91.5601 12.832 92.2508 12.832C92.9414 12.832 93.5388 12.9813 94.0428 13.28C94.5561 13.5693 94.9481 13.9893 95.2188 14.54C95.4988 15.0813 95.6388 15.7253 95.6388 16.472C95.6388 17.228 95.4988 17.8813 95.2188 18.432C94.9481 18.9733 94.5561 19.3933 94.0428 19.692C93.5388 19.9813 92.9414 20.126 92.2508 20.126ZM92.2508 19.118C92.8854 19.118 93.3941 18.894 93.7768 18.446C94.1594 17.998 94.3508 17.34 94.3508 16.472C94.3508 15.604 94.1594 14.9507 93.7768 14.512C93.3941 14.0733 92.8854 13.854 92.2508 13.854C91.6068 13.854 91.0934 14.0733 90.7108 14.512C90.3374 14.9507 90.1508 15.604 90.1508 16.472C90.1508 17.34 90.3374 17.998 90.7108 18.446C91.0934 18.894 91.6068 19.118 92.2508 19.118ZM99.8552 20.126C99.0058 20.126 98.3665 19.8973 97.9372 19.44C97.5172 18.9827 97.3072 18.278 97.3072 17.326V12.958H98.5812V17.298C98.5812 17.914 98.7072 18.3667 98.9592 18.656C99.2112 18.9453 99.6032 19.09 100.135 19.09C100.714 19.09 101.18 18.8987 101.535 18.516C101.899 18.124 102.081 17.606 102.081 16.962V12.958H103.355V20H102.123V18.446H102.305C102.109 18.978 101.796 19.3933 101.367 19.692C100.938 19.9813 100.434 20.126 99.8552 20.126ZM105.484 20V14.68C105.484 14.4 105.474 14.1153 105.456 13.826C105.446 13.5273 105.423 13.238 105.386 12.958H106.618L106.772 14.722L106.562 14.736C106.655 14.3067 106.814 13.952 107.038 13.672C107.271 13.3827 107.546 13.1727 107.864 13.042C108.19 12.902 108.526 12.832 108.872 12.832C109.021 12.832 109.147 12.8367 109.25 12.846C109.352 12.8553 109.455 12.8787 109.558 12.916L109.53 14.05C109.39 13.994 109.259 13.9613 109.138 13.952C109.026 13.9333 108.886 13.924 108.718 13.924C108.307 13.924 107.952 14.0173 107.654 14.204C107.364 14.3907 107.14 14.638 106.982 14.946C106.832 15.254 106.758 15.5853 106.758 15.94V20H105.484ZM112.991 20.126C112.422 20.126 111.89 20.0513 111.395 19.902C110.91 19.7527 110.508 19.538 110.191 19.258L110.597 18.376C110.942 18.6373 111.32 18.838 111.731 18.978C112.151 19.1087 112.58 19.174 113.019 19.174C113.551 19.174 113.952 19.076 114.223 18.88C114.503 18.684 114.643 18.4227 114.643 18.096C114.643 17.8347 114.554 17.6247 114.377 17.466C114.2 17.3073 113.92 17.1907 113.537 17.116L112.207 16.85C111.61 16.71 111.157 16.486 110.849 16.178C110.55 15.8607 110.401 15.4547 110.401 14.96C110.401 14.5493 110.513 14.1853 110.737 13.868C110.961 13.5413 111.278 13.2893 111.689 13.112C112.109 12.9253 112.599 12.832 113.159 12.832C113.672 12.832 114.148 12.9067 114.587 13.056C115.035 13.2053 115.404 13.4247 115.693 13.714L115.273 14.568C114.984 14.316 114.657 14.1247 114.293 13.994C113.938 13.854 113.574 13.784 113.201 13.784C112.66 13.784 112.258 13.8913 111.997 14.106C111.736 14.3113 111.605 14.582 111.605 14.918C111.605 15.17 111.684 15.38 111.843 15.548C112.002 15.7067 112.258 15.828 112.613 15.912L113.943 16.178C114.568 16.3087 115.04 16.5233 115.357 16.822C115.674 17.1207 115.833 17.5173 115.833 18.012C115.833 18.4507 115.712 18.8287 115.469 19.146C115.236 19.4633 114.904 19.706 114.475 19.874C114.055 20.042 113.56 20.126 112.991 20.126Z" fill="#FD7D14"/>
</svg>
