<svg width="24" height="24" viewBox="0 0 24 24" fill="none" xmlns="http://www.w3.org/2000/svg">
<path opacity="0.974" fill-rule="evenodd" clip-rule="evenodd" d="M11.5547 1.19538C14.2943 1.15432 16.3177 2.3262 17.625 4.711C18.3728 6.24963 18.4353 7.81211 17.8125 9.3985C17.3963 10.3407 16.8963 11.2314 16.3125 12.0704C15.1482 13.7042 13.8435 15.2276 12.3984 16.6407C12.1172 16.7969 11.8359 16.7969 11.5547 16.6407C9.67275 14.8182 8.05556 12.7948 6.70313 10.5704C5.23209 8.01574 5.41959 5.59385 7.26563 3.30475C8.42152 2.0432 9.8512 1.34008 11.5547 1.19538ZM11.6016 2.74225C13.7737 2.7221 15.344 3.67523 16.3125 5.60163C16.8286 6.72967 16.8286 7.85467 16.3125 8.97663C15.6085 10.3542 14.7648 11.6355 13.7812 12.8204C13.2044 13.5144 12.6029 14.1863 11.9766 14.836C10.7612 13.582 9.65967 12.2382 8.67188 10.8048C8.15222 10.0468 7.73034 9.2343 7.40625 8.36725C7.05534 6.40436 7.6725 4.81844 9.25781 3.60944C9.97289 3.12904 10.7541 2.83998 11.6016 2.74225Z" fill="url(#paint0_linear_1593_6569)"/>
<path opacity="0.989" fill-rule="evenodd" clip-rule="evenodd" d="M11.6016 5.46092C13.2331 5.42843 14.0222 6.22531 13.9688 7.85154C13.6343 9.04671 12.8452 9.58577 11.6016 9.46873C10.4064 9.13423 9.86733 8.34518 9.98438 7.10154C10.1882 6.21809 10.7273 5.6712 11.6016 5.46092Z" fill="url(#paint1_linear_1593_6569)"/>
<path opacity="0.974" fill-rule="evenodd" clip-rule="evenodd" d="M4.24219 11.2266C4.8585 11.1199 5.21789 11.3699 5.32031 11.9766C5.31614 12.2428 5.20674 12.4537 4.99219 12.6094C3.65332 13.3643 2.90332 14.5127 2.74219 16.0547C2.87124 17.1174 3.33999 18.0003 4.14844 18.7031C5.44252 19.7563 6.91125 20.4594 8.55469 20.8125C11.3082 21.4353 14.027 21.3103 16.7109 20.4375C18.0689 19.9896 19.2485 19.263 20.25 18.2578C20.8196 17.6358 21.1399 16.9014 21.2109 16.0547C21.0498 14.5127 20.2998 13.3643 18.9609 12.6094C18.5235 12.1875 18.5235 11.7656 18.9609 11.3438C19.1986 11.2301 19.4486 11.1989 19.7109 11.25C21.9363 12.521 22.9129 14.4351 22.6406 16.9922C22.2515 18.3496 21.4937 19.4512 20.3672 20.2969C18.5564 21.5779 16.5408 22.3435 14.3203 22.5938C11.257 23.0136 8.30391 22.623 5.46094 21.4219C4.28776 20.863 3.26432 20.1052 2.39063 19.1484C0.847375 17.126 0.8005 15.0635 2.25 12.9609C2.80748 12.2547 3.47154 11.6766 4.24219 11.2266Z" fill="url(#paint2_linear_1593_6569)"/>
<path opacity="0.973" fill-rule="evenodd" clip-rule="evenodd" d="M6.53906 13.7578C7.29834 13.7745 7.58738 14.1495 7.40625 14.8828C7.29867 15.0374 7.17366 15.178 7.03125 15.3047C6.71306 15.7191 6.69745 16.1409 6.98438 16.5703C7.66341 17.2655 8.48372 17.7108 9.44531 17.9063C11.1328 18.3125 12.8203 18.3125 14.5078 17.9063C15.4694 17.7108 16.2897 17.2655 16.9688 16.5703C17.2557 16.1409 17.2401 15.7191 16.9219 15.3047C16.4774 14.9871 16.368 14.5808 16.5938 14.0859C16.9328 13.725 17.3156 13.6703 17.7422 13.9219C18.826 14.9209 19.0214 16.0694 18.3281 17.3672C17.7868 18.0644 17.1071 18.5878 16.2891 18.9375C13.5938 19.9547 10.875 20.0172 8.13281 19.125C7.4032 18.8699 6.74695 18.4949 6.16406 18C5.04624 16.871 4.92905 15.6444 5.8125 14.3203C6.01092 14.0661 6.25313 13.8786 6.53906 13.7578Z" fill="url(#paint3_linear_1593_6569)"/>
<defs>
<linearGradient id="paint0_linear_1593_6569" x1="11.9808" y1="1.19434" x2="11.9808" y2="16.7579" gradientUnits="userSpaceOnUse">
<stop stop-color="#FC7F13"/>
<stop offset="1" stop-color="#CF530D"/>
<stop offset="1" stop-color="#CF530D"/>
</linearGradient>
<linearGradient id="paint1_linear_1593_6569" x1="11.97" y1="5.45996" x2="11.97" y2="9.48439" gradientUnits="userSpaceOnUse">
<stop stop-color="#FC7F13"/>
<stop offset="1" stop-color="#CF530D"/>
<stop offset="1" stop-color="#CF530D"/>
</linearGradient>
<linearGradient id="paint2_linear_1593_6569" x1="11.941" y1="11.2026" x2="11.941" y2="22.7569" gradientUnits="userSpaceOnUse">
<stop stop-color="#FC7F13"/>
<stop offset="1" stop-color="#CF530D"/>
<stop offset="1" stop-color="#CF530D"/>
</linearGradient>
<linearGradient id="paint3_linear_1593_6569" x1="11.9806" y1="13.7578" x2="11.9806" y2="19.7504" gradientUnits="userSpaceOnUse">
<stop stop-color="#FC7F13"/>
<stop offset="1" stop-color="#CF530D"/>
<stop offset="1" stop-color="#CF530D"/>
</linearGradient>
</defs>
</svg>
