<svg width="342" height="22" viewBox="0 0 342 22" fill="none" xmlns="http://www.w3.org/2000/svg">
<line x1="0.5" y1="10.5" x2="144" y2="10.5" stroke="url(#paint0_linear_802_92615)" stroke-linecap="round"/>
<path d="M161.538 11.058C161.538 10.022 161.72 9.126 162.084 8.37C162.448 7.614 162.971 7.03067 163.652 6.62C164.343 6.20933 165.164 6.004 166.116 6.004C167.059 6.004 167.871 6.20933 168.552 6.62C169.243 7.03067 169.775 7.614 170.148 8.37C170.522 9.126 170.708 10.0173 170.708 11.044C170.708 12.08 170.522 12.9807 170.148 13.746C169.775 14.502 169.243 15.09 168.552 15.51C167.871 15.9207 167.059 16.126 166.116 16.126C165.164 16.126 164.348 15.9207 163.666 15.51C162.985 15.09 162.458 14.502 162.084 13.746C161.72 12.9807 161.538 12.0847 161.538 11.058ZM162.91 11.058C162.91 12.29 163.181 13.2513 163.722 13.942C164.264 14.6327 165.062 14.978 166.116 14.978C167.134 14.978 167.922 14.6373 168.482 13.956C169.052 13.2653 169.336 12.2993 169.336 11.058C169.336 9.81667 169.056 8.85533 168.496 8.174C167.936 7.49267 167.143 7.152 166.116 7.152C165.062 7.152 164.264 7.49267 163.722 8.174C163.181 8.85533 162.91 9.81667 162.91 11.058ZM172.771 16V6.13H176.859C177.914 6.13 178.726 6.37733 179.295 6.872C179.874 7.36667 180.163 8.05733 180.163 8.944C180.163 9.532 180.033 10.0313 179.771 10.442C179.51 10.8527 179.141 11.1653 178.665 11.38C178.199 11.5947 177.653 11.702 177.027 11.702L177.265 11.506H177.601C177.984 11.506 178.325 11.604 178.623 11.8C178.922 11.9867 179.169 12.2947 179.365 12.724L180.765 16H179.323L177.965 12.752C177.807 12.3507 177.573 12.0893 177.265 11.968C176.967 11.8467 176.589 11.786 176.131 11.786H174.073V16H172.771ZM174.073 10.778H176.663C177.382 10.778 177.928 10.624 178.301 10.316C178.684 10.008 178.875 9.56 178.875 8.972C178.875 8.39333 178.684 7.95467 178.301 7.656C177.928 7.348 177.382 7.194 176.663 7.194H174.073V10.778Z" fill="#18181B"/>
<line x1="198" y1="10.5" x2="341.5" y2="10.5" stroke="url(#paint1_linear_802_92615)" stroke-linecap="round"/>
<defs>
<linearGradient id="paint0_linear_802_92615" x1="-0.903126" y1="11" x2="185.141" y2="10.9999" gradientUnits="userSpaceOnUse">
<stop stop-color="#B5B5B5" stop-opacity="0"/>
<stop offset="1" stop-color="#B5B5B5"/>
</linearGradient>
<linearGradient id="paint1_linear_802_92615" x1="196.597" y1="11" x2="382.641" y2="10.9999" gradientUnits="userSpaceOnUse">
<stop stop-color="#B5B5B5"/>
<stop offset="1" stop-color="#B5B5B5" stop-opacity="0"/>
</linearGradient>
</defs>
</svg>
