<svg width="17" height="16" viewBox="0 0 17 16" fill="none" xmlns="http://www.w3.org/2000/svg">
<g clip-path="url(#clip0_1593_6503)">
<path d="M8.5 0C4.08867 0 0.5 3.58867 0.5 8C0.5 12.4113 4.08867 16 8.5 16C12.9113 16 16.5 12.4113 16.5 8C16.5 3.58867 12.9113 0 8.5 0ZM8.5 14.6667C4.824 14.6667 1.83333 11.676 1.83333 8C1.83333 4.324 4.824 1.33333 8.5 1.33333C12.176 1.33333 15.1667 4.324 15.1667 8C15.1667 11.676 12.176 14.6667 8.5 14.6667ZM11.1667 9.33333C11.1667 10.436 10.2693 11.3333 9.16667 11.3333V12C9.16667 12.3687 8.86867 12.6667 8.5 12.6667C8.13133 12.6667 7.83333 12.3687 7.83333 12V11.3333H7.65467C6.94333 11.3333 6.27933 10.9507 5.92267 10.334C5.738 10.0147 5.84733 9.60733 6.16533 9.42333C6.48467 9.23733 6.89267 9.348 7.076 9.666C7.19533 9.87267 7.41667 10 7.654 10H9.166C9.534 10 9.83267 9.70133 9.83267 9.33333C9.83267 9.08133 9.652 8.868 9.40333 8.82667L7.376 8.48867C6.48133 8.34 5.83267 7.57333 5.83267 6.66667C5.83267 5.564 6.73 4.66667 7.83267 4.66667V4C7.83267 3.632 8.13067 3.33333 8.49933 3.33333C8.868 3.33333 9.166 3.632 9.166 4V4.66667H9.34467C10.056 4.66667 10.72 5.05 11.0767 5.66667C11.2613 5.98533 11.152 6.39267 10.834 6.57733C10.514 6.762 10.1067 6.65267 9.92333 6.334C9.804 6.128 9.58267 6.00067 9.34533 6.00067H7.83333C7.46533 6.00067 7.16667 6.3 7.16667 6.66733C7.16667 6.91933 7.34733 7.13267 7.596 7.174L9.62333 7.512C10.518 7.66067 11.1667 8.42733 11.1667 9.334V9.33333Z" fill="url(#paint0_linear_1593_6503)"/>
</g>
<defs>
<linearGradient id="paint0_linear_1593_6503" x1="8.5" y1="0" x2="8.5" y2="16" gradientUnits="userSpaceOnUse">
<stop stop-color="#FC7F13"/>
<stop offset="1" stop-color="#CF530D"/>
<stop offset="1" stop-color="#CF530D"/>
</linearGradient>
<clipPath id="clip0_1593_6503">
<rect width="16" height="16" fill="white" transform="translate(0.5)"/>
</clipPath>
</defs>
</svg>
