<svg width="40" height="40" viewBox="0 0 40 40" fill="none" xmlns="http://www.w3.org/2000/svg">
<rect width="40" height="40" rx="6" fill="#FD7D14"/>
<path fill-rule="evenodd" clip-rule="evenodd" d="M28.6665 17.9043H10.8425C10.4285 17.9043 10.0925 17.5683 10.0925 17.1543C10.0925 16.7403 10.4285 16.4043 10.8425 16.4043H28.6665C29.0805 16.4043 29.4165 16.7403 29.4165 17.1543C29.4165 17.5683 29.0805 17.9043 28.6665 17.9043Z" fill="white"/>
<path fill-rule="evenodd" clip-rule="evenodd" d="M24.2012 21.8096C23.7872 21.8096 23.4472 21.4736 23.4472 21.0596C23.4472 20.6456 23.7782 20.3096 24.1922 20.3096H24.2012C24.6152 20.3096 24.9512 20.6456 24.9512 21.0596C24.9512 21.4736 24.6152 21.8096 24.2012 21.8096Z" fill="white"/>
<path fill-rule="evenodd" clip-rule="evenodd" d="M19.7637 21.8096C19.3497 21.8096 19.0097 21.4736 19.0097 21.0596C19.0097 20.6456 19.3407 20.3096 19.7547 20.3096H19.7637C20.1777 20.3096 20.5137 20.6456 20.5137 21.0596C20.5137 21.4736 20.1777 21.8096 19.7637 21.8096Z" fill="white"/>
<path fill-rule="evenodd" clip-rule="evenodd" d="M15.3169 21.8096C14.9029 21.8096 14.5619 21.4736 14.5619 21.0596C14.5619 20.6456 14.8939 20.3096 15.3079 20.3096H15.3169C15.7309 20.3096 16.0669 20.6456 16.0669 21.0596C16.0669 21.4736 15.7309 21.8096 15.3169 21.8096Z" fill="white"/>
<path fill-rule="evenodd" clip-rule="evenodd" d="M24.2012 25.6963C23.7872 25.6963 23.4472 25.3603 23.4472 24.9463C23.4472 24.5323 23.7782 24.1963 24.1922 24.1963H24.2012C24.6152 24.1963 24.9512 24.5323 24.9512 24.9463C24.9512 25.3603 24.6152 25.6963 24.2012 25.6963Z" fill="white"/>
<path fill-rule="evenodd" clip-rule="evenodd" d="M19.7637 25.6963C19.3497 25.6963 19.0097 25.3603 19.0097 24.9463C19.0097 24.5323 19.3407 24.1963 19.7547 24.1963H19.7637C20.1777 24.1963 20.5137 24.5323 20.5137 24.9463C20.5137 25.3603 20.1777 25.6963 19.7637 25.6963Z" fill="white"/>
<path fill-rule="evenodd" clip-rule="evenodd" d="M15.3169 25.6963C14.9029 25.6963 14.5619 25.3603 14.5619 24.9463C14.5619 24.5323 14.8939 24.1963 15.3079 24.1963H15.3169C15.7309 24.1963 16.0669 24.5323 16.0669 24.9463C16.0669 25.3603 15.7309 25.6963 15.3169 25.6963Z" fill="white"/>
<path fill-rule="evenodd" clip-rule="evenodd" d="M23.7935 13.791C23.3795 13.791 23.0435 13.455 23.0435 13.041V9.75C23.0435 9.336 23.3795 9 23.7935 9C24.2075 9 24.5435 9.336 24.5435 9.75V13.041C24.5435 13.455 24.2075 13.791 23.7935 13.791Z" fill="white"/>
<path fill-rule="evenodd" clip-rule="evenodd" d="M15.7153 13.791C15.3013 13.791 14.9653 13.455 14.9653 13.041V9.75C14.9653 9.336 15.3013 9 15.7153 9C16.1293 9 16.4653 9.336 16.4653 9.75V13.041C16.4653 13.455 16.1293 13.791 15.7153 13.791Z" fill="white"/>
<mask id="mask0_805_56157" style="mask-type:luminance" maskUnits="userSpaceOnUse" x="10" y="10" width="20" height="21">
<path fill-rule="evenodd" clip-rule="evenodd" d="M10 10.5791H29.5V30.5H10V10.5791Z" fill="white"/>
</mask>
<g mask="url(#mask0_805_56157)">
<path fill-rule="evenodd" clip-rule="evenodd" d="M15.521 12.0791C12.928 12.0791 11.5 13.4621 11.5 15.9731V25.0221C11.5 27.5881 12.928 29.0001 15.521 29.0001H23.979C26.572 29.0001 28 27.6141 28 25.0981V15.9731C28.004 14.7381 27.672 13.7781 27.013 13.1181C26.335 12.4381 25.29 12.0791 23.988 12.0791H15.521ZM23.979 30.5001H15.521C12.116 30.5001 10 28.4011 10 25.0221V15.9731C10 12.6451 12.116 10.5791 15.521 10.5791H23.988C25.697 10.5791 27.11 11.0911 28.075 12.0581C29.012 12.9991 29.505 14.3521 29.5 15.9751V25.0981C29.5 28.4301 27.384 30.5001 23.979 30.5001Z" fill="white"/>
</g>
</svg>
