<svg width="69" height="43" viewBox="0 0 69 43" fill="none" xmlns="http://www.w3.org/2000/svg">
<path d="M18.6964 37.9485C16.5734 37.9043 15.5119 36.8435 15.5119 34.7661V12.1385C33.0553 5.40111 64.5201 0.403285 69 0.00547993C69 0.00547993 48.4892 -0.477574 19.4357 7.62691C18.0385 8.01525 16.7328 8.40043 15.5153 8.77613V3.76569H9.46181V10.8725C2.32645 13.6761 0 16.1671 0 18.6455C0 21.4901 3.33029 23.3592 5.05647 23.5896C4.25951 22.2699 3.66942 19.4474 5.243 17.8278C6.22648 16.8175 7.6678 15.823 9.46181 14.8537V35.0313C9.46181 37.617 10.2418 39.5934 11.795 40.9541C13.3483 42.318 15.6001 43 18.5472 43C20.1784 43 21.657 42.6716 22.7864 42.3086C24.1463 41.876 25.0009 41.4025 25.0009 41.4025L22.7016 37.2855C21.6163 37.6265 20.2259 37.9296 18.6964 37.9485Z" fill="url(#paint0_linear_1143_4447)"/>
<defs>
<linearGradient id="paint0_linear_1143_4447" x1="34.5" y1="0" x2="34.5" y2="43" gradientUnits="userSpaceOnUse">
<stop stop-color="#FC7F13"/>
<stop offset="1" stop-color="#CF530D"/>
<stop offset="1" stop-color="#CF530D"/>
</linearGradient>
</defs>
</svg>
