<svg width="48" height="48" viewBox="0 0 48 48" fill="none" xmlns="http://www.w3.org/2000/svg">
<rect width="48" height="48" rx="24" fill="#FD7D14" fill-opacity="0.15"/>
<path d="M24.1667 33C19.1039 33 15 28.9707 15 24C15 19.0293 19.1039 15 24.1667 15C29.2294 15 33.3333 19.0293 33.3333 24C33.3333 28.9707 29.2294 33 24.1667 33ZM24.1667 31.2C26.1116 31.2 27.9768 30.4414 29.3521 29.0912C30.7274 27.7409 31.5 25.9096 31.5 24C31.5 22.0904 30.7274 20.2591 29.3521 18.9088C27.9768 17.5586 26.1116 16.8 24.1667 16.8C22.2217 16.8 20.3565 17.5586 18.9812 18.9088C17.606 20.2591 16.8333 22.0904 16.8333 24C16.8333 25.9096 17.606 27.7409 18.9812 29.0912C20.3565 30.4414 22.2217 31.2 24.1667 31.2ZM23.25 19.5H25.0833V21.3H23.25V19.5ZM23.25 23.1H25.0833V28.5H23.25V23.1Z" fill="#FD7D14"/>
</svg>
