<svg width="48" height="48" viewBox="0 0 48 48" fill="none" xmlns="http://www.w3.org/2000/svg">
<rect width="48" height="48" rx="24" fill="#FD7D14" fill-opacity="0.15"/>
<path d="M26.2531 15C25.2041 15.0006 24.1697 15.2454 23.2318 15.715C22.2939 16.1845 21.4783 16.866 20.8495 17.7054C20.2207 18.5448 19.7961 19.519 19.6092 20.5509C19.4223 21.5828 19.4784 22.644 19.7729 23.6504L15.2821 28.1392C15.1926 28.2288 15.1216 28.3352 15.0732 28.4523C15.0248 28.5693 14.9999 28.6948 15 28.8214V32.0357C15 32.2915 15.1016 32.5367 15.2825 32.7176C15.4634 32.8984 15.7087 33 15.9646 33H19.1797C19.4355 33 19.6809 32.8984 19.8618 32.7176C20.0427 32.5367 20.1443 32.2915 20.1443 32.0357V31.0714H21.1088C21.3646 31.0714 21.61 30.9698 21.7909 30.789C21.9718 30.6082 22.0734 30.3629 22.0734 30.1071V29.1429H23.0379C23.1646 29.143 23.2901 29.1181 23.4072 29.0697C23.5243 29.0213 23.6307 28.9503 23.7203 28.8608L24.3521 28.2284C25.2806 28.5 26.2566 28.5689 27.214 28.4306C28.1715 28.2922 29.088 27.9498 29.9015 27.4265C30.715 26.9032 31.4066 26.2113 31.9293 25.3975C32.4521 24.5837 32.7938 23.6672 32.9314 22.7099C33.069 21.7526 32.9991 20.7769 32.7267 19.8489C32.4542 18.921 31.9855 18.0624 31.3522 17.3313C30.719 16.6002 29.9359 16.0137 29.0562 15.6114C28.1764 15.2092 27.2205 15.0007 26.2531 15ZM26.2531 26.5714C25.6449 26.5727 25.042 26.4582 24.4767 26.2339C24.2994 26.1579 24.1034 26.1368 23.914 26.1734C23.7245 26.2099 23.5504 26.3024 23.4141 26.4388L22.636 27.2143H21.1088C20.853 27.2143 20.6077 27.3159 20.4268 27.4967C20.2459 27.6776 20.1443 27.9228 20.1443 28.1786V29.1429H19.1797C18.9239 29.1429 18.6786 29.2445 18.4977 29.4253C18.3168 29.6061 18.2152 29.8514 18.2152 30.1071V31.0714H16.9291V29.2232L21.563 24.5906C21.6993 24.4544 21.7917 24.2805 21.8282 24.0913C21.8648 23.9021 21.8438 23.7063 21.7679 23.5291C21.3873 22.5707 21.3241 21.5155 21.5876 20.5185C21.851 19.5215 22.4273 18.6352 23.2318 17.9898C24.0362 17.3443 25.0265 16.9738 26.0571 16.9324C27.0878 16.8911 28.1046 17.1813 28.9581 17.7602C29.8117 18.3392 30.4571 19.1765 30.7995 20.1493C31.142 21.122 31.1635 22.1788 30.8608 23.1646C30.5582 24.1505 29.9474 25.0133 29.118 25.6265C28.2887 26.2396 27.2846 26.5708 26.2531 26.5714ZM29.1467 20.1429C29.1467 20.3971 29.0713 20.6457 28.93 20.8572C28.7887 21.0686 28.5878 21.2334 28.3528 21.3307C28.1178 21.428 27.8593 21.4535 27.6098 21.4039C27.3603 21.3543 27.1312 21.2318 26.9513 21.052C26.7714 20.8722 26.6489 20.6431 26.5993 20.3937C26.5497 20.1443 26.5752 19.8858 26.6725 19.6508C26.7698 19.4159 26.9347 19.2151 27.1462 19.0738C27.3577 18.9325 27.6063 18.8571 27.8607 18.8571C28.2018 18.8571 28.5289 18.9926 28.7701 19.2337C29.0113 19.4748 29.1467 19.8019 29.1467 20.1429Z" fill="#FD7D14"/>
</svg>
