<svg width="48" height="48" viewBox="0 0 48 48" fill="none" xmlns="http://www.w3.org/2000/svg">
<rect width="48" height="48" rx="24" fill="#FD7D14" fill-opacity="0.15"/>
<path d="M24 33C19.0293 33 15 28.9707 15 24C15 19.0293 19.0293 15 24 15C28.9707 15 33 19.0293 33 24C33 28.9707 28.9707 33 24 33ZM24 31.2C25.9096 31.2 27.7409 30.4414 29.0912 29.0912C30.4414 27.7409 31.2 25.9096 31.2 24C31.2 22.0904 30.4414 20.2591 29.0912 18.9088C27.7409 17.5586 25.9096 16.8 24 16.8C22.0904 16.8 20.2591 17.5586 18.9088 18.9088C17.5586 20.2591 16.8 22.0904 16.8 24C16.8 25.9096 17.5586 27.7409 18.9088 29.0912C20.2591 30.4414 22.0904 31.2 24 31.2ZM20.85 25.8H25.8C25.9193 25.8 26.0338 25.7526 26.1182 25.6682C26.2026 25.5838 26.25 25.4693 26.25 25.35C26.25 25.2307 26.2026 25.1162 26.1182 25.0318C26.0338 24.9474 25.9193 24.9 25.8 24.9H22.2C21.6033 24.9 21.031 24.6629 20.609 24.241C20.1871 23.819 19.95 23.2467 19.95 22.65C19.95 22.0533 20.1871 21.481 20.609 21.059C21.031 20.6371 21.6033 20.4 22.2 20.4H23.1V18.6H24.9V20.4H27.15V22.2H22.2C22.0807 22.2 21.9662 22.2474 21.8818 22.3318C21.7974 22.4162 21.75 22.5307 21.75 22.65C21.75 22.7693 21.7974 22.8838 21.8818 22.9682C21.9662 23.0526 22.0807 23.1 22.2 23.1H25.8C26.3967 23.1 26.969 23.3371 27.391 23.759C27.8129 24.181 28.05 24.7533 28.05 25.35C28.05 25.9467 27.8129 26.519 27.391 26.941C26.969 27.3629 26.3967 27.6 25.8 27.6H24.9V29.4H23.1V27.6H20.85V25.8Z" fill="#FD7D14"/>
</svg>
