<svg width="48" height="48" viewBox="0 0 48 48" fill="none" xmlns="http://www.w3.org/2000/svg">
<rect width="48" height="48" rx="24" fill="#FD7D14" fill-opacity="0.15"/>
<path d="M17.6406 16.494L24.3636 15L31.0866 16.494C31.2683 16.5344 31.4308 16.6355 31.5473 16.7807C31.6637 16.9259 31.7272 17.1064 31.7273 17.2925V25.4637C31.7272 26.2719 31.5276 27.0675 31.1463 27.78C30.7649 28.4925 30.2135 29.0998 29.5411 29.5481L24.3636 33L19.1862 29.5481C18.5139 29.0999 17.9626 28.4927 17.5812 27.7804C17.1998 27.068 17.0002 26.2726 17 25.4645V17.2925C17 17.1064 17.0635 16.9259 17.18 16.7807C17.2965 16.6355 17.4589 16.5344 17.6406 16.494ZM18.6364 17.9487V25.4637C18.6364 26.0025 18.7694 26.5329 19.0236 27.0079C19.2778 27.4829 19.6453 27.8878 20.0935 28.1866L24.3636 31.0339L28.6337 28.1866C29.0819 27.8878 29.4493 27.4831 29.7035 27.0082C29.9577 26.5334 30.0908 26.0031 30.0909 25.4645V17.9487L24.3636 16.6773L18.6364 17.9487ZM25.1818 22.3636H27.6364L23.5455 28.0909V24H21.0909L25.1818 18.2727V22.3636Z" fill="#FD7D14"/>
</svg>
