<svg width="48" height="48" viewBox="0 0 48 48" fill="none" xmlns="http://www.w3.org/2000/svg">
<rect width="48" height="48" rx="24" fill="#FD7D14" fill-opacity="0.15"/>
<path d="M31.5 25.9028V24.75C31.5 23.0955 30.1545 21.75 28.5 21.75C26.8455 21.75 25.5 23.0955 25.5 24.75V25.9028C24.6038 26.4225 24 27.3923 24 28.5V30C24 31.6545 25.3455 33 27 33H30C31.6545 33 33 31.6545 33 30V28.5C33 27.3923 32.3962 26.4225 31.5 25.9028ZM27 24.75C27 23.9227 27.6727 23.25 28.5 23.25C29.3273 23.25 30 23.9227 30 24.75V25.5H27V24.75ZM31.5 30C31.5 30.8273 30.8273 31.5 30 31.5H27C26.1727 31.5 25.5 30.8273 25.5 30V28.5C25.5 27.6727 26.1727 27 27 27H30C30.8273 27 31.5 27.6727 31.5 28.5V30ZM29.625 29.25C29.625 29.871 29.121 30.375 28.5 30.375C27.879 30.375 27.375 29.871 27.375 29.25C27.375 28.629 27.879 28.125 28.5 28.125C29.121 28.125 29.625 28.629 29.625 29.25ZM21 24C23.4818 24 25.5 21.9818 25.5 19.5C25.5 17.0182 23.4818 15 21 15C18.5182 15 16.5 17.0182 16.5 19.5C16.5 21.9818 18.5182 24 21 24ZM21 16.5C22.6545 16.5 24 17.8455 24 19.5C24 21.1545 22.6545 22.5 21 22.5C19.3455 22.5 18 21.1545 18 19.5C18 17.8455 19.3455 16.5 21 16.5ZM22.4925 26.4083C22.434 26.8185 22.0553 27.105 21.6442 27.0458C21.4313 27.015 21.2137 27 21 27C18.5182 27 16.5 29.0182 16.5 31.5V32.25C16.5 32.664 16.164 33 15.75 33C15.336 33 15 32.664 15 32.25V31.5C15 28.1918 17.6918 25.5 21 25.5C21.2842 25.5 21.5722 25.5203 21.8558 25.5608C22.266 25.6193 22.551 25.9987 22.4932 26.409L22.4925 26.4083Z" fill="#FD7D14"/>
</svg>
