<svg width="48" height="48" viewBox="0 0 48 48" fill="none" xmlns="http://www.w3.org/2000/svg">
<rect width="48" height="48" rx="24" fill="#FD7D14" fill-opacity="0.15"/>
<path d="M22.2222 16V17.7778H17.7778V30.2222H30.2222V25.7778H32V31.1111C32 31.3469 31.9064 31.573 31.7397 31.7397C31.573 31.9064 31.3469 32 31.1111 32H16.8889C16.6531 32 16.427 31.9064 16.2603 31.7397C16.0937 31.573 16 31.3469 16 31.1111V16.8889C16 16.6531 16.0937 16.427 16.2603 16.2603C16.427 16.0937 16.6531 16 16.8889 16H22.2222ZM29.0729 20.184L24 25.2569L22.7431 24L27.816 18.9271L24.8889 16H32V23.1111L29.0729 20.184Z" fill="#FD7D14"/>
</svg>
