<svg width="48" height="48" viewBox="0 0 48 48" fill="none" xmlns="http://www.w3.org/2000/svg">
<rect width="48" height="48" rx="24" fill="#FD7D14" fill-opacity="0.15"/>
<path d="M30.2981 28.1312C29.244 28.1312 28.2944 28.5864 27.6352 29.3105L21.7067 25.6387C21.865 25.2335 21.9528 24.7934 21.9528 24.333C21.9528 23.8724 21.865 23.4323 21.7067 23.0273L27.6352 19.3553C28.2944 20.0794 29.244 20.5348 30.2981 20.5348C32.2837 20.5348 33.8991 18.9194 33.8991 16.9338C33.8991 14.9482 32.2837 13.333 30.2981 13.333C28.3125 13.333 26.6971 14.9484 26.6971 16.934C26.6971 17.3944 26.7851 17.8345 26.9432 18.2397L21.0148 21.9115C20.3557 21.1874 19.406 20.732 18.352 20.732C16.3663 20.732 14.751 22.3475 14.751 24.333C14.751 26.3186 16.3663 27.934 18.352 27.934C19.406 27.934 20.3557 27.4788 21.0148 26.7545L26.9432 30.4263C26.7851 30.8315 26.6971 31.2716 26.6971 31.7322C26.6971 33.7177 28.3125 35.333 30.2981 35.333C32.2837 35.333 33.8991 33.7177 33.8991 31.7322C33.8991 29.7466 32.2837 28.1312 30.2981 28.1312ZM28.0102 16.934C28.0102 15.6725 29.0366 14.6461 30.2981 14.6461C31.5596 14.6461 32.586 15.6725 32.586 16.934C32.586 18.1955 31.5596 19.2219 30.2981 19.2219C29.0366 19.2219 28.0102 18.1955 28.0102 16.934ZM18.352 26.6209C17.0903 26.6209 16.0639 25.5945 16.0639 24.333C16.0639 23.0715 17.0903 22.0451 18.352 22.0451C19.6135 22.0451 20.6397 23.0715 20.6397 24.333C20.6397 25.5945 19.6135 26.6209 18.352 26.6209ZM28.0102 31.732C28.0102 30.4705 29.0366 29.4441 30.2981 29.4441C31.5596 29.4441 32.586 30.4705 32.586 31.732C32.586 32.9936 31.5596 34.0199 30.2981 34.0199C29.0366 34.0199 28.0102 32.9936 28.0102 31.732Z" fill="#FD7D14"/>
</svg>
