<svg width="48" height="48" viewBox="0 0 48 48" fill="none" xmlns="http://www.w3.org/2000/svg">
<rect width="48" height="48" rx="24" fill="#FD7D14" fill-opacity="0.15"/>
<path opacity="0.973" fill-rule="evenodd" clip-rule="evenodd" d="M22.1016 15C23.1094 15 24.1172 15 25.125 15C26.2536 15.0626 27.3786 15.1973 28.5 15.4043C29.9013 15.8327 30.9267 16.7058 31.5762 18.0234C31.698 18.2951 31.7917 18.5763 31.8574 18.8672C32.122 20.4379 32.2567 22.0199 32.2617 23.6133C32.2453 24.5116 32.1985 25.4081 32.1211 26.3027C32.3569 26.651 32.562 27.0202 32.7363 27.4102C32.8526 27.7235 32.9405 28.0399 33 28.3594C33 28.7226 33 29.0859 33 29.4492C32.6133 31.4297 31.4297 32.6133 29.4492 33C29.0977 33 28.7461 33 28.3945 33C27.894 32.9172 27.4135 32.759 26.9531 32.5254C26.743 32.3766 26.5262 32.2418 26.3027 32.1211C23.8138 32.3432 21.3353 32.2553 18.8672 31.8574C17.3279 31.4316 16.2322 30.4882 15.5801 29.0273C15.4425 28.6878 15.3487 28.3362 15.2988 27.9727C15.1616 27.022 15.062 26.0728 15 25.125C15 24.1172 15 23.1094 15 22.1016C15.0605 20.9239 15.207 19.752 15.4395 18.5859C16.1862 16.5854 17.6218 15.4663 19.7461 15.2285C20.5347 15.1318 21.3198 15.0557 22.1016 15ZM23.5078 16.3359C25.0783 16.3355 26.6369 16.4703 28.1836 16.7402C29.3825 17.1539 30.1618 17.9684 30.5215 19.1836C30.8547 21.2125 30.9484 23.2516 30.8027 25.3008C29.8683 24.8238 28.8898 24.7125 27.8672 24.9668C26.15 25.5004 25.148 26.6547 24.8613 28.4297C24.7724 29.2663 24.9071 30.0632 25.2656 30.8203C23.2883 30.9399 21.3195 30.852 19.3594 30.5566C18.0593 30.2376 17.1863 29.4465 16.7402 28.1836C16.5485 27.1492 16.4313 26.1062 16.3887 25.0547C16.282 23.0369 16.3991 21.033 16.7402 19.043C17.1156 17.9411 17.848 17.1852 18.9375 16.7754C19.5282 16.6391 20.1259 16.5453 20.7305 16.4941C21.66 16.4074 22.5857 16.3547 23.5078 16.3359ZM28.5352 26.2148C29.8761 26.1222 30.8428 26.673 31.4355 27.8672C31.8784 29.1606 31.5796 30.2446 30.5391 31.1191C29.351 31.8688 28.2026 31.8102 27.0938 30.9434C26.1591 29.9823 25.9658 28.8865 26.5137 27.6562C26.9685 26.8673 27.6423 26.3868 28.5352 26.2148Z" fill="#FD7D14"/>
<path opacity="0.97" fill-rule="evenodd" clip-rule="evenodd" d="M19.1836 19.4651C22.125 19.4592 25.0664 19.4651 28.0078 19.4827C28.3793 19.5495 28.5785 19.7722 28.6055 20.1506C28.5888 20.4835 28.4247 20.7062 28.1133 20.8186C25.1133 20.8421 22.1133 20.8421 19.1133 20.8186C18.8009 20.7158 18.6368 20.499 18.6211 20.1682C18.6422 19.796 18.8297 19.5616 19.1836 19.4651Z" fill="#FD7D14"/>
<path opacity="0.968" fill-rule="evenodd" clip-rule="evenodd" d="M19.1131 23.6487C20.9413 23.6428 22.7694 23.6487 24.5975 23.6663C24.9971 23.8148 25.1553 24.1019 25.0721 24.5276C24.9779 24.7858 24.7963 24.944 24.5272 25.0022C22.7459 25.0257 20.9647 25.0257 19.1834 25.0022C18.7045 24.8472 18.5345 24.5249 18.6736 24.0354C18.7688 23.8448 18.9153 23.7159 19.1131 23.6487Z" fill="#FD7D14"/>
<path opacity="0.959" fill-rule="evenodd" clip-rule="evenodd" d="M28.8865 26.7773C29.286 26.8077 29.5263 27.0187 29.6072 27.4102C29.6307 27.8203 29.6307 28.2305 29.6072 28.6406C29.4919 29.1702 29.1697 29.3636 28.6405 29.2207C28.4566 29.1422 28.3335 29.0075 28.2713 28.8164C28.2654 28.5586 28.2596 28.3008 28.2537 28.043C28.2495 27.7474 28.2671 27.4545 28.3065 27.1641C28.4365 26.9326 28.6299 26.8036 28.8865 26.7773Z" fill="#FD7D14"/>
<path opacity="0.945" fill-rule="evenodd" clip-rule="evenodd" d="M28.6407 29.6604C28.8402 29.6545 29.0395 29.6604 29.2384 29.678C29.4881 29.7168 29.6111 29.8633 29.6075 30.1174C29.6422 30.37 29.6188 30.6161 29.5372 30.8557C29.4962 30.8967 29.4552 30.9377 29.4141 30.9787C29.0868 31.0952 28.7587 31.0952 28.4298 30.9787C28.3887 30.9377 28.3477 30.8967 28.3067 30.8557C28.2081 30.5552 28.1963 30.2505 28.2716 29.9416C28.3365 29.7662 28.4595 29.6724 28.6407 29.6604Z" fill="#FD7D14"/>
</svg>
